%TF.GenerationSoftware,KiCad,Pcbnew,9.0.7*%
%TF.CreationDate,2026-03-17T14:21:44+01:00*%
%TF.ProjectId,xiaomi-airpurifier-custom-board,7869616f-6d69-42d6-9169-727075726966,rev?*%
%TF.SameCoordinates,Original*%
%TF.FileFunction,Profile,NP*%
%FSLAX46Y46*%
G04 Gerber Fmt 4.6, Leading zero omitted, Abs format (unit mm)*
G04 Created by KiCad (PCBNEW 9.0.7) date 2026-03-17 14:21:44*
%MOMM*%
%LPD*%
G01*
G04 APERTURE LIST*
%TA.AperFunction,Profile*%
%ADD10C,0.200000*%
%TD*%
G04 APERTURE END LIST*
D10*
X35700000Y-56499999D02*
X35700000Y-49399998D01*
X17500001Y-61499999D02*
G75*
G02*
X12500001Y-56500000I-1J4999999D01*
G01*
X142500000Y-17499999D02*
X142500000Y-56499999D01*
X36699999Y-48399999D02*
X118300000Y-48399999D01*
X131200000Y-56624999D02*
G75*
G02*
X128570000Y-56624999I-1315000J0D01*
G01*
X128570000Y-56624999D02*
G75*
G02*
X131200000Y-56624999I1315000J0D01*
G01*
X35700000Y-49399998D02*
G75*
G02*
X36699999Y-48400000I1000000J-2D01*
G01*
X118300000Y-48399999D02*
G75*
G02*
X119300001Y-49399999I0J-1000001D01*
G01*
X140490000Y-56624999D02*
G75*
G02*
X135820000Y-56624999I-2335000J0D01*
G01*
X135820000Y-56624999D02*
G75*
G02*
X140490000Y-56624999I2335000J0D01*
G01*
X124300000Y-61499999D02*
G75*
G02*
X119300001Y-56499999I0J4999999D01*
G01*
X35700000Y-56499999D02*
G75*
G02*
X30700001Y-61500000I-5000000J-1D01*
G01*
X17500001Y-61499999D02*
X30700001Y-61499999D01*
X140490000Y-17554999D02*
G75*
G02*
X135820000Y-17554999I-2335000J0D01*
G01*
X135820000Y-17554999D02*
G75*
G02*
X140490000Y-17554999I2335000J0D01*
G01*
X20170000Y-17554999D02*
G75*
G02*
X15500000Y-17554999I-2335000J0D01*
G01*
X15500000Y-17554999D02*
G75*
G02*
X20170000Y-17554999I2335000J0D01*
G01*
X137500000Y-12499999D02*
G75*
G02*
X142500001Y-17499999I0J-5000001D01*
G01*
X25310000Y-56624999D02*
G75*
G02*
X22680000Y-56624999I-1315000J0D01*
G01*
X22680000Y-56624999D02*
G75*
G02*
X25310000Y-56624999I1315000J0D01*
G01*
X12500000Y-17500000D02*
X12500000Y-56500000D01*
X12500000Y-17500000D02*
G75*
G02*
X17499999Y-12500000I5000000J0D01*
G01*
X119300000Y-49399999D02*
X119300000Y-56499999D01*
X142500000Y-56499999D02*
G75*
G02*
X137500000Y-61500000I-5000000J-1D01*
G01*
X20170000Y-56624999D02*
G75*
G02*
X15500000Y-56624999I-2335000J0D01*
G01*
X15500000Y-56624999D02*
G75*
G02*
X20170000Y-56624999I2335000J0D01*
G01*
X137500000Y-12499999D02*
X17499999Y-12499999D01*
X124300000Y-61499999D02*
X137500000Y-61499999D01*
X61240000Y-29894999D02*
G75*
G02*
X56570000Y-29894999I-2335000J0D01*
G01*
X56570000Y-29894999D02*
G75*
G02*
X61240000Y-29894999I2335000J0D01*
G01*
M02*
