M48
; DRILL file {KiCad 9.0.7} date 2026-03-17T14:21:41+0100
; FORMAT={-:-/ absolute / metric / decimal}
; #@! TF.CreationDate,2026-03-17T14:21:41+01:00
; #@! TF.GenerationSoftware,Kicad,Pcbnew,9.0.7
; #@! TF.FileFunction,Plated,1,2,PTH
FMAT,2
METRIC
; #@! TA.AperFunction,Plated,PTH,ViaDrill
T1C0.300
; #@! TA.AperFunction,Plated,PTH,ComponentDrill
T2C0.300
; #@! TA.AperFunction,Plated,PTH,ViaDrill
T3C0.500
; #@! TA.AperFunction,Plated,PTH,ComponentDrill
T4C0.600
; #@! TA.AperFunction,Plated,PTH,ComponentDrill
T5C0.600
; #@! TA.AperFunction,Plated,PTH,ComponentDrill
T6C0.750
; #@! TA.AperFunction,Plated,PTH,ComponentDrill
T7C1.000
; #@! TA.AperFunction,Plated,PTH,ComponentDrill
T8C1.700
%
G90
G05
T1
X14.0Y-52.5
X16.0Y-45.0
X16.5Y-26.5
X22.5Y-27.0
X23.0Y-18.0
X24.0Y-49.0
X25.0Y-60.0
X26.0Y-38.5
X28.5Y-21.0
X29.0Y-41.5
X32.5Y-26.5
X33.5Y-19.0
X36.5Y-38.5
X41.0Y-25.5
X43.5Y-20.0
X43.5Y-24.0
X47.0Y-29.724
X48.597Y-36.0
X49.0Y-40.5
X51.5Y-35.4
X51.5Y-39.0
X51.5Y-43.0
X53.4Y-43.5
X53.5Y-31.0
X54.0Y-34.5
X54.0Y-37.5
X55.0Y-16.0
X55.5Y-27.5
X56.0Y-34.5
X56.0Y-37.5
X58.0Y-36.0
X58.0Y-38.0
X58.0Y-41.5
X60.5Y-18.5
X61.5Y-43.5
X67.0Y-43.0
X68.0Y-29.0
X68.5Y-41.5
X70.0Y-15.5
X72.5Y-33.0
X73.5Y-45.0
X74.0Y-17.0
X74.0Y-31.0
X75.5Y-15.0
X76.0Y-33.0
X81.0Y-29.0
X81.5Y-21.5
X82.0Y-38.0
X87.5Y-45.0
X88.5Y-25.0
X88.5Y-36.5
X89.0Y-21.0
X89.5Y-29.0
X91.0Y-29.0
X91.5Y-23.0
X95.5Y-32.5
X96.5Y-23.5
X97.5Y-14.5
X99.5Y-45.952
X101.0Y-14.5
X102.0Y-41.0
X108.0Y-32.0
X116.0Y-25.5
X117.0Y-40.0
X120.5Y-24.5
X122.0Y-37.0
X123.0Y-36.5
X123.0Y-40.5
X123.1Y-39.0
X124.0Y-21.5
X124.0Y-34.0
X124.0Y-44.0
X124.5Y-55.0
X124.5Y-59.5
X125.0Y-16.0
X125.0Y-33.0
X125.0Y-35.0
X125.5Y-44.0
X125.606Y-49.606
X127.4Y-35.5
X127.4Y-36.5
X127.4Y-38.5
X128.0Y-41.0
X128.8Y-41.0
X130.0Y-31.5
X130.0Y-43.5
X130.5Y-44.5
X131.0Y-26.5
X132.0Y-32.5
X132.5Y-52.0
X132.84Y-43.501
X133.5Y-57.0
X134.0Y-14.5
X134.5Y-32.5
X137.5Y-21.0
X139.5Y-50.5
T2
X72.784Y-19.41
X72.784Y-20.51
X72.784Y-21.81
X72.784Y-23.01
X72.85Y-34.899
X72.85Y-35.999
X72.85Y-37.299
X72.85Y-38.499
X73.984Y-19.41
X73.984Y-20.51
X73.984Y-21.81
X73.984Y-23.01
X74.05Y-34.899
X74.05Y-35.999
X74.05Y-37.299
X74.05Y-38.499
T3
X34.5Y-33.5
X64.0Y-36.0
X65.0Y-24.0
T5
X121.25Y-52.5
X128.75Y-52.5
T6
X19.45Y-39.0
X19.45Y-41.0
X19.45Y-43.0
X19.45Y-45.0
X19.45Y-47.0
X19.45Y-49.0
X27.0Y-45.55
X27.5Y-14.95
X29.0Y-45.55
X29.5Y-14.95
X31.0Y-45.55
X33.0Y-45.55
X35.0Y-45.55
X35.5Y-14.95
X37.5Y-14.95
X39.5Y-14.95
X40.5Y-45.55
X41.5Y-14.95
X42.5Y-45.55
X44.5Y-45.55
X46.5Y-45.55
X47.5Y-14.95
X49.5Y-14.95
X52.0Y-45.55
X54.0Y-45.55
X56.0Y-45.55
X58.0Y-45.55
X60.0Y-45.55
X62.0Y-45.55
X64.0Y-45.55
T7
X108.38Y-16.5
X110.92Y-16.5
X113.46Y-16.5
X116.0Y-16.5
X118.54Y-16.5
X127.65Y-47.0
X130.19Y-47.0
X132.73Y-47.0
X135.27Y-47.0
X137.81Y-47.0
X140.35Y-47.0
T8
X27.775Y-25.02
X27.775Y-28.98
T4
G00X122.725Y-50.35
M15
G01X122.475Y-50.35
M16
G05
G00X122.725Y-54.65
M15
G01X122.475Y-54.65
M16
G05
G00X127.525Y-50.35
M15
G01X127.275Y-50.35
M16
G05
G00X127.525Y-54.65
M15
G01X127.275Y-54.65
M16
G05
M30
