%TF.GenerationSoftware,KiCad,Pcbnew,9.0.7*%
%TF.CreationDate,2026-03-17T14:19:57+01:00*%
%TF.ProjectId,xiaomi-airpurifier-custom-board,7869616f-6d69-42d6-9169-727075726966,rev?*%
%TF.SameCoordinates,Original*%
%TF.FileFunction,Copper,L2,Bot*%
%TF.FilePolarity,Positive*%
%FSLAX46Y46*%
G04 Gerber Fmt 4.6, Leading zero omitted, Abs format (unit mm)*
G04 Created by KiCad (PCBNEW 9.0.7) date 2026-03-17 14:19:57*
%MOMM*%
%LPD*%
G01*
G04 APERTURE LIST*
G04 Aperture macros list*
%AMRoundRect*
0 Rectangle with rounded corners*
0 $1 Rounding radius*
0 $2 $3 $4 $5 $6 $7 $8 $9 X,Y pos of 4 corners*
0 Add a 4 corners polygon primitive as box body*
4,1,4,$2,$3,$4,$5,$6,$7,$8,$9,$2,$3,0*
0 Add four circle primitives for the rounded corners*
1,1,$1+$1,$2,$3*
1,1,$1+$1,$4,$5*
1,1,$1+$1,$6,$7*
1,1,$1+$1,$8,$9*
0 Add four rect primitives between the rounded corners*
20,1,$1+$1,$2,$3,$4,$5,0*
20,1,$1+$1,$4,$5,$6,$7,0*
20,1,$1+$1,$6,$7,$8,$9,0*
20,1,$1+$1,$8,$9,$2,$3,0*%
G04 Aperture macros list end*
%TA.AperFunction,ComponentPad*%
%ADD10R,1.700000X1.700000*%
%TD*%
%TA.AperFunction,ComponentPad*%
%ADD11C,1.700000*%
%TD*%
%TA.AperFunction,ComponentPad*%
%ADD12O,1.350000X1.100000*%
%TD*%
%TA.AperFunction,ComponentPad*%
%ADD13C,0.600000*%
%TD*%
%TA.AperFunction,ComponentPad*%
%ADD14RoundRect,0.250001X-1.099999X1.099999X-1.099999X-1.099999X1.099999X-1.099999X1.099999X1.099999X0*%
%TD*%
%TA.AperFunction,ComponentPad*%
%ADD15C,2.700000*%
%TD*%
%TA.AperFunction,ComponentPad*%
%ADD16RoundRect,0.250000X0.350000X0.625000X-0.350000X0.625000X-0.350000X-0.625000X0.350000X-0.625000X0*%
%TD*%
%TA.AperFunction,ComponentPad*%
%ADD17O,1.200000X1.750000*%
%TD*%
%TA.AperFunction,SMDPad,CuDef*%
%ADD18R,2.950000X4.500000*%
%TD*%
%TA.AperFunction,ComponentPad*%
%ADD19RoundRect,0.250000X-0.350000X-0.625000X0.350000X-0.625000X0.350000X0.625000X-0.350000X0.625000X0*%
%TD*%
%TA.AperFunction,ComponentPad*%
%ADD20RoundRect,0.250000X-0.625000X0.350000X-0.625000X-0.350000X0.625000X-0.350000X0.625000X0.350000X0*%
%TD*%
%TA.AperFunction,ComponentPad*%
%ADD21O,1.750000X1.200000*%
%TD*%
%TA.AperFunction,ViaPad*%
%ADD22C,0.600000*%
%TD*%
%TA.AperFunction,ViaPad*%
%ADD23C,0.800000*%
%TD*%
%TA.AperFunction,Conductor*%
%ADD24C,0.200000*%
%TD*%
%TA.AperFunction,Conductor*%
%ADD25C,1.000000*%
%TD*%
G04 APERTURE END LIST*
D10*
%TO.P,J11,1,Pin_1*%
%TO.N,/ESP_EN*%
X140350000Y-47000000D03*
D11*
%TO.P,J11,2,Pin_2*%
%TO.N,/U0TXD*%
X137810000Y-47000000D03*
%TO.P,J11,3,Pin_3*%
%TO.N,/U0RXD*%
X135270000Y-47000000D03*
%TO.P,J11,4,Pin_4*%
%TO.N,/GPIO9*%
X132730000Y-47000000D03*
%TO.P,J11,5,Pin_5*%
%TO.N,+3.3V*%
X130190000Y-47000000D03*
%TO.P,J11,6,Pin_6*%
%TO.N,GND*%
X127650000Y-47000000D03*
%TD*%
%TO.P,J10,5,Pin_5*%
%TO.N,+5V*%
X118540000Y-16500000D03*
%TO.P,J10,4,Pin_4*%
%TO.N,GND*%
X116000000Y-16500000D03*
%TO.P,J10,3,Pin_3*%
%TO.N,/LD2410_OUT*%
X113460000Y-16500000D03*
%TO.P,J10,2,Pin_2*%
%TO.N,/LD2410_RX*%
X110920000Y-16500000D03*
D10*
%TO.P,J10,1,Pin_1*%
%TO.N,/LD2410_TX*%
X108380000Y-16500000D03*
%TD*%
D12*
%TO.P,U5,0,EH*%
%TO.N,GND*%
X122600000Y-54650000D03*
X127400000Y-54650000D03*
X127400000Y-50350000D03*
X122600000Y-50350000D03*
D13*
%TO.P,U5,*%
%TO.N,*%
X121250000Y-52500000D03*
X128750000Y-52500000D03*
%TD*%
D14*
%TO.P,J1,1,Pin_1*%
%TO.N,GND*%
X27775000Y-25020000D03*
D15*
%TO.P,J1,2,Pin_2*%
%TO.N,Net-(J1-Pin_2)*%
X27775000Y-28980000D03*
%TD*%
D16*
%TO.P,J6,1,Pin_1*%
%TO.N,+3.3V*%
X64000000Y-45550000D03*
D17*
%TO.P,J6,2,Pin_2*%
%TO.N,GND*%
X62000000Y-45550000D03*
%TO.P,J6,3,Pin_3*%
%TO.N,/WIFI_LED*%
X60000000Y-45550000D03*
%TO.P,J6,4,Pin_4*%
%TO.N,/START_BTN*%
X58000000Y-45550000D03*
%TO.P,J6,5,Pin_5*%
%TO.N,/SDA*%
X56000000Y-45550000D03*
%TO.P,J6,6,Pin_6*%
%TO.N,/SCL*%
X54000000Y-45550000D03*
%TO.P,J6,7,Pin_7*%
%TO.N,/ALERT*%
X52000000Y-45550000D03*
%TD*%
D13*
%TO.P,U1,9,GNDPAD*%
%TO.N,GND*%
X73983630Y-23010000D03*
X73983630Y-21810000D03*
X73983630Y-20510000D03*
X73983630Y-19410000D03*
D18*
X73383630Y-21210000D03*
D13*
X72783630Y-23010000D03*
X72783630Y-21810000D03*
X72783630Y-20510000D03*
X72783630Y-19410000D03*
%TD*%
D19*
%TO.P,J4,1,Pin_1*%
%TO.N,GND*%
X27500000Y-14950000D03*
D17*
%TO.P,J4,2,Pin_2*%
%TO.N,/BT_DOOR*%
X29500000Y-14950000D03*
%TD*%
D13*
%TO.P,U2,9,GNDPAD*%
%TO.N,GND*%
X74050000Y-38498511D03*
X74050000Y-37298511D03*
X74050000Y-35998511D03*
X74050000Y-34898511D03*
D18*
X73450000Y-36698511D03*
D13*
X72850000Y-38498511D03*
X72850000Y-37298511D03*
X72850000Y-35998511D03*
X72850000Y-34898511D03*
%TD*%
D20*
%TO.P,J2,1,Pin_1*%
%TO.N,+24V*%
X19450000Y-39000000D03*
D21*
%TO.P,J2,2,Pin_2*%
%TO.N,GND*%
X19450000Y-41000000D03*
%TO.P,J2,3,Pin_3*%
%TO.N,+5V*%
X19450000Y-43000000D03*
%TO.P,J2,4,Pin_4*%
%TO.N,/FAN_PWM*%
X19450000Y-45000000D03*
%TO.P,J2,5,Pin_5*%
%TO.N,/FAN_FG*%
X19450000Y-47000000D03*
%TO.P,J2,6,Pin_6*%
%TO.N,/FAN_BRK*%
X19450000Y-49000000D03*
%TD*%
D16*
%TO.P,J5,1,Pin_1*%
%TO.N,/JET_LED*%
X46500000Y-45550000D03*
D17*
%TO.P,J5,2,Pin_2*%
%TO.N,/SLEEP_LED*%
X44500000Y-45550000D03*
%TO.P,J5,3,Pin_3*%
%TO.N,/AUTO_LED*%
X42500000Y-45550000D03*
%TO.P,J5,4,Pin_4*%
%TO.N,+3.3V*%
X40500000Y-45550000D03*
%TD*%
D19*
%TO.P,J7,1,Pin_1*%
%TO.N,/LED_EXCELLENT*%
X35500000Y-14950000D03*
D17*
%TO.P,J7,2,Pin_2*%
%TO.N,/LED_GOOD*%
X37500000Y-14950000D03*
%TO.P,J7,3,Pin_3*%
%TO.N,/LED_BAD*%
X39500000Y-14950000D03*
%TO.P,J7,4,Pin_4*%
%TO.N,+3.3V*%
X41500000Y-14950000D03*
%TD*%
D19*
%TO.P,J3,1,Pin_1*%
%TO.N,/LED_EN_BTN*%
X47500000Y-14950000D03*
D17*
%TO.P,J3,2,Pin_2*%
%TO.N,GND*%
X49500000Y-14950000D03*
%TD*%
D16*
%TO.P,J8,1,Pin_1*%
%TO.N,GND*%
X35000000Y-45550000D03*
D17*
%TO.P,J8,2,Pin_2*%
%TO.N,unconnected-(J8-Pin_2-Pad2)*%
X33000000Y-45550000D03*
%TO.P,J8,3,Pin_3*%
%TO.N,+5V*%
X31000000Y-45550000D03*
%TO.P,J8,4,Pin_4*%
%TO.N,/PM2_TX*%
X29000000Y-45550000D03*
%TO.P,J8,5,Pin_5*%
%TO.N,unconnected-(J8-Pin_5-Pad5)*%
X27000000Y-45550000D03*
%TD*%
D22*
%TO.N,GND*%
X33500000Y-19000000D03*
X41000000Y-25500000D03*
X123000000Y-40500000D03*
X120500000Y-24500000D03*
X68500000Y-41500000D03*
X73500000Y-45000000D03*
X87500000Y-45000000D03*
X81000000Y-29000000D03*
X89500000Y-29000000D03*
X68000000Y-29000000D03*
X29000000Y-41500000D03*
X26000000Y-38500000D03*
X36500000Y-38500000D03*
X58000000Y-38000000D03*
X51500000Y-39000000D03*
X61500000Y-43500000D03*
X58000000Y-41500000D03*
X25000000Y-60000000D03*
X14000000Y-52500000D03*
X23000000Y-18000000D03*
X22500000Y-27000000D03*
X16500000Y-26500000D03*
X16000000Y-45000000D03*
X32500000Y-26500000D03*
X28500000Y-21000000D03*
X55000000Y-16000000D03*
X60500000Y-18500000D03*
X124500000Y-59500000D03*
X133500000Y-57000000D03*
X139500000Y-50500000D03*
X132500000Y-52000000D03*
X134000000Y-14500000D03*
X125000000Y-16000000D03*
X101000000Y-14500000D03*
X97500000Y-14500000D03*
X91500000Y-23000000D03*
X96500000Y-23500000D03*
X91000000Y-29000000D03*
X88500000Y-25000000D03*
X89000000Y-21000000D03*
X81500000Y-21500000D03*
X70000000Y-15500000D03*
X75500000Y-15000000D03*
X74000000Y-17000000D03*
X74000000Y-31000000D03*
X72500000Y-33000000D03*
X76000000Y-33000000D03*
X82000000Y-38000000D03*
X88500000Y-36500000D03*
X108000000Y-32000000D03*
X102000000Y-41000000D03*
X117000000Y-40000000D03*
X131000000Y-26500000D03*
X125000000Y-33000000D03*
X132000000Y-32500000D03*
X137500000Y-21000000D03*
X124000000Y-21500000D03*
X116000000Y-25500000D03*
X43500000Y-20000000D03*
X53500000Y-31000000D03*
X55500000Y-27500000D03*
%TO.N,/FAN_FG_3.3V*%
X130500000Y-44500000D03*
X125500000Y-44000000D03*
X124000000Y-44000000D03*
%TO.N,/USB-*%
X132840473Y-43501000D03*
X127400000Y-35500000D03*
%TO.N,/USB+*%
X127400000Y-36500000D03*
X130000000Y-43500000D03*
%TO.N,/USB-*%
X125606297Y-49606297D03*
X124500000Y-55000000D03*
%TO.N,/GPIO9*%
X127400000Y-38500000D03*
%TO.N,+3.3V*%
X134500000Y-32500000D03*
%TO.N,/ESP_EN*%
X130000000Y-31500000D03*
%TO.N,/LD2410_TX*%
X123100000Y-39000000D03*
%TO.N,/LD2410_RX*%
X122000000Y-37000000D03*
%TO.N,/LD2410_OUT*%
X123000000Y-36500000D03*
%TO.N,/SDA*%
X54000000Y-34500000D03*
X56000000Y-34500000D03*
X124000000Y-34000000D03*
X67000000Y-43000000D03*
%TO.N,/SCL*%
X125000000Y-35000000D03*
X51500000Y-35400000D03*
%TO.N,/ALERT*%
X51500000Y-43000000D03*
%TO.N,+5V*%
X99500000Y-45952000D03*
%TO.N,/ALERT*%
X128800003Y-41000000D03*
%TO.N,/FAN_FG_3.3V*%
X49000000Y-40500000D03*
%TO.N,+3.3V*%
X54000000Y-37500000D03*
X56000000Y-37500000D03*
X47000000Y-29724000D03*
X43500000Y-24000000D03*
D23*
%TO.N,+24V*%
X65000000Y-24000000D03*
X64000000Y-36000000D03*
X34500000Y-33500000D03*
D22*
%TO.N,/START_BTN*%
X53400000Y-43500000D03*
%TO.N,Net-(U3-P17)*%
X58000000Y-36000000D03*
X48596702Y-36000000D03*
%TO.N,/PM2_TX*%
X128000000Y-41000000D03*
%TO.N,+5V*%
X95500000Y-32500000D03*
X24000000Y-49000000D03*
%TD*%
D24*
%TO.N,/USB-*%
X125606297Y-49606297D02*
X125500000Y-49712594D01*
X125500000Y-49712594D02*
X125500000Y-54000000D01*
X125500000Y-54000000D02*
X124500000Y-55000000D01*
%TO.N,+5V*%
X99500000Y-45952000D02*
X99451000Y-46001000D01*
X99451000Y-46001000D02*
X98000000Y-46001000D01*
X98000000Y-46001000D02*
X97901000Y-46100000D01*
X97901000Y-46100000D02*
X96800000Y-46100000D01*
X96800000Y-46100000D02*
X95400000Y-47500000D01*
X95400000Y-47500000D02*
X32950000Y-47500000D01*
X32950000Y-47500000D02*
X31000000Y-45550000D01*
%TO.N,/LD2410_OUT*%
X113460000Y-16500000D02*
X113460000Y-17960000D01*
X123000000Y-27500000D02*
X123000000Y-36500000D01*
X113460000Y-17960000D02*
X119899000Y-24399000D01*
X119899000Y-24399000D02*
X119899000Y-24748943D01*
X119899000Y-24748943D02*
X120251057Y-25101000D01*
X120251057Y-25101000D02*
X120601000Y-25101000D01*
X120601000Y-25101000D02*
X123000000Y-27500000D01*
%TO.N,+5V*%
X95500000Y-32500000D02*
X101500000Y-26500000D01*
X101500000Y-26500000D02*
X101500000Y-17500000D01*
X117520000Y-14500000D02*
X118540000Y-15520000D01*
X101500000Y-17500000D02*
X104500000Y-14500000D01*
X104500000Y-14500000D02*
X117520000Y-14500000D01*
X118540000Y-15520000D02*
X118540000Y-16500000D01*
%TO.N,/SDA*%
X124000000Y-34000000D02*
X124000000Y-40500000D01*
X124000000Y-40500000D02*
X121401000Y-43099000D01*
X121401000Y-43099000D02*
X95333900Y-43099000D01*
X95333900Y-43099000D02*
X94932900Y-43500000D01*
X94932900Y-43500000D02*
X68500000Y-43500000D01*
X68500000Y-43500000D02*
X68000000Y-43000000D01*
X68000000Y-43000000D02*
X67000000Y-43000000D01*
%TO.N,/PM2_TX*%
X29000000Y-45550000D02*
X30176000Y-44374000D01*
X30176000Y-44374000D02*
X35585160Y-44374000D01*
X35585160Y-44374000D02*
X38000000Y-46788840D01*
X38000000Y-46788840D02*
X38000000Y-47000000D01*
X96000000Y-45000000D02*
X123567100Y-45000000D01*
X124601000Y-44248943D02*
X124601000Y-43966100D01*
X38000000Y-47000000D02*
X94000000Y-47000000D01*
X94000000Y-47000000D02*
X96000000Y-45000000D01*
X124601000Y-43966100D02*
X127567100Y-41000000D01*
X123567100Y-45000000D02*
X123966100Y-44601000D01*
X123966100Y-44601000D02*
X124248943Y-44601000D01*
X124248943Y-44601000D02*
X124601000Y-44248943D01*
X127567100Y-41000000D02*
X128000000Y-41000000D01*
%TO.N,/FAN_FG_3.3V*%
X49000000Y-40500000D02*
X61000000Y-40500000D01*
X61000000Y-40500000D02*
X67000000Y-46500000D01*
X67000000Y-46500000D02*
X93500000Y-46500000D01*
X93500000Y-46500000D02*
X95198000Y-44802000D01*
X95198000Y-44802000D02*
X95332200Y-44802000D01*
X95634200Y-44500000D02*
X123500000Y-44500000D01*
X123500000Y-44500000D02*
X124000000Y-44000000D01*
X95332200Y-44802000D02*
X95634200Y-44500000D01*
%TO.N,/ALERT*%
X93432900Y-46000000D02*
X68000000Y-46000000D01*
X68000000Y-46000000D02*
X61899000Y-39899000D01*
X95031900Y-44401000D02*
X93432900Y-46000000D01*
X127599003Y-39799000D02*
X127201000Y-39799000D01*
X128800003Y-41000000D02*
X128601000Y-40800997D01*
X95166100Y-44401000D02*
X95031900Y-44401000D01*
X48399000Y-40251057D02*
X48399000Y-40748943D01*
X95567100Y-44000000D02*
X95166100Y-44401000D01*
X123000000Y-44000000D02*
X95567100Y-44000000D01*
X128199003Y-40399000D02*
X127599003Y-39799000D01*
X128248943Y-40399000D02*
X128199003Y-40399000D01*
X50650057Y-43000000D02*
X51500000Y-43000000D01*
X127201000Y-39799000D02*
X123000000Y-44000000D01*
X128601000Y-40751057D02*
X128248943Y-40399000D01*
X128601000Y-40800997D02*
X128601000Y-40751057D01*
X61899000Y-39899000D02*
X48751057Y-39899000D01*
X48751057Y-39899000D02*
X48399000Y-40251057D01*
X48399000Y-40748943D02*
X50650057Y-43000000D01*
%TO.N,/SCL*%
X125000000Y-35000000D02*
X125000000Y-41000000D01*
X125000000Y-41000000D02*
X122500000Y-43500000D01*
X122500000Y-43500000D02*
X95500000Y-43500000D01*
X95500000Y-43500000D02*
X95000000Y-44000000D01*
X95000000Y-44000000D02*
X66849943Y-44000000D01*
X58249943Y-35400000D02*
X51500000Y-35400000D01*
X66849943Y-44000000D02*
X58249943Y-35400000D01*
%TO.N,/FAN_FG_3.3V*%
X125500000Y-44000000D02*
X129000000Y-44000000D01*
X129000000Y-44000000D02*
X129500000Y-44500000D01*
X129500000Y-44500000D02*
X130500000Y-44500000D01*
%TO.N,/USB-*%
X132840473Y-40940473D02*
X132840473Y-43501000D01*
X127400000Y-35500000D02*
X132840473Y-40940473D01*
%TO.N,/USB+*%
X126799000Y-37101000D02*
X127400000Y-36500000D01*
X126799000Y-38748943D02*
X126799000Y-37101000D01*
X127151057Y-39101000D02*
X126799000Y-38748943D01*
X127750946Y-39101000D02*
X127151057Y-39101000D01*
X130000000Y-41350054D02*
X127750946Y-39101000D01*
X130000000Y-43500000D02*
X130000000Y-41350054D01*
%TO.N,/GPIO9*%
X132730000Y-47000000D02*
X131579000Y-48151000D01*
X131579000Y-48151000D02*
X129713240Y-48151000D01*
X131500000Y-41647943D02*
X131101000Y-41248943D01*
X129713240Y-48151000D02*
X129039000Y-47476760D01*
X131101000Y-40751057D02*
X128849943Y-38500000D01*
X129039000Y-47476760D02*
X129039000Y-46523240D01*
X129039000Y-46523240D02*
X129713240Y-45849000D01*
X131500000Y-45122900D02*
X131500000Y-41647943D01*
X129713240Y-45849000D02*
X130666760Y-45849000D01*
X130666760Y-45849000D02*
X130720330Y-45902570D01*
X130720330Y-45902570D02*
X131500000Y-45122900D01*
X131101000Y-41248943D02*
X131101000Y-40751057D01*
X128849943Y-38500000D02*
X127400000Y-38500000D01*
%TO.N,+3.3V*%
X134500000Y-42690000D02*
X130190000Y-47000000D01*
X134500000Y-32500000D02*
X134500000Y-42690000D01*
%TO.N,/ESP_EN*%
X135500000Y-31500000D02*
X136000000Y-32000000D01*
X130000000Y-31500000D02*
X135500000Y-31500000D01*
X136000000Y-32000000D02*
X136000000Y-42650000D01*
X136000000Y-42650000D02*
X140350000Y-47000000D01*
%TO.N,/LD2410_TX*%
X108380000Y-24280000D02*
X123100000Y-39000000D01*
X108380000Y-16500000D02*
X108380000Y-24280000D01*
%TO.N,/LD2410_RX*%
X122000000Y-37000000D02*
X122000000Y-27580000D01*
X122000000Y-27580000D02*
X110920000Y-16500000D01*
%TO.N,+3.3V*%
X47000000Y-27500000D02*
X43500000Y-24000000D01*
X47000000Y-29724000D02*
X47000000Y-27500000D01*
%TO.N,/SDA*%
X56000000Y-34500000D02*
X54000000Y-34500000D01*
%TO.N,+3.3V*%
X54500000Y-37500000D02*
X56000000Y-37500000D01*
X54500000Y-37500000D02*
X48550000Y-37500000D01*
X48550000Y-37500000D02*
X40500000Y-45550000D01*
X54000000Y-37500000D02*
X54500000Y-37500000D01*
D25*
%TO.N,+24V*%
X65000000Y-30000000D02*
X65000000Y-24000000D01*
X61500000Y-33500000D02*
X65000000Y-30000000D01*
X61500000Y-33500000D02*
X64000000Y-36000000D01*
X34500000Y-33500000D02*
X61500000Y-33500000D01*
D24*
%TO.N,/START_BTN*%
X53400000Y-43500000D02*
X55950000Y-43500000D01*
X55950000Y-43500000D02*
X58000000Y-45550000D01*
%TO.N,Net-(U3-P17)*%
X58000000Y-36000000D02*
X48596702Y-36000000D01*
%TO.N,+5V*%
X23950000Y-48950000D02*
X24000000Y-49000000D01*
X23950000Y-47500000D02*
X23950000Y-48950000D01*
X19450000Y-43000000D02*
X23950000Y-47500000D01*
X23950000Y-47500000D02*
X29050000Y-47500000D01*
X29050000Y-47500000D02*
X31000000Y-45550000D01*
%TD*%
%TA.AperFunction,Conductor*%
%TO.N,GND*%
G36*
X137502702Y-13000616D02*
G01*
X137886771Y-13017385D01*
X137897506Y-13018325D01*
X138275971Y-13068151D01*
X138286597Y-13070024D01*
X138659284Y-13152647D01*
X138669710Y-13155441D01*
X139033765Y-13270226D01*
X139043911Y-13273919D01*
X139396574Y-13419997D01*
X139406369Y-13424565D01*
X139695352Y-13575000D01*
X139744942Y-13600815D01*
X139754309Y-13606222D01*
X140069340Y-13806919D01*
X140076244Y-13811317D01*
X140085105Y-13817522D01*
X140387930Y-14049888D01*
X140396217Y-14056842D01*
X140677635Y-14314714D01*
X140685284Y-14322363D01*
X140943156Y-14603781D01*
X140950110Y-14612068D01*
X141182482Y-14914901D01*
X141188686Y-14923762D01*
X141236854Y-14999370D01*
X141391701Y-15242431D01*
X141393771Y-15245679D01*
X141399176Y-15255041D01*
X141494106Y-15437398D01*
X141575431Y-15593622D01*
X141580003Y-15603426D01*
X141726076Y-15956077D01*
X141729776Y-15966243D01*
X141844555Y-16330277D01*
X141847355Y-16340726D01*
X141929972Y-16713388D01*
X141931850Y-16724041D01*
X141981672Y-17102472D01*
X141982615Y-17113248D01*
X141998090Y-17467693D01*
X141999382Y-17497273D01*
X141999500Y-17502682D01*
X141999500Y-29576000D01*
X141979815Y-29643039D01*
X141927011Y-29688794D01*
X141875500Y-29700000D01*
X136900000Y-29700000D01*
X136900000Y-42542824D01*
X136893761Y-42564069D01*
X136892182Y-42586158D01*
X136884109Y-42596941D01*
X136880315Y-42609863D01*
X136863581Y-42624362D01*
X136850310Y-42642091D01*
X136837689Y-42646798D01*
X136827511Y-42655618D01*
X136805593Y-42658769D01*
X136784846Y-42666508D01*
X136771685Y-42663645D01*
X136758353Y-42665562D01*
X136738209Y-42656362D01*
X136716573Y-42651656D01*
X136698847Y-42638387D01*
X136694797Y-42636537D01*
X136688319Y-42630505D01*
X136536819Y-42479005D01*
X136503334Y-42417682D01*
X136500500Y-42391324D01*
X136500500Y-31934110D01*
X136500500Y-31934108D01*
X136466392Y-31806814D01*
X136400500Y-31692686D01*
X136307314Y-31599500D01*
X135807314Y-31099500D01*
X135750250Y-31066554D01*
X135693187Y-31033608D01*
X135629539Y-31016554D01*
X135565892Y-30999500D01*
X135565891Y-30999500D01*
X130541519Y-30999500D01*
X130474480Y-30979815D01*
X130453838Y-30963181D01*
X130446545Y-30955888D01*
X130446541Y-30955885D01*
X130331817Y-30879228D01*
X130331804Y-30879221D01*
X130204332Y-30826421D01*
X130204322Y-30826418D01*
X130068995Y-30799500D01*
X130068993Y-30799500D01*
X129931007Y-30799500D01*
X129931005Y-30799500D01*
X129795677Y-30826418D01*
X129795667Y-30826421D01*
X129668195Y-30879221D01*
X129668182Y-30879228D01*
X129553458Y-30955885D01*
X129553454Y-30955888D01*
X129455888Y-31053454D01*
X129455885Y-31053458D01*
X129379228Y-31168182D01*
X129379221Y-31168195D01*
X129326421Y-31295667D01*
X129326418Y-31295677D01*
X129299500Y-31431004D01*
X129299500Y-31431007D01*
X129299500Y-31568993D01*
X129299500Y-31568995D01*
X129299499Y-31568995D01*
X129326418Y-31704322D01*
X129326421Y-31704332D01*
X129379221Y-31831804D01*
X129379228Y-31831817D01*
X129455885Y-31946541D01*
X129455888Y-31946545D01*
X129553454Y-32044111D01*
X129553458Y-32044114D01*
X129668182Y-32120771D01*
X129668195Y-32120778D01*
X129782640Y-32168182D01*
X129795672Y-32173580D01*
X129795676Y-32173580D01*
X129795677Y-32173581D01*
X129931004Y-32200500D01*
X129931007Y-32200500D01*
X130068995Y-32200500D01*
X130160041Y-32182389D01*
X130204328Y-32173580D01*
X130331811Y-32120775D01*
X130446542Y-32044114D01*
X130448600Y-32042056D01*
X130453838Y-32036819D01*
X130515161Y-32003334D01*
X130541519Y-32000500D01*
X133763105Y-32000500D01*
X133830144Y-32020185D01*
X133875899Y-32072989D01*
X133885843Y-32142147D01*
X133877666Y-32171953D01*
X133826420Y-32295671D01*
X133826418Y-32295677D01*
X133799500Y-32431004D01*
X133799500Y-32431007D01*
X133799500Y-32568993D01*
X133799500Y-32568995D01*
X133799499Y-32568995D01*
X133826418Y-32704322D01*
X133826421Y-32704332D01*
X133879221Y-32831804D01*
X133879228Y-32831817D01*
X133955885Y-32946541D01*
X133963177Y-32953833D01*
X133996665Y-33015155D01*
X133999500Y-33041518D01*
X133999500Y-42431323D01*
X133979815Y-42498362D01*
X133963181Y-42519004D01*
X133552654Y-42929531D01*
X133491331Y-42963016D01*
X133421639Y-42958032D01*
X133365706Y-42916160D01*
X133341289Y-42850696D01*
X133340973Y-42841850D01*
X133340973Y-40874583D01*
X133340973Y-40874581D01*
X133306865Y-40747287D01*
X133240973Y-40633159D01*
X133147787Y-40539973D01*
X128136819Y-35529005D01*
X128103334Y-35467682D01*
X128100500Y-35441324D01*
X128100500Y-35431004D01*
X128073581Y-35295677D01*
X128073580Y-35295676D01*
X128073580Y-35295672D01*
X128035746Y-35204332D01*
X128020778Y-35168195D01*
X128020771Y-35168182D01*
X127944114Y-35053458D01*
X127944111Y-35053454D01*
X127846545Y-34955888D01*
X127846541Y-34955885D01*
X127731817Y-34879228D01*
X127731804Y-34879221D01*
X127604332Y-34826421D01*
X127604322Y-34826418D01*
X127468995Y-34799500D01*
X127468993Y-34799500D01*
X127331007Y-34799500D01*
X127331005Y-34799500D01*
X127195677Y-34826418D01*
X127195667Y-34826421D01*
X127068195Y-34879221D01*
X127068182Y-34879228D01*
X126953458Y-34955885D01*
X126953454Y-34955888D01*
X126855888Y-35053454D01*
X126855885Y-35053458D01*
X126779228Y-35168182D01*
X126779221Y-35168195D01*
X126726421Y-35295667D01*
X126726418Y-35295677D01*
X126699500Y-35431004D01*
X126699500Y-35431007D01*
X126699500Y-35568993D01*
X126699500Y-35568995D01*
X126699499Y-35568995D01*
X126726418Y-35704322D01*
X126726421Y-35704332D01*
X126779221Y-35831804D01*
X126779228Y-35831817D01*
X126845573Y-35931109D01*
X126866451Y-35997787D01*
X126847966Y-36065167D01*
X126845573Y-36068891D01*
X126779228Y-36168182D01*
X126779221Y-36168195D01*
X126726421Y-36295667D01*
X126726418Y-36295677D01*
X126699500Y-36431004D01*
X126699500Y-36441324D01*
X126679815Y-36508363D01*
X126663181Y-36529005D01*
X126398502Y-36793683D01*
X126398500Y-36793686D01*
X126332608Y-36907812D01*
X126298500Y-37035108D01*
X126298500Y-38814834D01*
X126332608Y-38942130D01*
X126349274Y-38970995D01*
X126398500Y-39056257D01*
X126398502Y-39056259D01*
X126729533Y-39387290D01*
X126763018Y-39448613D01*
X126758034Y-39518305D01*
X126729533Y-39562652D01*
X125712181Y-40580005D01*
X125650858Y-40613490D01*
X125581166Y-40608506D01*
X125525233Y-40566634D01*
X125500816Y-40501170D01*
X125500500Y-40492324D01*
X125500500Y-35541518D01*
X125520185Y-35474479D01*
X125536823Y-35453833D01*
X125544114Y-35446542D01*
X125620775Y-35331811D01*
X125673580Y-35204328D01*
X125700500Y-35068993D01*
X125700500Y-34931007D01*
X125700500Y-34931004D01*
X125673581Y-34795677D01*
X125673580Y-34795676D01*
X125673580Y-34795672D01*
X125666769Y-34779228D01*
X125620778Y-34668195D01*
X125620771Y-34668182D01*
X125544114Y-34553458D01*
X125544111Y-34553454D01*
X125446545Y-34455888D01*
X125446541Y-34455885D01*
X125331817Y-34379228D01*
X125331804Y-34379221D01*
X125204332Y-34326421D01*
X125204322Y-34326418D01*
X125068995Y-34299500D01*
X125068993Y-34299500D01*
X124931007Y-34299500D01*
X124931002Y-34299500D01*
X124825277Y-34320530D01*
X124755685Y-34314303D01*
X124700508Y-34271440D01*
X124677264Y-34205550D01*
X124679469Y-34174721D01*
X124700500Y-34068995D01*
X124700500Y-33931004D01*
X124673581Y-33795677D01*
X124673580Y-33795676D01*
X124673580Y-33795672D01*
X124659905Y-33762658D01*
X124620778Y-33668195D01*
X124620771Y-33668182D01*
X124544114Y-33553458D01*
X124544111Y-33553454D01*
X124446545Y-33455888D01*
X124446541Y-33455885D01*
X124331817Y-33379228D01*
X124331804Y-33379221D01*
X124204332Y-33326421D01*
X124204322Y-33326418D01*
X124068995Y-33299500D01*
X124068993Y-33299500D01*
X123931007Y-33299500D01*
X123931005Y-33299500D01*
X123795677Y-33326418D01*
X123795667Y-33326421D01*
X123671952Y-33377665D01*
X123602482Y-33385134D01*
X123540003Y-33353858D01*
X123504352Y-33293769D01*
X123500500Y-33263104D01*
X123500500Y-27434109D01*
X123500500Y-27434108D01*
X123493877Y-27409392D01*
X123466392Y-27306814D01*
X123446688Y-27272686D01*
X123400500Y-27192686D01*
X123307314Y-27099500D01*
X120908314Y-24700500D01*
X120851250Y-24667554D01*
X120794187Y-24634608D01*
X120729867Y-24617374D01*
X120666892Y-24600500D01*
X120666891Y-24600500D01*
X120523500Y-24600500D01*
X120516368Y-24598405D01*
X120509040Y-24599654D01*
X120483298Y-24588695D01*
X120456461Y-24580815D01*
X120451594Y-24575198D01*
X120444753Y-24572286D01*
X120429021Y-24549147D01*
X120410706Y-24528011D01*
X120408674Y-24519221D01*
X120405468Y-24514506D01*
X120400984Y-24485955D01*
X120399542Y-24479714D01*
X120399500Y-24478094D01*
X120399500Y-24333108D01*
X120399152Y-24331811D01*
X120365392Y-24205814D01*
X120299500Y-24091686D01*
X114012131Y-17804317D01*
X113978646Y-17742994D01*
X113983630Y-17673302D01*
X114025502Y-17617369D01*
X114043511Y-17606155D01*
X114115405Y-17569524D01*
X114274646Y-17453828D01*
X114413828Y-17314646D01*
X114529524Y-17155405D01*
X114563679Y-17088370D01*
X114611652Y-17037575D01*
X114679473Y-17020779D01*
X114745608Y-17043316D01*
X114784648Y-17088370D01*
X114845370Y-17207542D01*
X114845373Y-17207547D01*
X114884728Y-17261716D01*
X115517037Y-16629408D01*
X115534075Y-16692993D01*
X115599901Y-16807007D01*
X115692993Y-16900099D01*
X115807007Y-16965925D01*
X115870590Y-16982962D01*
X115238282Y-17615269D01*
X115238282Y-17615270D01*
X115292449Y-17654624D01*
X115481782Y-17751095D01*
X115683870Y-17816757D01*
X115893754Y-17850000D01*
X116106246Y-17850000D01*
X116316127Y-17816757D01*
X116316130Y-17816757D01*
X116518217Y-17751095D01*
X116707554Y-17654622D01*
X116761716Y-17615270D01*
X116761717Y-17615270D01*
X116129408Y-16982962D01*
X116192993Y-16965925D01*
X116307007Y-16900099D01*
X116400099Y-16807007D01*
X116465925Y-16692993D01*
X116482962Y-16629409D01*
X117115270Y-17261717D01*
X117115270Y-17261716D01*
X117154622Y-17207554D01*
X117215350Y-17088370D01*
X117263324Y-17037574D01*
X117331145Y-17020779D01*
X117397280Y-17043316D01*
X117436320Y-17088370D01*
X117453186Y-17121472D01*
X117470476Y-17155405D01*
X117586172Y-17314646D01*
X117725354Y-17453828D01*
X117884595Y-17569524D01*
X117956480Y-17606151D01*
X118059970Y-17658882D01*
X118059972Y-17658882D01*
X118059975Y-17658884D01*
X118118962Y-17678050D01*
X118247173Y-17719709D01*
X118441578Y-17750500D01*
X118441583Y-17750500D01*
X118638422Y-17750500D01*
X118832826Y-17719709D01*
X119020025Y-17658884D01*
X119195405Y-17569524D01*
X119354646Y-17453828D01*
X119412718Y-17395756D01*
X135319500Y-17395756D01*
X135319500Y-17714241D01*
X135355156Y-18030698D01*
X135355158Y-18030710D01*
X135426025Y-18341202D01*
X135426029Y-18341214D01*
X135531213Y-18641811D01*
X135531216Y-18641819D01*
X135669389Y-18928739D01*
X135669393Y-18928745D01*
X135838833Y-19198407D01*
X136037400Y-19447402D01*
X136262597Y-19672599D01*
X136511592Y-19871166D01*
X136734210Y-20011046D01*
X136781259Y-20040609D01*
X137068179Y-20178782D01*
X137068186Y-20178784D01*
X137068191Y-20178787D01*
X137293956Y-20257785D01*
X137368784Y-20283969D01*
X137368796Y-20283973D01*
X137679288Y-20354841D01*
X137995758Y-20390498D01*
X137995759Y-20390499D01*
X137995762Y-20390499D01*
X138314241Y-20390499D01*
X138314241Y-20390498D01*
X138630712Y-20354841D01*
X138941204Y-20283973D01*
X139241809Y-20178787D01*
X139241817Y-20178783D01*
X139241820Y-20178782D01*
X139528740Y-20040609D01*
X139528740Y-20040608D01*
X139528746Y-20040606D01*
X139798408Y-19871166D01*
X140047403Y-19672599D01*
X140272600Y-19447402D01*
X140471167Y-19198407D01*
X140640607Y-18928745D01*
X140648596Y-18912155D01*
X140778783Y-18641819D01*
X140778784Y-18641816D01*
X140778788Y-18641808D01*
X140883974Y-18341203D01*
X140954842Y-18030711D01*
X140990500Y-17714237D01*
X140990500Y-17395761D01*
X140954842Y-17079287D01*
X140883974Y-16768795D01*
X140778788Y-16468190D01*
X140778785Y-16468185D01*
X140778783Y-16468178D01*
X140640610Y-16181258D01*
X140637774Y-16176744D01*
X140471167Y-15911591D01*
X140272600Y-15662596D01*
X140047403Y-15437399D01*
X139798408Y-15238832D01*
X139528746Y-15069392D01*
X139528747Y-15069392D01*
X139528740Y-15069388D01*
X139241820Y-14931215D01*
X139241812Y-14931212D01*
X138941215Y-14826028D01*
X138941203Y-14826024D01*
X138701579Y-14771331D01*
X138630712Y-14755157D01*
X138630708Y-14755156D01*
X138630699Y-14755155D01*
X138314242Y-14719499D01*
X138314238Y-14719499D01*
X137995762Y-14719499D01*
X137995757Y-14719499D01*
X137679300Y-14755155D01*
X137679288Y-14755157D01*
X137368796Y-14826024D01*
X137368784Y-14826028D01*
X137068187Y-14931212D01*
X137068179Y-14931215D01*
X136781259Y-15069388D01*
X136511593Y-15238831D01*
X136262597Y-15437398D01*
X136037399Y-15662596D01*
X135838832Y-15911592D01*
X135669389Y-16181258D01*
X135531216Y-16468178D01*
X135531213Y-16468186D01*
X135426029Y-16768783D01*
X135426025Y-16768795D01*
X135355158Y-17079287D01*
X135355156Y-17079299D01*
X135319500Y-17395756D01*
X119412718Y-17395756D01*
X119493828Y-17314646D01*
X119609524Y-17155405D01*
X119698884Y-16980025D01*
X119759709Y-16792826D01*
X119763517Y-16768783D01*
X119790500Y-16598422D01*
X119790500Y-16401577D01*
X119759709Y-16207173D01*
X119698882Y-16019970D01*
X119634760Y-15894124D01*
X119609524Y-15844595D01*
X119493828Y-15685354D01*
X119354646Y-15546172D01*
X119195405Y-15430476D01*
X119045135Y-15353910D01*
X118994339Y-15305936D01*
X118994043Y-15305425D01*
X118979531Y-15280290D01*
X118940500Y-15212686D01*
X118847314Y-15119500D01*
X117827314Y-14099500D01*
X117757963Y-14059460D01*
X117713187Y-14033608D01*
X117619014Y-14008375D01*
X117585892Y-13999500D01*
X104565893Y-13999500D01*
X104434108Y-13999500D01*
X104306812Y-14033608D01*
X104192686Y-14099500D01*
X104192683Y-14099502D01*
X101099502Y-17192683D01*
X101099500Y-17192686D01*
X101033608Y-17306812D01*
X100999500Y-17434108D01*
X100999500Y-26241324D01*
X100979815Y-26308363D01*
X100963181Y-26329005D01*
X95529005Y-31763181D01*
X95467682Y-31796666D01*
X95441324Y-31799500D01*
X95431005Y-31799500D01*
X95295677Y-31826418D01*
X95295667Y-31826421D01*
X95168195Y-31879221D01*
X95168182Y-31879228D01*
X95053458Y-31955885D01*
X95053454Y-31955888D01*
X94955888Y-32053454D01*
X94955885Y-32053458D01*
X94879228Y-32168182D01*
X94879221Y-32168195D01*
X94826421Y-32295667D01*
X94826418Y-32295677D01*
X94799500Y-32431004D01*
X94799500Y-32431007D01*
X94799500Y-32568993D01*
X94799500Y-32568995D01*
X94799499Y-32568995D01*
X94826418Y-32704322D01*
X94826421Y-32704332D01*
X94879221Y-32831804D01*
X94879228Y-32831817D01*
X94955885Y-32946541D01*
X94955888Y-32946545D01*
X95053454Y-33044111D01*
X95053458Y-33044114D01*
X95168182Y-33120771D01*
X95168195Y-33120778D01*
X95295667Y-33173578D01*
X95295672Y-33173580D01*
X95295676Y-33173580D01*
X95295677Y-33173581D01*
X95431004Y-33200500D01*
X95431007Y-33200500D01*
X95568995Y-33200500D01*
X95660041Y-33182389D01*
X95704328Y-33173580D01*
X95831811Y-33120775D01*
X95946542Y-33044114D01*
X96044114Y-32946542D01*
X96120775Y-32831811D01*
X96173580Y-32704328D01*
X96194432Y-32599500D01*
X96200500Y-32568995D01*
X96200500Y-32558676D01*
X96220185Y-32491637D01*
X96236819Y-32470995D01*
X99065137Y-29642677D01*
X101900499Y-26807315D01*
X101966392Y-26693186D01*
X102000500Y-26565893D01*
X102000500Y-26434108D01*
X102000500Y-17758676D01*
X102020185Y-17691637D01*
X102036819Y-17670995D01*
X104670995Y-15036819D01*
X104732318Y-15003334D01*
X104758676Y-15000500D01*
X115463388Y-15000500D01*
X115530427Y-15020185D01*
X115576182Y-15072989D01*
X115586126Y-15142147D01*
X115557101Y-15205703D01*
X115501706Y-15242431D01*
X115481782Y-15248904D01*
X115292439Y-15345380D01*
X115238282Y-15384727D01*
X115238282Y-15384728D01*
X115870591Y-16017037D01*
X115807007Y-16034075D01*
X115692993Y-16099901D01*
X115599901Y-16192993D01*
X115534075Y-16307007D01*
X115517037Y-16370591D01*
X114884728Y-15738282D01*
X114884727Y-15738282D01*
X114845380Y-15792440D01*
X114845378Y-15792443D01*
X114784648Y-15911630D01*
X114736673Y-15962426D01*
X114668852Y-15979220D01*
X114602717Y-15956682D01*
X114563679Y-15911628D01*
X114529525Y-15844596D01*
X114492633Y-15793819D01*
X114413828Y-15685354D01*
X114274646Y-15546172D01*
X114115405Y-15430476D01*
X113940029Y-15341117D01*
X113752826Y-15280290D01*
X113558422Y-15249500D01*
X113558417Y-15249500D01*
X113361583Y-15249500D01*
X113361578Y-15249500D01*
X113167173Y-15280290D01*
X112979970Y-15341117D01*
X112804594Y-15430476D01*
X112773165Y-15453311D01*
X112645354Y-15546172D01*
X112645352Y-15546174D01*
X112645351Y-15546174D01*
X112506174Y-15685351D01*
X112506174Y-15685352D01*
X112506172Y-15685354D01*
X112496320Y-15698914D01*
X112390476Y-15844594D01*
X112300485Y-16021213D01*
X112252511Y-16072009D01*
X112184690Y-16088804D01*
X112118555Y-16066267D01*
X112079515Y-16021213D01*
X112051506Y-15966243D01*
X111989524Y-15844595D01*
X111873828Y-15685354D01*
X111734646Y-15546172D01*
X111575405Y-15430476D01*
X111400029Y-15341117D01*
X111212826Y-15280290D01*
X111018422Y-15249500D01*
X111018417Y-15249500D01*
X110821583Y-15249500D01*
X110821578Y-15249500D01*
X110627173Y-15280290D01*
X110439970Y-15341117D01*
X110264594Y-15430476D01*
X110233165Y-15453311D01*
X110105354Y-15546172D01*
X110105352Y-15546174D01*
X110105351Y-15546174D01*
X109966173Y-15685352D01*
X109854817Y-15838620D01*
X109799486Y-15881285D01*
X109729873Y-15887264D01*
X109668078Y-15854658D01*
X109633721Y-15793819D01*
X109630499Y-15765734D01*
X109630499Y-15618482D01*
X109628115Y-15603427D01*
X109615646Y-15524696D01*
X109558050Y-15411658D01*
X109558046Y-15411654D01*
X109558045Y-15411652D01*
X109468347Y-15321954D01*
X109468344Y-15321952D01*
X109468342Y-15321950D01*
X109386580Y-15280290D01*
X109355301Y-15264352D01*
X109261524Y-15249500D01*
X107498482Y-15249500D01*
X107417519Y-15262323D01*
X107404696Y-15264354D01*
X107291658Y-15321950D01*
X107291657Y-15321951D01*
X107291652Y-15321954D01*
X107201954Y-15411652D01*
X107201951Y-15411657D01*
X107144352Y-15524698D01*
X107129500Y-15618475D01*
X107129500Y-17381517D01*
X107137830Y-17434108D01*
X107144354Y-17475304D01*
X107201950Y-17588342D01*
X107201952Y-17588344D01*
X107201954Y-17588347D01*
X107291652Y-17678045D01*
X107291654Y-17678046D01*
X107291658Y-17678050D01*
X107404694Y-17735645D01*
X107404698Y-17735647D01*
X107498475Y-17750499D01*
X107498481Y-17750500D01*
X107755501Y-17750499D01*
X107822539Y-17770183D01*
X107868294Y-17822987D01*
X107879500Y-17874499D01*
X107879500Y-24214108D01*
X107879500Y-24345892D01*
X107896554Y-24409539D01*
X107913608Y-24473187D01*
X107920980Y-24485955D01*
X107979500Y-24587314D01*
X107979502Y-24587316D01*
X122363181Y-38970995D01*
X122396666Y-39032318D01*
X122399500Y-39058676D01*
X122399500Y-39068993D01*
X122399500Y-39068995D01*
X122399499Y-39068995D01*
X122426418Y-39204322D01*
X122426421Y-39204332D01*
X122479221Y-39331804D01*
X122479228Y-39331817D01*
X122555885Y-39446541D01*
X122555888Y-39446545D01*
X122653454Y-39544111D01*
X122653458Y-39544114D01*
X122768182Y-39620771D01*
X122768195Y-39620778D01*
X122853920Y-39656286D01*
X122895672Y-39673580D01*
X122895676Y-39673580D01*
X122895677Y-39673581D01*
X123031004Y-39700500D01*
X123031007Y-39700500D01*
X123168995Y-39700500D01*
X123260041Y-39682389D01*
X123304328Y-39673580D01*
X123328047Y-39663754D01*
X123397516Y-39656286D01*
X123459996Y-39687561D01*
X123495648Y-39747650D01*
X123499500Y-39778316D01*
X123499500Y-40241324D01*
X123479815Y-40308363D01*
X123463181Y-40329005D01*
X121230005Y-42562181D01*
X121168682Y-42595666D01*
X121142324Y-42598500D01*
X95268008Y-42598500D01*
X95140712Y-42632608D01*
X95026586Y-42698500D01*
X95026583Y-42698502D01*
X94761905Y-42963181D01*
X94700582Y-42996666D01*
X94674224Y-42999500D01*
X68758676Y-42999500D01*
X68691637Y-42979815D01*
X68670995Y-42963181D01*
X68307316Y-42599502D01*
X68307314Y-42599500D01*
X68242676Y-42562181D01*
X68193187Y-42533608D01*
X68129539Y-42516554D01*
X68065892Y-42499500D01*
X68065891Y-42499500D01*
X67541519Y-42499500D01*
X67474480Y-42479815D01*
X67453838Y-42463181D01*
X67446545Y-42455888D01*
X67446541Y-42455885D01*
X67331817Y-42379228D01*
X67331804Y-42379221D01*
X67204332Y-42326421D01*
X67204322Y-42326418D01*
X67068995Y-42299500D01*
X67068993Y-42299500D01*
X66931007Y-42299500D01*
X66931005Y-42299500D01*
X66795677Y-42326418D01*
X66795667Y-42326421D01*
X66668195Y-42379221D01*
X66668182Y-42379228D01*
X66553458Y-42455885D01*
X66553454Y-42455888D01*
X66455888Y-42553454D01*
X66455885Y-42553458D01*
X66401773Y-42634443D01*
X66348161Y-42679248D01*
X66278836Y-42687955D01*
X66215808Y-42657800D01*
X66210990Y-42653233D01*
X62554112Y-38996355D01*
X71475000Y-38996355D01*
X71481401Y-39055883D01*
X71481403Y-39055890D01*
X71531645Y-39190597D01*
X71531649Y-39190604D01*
X71617809Y-39305698D01*
X71617812Y-39305701D01*
X71732906Y-39391861D01*
X71732913Y-39391865D01*
X71867620Y-39442107D01*
X71867627Y-39442109D01*
X71927155Y-39448510D01*
X71927172Y-39448511D01*
X73200000Y-39448511D01*
X73200000Y-39202064D01*
X73199999Y-39202063D01*
X73700000Y-39202063D01*
X73700000Y-39448511D01*
X74972828Y-39448511D01*
X74972844Y-39448510D01*
X75032372Y-39442109D01*
X75032379Y-39442107D01*
X75167086Y-39391865D01*
X75167093Y-39391861D01*
X75282187Y-39305701D01*
X75282190Y-39305698D01*
X75368350Y-39190604D01*
X75368354Y-39190597D01*
X75418596Y-39055890D01*
X75418598Y-39055883D01*
X75424999Y-38996355D01*
X75425000Y-38996338D01*
X75425000Y-36948511D01*
X74753552Y-36948511D01*
X74403553Y-37298511D01*
X74796704Y-37691662D01*
X74830189Y-37752985D01*
X74833023Y-37779343D01*
X74833023Y-38017678D01*
X74826784Y-38038923D01*
X74825205Y-38061011D01*
X74816171Y-38075067D01*
X74813338Y-38084717D01*
X74805737Y-38091303D01*
X74796704Y-38105359D01*
X74226777Y-38675288D01*
X73700000Y-39202063D01*
X73199999Y-39202063D01*
X72673223Y-38675288D01*
X72466609Y-38468674D01*
X72700000Y-38468674D01*
X72700000Y-38528348D01*
X72722836Y-38583479D01*
X72765032Y-38625675D01*
X72820163Y-38648511D01*
X72879837Y-38648511D01*
X72934968Y-38625675D01*
X72977164Y-38583479D01*
X73000000Y-38528348D01*
X73000000Y-38468674D01*
X73900000Y-38468674D01*
X73900000Y-38528348D01*
X73922836Y-38583479D01*
X73965032Y-38625675D01*
X74020163Y-38648511D01*
X74079837Y-38648511D01*
X74134968Y-38625675D01*
X74177164Y-38583479D01*
X74200000Y-38528348D01*
X74200000Y-38468674D01*
X74177164Y-38413543D01*
X74134968Y-38371347D01*
X74079837Y-38348511D01*
X74020163Y-38348511D01*
X73965032Y-38371347D01*
X73922836Y-38413543D01*
X73900000Y-38468674D01*
X73000000Y-38468674D01*
X72977164Y-38413543D01*
X72934968Y-38371347D01*
X72879837Y-38348511D01*
X72820163Y-38348511D01*
X72765032Y-38371347D01*
X72722836Y-38413543D01*
X72700000Y-38468674D01*
X72466609Y-38468674D01*
X72103294Y-38105359D01*
X72069809Y-38044036D01*
X72074793Y-37974344D01*
X72075750Y-37971862D01*
X72104916Y-37898510D01*
X72603553Y-37898510D01*
X72850000Y-38144957D01*
X73096446Y-37898512D01*
X73096446Y-37898511D01*
X73096445Y-37898510D01*
X73803553Y-37898510D01*
X74050000Y-38144957D01*
X74296446Y-37898512D01*
X74296446Y-37898511D01*
X74050000Y-37652064D01*
X73803553Y-37898510D01*
X73096445Y-37898510D01*
X72850000Y-37652064D01*
X72603553Y-37898510D01*
X72104916Y-37898510D01*
X72113412Y-37877142D01*
X72103294Y-37867024D01*
X72069809Y-37805701D01*
X72074793Y-37736009D01*
X72103294Y-37691662D01*
X72496446Y-37298510D01*
X72466610Y-37268674D01*
X72700000Y-37268674D01*
X72700000Y-37328348D01*
X72722836Y-37383479D01*
X72765032Y-37425675D01*
X72820163Y-37448511D01*
X72879837Y-37448511D01*
X72934968Y-37425675D01*
X72977164Y-37383479D01*
X73000000Y-37328348D01*
X73000000Y-37268674D01*
X73900000Y-37268674D01*
X73900000Y-37328348D01*
X73922836Y-37383479D01*
X73965032Y-37425675D01*
X74020163Y-37448511D01*
X74079837Y-37448511D01*
X74134968Y-37425675D01*
X74177164Y-37383479D01*
X74200000Y-37328348D01*
X74200000Y-37268674D01*
X74177164Y-37213543D01*
X74134968Y-37171347D01*
X74079837Y-37148511D01*
X74020163Y-37148511D01*
X73965032Y-37171347D01*
X73922836Y-37213543D01*
X73900000Y-37268674D01*
X73000000Y-37268674D01*
X72977164Y-37213543D01*
X72934968Y-37171347D01*
X72879837Y-37148511D01*
X72820163Y-37148511D01*
X72765032Y-37171347D01*
X72722836Y-37213543D01*
X72700000Y-37268674D01*
X72466610Y-37268674D01*
X72146447Y-36948511D01*
X71475000Y-36948511D01*
X71475000Y-38996355D01*
X62554112Y-38996355D01*
X58557259Y-34999502D01*
X58557257Y-34999500D01*
X58481714Y-34955885D01*
X58443130Y-34933608D01*
X58379482Y-34916554D01*
X58315835Y-34899500D01*
X58315834Y-34899500D01*
X56778316Y-34899500D01*
X56711277Y-34879815D01*
X56665522Y-34827011D01*
X56655578Y-34757853D01*
X56663755Y-34728047D01*
X56673580Y-34704328D01*
X56700500Y-34568993D01*
X56700500Y-34524500D01*
X56720185Y-34457461D01*
X56772989Y-34411706D01*
X56824500Y-34400500D01*
X61075638Y-34400500D01*
X61142677Y-34420185D01*
X61163319Y-34436819D01*
X63425958Y-36699459D01*
X63425965Y-36699465D01*
X63573451Y-36798011D01*
X63573452Y-36798011D01*
X63573453Y-36798012D01*
X63737334Y-36865895D01*
X63911303Y-36900499D01*
X63911307Y-36900500D01*
X63911308Y-36900500D01*
X64088693Y-36900500D01*
X64088694Y-36900499D01*
X64262666Y-36865895D01*
X64426547Y-36798012D01*
X64574036Y-36699464D01*
X64699464Y-36574036D01*
X64798012Y-36426547D01*
X64865895Y-36262666D01*
X64900500Y-36088692D01*
X64900500Y-35911308D01*
X64865895Y-35737334D01*
X64798012Y-35573453D01*
X64795033Y-35568995D01*
X64699465Y-35425965D01*
X64699459Y-35425958D01*
X63758543Y-34485043D01*
X63674166Y-34400666D01*
X71475000Y-34400666D01*
X71475000Y-36448511D01*
X72046447Y-36448511D01*
X72753554Y-36448511D01*
X72946445Y-36448511D01*
X73953554Y-36448511D01*
X74146445Y-36448511D01*
X74050000Y-36352064D01*
X73953554Y-36448511D01*
X72946445Y-36448511D01*
X72850000Y-36352064D01*
X72753554Y-36448511D01*
X72046447Y-36448511D01*
X72046447Y-36448510D01*
X72163222Y-36331736D01*
X72496446Y-35998511D01*
X72466609Y-35968674D01*
X72700000Y-35968674D01*
X72700000Y-36028348D01*
X72722836Y-36083479D01*
X72765032Y-36125675D01*
X72820163Y-36148511D01*
X72879837Y-36148511D01*
X72934968Y-36125675D01*
X72977164Y-36083479D01*
X73000000Y-36028348D01*
X73000000Y-35968674D01*
X73900000Y-35968674D01*
X73900000Y-36028348D01*
X73922836Y-36083479D01*
X73965032Y-36125675D01*
X74020163Y-36148511D01*
X74079837Y-36148511D01*
X74134968Y-36125675D01*
X74177164Y-36083479D01*
X74200000Y-36028348D01*
X74200000Y-35968674D01*
X74177164Y-35913543D01*
X74134968Y-35871347D01*
X74079837Y-35848511D01*
X74020163Y-35848511D01*
X73965032Y-35871347D01*
X73922836Y-35913543D01*
X73900000Y-35968674D01*
X73000000Y-35968674D01*
X72977164Y-35913543D01*
X72934968Y-35871347D01*
X72879837Y-35848511D01*
X72820163Y-35848511D01*
X72765032Y-35871347D01*
X72722836Y-35913543D01*
X72700000Y-35968674D01*
X72466609Y-35968674D01*
X72103294Y-35605359D01*
X72069809Y-35544036D01*
X72068306Y-35499556D01*
X72075846Y-35448510D01*
X72653553Y-35448510D01*
X72850000Y-35644957D01*
X73046446Y-35448512D01*
X73046446Y-35448511D01*
X73046445Y-35448510D01*
X73853553Y-35448510D01*
X74050000Y-35644957D01*
X74246446Y-35448512D01*
X74246446Y-35448511D01*
X74050000Y-35252064D01*
X73853553Y-35448510D01*
X73046445Y-35448510D01*
X72850000Y-35252064D01*
X72653553Y-35448510D01*
X72075846Y-35448510D01*
X72079538Y-35423520D01*
X72069809Y-35405701D01*
X72074793Y-35336009D01*
X72103294Y-35291662D01*
X72526283Y-34868674D01*
X72700000Y-34868674D01*
X72700000Y-34928348D01*
X72722836Y-34983479D01*
X72765032Y-35025675D01*
X72820163Y-35048511D01*
X72879837Y-35048511D01*
X72934968Y-35025675D01*
X72977164Y-34983479D01*
X73000000Y-34928348D01*
X73000000Y-34868674D01*
X73900000Y-34868674D01*
X73900000Y-34928348D01*
X73922836Y-34983479D01*
X73965032Y-35025675D01*
X74020163Y-35048511D01*
X74079837Y-35048511D01*
X74134968Y-35025675D01*
X74177164Y-34983479D01*
X74200000Y-34928348D01*
X74200000Y-34868674D01*
X74177164Y-34813543D01*
X74134968Y-34771347D01*
X74079837Y-34748511D01*
X74020163Y-34748511D01*
X73965032Y-34771347D01*
X73922836Y-34813543D01*
X73900000Y-34868674D01*
X73000000Y-34868674D01*
X72977164Y-34813543D01*
X72934968Y-34771347D01*
X72879837Y-34748511D01*
X72820163Y-34748511D01*
X72765032Y-34771347D01*
X72722836Y-34813543D01*
X72700000Y-34868674D01*
X72526283Y-34868674D01*
X72673223Y-34721734D01*
X73199999Y-34194957D01*
X73700000Y-34194957D01*
X74226777Y-34721734D01*
X74796704Y-35291662D01*
X74830189Y-35352985D01*
X74833023Y-35379343D01*
X74833023Y-35517678D01*
X74826784Y-35538922D01*
X74825206Y-35561008D01*
X74816172Y-35575065D01*
X74813338Y-35584717D01*
X74805736Y-35591303D01*
X74796704Y-35605359D01*
X74403553Y-35998510D01*
X74403553Y-35998511D01*
X74853553Y-36448511D01*
X75425000Y-36448511D01*
X75425000Y-34400683D01*
X75424999Y-34400666D01*
X75418598Y-34341138D01*
X75418596Y-34341131D01*
X75368354Y-34206424D01*
X75368350Y-34206417D01*
X75282190Y-34091323D01*
X75282187Y-34091320D01*
X75167093Y-34005160D01*
X75167086Y-34005156D01*
X75032379Y-33954914D01*
X75032372Y-33954912D01*
X74972844Y-33948511D01*
X73700000Y-33948511D01*
X73700000Y-34194957D01*
X73199999Y-34194957D01*
X73200000Y-34194956D01*
X73200000Y-33948511D01*
X71927155Y-33948511D01*
X71867627Y-33954912D01*
X71867620Y-33954914D01*
X71732913Y-34005156D01*
X71732906Y-34005160D01*
X71617812Y-34091320D01*
X71617809Y-34091323D01*
X71531649Y-34206417D01*
X71531645Y-34206424D01*
X71481403Y-34341131D01*
X71481401Y-34341138D01*
X71475000Y-34400666D01*
X63674166Y-34400666D01*
X62861180Y-33587680D01*
X62827695Y-33526357D01*
X62832679Y-33456665D01*
X62861180Y-33412318D01*
X63936265Y-32337234D01*
X65699461Y-30574038D01*
X65699461Y-30574037D01*
X65699463Y-30574036D01*
X65713289Y-30553344D01*
X65798013Y-30426547D01*
X65865894Y-30262666D01*
X65867839Y-30252892D01*
X65900499Y-30088695D01*
X65900500Y-30088693D01*
X65900500Y-23911306D01*
X65900499Y-23911304D01*
X65865896Y-23737341D01*
X65865893Y-23737332D01*
X65798016Y-23573459D01*
X65798009Y-23573446D01*
X65754175Y-23507844D01*
X71408630Y-23507844D01*
X71415031Y-23567372D01*
X71415033Y-23567379D01*
X71465275Y-23702086D01*
X71465279Y-23702093D01*
X71551439Y-23817187D01*
X71551442Y-23817190D01*
X71666536Y-23903350D01*
X71666543Y-23903354D01*
X71801250Y-23953596D01*
X71801257Y-23953598D01*
X71860785Y-23959999D01*
X71860802Y-23960000D01*
X73133630Y-23960000D01*
X73133630Y-23713553D01*
X73133629Y-23713552D01*
X73633630Y-23713552D01*
X73633630Y-23960000D01*
X74906458Y-23960000D01*
X74906474Y-23959999D01*
X74966002Y-23953598D01*
X74966009Y-23953596D01*
X75100716Y-23903354D01*
X75100723Y-23903350D01*
X75215817Y-23817190D01*
X75215820Y-23817187D01*
X75301980Y-23702093D01*
X75301984Y-23702086D01*
X75352226Y-23567379D01*
X75352228Y-23567372D01*
X75358629Y-23507844D01*
X75358630Y-23507827D01*
X75358630Y-21460000D01*
X74687182Y-21460000D01*
X74337183Y-21810000D01*
X74730334Y-22203151D01*
X74763819Y-22264474D01*
X74766653Y-22290832D01*
X74766653Y-22529167D01*
X74760414Y-22550412D01*
X74758835Y-22572500D01*
X74749801Y-22586556D01*
X74746968Y-22596206D01*
X74739367Y-22602792D01*
X74730334Y-22616848D01*
X74160407Y-23186777D01*
X73633630Y-23713552D01*
X73133629Y-23713552D01*
X72606853Y-23186777D01*
X72400239Y-22980163D01*
X72633630Y-22980163D01*
X72633630Y-23039837D01*
X72656466Y-23094968D01*
X72698662Y-23137164D01*
X72753793Y-23160000D01*
X72813467Y-23160000D01*
X72868598Y-23137164D01*
X72910794Y-23094968D01*
X72933630Y-23039837D01*
X72933630Y-22980163D01*
X73833630Y-22980163D01*
X73833630Y-23039837D01*
X73856466Y-23094968D01*
X73898662Y-23137164D01*
X73953793Y-23160000D01*
X74013467Y-23160000D01*
X74068598Y-23137164D01*
X74110794Y-23094968D01*
X74133630Y-23039837D01*
X74133630Y-22980163D01*
X74110794Y-22925032D01*
X74068598Y-22882836D01*
X74013467Y-22860000D01*
X73953793Y-22860000D01*
X73898662Y-22882836D01*
X73856466Y-22925032D01*
X73833630Y-22980163D01*
X72933630Y-22980163D01*
X72910794Y-22925032D01*
X72868598Y-22882836D01*
X72813467Y-22860000D01*
X72753793Y-22860000D01*
X72698662Y-22882836D01*
X72656466Y-22925032D01*
X72633630Y-22980163D01*
X72400239Y-22980163D01*
X72036924Y-22616848D01*
X72003439Y-22555525D01*
X72008423Y-22485833D01*
X72009380Y-22483351D01*
X72038546Y-22409999D01*
X72537183Y-22409999D01*
X72783630Y-22656446D01*
X73030076Y-22410001D01*
X73030076Y-22410000D01*
X73030075Y-22409999D01*
X73737183Y-22409999D01*
X73983630Y-22656446D01*
X74230076Y-22410001D01*
X74230076Y-22410000D01*
X73983630Y-22163553D01*
X73737183Y-22409999D01*
X73030075Y-22409999D01*
X72783630Y-22163553D01*
X72537183Y-22409999D01*
X72038546Y-22409999D01*
X72047042Y-22388631D01*
X72036924Y-22378513D01*
X72003439Y-22317190D01*
X72008423Y-22247498D01*
X72036924Y-22203151D01*
X72430076Y-21809999D01*
X72400240Y-21780163D01*
X72633630Y-21780163D01*
X72633630Y-21839837D01*
X72656466Y-21894968D01*
X72698662Y-21937164D01*
X72753793Y-21960000D01*
X72813467Y-21960000D01*
X72868598Y-21937164D01*
X72910794Y-21894968D01*
X72933630Y-21839837D01*
X72933630Y-21780163D01*
X73833630Y-21780163D01*
X73833630Y-21839837D01*
X73856466Y-21894968D01*
X73898662Y-21937164D01*
X73953793Y-21960000D01*
X74013467Y-21960000D01*
X74068598Y-21937164D01*
X74110794Y-21894968D01*
X74133630Y-21839837D01*
X74133630Y-21780163D01*
X74110794Y-21725032D01*
X74068598Y-21682836D01*
X74013467Y-21660000D01*
X73953793Y-21660000D01*
X73898662Y-21682836D01*
X73856466Y-21725032D01*
X73833630Y-21780163D01*
X72933630Y-21780163D01*
X72910794Y-21725032D01*
X72868598Y-21682836D01*
X72813467Y-21660000D01*
X72753793Y-21660000D01*
X72698662Y-21682836D01*
X72656466Y-21725032D01*
X72633630Y-21780163D01*
X72400240Y-21780163D01*
X72080077Y-21460000D01*
X71408630Y-21460000D01*
X71408630Y-23507844D01*
X65754175Y-23507844D01*
X65699464Y-23425965D01*
X65699461Y-23425961D01*
X65574038Y-23300538D01*
X65574034Y-23300535D01*
X65426553Y-23201990D01*
X65426540Y-23201983D01*
X65262667Y-23134106D01*
X65262658Y-23134103D01*
X65088694Y-23099500D01*
X65088691Y-23099500D01*
X64911309Y-23099500D01*
X64911306Y-23099500D01*
X64737341Y-23134103D01*
X64737332Y-23134106D01*
X64573459Y-23201983D01*
X64573446Y-23201990D01*
X64425965Y-23300535D01*
X64425961Y-23300538D01*
X64300538Y-23425961D01*
X64300535Y-23425965D01*
X64201990Y-23573446D01*
X64201983Y-23573459D01*
X64134106Y-23737332D01*
X64134103Y-23737341D01*
X64099500Y-23911304D01*
X64099500Y-29575638D01*
X64079815Y-29642677D01*
X64063181Y-29663319D01*
X61163319Y-32563181D01*
X61101996Y-32596666D01*
X61075638Y-32599500D01*
X60360792Y-32599500D01*
X60293753Y-32579815D01*
X60247998Y-32527011D01*
X60238054Y-32457853D01*
X60267079Y-32394297D01*
X60294820Y-32370506D01*
X60347772Y-32337234D01*
X60548408Y-32211166D01*
X60797403Y-32012599D01*
X61022600Y-31787402D01*
X61221167Y-31538407D01*
X61390607Y-31268745D01*
X61439032Y-31168189D01*
X61528783Y-30981819D01*
X61528784Y-30981816D01*
X61528788Y-30981808D01*
X61633974Y-30681203D01*
X61704842Y-30370711D01*
X61740500Y-30054237D01*
X61740500Y-29735761D01*
X61704842Y-29419287D01*
X61633974Y-29108795D01*
X61629051Y-29094727D01*
X61552447Y-28875805D01*
X61528788Y-28808190D01*
X61528785Y-28808185D01*
X61528783Y-28808178D01*
X61390610Y-28521258D01*
X61390607Y-28521253D01*
X61221167Y-28251591D01*
X61022600Y-28002596D01*
X60797403Y-27777399D01*
X60548408Y-27578832D01*
X60318083Y-27434109D01*
X60278740Y-27409388D01*
X59991820Y-27271215D01*
X59991812Y-27271212D01*
X59691215Y-27166028D01*
X59691203Y-27166024D01*
X59451579Y-27111331D01*
X59380712Y-27095157D01*
X59380708Y-27095156D01*
X59380699Y-27095155D01*
X59064242Y-27059499D01*
X59064238Y-27059499D01*
X58745762Y-27059499D01*
X58745757Y-27059499D01*
X58429300Y-27095155D01*
X58429288Y-27095157D01*
X58118796Y-27166024D01*
X58118784Y-27166028D01*
X57818187Y-27271212D01*
X57818179Y-27271215D01*
X57531259Y-27409388D01*
X57261593Y-27578831D01*
X57012597Y-27777398D01*
X56787399Y-28002596D01*
X56588832Y-28251592D01*
X56419389Y-28521258D01*
X56281216Y-28808178D01*
X56281213Y-28808186D01*
X56176029Y-29108783D01*
X56176025Y-29108795D01*
X56105158Y-29419287D01*
X56105156Y-29419299D01*
X56069500Y-29735756D01*
X56069500Y-30054241D01*
X56105156Y-30370698D01*
X56105158Y-30370710D01*
X56176025Y-30681202D01*
X56176029Y-30681214D01*
X56281213Y-30981811D01*
X56281216Y-30981819D01*
X56419389Y-31268739D01*
X56499455Y-31396163D01*
X56588833Y-31538407D01*
X56787400Y-31787402D01*
X57012597Y-32012599D01*
X57261592Y-32211166D01*
X57462228Y-32337234D01*
X57515180Y-32370506D01*
X57561471Y-32422841D01*
X57572119Y-32491894D01*
X57543744Y-32555743D01*
X57485355Y-32594115D01*
X57449208Y-32599500D01*
X34411306Y-32599500D01*
X34237341Y-32634103D01*
X34237332Y-32634106D01*
X34073459Y-32701983D01*
X34073446Y-32701990D01*
X33925965Y-32800535D01*
X33925961Y-32800538D01*
X33800538Y-32925961D01*
X33800535Y-32925965D01*
X33701990Y-33073446D01*
X33701983Y-33073459D01*
X33634106Y-33237332D01*
X33634103Y-33237341D01*
X33599500Y-33411304D01*
X33599500Y-33588695D01*
X33634103Y-33762658D01*
X33634106Y-33762667D01*
X33701983Y-33926540D01*
X33701990Y-33926553D01*
X33800535Y-34074034D01*
X33800538Y-34074038D01*
X33925961Y-34199461D01*
X33925965Y-34199464D01*
X34073446Y-34298009D01*
X34073459Y-34298016D01*
X34155049Y-34331811D01*
X34237334Y-34365894D01*
X34237336Y-34365894D01*
X34237341Y-34365896D01*
X34411304Y-34400499D01*
X34411307Y-34400500D01*
X34411309Y-34400500D01*
X53175500Y-34400500D01*
X53242539Y-34420185D01*
X53288294Y-34472989D01*
X53299500Y-34524500D01*
X53299500Y-34568993D01*
X53299500Y-34568995D01*
X53299499Y-34568995D01*
X53326418Y-34704322D01*
X53326420Y-34704328D01*
X53336245Y-34728047D01*
X53343714Y-34797516D01*
X53312439Y-34859996D01*
X53252350Y-34895648D01*
X53221684Y-34899500D01*
X52041519Y-34899500D01*
X51974480Y-34879815D01*
X51953838Y-34863181D01*
X51946545Y-34855888D01*
X51946541Y-34855885D01*
X51831817Y-34779228D01*
X51831804Y-34779221D01*
X51704332Y-34726421D01*
X51704322Y-34726418D01*
X51568995Y-34699500D01*
X51568993Y-34699500D01*
X51431007Y-34699500D01*
X51431005Y-34699500D01*
X51295677Y-34726418D01*
X51295667Y-34726421D01*
X51168195Y-34779221D01*
X51168182Y-34779228D01*
X51053458Y-34855885D01*
X51053454Y-34855888D01*
X50955888Y-34953454D01*
X50955885Y-34953458D01*
X50879228Y-35068182D01*
X50879221Y-35068195D01*
X50826421Y-35195667D01*
X50826418Y-35195677D01*
X50799500Y-35331004D01*
X50799500Y-35375500D01*
X50779815Y-35442539D01*
X50727011Y-35488294D01*
X50675500Y-35499500D01*
X49138221Y-35499500D01*
X49071182Y-35479815D01*
X49050540Y-35463181D01*
X49043247Y-35455888D01*
X49043243Y-35455885D01*
X48928519Y-35379228D01*
X48928506Y-35379221D01*
X48801034Y-35326421D01*
X48801024Y-35326418D01*
X48665697Y-35299500D01*
X48665695Y-35299500D01*
X48527709Y-35299500D01*
X48527707Y-35299500D01*
X48392379Y-35326418D01*
X48392369Y-35326421D01*
X48264897Y-35379221D01*
X48264884Y-35379228D01*
X48150160Y-35455885D01*
X48150156Y-35455888D01*
X48052590Y-35553454D01*
X48052587Y-35553458D01*
X47975930Y-35668182D01*
X47975923Y-35668195D01*
X47923123Y-35795667D01*
X47923120Y-35795677D01*
X47896202Y-35931004D01*
X47896202Y-35931007D01*
X47896202Y-36068993D01*
X47896202Y-36068995D01*
X47896201Y-36068995D01*
X47923120Y-36204322D01*
X47923123Y-36204332D01*
X47975923Y-36331804D01*
X47975930Y-36331817D01*
X48052587Y-36446541D01*
X48052590Y-36446545D01*
X48150156Y-36544111D01*
X48150160Y-36544114D01*
X48264884Y-36620771D01*
X48264897Y-36620778D01*
X48392369Y-36673578D01*
X48392374Y-36673580D01*
X48392378Y-36673580D01*
X48392379Y-36673581D01*
X48527706Y-36700500D01*
X48527709Y-36700500D01*
X48665697Y-36700500D01*
X48756743Y-36682389D01*
X48801030Y-36673580D01*
X48928513Y-36620775D01*
X49043244Y-36544114D01*
X49043247Y-36544111D01*
X49050540Y-36536819D01*
X49111863Y-36503334D01*
X49138221Y-36500500D01*
X57458481Y-36500500D01*
X57525520Y-36520185D01*
X57546162Y-36536819D01*
X57553454Y-36544111D01*
X57553458Y-36544114D01*
X57668182Y-36620771D01*
X57668195Y-36620778D01*
X57795667Y-36673578D01*
X57795672Y-36673580D01*
X57795676Y-36673580D01*
X57795677Y-36673581D01*
X57931004Y-36700500D01*
X57931007Y-36700500D01*
X58068995Y-36700500D01*
X58160041Y-36682389D01*
X58204328Y-36673580D01*
X58331811Y-36620775D01*
X58446542Y-36544114D01*
X58461651Y-36529005D01*
X58478712Y-36511945D01*
X58540035Y-36478460D01*
X58609727Y-36483444D01*
X58654074Y-36511945D01*
X61328948Y-39186819D01*
X61362433Y-39248142D01*
X61357449Y-39317834D01*
X61315577Y-39373767D01*
X61250113Y-39398184D01*
X61241267Y-39398500D01*
X48685165Y-39398500D01*
X48557869Y-39432608D01*
X48443743Y-39498500D01*
X48443740Y-39498502D01*
X47998502Y-39943740D01*
X47998500Y-39943743D01*
X47932608Y-40057869D01*
X47904986Y-40160959D01*
X47898500Y-40185165D01*
X47898500Y-40683051D01*
X47898500Y-40814835D01*
X47914509Y-40874581D01*
X47932608Y-40942130D01*
X47965554Y-40999193D01*
X47998500Y-41056257D01*
X50249557Y-43307314D01*
X50342743Y-43400500D01*
X50395583Y-43431007D01*
X50422490Y-43446542D01*
X50422491Y-43446543D01*
X50456865Y-43466389D01*
X50456866Y-43466389D01*
X50456871Y-43466392D01*
X50584164Y-43500500D01*
X50584165Y-43500500D01*
X50958481Y-43500500D01*
X51025520Y-43520185D01*
X51046162Y-43536819D01*
X51053454Y-43544111D01*
X51053458Y-43544114D01*
X51168182Y-43620771D01*
X51168195Y-43620778D01*
X51295667Y-43673578D01*
X51295672Y-43673580D01*
X51295676Y-43673580D01*
X51295677Y-43673581D01*
X51431004Y-43700500D01*
X51431007Y-43700500D01*
X51568995Y-43700500D01*
X51660041Y-43682389D01*
X51704328Y-43673580D01*
X51831811Y-43620775D01*
X51946542Y-43544114D01*
X52044114Y-43446542D01*
X52120775Y-43331811D01*
X52173580Y-43204328D01*
X52192009Y-43111681D01*
X52200500Y-43068995D01*
X52200500Y-42931004D01*
X52173581Y-42795677D01*
X52173580Y-42795676D01*
X52173580Y-42795672D01*
X52165669Y-42776573D01*
X52120778Y-42668195D01*
X52120771Y-42668182D01*
X52044114Y-42553458D01*
X52044111Y-42553454D01*
X51946545Y-42455888D01*
X51946541Y-42455885D01*
X51831817Y-42379228D01*
X51831804Y-42379221D01*
X51704332Y-42326421D01*
X51704322Y-42326418D01*
X51568995Y-42299500D01*
X51568993Y-42299500D01*
X51431007Y-42299500D01*
X51431005Y-42299500D01*
X51295677Y-42326418D01*
X51295667Y-42326421D01*
X51168195Y-42379221D01*
X51168182Y-42379228D01*
X51053458Y-42455885D01*
X51053454Y-42455888D01*
X51046162Y-42463181D01*
X51019234Y-42477884D01*
X50993416Y-42494477D01*
X50987215Y-42495368D01*
X50984839Y-42496666D01*
X50958481Y-42499500D01*
X50908733Y-42499500D01*
X50841694Y-42479815D01*
X50821052Y-42463181D01*
X49570052Y-41212181D01*
X49536567Y-41150858D01*
X49541551Y-41081166D01*
X49583423Y-41025233D01*
X49648887Y-41000816D01*
X49657733Y-41000500D01*
X60741324Y-41000500D01*
X60808363Y-41020185D01*
X60829005Y-41036819D01*
X63855005Y-44062819D01*
X63888490Y-44124142D01*
X63883506Y-44193834D01*
X63841634Y-44249767D01*
X63776170Y-44274184D01*
X63767324Y-44274500D01*
X63584298Y-44274500D01*
X63547432Y-44277401D01*
X63547426Y-44277402D01*
X63389606Y-44323254D01*
X63389603Y-44323255D01*
X63248137Y-44406917D01*
X63248129Y-44406923D01*
X63131923Y-44523129D01*
X63131916Y-44523138D01*
X63085089Y-44602320D01*
X63034020Y-44650004D01*
X62965278Y-44662507D01*
X62900689Y-44635862D01*
X62878039Y-44612084D01*
X62839038Y-44558404D01*
X62839034Y-44558399D01*
X62716602Y-44435967D01*
X62576524Y-44334195D01*
X62422257Y-44255591D01*
X62257589Y-44202087D01*
X62257581Y-44202085D01*
X62250000Y-44200884D01*
X62250000Y-45269670D01*
X62230255Y-45249925D01*
X62144745Y-45200556D01*
X62049370Y-45175000D01*
X61950630Y-45175000D01*
X61855255Y-45200556D01*
X61769745Y-45249925D01*
X61750000Y-45269670D01*
X61750000Y-44200884D01*
X61749999Y-44200884D01*
X61742418Y-44202085D01*
X61742410Y-44202087D01*
X61577742Y-44255591D01*
X61423475Y-44334195D01*
X61283397Y-44435967D01*
X61160967Y-44558397D01*
X61059195Y-44698476D01*
X61050920Y-44714716D01*
X61002943Y-44765510D01*
X60935122Y-44782303D01*
X60868988Y-44759763D01*
X60837334Y-44727307D01*
X60827227Y-44712181D01*
X60777139Y-44637218D01*
X60777138Y-44637217D01*
X60777137Y-44637215D01*
X60637785Y-44497863D01*
X60637781Y-44497860D01*
X60473920Y-44388371D01*
X60473907Y-44388364D01*
X60291839Y-44312950D01*
X60291829Y-44312947D01*
X60098543Y-44274500D01*
X60098541Y-44274500D01*
X59901459Y-44274500D01*
X59901457Y-44274500D01*
X59708170Y-44312947D01*
X59708160Y-44312950D01*
X59526092Y-44388364D01*
X59526079Y-44388371D01*
X59362218Y-44497860D01*
X59362214Y-44497863D01*
X59222863Y-44637214D01*
X59222860Y-44637218D01*
X59113371Y-44801079D01*
X59110498Y-44806456D01*
X59108691Y-44805490D01*
X59070715Y-44852612D01*
X59004420Y-44874673D01*
X58936721Y-44857391D01*
X58889113Y-44806251D01*
X58887473Y-44802660D01*
X58886628Y-44801079D01*
X58777139Y-44637218D01*
X58777136Y-44637214D01*
X58637785Y-44497863D01*
X58637781Y-44497860D01*
X58473920Y-44388371D01*
X58473907Y-44388364D01*
X58291839Y-44312950D01*
X58291829Y-44312947D01*
X58098543Y-44274500D01*
X58098541Y-44274500D01*
X57901459Y-44274500D01*
X57901457Y-44274500D01*
X57708170Y-44312947D01*
X57708160Y-44312950D01*
X57616842Y-44350775D01*
X57547372Y-44358244D01*
X57484893Y-44326968D01*
X57481709Y-44323895D01*
X56257316Y-43099502D01*
X56257314Y-43099500D01*
X56200250Y-43066554D01*
X56143187Y-43033608D01*
X56079539Y-43016554D01*
X56015892Y-42999500D01*
X56015891Y-42999500D01*
X53941519Y-42999500D01*
X53874480Y-42979815D01*
X53853838Y-42963181D01*
X53846545Y-42955888D01*
X53846541Y-42955885D01*
X53731817Y-42879228D01*
X53731804Y-42879221D01*
X53604332Y-42826421D01*
X53604322Y-42826418D01*
X53468995Y-42799500D01*
X53468993Y-42799500D01*
X53331007Y-42799500D01*
X53331005Y-42799500D01*
X53195677Y-42826418D01*
X53195667Y-42826421D01*
X53068195Y-42879221D01*
X53068182Y-42879228D01*
X52953458Y-42955885D01*
X52953454Y-42955888D01*
X52855888Y-43053454D01*
X52855885Y-43053458D01*
X52779228Y-43168182D01*
X52779221Y-43168195D01*
X52726421Y-43295667D01*
X52726418Y-43295677D01*
X52699500Y-43431004D01*
X52699500Y-43431007D01*
X52699500Y-43568993D01*
X52699500Y-43568995D01*
X52699499Y-43568995D01*
X52726418Y-43704322D01*
X52726421Y-43704332D01*
X52779221Y-43831804D01*
X52779228Y-43831817D01*
X52855885Y-43946541D01*
X52855888Y-43946545D01*
X52953454Y-44044111D01*
X52953458Y-44044114D01*
X53068182Y-44120771D01*
X53068195Y-44120778D01*
X53195667Y-44173578D01*
X53195672Y-44173580D01*
X53195676Y-44173580D01*
X53195677Y-44173581D01*
X53331004Y-44200500D01*
X53398476Y-44200500D01*
X53465515Y-44220185D01*
X53511270Y-44272989D01*
X53521214Y-44342147D01*
X53492189Y-44405703D01*
X53467367Y-44427602D01*
X53362218Y-44497860D01*
X53362214Y-44497863D01*
X53222863Y-44637214D01*
X53222860Y-44637218D01*
X53113371Y-44801079D01*
X53110498Y-44806456D01*
X53108691Y-44805490D01*
X53070715Y-44852612D01*
X53004420Y-44874673D01*
X52936721Y-44857391D01*
X52889113Y-44806251D01*
X52887473Y-44802660D01*
X52886628Y-44801079D01*
X52777139Y-44637218D01*
X52777136Y-44637214D01*
X52637785Y-44497863D01*
X52637781Y-44497860D01*
X52473920Y-44388371D01*
X52473907Y-44388364D01*
X52291839Y-44312950D01*
X52291829Y-44312947D01*
X52098543Y-44274500D01*
X52098541Y-44274500D01*
X51901459Y-44274500D01*
X51901457Y-44274500D01*
X51708170Y-44312947D01*
X51708160Y-44312950D01*
X51526092Y-44388364D01*
X51526079Y-44388371D01*
X51362218Y-44497860D01*
X51362214Y-44497863D01*
X51222863Y-44637214D01*
X51222860Y-44637218D01*
X51113371Y-44801079D01*
X51113364Y-44801092D01*
X51037950Y-44983160D01*
X51037947Y-44983170D01*
X50999500Y-45176456D01*
X50999500Y-45176459D01*
X50999500Y-45923541D01*
X50999500Y-45923543D01*
X50999499Y-45923543D01*
X51037947Y-46116829D01*
X51037950Y-46116839D01*
X51113364Y-46298907D01*
X51113371Y-46298920D01*
X51118509Y-46306609D01*
X51139387Y-46373286D01*
X51120903Y-46440667D01*
X51068924Y-46487357D01*
X51015407Y-46499500D01*
X47598274Y-46499500D01*
X47531235Y-46479815D01*
X47485480Y-46427011D01*
X47475536Y-46357853D01*
X47479197Y-46340906D01*
X47491395Y-46298920D01*
X47497598Y-46277569D01*
X47500500Y-46240694D01*
X47500500Y-44859306D01*
X47497598Y-44822431D01*
X47492897Y-44806251D01*
X47451745Y-44664606D01*
X47451744Y-44664603D01*
X47451744Y-44664602D01*
X47368081Y-44523135D01*
X47368079Y-44523133D01*
X47368076Y-44523129D01*
X47251870Y-44406923D01*
X47251862Y-44406917D01*
X47128895Y-44334195D01*
X47110398Y-44323256D01*
X47110397Y-44323255D01*
X47110396Y-44323255D01*
X47110393Y-44323254D01*
X46952573Y-44277402D01*
X46952567Y-44277401D01*
X46915701Y-44274500D01*
X46915694Y-44274500D01*
X46084306Y-44274500D01*
X46084298Y-44274500D01*
X46047432Y-44277401D01*
X46047426Y-44277402D01*
X45889606Y-44323254D01*
X45889603Y-44323255D01*
X45748137Y-44406917D01*
X45748129Y-44406923D01*
X45631923Y-44523129D01*
X45631917Y-44523137D01*
X45548255Y-44664603D01*
X45548253Y-44664607D01*
X45545913Y-44672663D01*
X45508305Y-44731548D01*
X45444831Y-44760752D01*
X45375645Y-44751003D01*
X45323736Y-44706955D01*
X45277139Y-44637217D01*
X45137785Y-44497863D01*
X45137781Y-44497860D01*
X44973920Y-44388371D01*
X44973907Y-44388364D01*
X44791839Y-44312950D01*
X44791829Y-44312947D01*
X44598543Y-44274500D01*
X44598541Y-44274500D01*
X44401459Y-44274500D01*
X44401457Y-44274500D01*
X44208170Y-44312947D01*
X44208160Y-44312950D01*
X44026092Y-44388364D01*
X44026079Y-44388371D01*
X43862218Y-44497860D01*
X43862214Y-44497863D01*
X43722863Y-44637214D01*
X43722860Y-44637218D01*
X43613371Y-44801079D01*
X43610498Y-44806456D01*
X43608691Y-44805490D01*
X43570715Y-44852612D01*
X43504420Y-44874673D01*
X43436721Y-44857391D01*
X43389113Y-44806251D01*
X43387473Y-44802660D01*
X43386628Y-44801079D01*
X43277139Y-44637218D01*
X43277136Y-44637214D01*
X43137785Y-44497863D01*
X43137781Y-44497860D01*
X42973920Y-44388371D01*
X42973907Y-44388364D01*
X42791839Y-44312950D01*
X42791830Y-44312947D01*
X42729959Y-44300640D01*
X42668048Y-44268254D01*
X42633475Y-44207538D01*
X42637216Y-44137768D01*
X42666469Y-44091344D01*
X48720994Y-38036818D01*
X48782317Y-38003334D01*
X48808675Y-38000500D01*
X53458481Y-38000500D01*
X53525520Y-38020185D01*
X53546162Y-38036819D01*
X53553454Y-38044111D01*
X53553458Y-38044114D01*
X53668182Y-38120771D01*
X53668195Y-38120778D01*
X53795667Y-38173578D01*
X53795672Y-38173580D01*
X53795676Y-38173580D01*
X53795677Y-38173581D01*
X53931004Y-38200500D01*
X53931007Y-38200500D01*
X54068995Y-38200500D01*
X54160041Y-38182389D01*
X54204328Y-38173580D01*
X54331811Y-38120775D01*
X54446542Y-38044114D01*
X54446620Y-38044036D01*
X54453838Y-38036819D01*
X54515161Y-38003334D01*
X54541519Y-38000500D01*
X55458481Y-38000500D01*
X55525520Y-38020185D01*
X55546162Y-38036819D01*
X55553454Y-38044111D01*
X55553458Y-38044114D01*
X55668182Y-38120771D01*
X55668195Y-38120778D01*
X55795667Y-38173578D01*
X55795672Y-38173580D01*
X55795676Y-38173580D01*
X55795677Y-38173581D01*
X55931004Y-38200500D01*
X55931007Y-38200500D01*
X56068995Y-38200500D01*
X56160041Y-38182389D01*
X56204328Y-38173580D01*
X56331811Y-38120775D01*
X56446542Y-38044114D01*
X56544114Y-37946542D01*
X56620775Y-37831811D01*
X56673580Y-37704328D01*
X56700500Y-37568993D01*
X56700500Y-37431007D01*
X56700500Y-37431004D01*
X56673581Y-37295677D01*
X56673580Y-37295676D01*
X56673580Y-37295672D01*
X56662397Y-37268674D01*
X56620778Y-37168195D01*
X56620771Y-37168182D01*
X56544114Y-37053458D01*
X56544111Y-37053454D01*
X56446545Y-36955888D01*
X56446541Y-36955885D01*
X56331817Y-36879228D01*
X56331804Y-36879221D01*
X56204332Y-36826421D01*
X56204322Y-36826418D01*
X56068995Y-36799500D01*
X56068993Y-36799500D01*
X55931007Y-36799500D01*
X55931005Y-36799500D01*
X55795677Y-36826418D01*
X55795667Y-36826421D01*
X55668195Y-36879221D01*
X55668182Y-36879228D01*
X55553458Y-36955885D01*
X55553454Y-36955888D01*
X55546162Y-36963181D01*
X55484839Y-36996666D01*
X55458481Y-36999500D01*
X54541519Y-36999500D01*
X54474480Y-36979815D01*
X54453838Y-36963181D01*
X54446545Y-36955888D01*
X54446541Y-36955885D01*
X54331817Y-36879228D01*
X54331804Y-36879221D01*
X54204332Y-36826421D01*
X54204322Y-36826418D01*
X54068995Y-36799500D01*
X54068993Y-36799500D01*
X53931007Y-36799500D01*
X53931005Y-36799500D01*
X53795677Y-36826418D01*
X53795667Y-36826421D01*
X53668195Y-36879221D01*
X53668182Y-36879228D01*
X53553458Y-36955885D01*
X53553454Y-36955888D01*
X53546162Y-36963181D01*
X53484839Y-36996666D01*
X53458481Y-36999500D01*
X48484107Y-36999500D01*
X48356812Y-37033608D01*
X48242686Y-37099500D01*
X48242683Y-37099502D01*
X48149498Y-37192688D01*
X41018290Y-44323895D01*
X40956967Y-44357380D01*
X40887275Y-44352396D01*
X40883157Y-44350775D01*
X40791839Y-44312950D01*
X40791829Y-44312947D01*
X40598543Y-44274500D01*
X40598541Y-44274500D01*
X40401459Y-44274500D01*
X40401457Y-44274500D01*
X40208170Y-44312947D01*
X40208160Y-44312950D01*
X40026092Y-44388364D01*
X40026079Y-44388371D01*
X39862218Y-44497860D01*
X39862214Y-44497863D01*
X39722863Y-44637214D01*
X39722860Y-44637218D01*
X39613371Y-44801079D01*
X39613364Y-44801092D01*
X39537950Y-44983160D01*
X39537947Y-44983170D01*
X39499500Y-45176456D01*
X39499500Y-45176459D01*
X39499500Y-45923541D01*
X39499500Y-45923543D01*
X39499499Y-45923543D01*
X39537947Y-46116829D01*
X39537950Y-46116839D01*
X39613364Y-46298907D01*
X39613371Y-46298920D01*
X39618509Y-46306609D01*
X39639387Y-46373286D01*
X39620903Y-46440667D01*
X39568924Y-46487357D01*
X39515407Y-46499500D01*
X38469836Y-46499500D01*
X38402797Y-46479815D01*
X38382155Y-46463181D01*
X35892476Y-43973502D01*
X35892474Y-43973500D01*
X35788607Y-43913532D01*
X35778347Y-43907608D01*
X35672418Y-43879225D01*
X35651052Y-43873500D01*
X30241892Y-43873500D01*
X30110107Y-43873500D01*
X29982812Y-43907608D01*
X29868686Y-43973500D01*
X29868683Y-43973502D01*
X29518289Y-44323895D01*
X29456966Y-44357380D01*
X29387274Y-44352396D01*
X29383155Y-44350775D01*
X29343127Y-44334195D01*
X29291835Y-44312949D01*
X29291829Y-44312947D01*
X29098543Y-44274500D01*
X29098541Y-44274500D01*
X28901459Y-44274500D01*
X28901457Y-44274500D01*
X28708170Y-44312947D01*
X28708160Y-44312950D01*
X28526092Y-44388364D01*
X28526079Y-44388371D01*
X28362218Y-44497860D01*
X28362214Y-44497863D01*
X28222863Y-44637214D01*
X28222860Y-44637218D01*
X28113371Y-44801079D01*
X28110498Y-44806456D01*
X28108691Y-44805490D01*
X28070715Y-44852612D01*
X28004420Y-44874673D01*
X27936721Y-44857391D01*
X27889113Y-44806251D01*
X27887473Y-44802660D01*
X27886628Y-44801079D01*
X27777139Y-44637218D01*
X27777136Y-44637214D01*
X27637785Y-44497863D01*
X27637781Y-44497860D01*
X27473920Y-44388371D01*
X27473907Y-44388364D01*
X27291839Y-44312950D01*
X27291829Y-44312947D01*
X27098543Y-44274500D01*
X27098541Y-44274500D01*
X26901459Y-44274500D01*
X26901457Y-44274500D01*
X26708170Y-44312947D01*
X26708160Y-44312950D01*
X26526092Y-44388364D01*
X26526079Y-44388371D01*
X26362218Y-44497860D01*
X26362214Y-44497863D01*
X26222863Y-44637214D01*
X26222860Y-44637218D01*
X26113371Y-44801079D01*
X26113364Y-44801092D01*
X26037950Y-44983160D01*
X26037947Y-44983170D01*
X25999500Y-45176456D01*
X25999500Y-45176459D01*
X25999500Y-45923541D01*
X25999500Y-45923543D01*
X25999499Y-45923543D01*
X26037947Y-46116829D01*
X26037950Y-46116839D01*
X26113364Y-46298907D01*
X26113371Y-46298920D01*
X26222860Y-46462781D01*
X26222863Y-46462785D01*
X26362214Y-46602136D01*
X26362218Y-46602139D01*
X26526079Y-46711628D01*
X26526092Y-46711635D01*
X26645124Y-46760939D01*
X26699528Y-46804779D01*
X26721593Y-46871074D01*
X26704314Y-46938773D01*
X26653177Y-46986384D01*
X26597672Y-46999500D01*
X24208676Y-46999500D01*
X24141637Y-46979815D01*
X24120995Y-46963181D01*
X20676104Y-43518290D01*
X20642619Y-43456967D01*
X20647603Y-43387275D01*
X20649224Y-43383156D01*
X20659705Y-43357853D01*
X20687051Y-43291835D01*
X20709133Y-43180823D01*
X20725500Y-43098543D01*
X20725500Y-42901456D01*
X20687052Y-42708170D01*
X20687051Y-42708169D01*
X20687051Y-42708165D01*
X20687049Y-42708160D01*
X20611635Y-42526092D01*
X20611628Y-42526079D01*
X20502139Y-42362218D01*
X20502136Y-42362214D01*
X20362782Y-42222860D01*
X20272691Y-42162664D01*
X20227886Y-42109052D01*
X20219179Y-42039727D01*
X20249333Y-41976700D01*
X20285289Y-41949076D01*
X20301524Y-41940803D01*
X20441602Y-41839032D01*
X20564032Y-41716602D01*
X20665804Y-41576524D01*
X20744408Y-41422255D01*
X20797914Y-41257584D01*
X20799115Y-41250000D01*
X19730330Y-41250000D01*
X19750075Y-41230255D01*
X19799444Y-41144745D01*
X19825000Y-41049370D01*
X19825000Y-40950630D01*
X19799444Y-40855255D01*
X19750075Y-40769745D01*
X19730330Y-40750000D01*
X20799115Y-40750000D01*
X20799115Y-40749999D01*
X20797914Y-40742415D01*
X20744408Y-40577744D01*
X20665804Y-40423475D01*
X20564032Y-40283397D01*
X20441600Y-40160965D01*
X20441595Y-40160961D01*
X20387915Y-40121960D01*
X20345249Y-40066630D01*
X20339270Y-39997017D01*
X20371876Y-39935222D01*
X20397671Y-39914915D01*
X20476865Y-39868081D01*
X20593081Y-39751865D01*
X20676744Y-39610398D01*
X20722598Y-39452569D01*
X20725500Y-39415694D01*
X20725500Y-38584306D01*
X20722598Y-38547431D01*
X20676744Y-38389602D01*
X20593081Y-38248135D01*
X20593079Y-38248133D01*
X20593076Y-38248129D01*
X20476870Y-38131923D01*
X20476862Y-38131917D01*
X20380733Y-38075067D01*
X20335398Y-38048256D01*
X20335397Y-38048255D01*
X20335396Y-38048255D01*
X20335393Y-38048254D01*
X20177573Y-38002402D01*
X20177567Y-38002401D01*
X20140701Y-37999500D01*
X20140694Y-37999500D01*
X18759306Y-37999500D01*
X18759298Y-37999500D01*
X18722432Y-38002401D01*
X18722426Y-38002402D01*
X18564606Y-38048254D01*
X18564603Y-38048255D01*
X18423137Y-38131917D01*
X18423129Y-38131923D01*
X18306923Y-38248129D01*
X18306917Y-38248137D01*
X18223255Y-38389603D01*
X18223254Y-38389606D01*
X18177402Y-38547426D01*
X18177401Y-38547432D01*
X18174500Y-38584298D01*
X18174500Y-39415701D01*
X18177401Y-39452567D01*
X18177402Y-39452573D01*
X18223254Y-39610393D01*
X18223255Y-39610396D01*
X18306917Y-39751862D01*
X18306923Y-39751870D01*
X18423129Y-39868076D01*
X18423134Y-39868080D01*
X18423135Y-39868081D01*
X18502321Y-39914911D01*
X18550003Y-39965978D01*
X18562507Y-40034720D01*
X18535862Y-40099309D01*
X18512085Y-40121959D01*
X18458406Y-40160959D01*
X18458399Y-40160965D01*
X18335967Y-40283397D01*
X18234195Y-40423475D01*
X18155591Y-40577744D01*
X18102085Y-40742415D01*
X18100884Y-40749999D01*
X18100885Y-40750000D01*
X19169670Y-40750000D01*
X19149925Y-40769745D01*
X19100556Y-40855255D01*
X19075000Y-40950630D01*
X19075000Y-41049370D01*
X19100556Y-41144745D01*
X19149925Y-41230255D01*
X19169670Y-41250000D01*
X18100885Y-41250000D01*
X18102085Y-41257584D01*
X18155591Y-41422255D01*
X18234195Y-41576524D01*
X18335967Y-41716602D01*
X18458397Y-41839032D01*
X18598475Y-41940804D01*
X18614712Y-41949077D01*
X18665508Y-41997051D01*
X18682303Y-42064872D01*
X18659766Y-42131007D01*
X18627308Y-42162664D01*
X18537218Y-42222860D01*
X18537214Y-42222863D01*
X18397863Y-42362214D01*
X18397860Y-42362218D01*
X18288371Y-42526079D01*
X18288364Y-42526092D01*
X18212950Y-42708160D01*
X18212947Y-42708170D01*
X18174500Y-42901456D01*
X18174500Y-42901459D01*
X18174500Y-43098541D01*
X18174500Y-43098543D01*
X18174499Y-43098543D01*
X18212947Y-43291829D01*
X18212950Y-43291839D01*
X18288364Y-43473907D01*
X18288371Y-43473920D01*
X18397860Y-43637781D01*
X18397863Y-43637785D01*
X18537214Y-43777136D01*
X18537218Y-43777139D01*
X18701079Y-43886628D01*
X18706456Y-43889502D01*
X18705490Y-43891308D01*
X18752612Y-43929285D01*
X18774673Y-43995580D01*
X18757391Y-44063279D01*
X18706251Y-44110887D01*
X18702660Y-44112526D01*
X18701079Y-44113371D01*
X18537218Y-44222860D01*
X18537214Y-44222863D01*
X18397863Y-44362214D01*
X18397860Y-44362218D01*
X18288371Y-44526079D01*
X18288364Y-44526092D01*
X18212950Y-44708160D01*
X18212947Y-44708170D01*
X18174500Y-44901456D01*
X18174500Y-44901459D01*
X18174500Y-45098541D01*
X18174500Y-45098543D01*
X18174499Y-45098543D01*
X18212947Y-45291829D01*
X18212950Y-45291839D01*
X18288364Y-45473907D01*
X18288371Y-45473920D01*
X18397860Y-45637781D01*
X18397863Y-45637785D01*
X18537214Y-45777136D01*
X18537218Y-45777139D01*
X18701079Y-45886628D01*
X18706456Y-45889502D01*
X18705490Y-45891308D01*
X18752612Y-45929285D01*
X18774673Y-45995580D01*
X18757391Y-46063279D01*
X18706251Y-46110887D01*
X18702660Y-46112526D01*
X18701079Y-46113371D01*
X18537218Y-46222860D01*
X18537214Y-46222863D01*
X18397863Y-46362214D01*
X18397860Y-46362218D01*
X18288371Y-46526079D01*
X18288364Y-46526092D01*
X18212950Y-46708160D01*
X18212947Y-46708170D01*
X18174500Y-46901456D01*
X18174500Y-46901459D01*
X18174500Y-47098541D01*
X18174500Y-47098543D01*
X18174499Y-47098543D01*
X18212947Y-47291829D01*
X18212950Y-47291839D01*
X18288364Y-47473907D01*
X18288371Y-47473920D01*
X18397860Y-47637781D01*
X18397863Y-47637785D01*
X18537214Y-47777136D01*
X18537218Y-47777139D01*
X18701079Y-47886628D01*
X18706456Y-47889502D01*
X18705490Y-47891308D01*
X18752612Y-47929285D01*
X18774673Y-47995580D01*
X18757391Y-48063279D01*
X18706251Y-48110887D01*
X18702660Y-48112526D01*
X18701079Y-48113371D01*
X18537218Y-48222860D01*
X18537214Y-48222863D01*
X18397863Y-48362214D01*
X18397860Y-48362218D01*
X18288371Y-48526079D01*
X18288364Y-48526092D01*
X18212950Y-48708160D01*
X18212947Y-48708170D01*
X18174500Y-48901456D01*
X18174500Y-48901459D01*
X18174500Y-49098541D01*
X18174500Y-49098543D01*
X18174499Y-49098543D01*
X18212947Y-49291829D01*
X18212950Y-49291839D01*
X18288364Y-49473907D01*
X18288371Y-49473920D01*
X18397860Y-49637781D01*
X18397863Y-49637785D01*
X18537214Y-49777136D01*
X18537218Y-49777139D01*
X18701079Y-49886628D01*
X18701092Y-49886635D01*
X18875864Y-49959027D01*
X18883165Y-49962051D01*
X18883169Y-49962051D01*
X18883170Y-49962052D01*
X19076456Y-50000500D01*
X19076459Y-50000500D01*
X19823543Y-50000500D01*
X19953582Y-49974632D01*
X20016835Y-49962051D01*
X20198914Y-49886632D01*
X20362782Y-49777139D01*
X20502139Y-49637782D01*
X20611632Y-49473914D01*
X20687051Y-49291835D01*
X20708645Y-49183275D01*
X20725500Y-49098543D01*
X20725500Y-48901456D01*
X20687052Y-48708170D01*
X20687051Y-48708169D01*
X20687051Y-48708165D01*
X20687049Y-48708160D01*
X20611635Y-48526092D01*
X20611628Y-48526079D01*
X20502139Y-48362218D01*
X20502136Y-48362214D01*
X20362785Y-48222863D01*
X20362781Y-48222860D01*
X20198920Y-48113371D01*
X20193544Y-48110498D01*
X20194510Y-48108689D01*
X20147397Y-48070728D01*
X20125326Y-48004436D01*
X20142600Y-47936735D01*
X20193734Y-47889121D01*
X20197331Y-47887477D01*
X20198907Y-47886634D01*
X20198914Y-47886632D01*
X20362782Y-47777139D01*
X20502139Y-47637782D01*
X20611632Y-47473914D01*
X20687051Y-47291835D01*
X20706712Y-47192993D01*
X20725500Y-47098543D01*
X20725500Y-46901456D01*
X20687052Y-46708170D01*
X20687051Y-46708169D01*
X20687051Y-46708165D01*
X20663994Y-46652500D01*
X20611635Y-46526092D01*
X20611628Y-46526079D01*
X20502139Y-46362218D01*
X20502136Y-46362214D01*
X20362785Y-46222863D01*
X20362781Y-46222860D01*
X20198920Y-46113371D01*
X20193544Y-46110498D01*
X20194510Y-46108689D01*
X20147397Y-46070728D01*
X20125326Y-46004436D01*
X20142600Y-45936735D01*
X20193734Y-45889121D01*
X20197331Y-45887477D01*
X20198907Y-45886634D01*
X20198914Y-45886632D01*
X20362782Y-45777139D01*
X20502139Y-45637782D01*
X20611632Y-45473914D01*
X20687051Y-45291835D01*
X20699359Y-45229961D01*
X20731744Y-45168050D01*
X20792459Y-45133476D01*
X20862229Y-45137215D01*
X20908657Y-45166471D01*
X23413181Y-47670995D01*
X23446666Y-47732318D01*
X23449500Y-47758676D01*
X23449500Y-48525399D01*
X23429815Y-48592438D01*
X23428602Y-48594290D01*
X23379228Y-48668182D01*
X23379221Y-48668195D01*
X23326421Y-48795667D01*
X23326418Y-48795677D01*
X23299500Y-48931004D01*
X23299500Y-48931007D01*
X23299500Y-49068993D01*
X23299500Y-49068995D01*
X23299499Y-49068995D01*
X23326418Y-49204322D01*
X23326421Y-49204332D01*
X23379221Y-49331804D01*
X23379228Y-49331817D01*
X23455885Y-49446541D01*
X23455888Y-49446545D01*
X23553454Y-49544111D01*
X23553458Y-49544114D01*
X23668182Y-49620771D01*
X23668195Y-49620778D01*
X23751011Y-49655081D01*
X23795672Y-49673580D01*
X23795676Y-49673580D01*
X23795677Y-49673581D01*
X23931004Y-49700500D01*
X23931007Y-49700500D01*
X24068995Y-49700500D01*
X24160041Y-49682389D01*
X24204328Y-49673580D01*
X24331811Y-49620775D01*
X24446542Y-49544114D01*
X24544114Y-49446542D01*
X24620775Y-49331811D01*
X24673580Y-49204328D01*
X24694622Y-49098543D01*
X24700500Y-49068995D01*
X24700500Y-48931004D01*
X24673581Y-48795677D01*
X24673580Y-48795676D01*
X24673580Y-48795672D01*
X24637334Y-48708165D01*
X24620778Y-48668195D01*
X24620771Y-48668182D01*
X24544114Y-48553458D01*
X24544111Y-48553454D01*
X24486819Y-48496162D01*
X24453334Y-48434839D01*
X24450500Y-48408481D01*
X24450500Y-48124500D01*
X24470185Y-48057461D01*
X24522989Y-48011706D01*
X24574500Y-48000500D01*
X29115890Y-48000500D01*
X29115892Y-48000500D01*
X29243186Y-47966392D01*
X29357314Y-47900500D01*
X30481711Y-46776101D01*
X30543032Y-46742618D01*
X30612723Y-46747602D01*
X30616777Y-46749196D01*
X30708165Y-46787051D01*
X30708169Y-46787051D01*
X30708170Y-46787052D01*
X30901456Y-46825500D01*
X30901459Y-46825500D01*
X31098543Y-46825500D01*
X31255407Y-46794297D01*
X31291835Y-46787051D01*
X31383156Y-46749223D01*
X31452625Y-46741755D01*
X31515104Y-46773030D01*
X31518289Y-46776103D01*
X32549500Y-47807314D01*
X32642686Y-47900500D01*
X32735053Y-47953828D01*
X32735054Y-47953829D01*
X32745933Y-47960110D01*
X32756814Y-47966392D01*
X32884107Y-48000500D01*
X32884108Y-48000500D01*
X35691325Y-48000500D01*
X35758364Y-48020185D01*
X35804119Y-48072989D01*
X35814063Y-48142147D01*
X35785038Y-48205703D01*
X35772527Y-48218213D01*
X35636276Y-48336273D01*
X35636274Y-48336275D01*
X35495725Y-48498479D01*
X35495719Y-48498486D01*
X35379681Y-48679044D01*
X35379672Y-48679060D01*
X35290517Y-48874282D01*
X35230047Y-49080223D01*
X35230044Y-49080233D01*
X35199500Y-49292679D01*
X35199500Y-56497292D01*
X35199382Y-56502701D01*
X35182614Y-56886750D01*
X35181671Y-56897526D01*
X35131850Y-57275954D01*
X35129972Y-57286608D01*
X35047353Y-57659274D01*
X35044553Y-57669722D01*
X34929775Y-58033754D01*
X34926075Y-58043920D01*
X34780002Y-58396571D01*
X34775430Y-58406375D01*
X34599180Y-58744950D01*
X34593771Y-58754318D01*
X34388686Y-59076235D01*
X34382482Y-59085096D01*
X34150111Y-59387929D01*
X34143157Y-59396216D01*
X33885285Y-59677634D01*
X33877636Y-59685283D01*
X33596218Y-59943155D01*
X33587931Y-59950109D01*
X33285098Y-60182481D01*
X33276237Y-60188685D01*
X32954320Y-60393770D01*
X32944952Y-60399179D01*
X32606377Y-60575430D01*
X32596573Y-60580002D01*
X32243921Y-60726075D01*
X32233755Y-60729775D01*
X31869722Y-60844554D01*
X31859273Y-60847354D01*
X31486611Y-60929971D01*
X31475958Y-60931849D01*
X31097527Y-60981671D01*
X31086751Y-60982614D01*
X30702727Y-60999381D01*
X30697318Y-60999499D01*
X17502707Y-60999499D01*
X17497298Y-60999381D01*
X17113249Y-60982613D01*
X17102475Y-60981670D01*
X17040008Y-60973446D01*
X16724045Y-60931849D01*
X16713391Y-60929971D01*
X16340725Y-60847352D01*
X16330277Y-60844552D01*
X15966245Y-60729774D01*
X15956079Y-60726074D01*
X15603428Y-60580001D01*
X15593624Y-60575429D01*
X15255055Y-60399182D01*
X15255043Y-60399175D01*
X15245687Y-60393774D01*
X15084722Y-60291227D01*
X14923764Y-60188685D01*
X14914903Y-60182481D01*
X14612070Y-59950110D01*
X14603783Y-59943156D01*
X14322365Y-59685284D01*
X14314716Y-59677635D01*
X14056844Y-59396217D01*
X14049890Y-59387930D01*
X13817524Y-59085105D01*
X13811319Y-59076244D01*
X13606225Y-58754310D01*
X13600817Y-58744942D01*
X13424567Y-58406369D01*
X13419998Y-58396572D01*
X13405737Y-58362142D01*
X13273921Y-58043910D01*
X13270225Y-58033754D01*
X13155443Y-57669710D01*
X13152647Y-57659274D01*
X13070026Y-57286597D01*
X13068153Y-57275971D01*
X13018327Y-56897506D01*
X13017387Y-56886771D01*
X13000617Y-56502671D01*
X13000500Y-56497279D01*
X13000500Y-56465756D01*
X14999500Y-56465756D01*
X14999500Y-56784241D01*
X15035156Y-57100698D01*
X15035158Y-57100710D01*
X15106025Y-57411202D01*
X15106029Y-57411214D01*
X15211213Y-57711811D01*
X15211216Y-57711819D01*
X15349389Y-57998739D01*
X15429455Y-58126163D01*
X15518833Y-58268407D01*
X15621041Y-58396572D01*
X15704466Y-58501184D01*
X15717400Y-58517402D01*
X15942597Y-58742599D01*
X16191592Y-58941166D01*
X16461254Y-59110606D01*
X16461259Y-59110609D01*
X16748179Y-59248782D01*
X16748186Y-59248784D01*
X16748191Y-59248787D01*
X16973956Y-59327785D01*
X17048784Y-59353969D01*
X17048796Y-59353973D01*
X17359288Y-59424841D01*
X17675758Y-59460498D01*
X17675759Y-59460499D01*
X17675762Y-59460499D01*
X17994241Y-59460499D01*
X17994241Y-59460498D01*
X18310712Y-59424841D01*
X18621204Y-59353973D01*
X18921809Y-59248787D01*
X18921817Y-59248783D01*
X18921820Y-59248782D01*
X19208740Y-59110609D01*
X19208740Y-59110608D01*
X19208746Y-59110606D01*
X19478408Y-58941166D01*
X19727403Y-58742599D01*
X19952600Y-58517402D01*
X20151167Y-58268407D01*
X20320607Y-57998745D01*
X20458788Y-57711808D01*
X20563974Y-57411203D01*
X20634842Y-57100711D01*
X20670500Y-56784237D01*
X20670500Y-56505997D01*
X22179500Y-56505997D01*
X22179500Y-56744000D01*
X22199006Y-56892156D01*
X22210564Y-56979945D01*
X22241362Y-57094884D01*
X22272160Y-57209826D01*
X22355578Y-57411214D01*
X22363234Y-57429697D01*
X22482228Y-57635801D01*
X22482230Y-57635804D01*
X22482231Y-57635805D01*
X22627104Y-57824607D01*
X22627110Y-57824614D01*
X22795384Y-57992888D01*
X22795391Y-57992894D01*
X22803016Y-57998745D01*
X22984198Y-58137771D01*
X23190302Y-58256765D01*
X23336884Y-58317481D01*
X23410172Y-58347838D01*
X23410173Y-58347838D01*
X23410175Y-58347839D01*
X23640054Y-58409435D01*
X23876006Y-58440499D01*
X23876013Y-58440499D01*
X24113987Y-58440499D01*
X24113994Y-58440499D01*
X24349946Y-58409435D01*
X24579825Y-58347839D01*
X24799698Y-58256765D01*
X25005802Y-58137771D01*
X25194610Y-57992893D01*
X25362894Y-57824609D01*
X25507772Y-57635801D01*
X25626766Y-57429697D01*
X25717840Y-57209824D01*
X25779436Y-56979945D01*
X25810500Y-56743993D01*
X25810500Y-56506005D01*
X25779436Y-56270053D01*
X25717840Y-56040174D01*
X25626766Y-55820301D01*
X25507772Y-55614197D01*
X25393741Y-55465589D01*
X25362895Y-55425390D01*
X25362889Y-55425383D01*
X25194615Y-55257109D01*
X25194608Y-55257103D01*
X25005806Y-55112230D01*
X25005805Y-55112229D01*
X25005802Y-55112227D01*
X24799698Y-54993233D01*
X24766993Y-54979686D01*
X24579827Y-54902159D01*
X24464885Y-54871361D01*
X24349946Y-54840563D01*
X24297512Y-54833659D01*
X24114001Y-54809499D01*
X24113994Y-54809499D01*
X23876006Y-54809499D01*
X23875998Y-54809499D01*
X23666270Y-54837111D01*
X23640054Y-54840563D01*
X23582584Y-54855962D01*
X23410172Y-54902159D01*
X23190308Y-54993230D01*
X23190299Y-54993234D01*
X22984193Y-55112230D01*
X22795391Y-55257103D01*
X22795384Y-55257109D01*
X22627110Y-55425383D01*
X22627104Y-55425390D01*
X22482231Y-55614192D01*
X22482228Y-55614196D01*
X22482228Y-55614197D01*
X22467738Y-55639294D01*
X22363235Y-55820298D01*
X22363231Y-55820307D01*
X22272160Y-56040171D01*
X22253909Y-56108286D01*
X22218337Y-56241046D01*
X22210564Y-56270054D01*
X22179500Y-56505997D01*
X20670500Y-56505997D01*
X20670500Y-56465761D01*
X20634842Y-56149287D01*
X20563974Y-55838795D01*
X20458788Y-55538190D01*
X20458785Y-55538185D01*
X20458783Y-55538178D01*
X20320610Y-55251258D01*
X20320607Y-55251253D01*
X20151167Y-54981591D01*
X19952600Y-54732596D01*
X19727403Y-54507399D01*
X19478408Y-54308832D01*
X19208746Y-54139392D01*
X19208747Y-54139392D01*
X19208740Y-54139388D01*
X18921820Y-54001215D01*
X18921812Y-54001212D01*
X18621215Y-53896028D01*
X18621203Y-53896024D01*
X18351265Y-53834413D01*
X18310712Y-53825157D01*
X18310708Y-53825156D01*
X18310699Y-53825155D01*
X17994242Y-53789499D01*
X17994238Y-53789499D01*
X17675762Y-53789499D01*
X17675757Y-53789499D01*
X17359300Y-53825155D01*
X17359288Y-53825157D01*
X17048796Y-53896024D01*
X17048784Y-53896028D01*
X16748187Y-54001212D01*
X16748179Y-54001215D01*
X16461259Y-54139388D01*
X16191593Y-54308831D01*
X15942597Y-54507398D01*
X15717399Y-54732596D01*
X15518832Y-54981592D01*
X15349389Y-55251258D01*
X15211216Y-55538178D01*
X15211213Y-55538186D01*
X15106029Y-55838783D01*
X15106025Y-55838795D01*
X15035158Y-56149287D01*
X15035156Y-56149299D01*
X14999500Y-56465756D01*
X13000500Y-56465756D01*
X13000500Y-28865258D01*
X26024500Y-28865258D01*
X26024500Y-29094741D01*
X26044878Y-29249520D01*
X26054452Y-29322238D01*
X26073195Y-29392189D01*
X26113842Y-29543887D01*
X26201650Y-29755876D01*
X26201657Y-29755890D01*
X26316392Y-29954617D01*
X26456081Y-30136661D01*
X26456089Y-30136670D01*
X26618330Y-30298911D01*
X26618338Y-30298918D01*
X26800382Y-30438607D01*
X26800385Y-30438608D01*
X26800388Y-30438611D01*
X26999112Y-30553344D01*
X26999117Y-30553346D01*
X26999123Y-30553349D01*
X27090480Y-30591190D01*
X27211113Y-30641158D01*
X27432762Y-30700548D01*
X27660266Y-30730500D01*
X27660273Y-30730500D01*
X27889727Y-30730500D01*
X27889734Y-30730500D01*
X28117238Y-30700548D01*
X28338887Y-30641158D01*
X28550888Y-30553344D01*
X28749612Y-30438611D01*
X28931661Y-30298919D01*
X28931665Y-30298914D01*
X28931670Y-30298911D01*
X29093911Y-30136670D01*
X29093914Y-30136665D01*
X29093919Y-30136661D01*
X29233611Y-29954612D01*
X29348344Y-29755888D01*
X29436158Y-29543887D01*
X29495548Y-29322238D01*
X29525500Y-29094734D01*
X29525500Y-28865266D01*
X29495548Y-28637762D01*
X29436158Y-28416113D01*
X29368011Y-28251591D01*
X29348349Y-28204123D01*
X29348346Y-28204117D01*
X29348344Y-28204112D01*
X29233611Y-28005388D01*
X29233608Y-28005385D01*
X29233607Y-28005382D01*
X29093918Y-27823338D01*
X29093911Y-27823330D01*
X28931670Y-27661089D01*
X28931661Y-27661081D01*
X28749617Y-27521392D01*
X28550890Y-27406657D01*
X28550876Y-27406650D01*
X28338887Y-27318842D01*
X28293997Y-27306814D01*
X28117238Y-27259452D01*
X28079215Y-27254446D01*
X27889741Y-27229500D01*
X27889734Y-27229500D01*
X27660266Y-27229500D01*
X27660258Y-27229500D01*
X27443715Y-27258009D01*
X27432762Y-27259452D01*
X27339076Y-27284554D01*
X27211112Y-27318842D01*
X26999123Y-27406650D01*
X26999109Y-27406657D01*
X26800382Y-27521392D01*
X26618338Y-27661081D01*
X26456081Y-27823338D01*
X26316392Y-28005382D01*
X26201657Y-28204109D01*
X26201650Y-28204123D01*
X26113842Y-28416112D01*
X26054453Y-28637759D01*
X26054451Y-28637770D01*
X26024500Y-28865258D01*
X13000500Y-28865258D01*
X13000500Y-23870014D01*
X25925000Y-23870014D01*
X25925000Y-24770000D01*
X26958520Y-24770000D01*
X26957665Y-24772064D01*
X26925000Y-24936282D01*
X26925000Y-25103718D01*
X26957665Y-25267936D01*
X26958520Y-25270000D01*
X25925000Y-25270000D01*
X25925000Y-26169985D01*
X25935493Y-26272689D01*
X25935494Y-26272696D01*
X25990641Y-26439118D01*
X25990643Y-26439123D01*
X26082684Y-26588344D01*
X26206655Y-26712315D01*
X26355876Y-26804356D01*
X26355881Y-26804358D01*
X26522303Y-26859505D01*
X26522310Y-26859506D01*
X26625014Y-26869999D01*
X26625027Y-26870000D01*
X27525000Y-26870000D01*
X27525000Y-25836480D01*
X27527064Y-25837335D01*
X27691282Y-25870000D01*
X27858718Y-25870000D01*
X28022936Y-25837335D01*
X28025000Y-25836480D01*
X28025000Y-26870000D01*
X28924973Y-26870000D01*
X28924985Y-26869999D01*
X29027689Y-26859506D01*
X29027696Y-26859505D01*
X29194118Y-26804358D01*
X29194123Y-26804356D01*
X29343344Y-26712315D01*
X29467315Y-26588344D01*
X29559356Y-26439123D01*
X29559358Y-26439118D01*
X29614505Y-26272696D01*
X29614506Y-26272689D01*
X29624999Y-26169985D01*
X29625000Y-26169972D01*
X29625000Y-25270000D01*
X28591480Y-25270000D01*
X28592335Y-25267936D01*
X28625000Y-25103718D01*
X28625000Y-24936282D01*
X28592335Y-24772064D01*
X28591480Y-24770000D01*
X29625000Y-24770000D01*
X29625000Y-24068995D01*
X42799499Y-24068995D01*
X42826418Y-24204322D01*
X42826421Y-24204332D01*
X42879221Y-24331804D01*
X42879228Y-24331817D01*
X42955885Y-24446541D01*
X42955888Y-24446545D01*
X43053454Y-24544111D01*
X43053458Y-24544114D01*
X43168182Y-24620771D01*
X43168195Y-24620778D01*
X43295667Y-24673578D01*
X43295672Y-24673580D01*
X43295676Y-24673580D01*
X43295677Y-24673581D01*
X43431004Y-24700500D01*
X43431007Y-24700500D01*
X43441324Y-24700500D01*
X43508363Y-24720185D01*
X43529005Y-24736819D01*
X46463181Y-27670995D01*
X46496666Y-27732318D01*
X46499500Y-27758676D01*
X46499500Y-29182481D01*
X46479815Y-29249520D01*
X46463181Y-29270162D01*
X46455888Y-29277454D01*
X46455885Y-29277458D01*
X46379228Y-29392182D01*
X46379221Y-29392195D01*
X46326421Y-29519667D01*
X46326418Y-29519677D01*
X46299500Y-29655004D01*
X46299500Y-29655007D01*
X46299500Y-29792993D01*
X46299500Y-29792995D01*
X46299499Y-29792995D01*
X46326418Y-29928322D01*
X46326421Y-29928332D01*
X46379221Y-30055804D01*
X46379228Y-30055817D01*
X46455885Y-30170541D01*
X46455888Y-30170545D01*
X46553454Y-30268111D01*
X46553458Y-30268114D01*
X46668182Y-30344771D01*
X46668195Y-30344778D01*
X46730804Y-30370711D01*
X46795672Y-30397580D01*
X46795676Y-30397580D01*
X46795677Y-30397581D01*
X46931004Y-30424500D01*
X46931007Y-30424500D01*
X47068995Y-30424500D01*
X47160041Y-30406389D01*
X47204328Y-30397580D01*
X47331811Y-30344775D01*
X47446542Y-30268114D01*
X47544114Y-30170542D01*
X47620775Y-30055811D01*
X47673580Y-29928328D01*
X47700500Y-29792993D01*
X47700500Y-29655007D01*
X47700500Y-29655004D01*
X47673581Y-29519677D01*
X47673580Y-29519676D01*
X47673580Y-29519672D01*
X47673578Y-29519667D01*
X47620778Y-29392195D01*
X47620771Y-29392182D01*
X47544114Y-29277458D01*
X47544111Y-29277454D01*
X47536819Y-29270162D01*
X47503334Y-29208839D01*
X47500500Y-29182481D01*
X47500500Y-27434109D01*
X47500500Y-27434108D01*
X47493877Y-27409392D01*
X47466392Y-27306814D01*
X47446688Y-27272686D01*
X47400500Y-27192686D01*
X47307314Y-27099500D01*
X44236819Y-24029005D01*
X44203334Y-23967682D01*
X44200500Y-23941324D01*
X44200500Y-23931004D01*
X44173581Y-23795677D01*
X44173580Y-23795676D01*
X44173580Y-23795672D01*
X44149415Y-23737332D01*
X44120778Y-23668195D01*
X44120771Y-23668182D01*
X44044114Y-23553458D01*
X44044111Y-23553454D01*
X43946545Y-23455888D01*
X43946541Y-23455885D01*
X43831817Y-23379228D01*
X43831804Y-23379221D01*
X43704332Y-23326421D01*
X43704322Y-23326418D01*
X43568995Y-23299500D01*
X43568993Y-23299500D01*
X43431007Y-23299500D01*
X43431005Y-23299500D01*
X43295677Y-23326418D01*
X43295667Y-23326421D01*
X43168195Y-23379221D01*
X43168182Y-23379228D01*
X43053458Y-23455885D01*
X43053454Y-23455888D01*
X42955888Y-23553454D01*
X42955885Y-23553458D01*
X42879228Y-23668182D01*
X42879221Y-23668195D01*
X42826421Y-23795667D01*
X42826418Y-23795677D01*
X42799500Y-23931004D01*
X42799500Y-23931007D01*
X42799500Y-24068993D01*
X42799500Y-24068995D01*
X42799499Y-24068995D01*
X29625000Y-24068995D01*
X29625000Y-23870027D01*
X29624999Y-23870014D01*
X29614506Y-23767310D01*
X29614505Y-23767303D01*
X29559358Y-23600881D01*
X29559356Y-23600876D01*
X29467315Y-23451655D01*
X29343344Y-23327684D01*
X29194123Y-23235643D01*
X29194118Y-23235641D01*
X29027696Y-23180494D01*
X29027689Y-23180493D01*
X28924985Y-23170000D01*
X28025000Y-23170000D01*
X28025000Y-24203519D01*
X28022936Y-24202665D01*
X27858718Y-24170000D01*
X27691282Y-24170000D01*
X27527064Y-24202665D01*
X27525000Y-24203519D01*
X27525000Y-23170000D01*
X26625014Y-23170000D01*
X26522310Y-23180493D01*
X26522303Y-23180494D01*
X26355881Y-23235641D01*
X26355876Y-23235643D01*
X26206655Y-23327684D01*
X26082684Y-23451655D01*
X25990643Y-23600876D01*
X25990641Y-23600881D01*
X25935494Y-23767303D01*
X25935493Y-23767310D01*
X25925000Y-23870014D01*
X13000500Y-23870014D01*
X13000500Y-17502705D01*
X13000618Y-17497296D01*
X13001578Y-17475301D01*
X13005051Y-17395756D01*
X14999500Y-17395756D01*
X14999500Y-17714241D01*
X15035156Y-18030698D01*
X15035158Y-18030710D01*
X15106025Y-18341202D01*
X15106029Y-18341214D01*
X15211213Y-18641811D01*
X15211216Y-18641819D01*
X15349389Y-18928739D01*
X15349393Y-18928745D01*
X15518833Y-19198407D01*
X15717400Y-19447402D01*
X15942597Y-19672599D01*
X16191592Y-19871166D01*
X16414210Y-20011046D01*
X16461259Y-20040609D01*
X16748179Y-20178782D01*
X16748186Y-20178784D01*
X16748191Y-20178787D01*
X16973956Y-20257785D01*
X17048784Y-20283969D01*
X17048796Y-20283973D01*
X17359288Y-20354841D01*
X17675758Y-20390498D01*
X17675759Y-20390499D01*
X17675762Y-20390499D01*
X17994241Y-20390499D01*
X17994241Y-20390498D01*
X18310712Y-20354841D01*
X18621204Y-20283973D01*
X18921809Y-20178787D01*
X18921817Y-20178783D01*
X18921820Y-20178782D01*
X19208740Y-20040609D01*
X19208740Y-20040608D01*
X19208746Y-20040606D01*
X19478408Y-19871166D01*
X19727403Y-19672599D01*
X19952600Y-19447402D01*
X20151167Y-19198407D01*
X20320607Y-18928745D01*
X20328596Y-18912155D01*
X71408630Y-18912155D01*
X71408630Y-20960000D01*
X71980077Y-20960000D01*
X72687184Y-20960000D01*
X72880075Y-20960000D01*
X73887184Y-20960000D01*
X74080075Y-20960000D01*
X73983630Y-20863553D01*
X73887184Y-20960000D01*
X72880075Y-20960000D01*
X72783630Y-20863553D01*
X72687184Y-20960000D01*
X71980077Y-20960000D01*
X71980077Y-20959999D01*
X72096852Y-20843225D01*
X72430076Y-20510001D01*
X72430076Y-20509999D01*
X72400240Y-20480163D01*
X72633630Y-20480163D01*
X72633630Y-20539837D01*
X72656466Y-20594968D01*
X72698662Y-20637164D01*
X72753793Y-20660000D01*
X72813467Y-20660000D01*
X72868598Y-20637164D01*
X72910794Y-20594968D01*
X72933630Y-20539837D01*
X72933630Y-20480163D01*
X73833630Y-20480163D01*
X73833630Y-20539837D01*
X73856466Y-20594968D01*
X73898662Y-20637164D01*
X73953793Y-20660000D01*
X74013467Y-20660000D01*
X74068598Y-20637164D01*
X74110794Y-20594968D01*
X74133630Y-20539837D01*
X74133630Y-20480163D01*
X74110794Y-20425032D01*
X74068598Y-20382836D01*
X74013467Y-20360000D01*
X73953793Y-20360000D01*
X73898662Y-20382836D01*
X73856466Y-20425032D01*
X73833630Y-20480163D01*
X72933630Y-20480163D01*
X72910794Y-20425032D01*
X72868598Y-20382836D01*
X72813467Y-20360000D01*
X72753793Y-20360000D01*
X72698662Y-20382836D01*
X72656466Y-20425032D01*
X72633630Y-20480163D01*
X72400240Y-20480163D01*
X72036925Y-20116848D01*
X72003440Y-20055525D01*
X72001937Y-20011046D01*
X72009478Y-19959999D01*
X72587183Y-19959999D01*
X72783630Y-20156446D01*
X72980076Y-19960001D01*
X72980076Y-19960000D01*
X72980075Y-19959999D01*
X73787183Y-19959999D01*
X73983630Y-20156446D01*
X74180076Y-19960001D01*
X74180076Y-19960000D01*
X73983630Y-19763553D01*
X73787183Y-19959999D01*
X72980075Y-19959999D01*
X72783630Y-19763553D01*
X72587183Y-19959999D01*
X72009478Y-19959999D01*
X72013169Y-19935009D01*
X72003439Y-19917190D01*
X72008423Y-19847498D01*
X72036924Y-19803151D01*
X72459913Y-19380163D01*
X72633630Y-19380163D01*
X72633630Y-19439837D01*
X72656466Y-19494968D01*
X72698662Y-19537164D01*
X72753793Y-19560000D01*
X72813467Y-19560000D01*
X72868598Y-19537164D01*
X72910794Y-19494968D01*
X72933630Y-19439837D01*
X72933630Y-19380163D01*
X73833630Y-19380163D01*
X73833630Y-19439837D01*
X73856466Y-19494968D01*
X73898662Y-19537164D01*
X73953793Y-19560000D01*
X74013467Y-19560000D01*
X74068598Y-19537164D01*
X74110794Y-19494968D01*
X74133630Y-19439837D01*
X74133630Y-19380163D01*
X74110794Y-19325032D01*
X74068598Y-19282836D01*
X74013467Y-19260000D01*
X73953793Y-19260000D01*
X73898662Y-19282836D01*
X73856466Y-19325032D01*
X73833630Y-19380163D01*
X72933630Y-19380163D01*
X72910794Y-19325032D01*
X72868598Y-19282836D01*
X72813467Y-19260000D01*
X72753793Y-19260000D01*
X72698662Y-19282836D01*
X72656466Y-19325032D01*
X72633630Y-19380163D01*
X72459913Y-19380163D01*
X72606853Y-19233223D01*
X73133629Y-18706446D01*
X73633630Y-18706446D01*
X74160407Y-19233223D01*
X74730334Y-19803151D01*
X74763819Y-19864474D01*
X74766653Y-19890832D01*
X74766653Y-20029167D01*
X74760414Y-20050411D01*
X74758836Y-20072497D01*
X74749802Y-20086554D01*
X74746968Y-20096206D01*
X74739366Y-20102792D01*
X74730334Y-20116848D01*
X74337183Y-20509999D01*
X74337183Y-20510000D01*
X74787183Y-20960000D01*
X75358630Y-20960000D01*
X75358630Y-18912172D01*
X75358629Y-18912155D01*
X75352228Y-18852627D01*
X75352226Y-18852620D01*
X75301984Y-18717913D01*
X75301980Y-18717906D01*
X75215820Y-18602812D01*
X75215817Y-18602809D01*
X75100723Y-18516649D01*
X75100716Y-18516645D01*
X74966009Y-18466403D01*
X74966002Y-18466401D01*
X74906474Y-18460000D01*
X73633630Y-18460000D01*
X73633630Y-18706446D01*
X73133629Y-18706446D01*
X73133630Y-18706445D01*
X73133630Y-18460000D01*
X71860785Y-18460000D01*
X71801257Y-18466401D01*
X71801250Y-18466403D01*
X71666543Y-18516645D01*
X71666536Y-18516649D01*
X71551442Y-18602809D01*
X71551439Y-18602812D01*
X71465279Y-18717906D01*
X71465275Y-18717913D01*
X71415033Y-18852620D01*
X71415031Y-18852627D01*
X71408630Y-18912155D01*
X20328596Y-18912155D01*
X20356097Y-18855050D01*
X20356097Y-18855049D01*
X20360509Y-18845885D01*
X20458788Y-18641808D01*
X20563974Y-18341203D01*
X20634842Y-18030711D01*
X20670500Y-17714237D01*
X20670500Y-17395761D01*
X20634842Y-17079287D01*
X20563974Y-16768795D01*
X20458788Y-16468190D01*
X20458785Y-16468185D01*
X20458783Y-16468178D01*
X20320610Y-16181258D01*
X20317774Y-16176744D01*
X20151167Y-15911591D01*
X19952600Y-15662596D01*
X19727403Y-15437399D01*
X19695117Y-15411652D01*
X19486876Y-15245585D01*
X19478405Y-15238830D01*
X19208740Y-15069388D01*
X18921820Y-14931215D01*
X18921812Y-14931212D01*
X18621215Y-14826028D01*
X18621203Y-14826024D01*
X18381579Y-14771331D01*
X18310712Y-14755157D01*
X18310708Y-14755156D01*
X18310699Y-14755155D01*
X17994242Y-14719499D01*
X17994238Y-14719499D01*
X17675762Y-14719499D01*
X17675757Y-14719499D01*
X17359300Y-14755155D01*
X17359288Y-14755157D01*
X17048796Y-14826024D01*
X17048784Y-14826028D01*
X16748187Y-14931212D01*
X16748179Y-14931215D01*
X16461259Y-15069388D01*
X16191593Y-15238831D01*
X15942597Y-15437398D01*
X15717399Y-15662596D01*
X15518832Y-15911592D01*
X15349389Y-16181258D01*
X15211216Y-16468178D01*
X15211213Y-16468186D01*
X15106029Y-16768783D01*
X15106025Y-16768795D01*
X15035158Y-17079287D01*
X15035156Y-17079299D01*
X14999500Y-17395756D01*
X13005051Y-17395756D01*
X13017386Y-17113226D01*
X13018325Y-17102496D01*
X13068151Y-16724032D01*
X13070024Y-16713402D01*
X13152648Y-16340714D01*
X13155446Y-16330276D01*
X13157110Y-16324999D01*
X13270229Y-15966228D01*
X13273917Y-15956096D01*
X13420003Y-15603412D01*
X13424561Y-15593638D01*
X13600822Y-15255045D01*
X13606217Y-15245700D01*
X13811325Y-14923744D01*
X13817518Y-14914901D01*
X14049896Y-14612060D01*
X14056834Y-14603791D01*
X14314726Y-14322352D01*
X14322352Y-14314726D01*
X14365691Y-14275013D01*
X26400000Y-14275013D01*
X26400000Y-14700000D01*
X27219670Y-14700000D01*
X27199925Y-14719745D01*
X27150556Y-14805255D01*
X27125000Y-14900630D01*
X27125000Y-14999370D01*
X27150556Y-15094745D01*
X27199925Y-15180255D01*
X27219670Y-15200000D01*
X26400001Y-15200000D01*
X26400001Y-15624986D01*
X26410494Y-15727697D01*
X26465641Y-15894119D01*
X26465643Y-15894124D01*
X26557684Y-16043345D01*
X26681654Y-16167315D01*
X26830875Y-16259356D01*
X26830880Y-16259358D01*
X26997302Y-16314505D01*
X26997309Y-16314506D01*
X27100019Y-16324999D01*
X27249999Y-16324999D01*
X27250000Y-16324998D01*
X27250000Y-15230330D01*
X27269745Y-15250075D01*
X27355255Y-15299444D01*
X27450630Y-15325000D01*
X27549370Y-15325000D01*
X27644745Y-15299444D01*
X27730255Y-15250075D01*
X27750000Y-15230330D01*
X27750000Y-16324999D01*
X27899972Y-16324999D01*
X27899986Y-16324998D01*
X28002697Y-16314505D01*
X28169119Y-16259358D01*
X28169124Y-16259356D01*
X28318345Y-16167315D01*
X28442315Y-16043345D01*
X28535898Y-15891624D01*
X28587846Y-15844900D01*
X28656809Y-15833677D01*
X28720891Y-15861521D01*
X28729118Y-15869040D01*
X28862214Y-16002136D01*
X28862218Y-16002139D01*
X29026079Y-16111628D01*
X29026092Y-16111635D01*
X29183284Y-16176745D01*
X29208165Y-16187051D01*
X29208169Y-16187051D01*
X29208170Y-16187052D01*
X29401456Y-16225500D01*
X29401459Y-16225500D01*
X29598543Y-16225500D01*
X29728582Y-16199632D01*
X29791835Y-16187051D01*
X29973914Y-16111632D01*
X30137782Y-16002139D01*
X30277139Y-15862782D01*
X30386632Y-15698914D01*
X30462051Y-15516835D01*
X30482972Y-15411658D01*
X30500500Y-15323543D01*
X30500500Y-14576456D01*
X30462052Y-14383170D01*
X30462051Y-14383169D01*
X30462051Y-14383165D01*
X30410744Y-14259298D01*
X34499500Y-14259298D01*
X34499500Y-15640701D01*
X34502401Y-15677567D01*
X34502402Y-15677573D01*
X34548254Y-15835393D01*
X34548255Y-15835396D01*
X34548256Y-15835398D01*
X34556889Y-15849996D01*
X34611064Y-15941602D01*
X34631918Y-15976864D01*
X34631923Y-15976870D01*
X34748129Y-16093076D01*
X34748133Y-16093079D01*
X34748135Y-16093081D01*
X34889602Y-16176744D01*
X34905122Y-16181253D01*
X35047426Y-16222597D01*
X35047429Y-16222597D01*
X35047431Y-16222598D01*
X35084306Y-16225500D01*
X35084314Y-16225500D01*
X35915686Y-16225500D01*
X35915694Y-16225500D01*
X35952569Y-16222598D01*
X35952571Y-16222597D01*
X35952573Y-16222597D01*
X36005662Y-16207173D01*
X36110398Y-16176744D01*
X36251865Y-16093081D01*
X36368081Y-15976865D01*
X36451744Y-15835398D01*
X36454084Y-15827343D01*
X36491687Y-15768458D01*
X36555158Y-15739249D01*
X36624345Y-15748992D01*
X36676263Y-15793044D01*
X36722860Y-15862781D01*
X36722863Y-15862785D01*
X36862214Y-16002136D01*
X36862218Y-16002139D01*
X37026079Y-16111628D01*
X37026092Y-16111635D01*
X37183284Y-16176745D01*
X37208165Y-16187051D01*
X37208169Y-16187051D01*
X37208170Y-16187052D01*
X37401456Y-16225500D01*
X37401459Y-16225500D01*
X37598543Y-16225500D01*
X37728582Y-16199632D01*
X37791835Y-16187051D01*
X37973914Y-16111632D01*
X38137782Y-16002139D01*
X38277139Y-15862782D01*
X38386632Y-15698914D01*
X38386634Y-15698907D01*
X38389502Y-15693544D01*
X38391310Y-15694510D01*
X38429272Y-15647397D01*
X38495564Y-15625326D01*
X38563265Y-15642600D01*
X38610879Y-15693734D01*
X38612522Y-15697331D01*
X38613371Y-15698920D01*
X38722860Y-15862781D01*
X38722863Y-15862785D01*
X38862214Y-16002136D01*
X38862218Y-16002139D01*
X39026079Y-16111628D01*
X39026092Y-16111635D01*
X39183284Y-16176745D01*
X39208165Y-16187051D01*
X39208169Y-16187051D01*
X39208170Y-16187052D01*
X39401456Y-16225500D01*
X39401459Y-16225500D01*
X39598543Y-16225500D01*
X39728582Y-16199632D01*
X39791835Y-16187051D01*
X39973914Y-16111632D01*
X40137782Y-16002139D01*
X40277139Y-15862782D01*
X40386632Y-15698914D01*
X40386634Y-15698907D01*
X40389502Y-15693544D01*
X40391310Y-15694510D01*
X40429272Y-15647397D01*
X40495564Y-15625326D01*
X40563265Y-15642600D01*
X40610879Y-15693734D01*
X40612522Y-15697331D01*
X40613371Y-15698920D01*
X40722860Y-15862781D01*
X40722863Y-15862785D01*
X40862214Y-16002136D01*
X40862218Y-16002139D01*
X41026079Y-16111628D01*
X41026092Y-16111635D01*
X41183284Y-16176745D01*
X41208165Y-16187051D01*
X41208169Y-16187051D01*
X41208170Y-16187052D01*
X41401456Y-16225500D01*
X41401459Y-16225500D01*
X41598543Y-16225500D01*
X41728582Y-16199632D01*
X41791835Y-16187051D01*
X41973914Y-16111632D01*
X42137782Y-16002139D01*
X42277139Y-15862782D01*
X42386632Y-15698914D01*
X42462051Y-15516835D01*
X42482972Y-15411658D01*
X42500500Y-15323543D01*
X42500500Y-14576456D01*
X42462052Y-14383170D01*
X42462051Y-14383169D01*
X42462051Y-14383165D01*
X42410744Y-14259298D01*
X46499500Y-14259298D01*
X46499500Y-15640701D01*
X46502401Y-15677567D01*
X46502402Y-15677573D01*
X46548254Y-15835393D01*
X46548255Y-15835396D01*
X46548256Y-15835398D01*
X46556889Y-15849996D01*
X46611064Y-15941602D01*
X46631918Y-15976864D01*
X46631923Y-15976870D01*
X46748129Y-16093076D01*
X46748133Y-16093079D01*
X46748135Y-16093081D01*
X46889602Y-16176744D01*
X46905122Y-16181253D01*
X47047426Y-16222597D01*
X47047429Y-16222597D01*
X47047431Y-16222598D01*
X47084306Y-16225500D01*
X47084314Y-16225500D01*
X47915686Y-16225500D01*
X47915694Y-16225500D01*
X47952569Y-16222598D01*
X47952571Y-16222597D01*
X47952573Y-16222597D01*
X48005662Y-16207173D01*
X48110398Y-16176744D01*
X48251865Y-16093081D01*
X48368081Y-15976865D01*
X48414912Y-15897676D01*
X48465978Y-15849996D01*
X48534719Y-15837491D01*
X48599309Y-15864136D01*
X48621960Y-15887915D01*
X48660961Y-15941595D01*
X48660965Y-15941600D01*
X48783397Y-16064032D01*
X48923475Y-16165804D01*
X49077744Y-16244408D01*
X49242415Y-16297914D01*
X49242414Y-16297914D01*
X49249999Y-16299115D01*
X49250000Y-16299114D01*
X49250000Y-15230330D01*
X49269745Y-15250075D01*
X49355255Y-15299444D01*
X49450630Y-15325000D01*
X49549370Y-15325000D01*
X49644745Y-15299444D01*
X49730255Y-15250075D01*
X49750000Y-15230330D01*
X49750000Y-16299115D01*
X49757584Y-16297914D01*
X49922255Y-16244408D01*
X50076524Y-16165804D01*
X50216602Y-16064032D01*
X50339032Y-15941602D01*
X50440804Y-15801524D01*
X50519408Y-15647257D01*
X50572914Y-15482584D01*
X50600000Y-15311571D01*
X50600000Y-15200000D01*
X49780330Y-15200000D01*
X49800075Y-15180255D01*
X49849444Y-15094745D01*
X49875000Y-14999370D01*
X49875000Y-14900630D01*
X49849444Y-14805255D01*
X49800075Y-14719745D01*
X49780330Y-14700000D01*
X50600000Y-14700000D01*
X50600000Y-14588428D01*
X50572914Y-14417415D01*
X50519408Y-14252742D01*
X50440804Y-14098475D01*
X50339032Y-13958397D01*
X50216602Y-13835967D01*
X50076524Y-13734195D01*
X49922257Y-13655591D01*
X49757589Y-13602087D01*
X49757581Y-13602085D01*
X49750000Y-13600884D01*
X49750000Y-14669670D01*
X49730255Y-14649925D01*
X49644745Y-14600556D01*
X49549370Y-14575000D01*
X49450630Y-14575000D01*
X49355255Y-14600556D01*
X49269745Y-14649925D01*
X49250000Y-14669670D01*
X49250000Y-13600884D01*
X49249999Y-13600884D01*
X49242418Y-13602085D01*
X49242410Y-13602087D01*
X49077742Y-13655591D01*
X48923475Y-13734195D01*
X48783397Y-13835967D01*
X48660965Y-13958399D01*
X48660959Y-13958406D01*
X48621959Y-14012085D01*
X48566629Y-14054751D01*
X48497016Y-14060729D01*
X48435221Y-14028123D01*
X48414913Y-14002324D01*
X48368081Y-13923135D01*
X48368076Y-13923129D01*
X48251870Y-13806923D01*
X48251862Y-13806917D01*
X48110396Y-13723255D01*
X48110393Y-13723254D01*
X47952573Y-13677402D01*
X47952567Y-13677401D01*
X47915701Y-13674500D01*
X47915694Y-13674500D01*
X47084306Y-13674500D01*
X47084298Y-13674500D01*
X47047432Y-13677401D01*
X47047426Y-13677402D01*
X46889606Y-13723254D01*
X46889603Y-13723255D01*
X46748137Y-13806917D01*
X46748129Y-13806923D01*
X46631923Y-13923129D01*
X46631917Y-13923137D01*
X46548255Y-14064603D01*
X46548254Y-14064606D01*
X46502402Y-14222426D01*
X46502401Y-14222432D01*
X46499500Y-14259298D01*
X42410744Y-14259298D01*
X42395474Y-14222432D01*
X42386635Y-14201092D01*
X42386628Y-14201079D01*
X42277139Y-14037218D01*
X42277136Y-14037214D01*
X42137785Y-13897863D01*
X42137781Y-13897860D01*
X41973920Y-13788371D01*
X41973907Y-13788364D01*
X41791839Y-13712950D01*
X41791829Y-13712947D01*
X41598543Y-13674500D01*
X41598541Y-13674500D01*
X41401459Y-13674500D01*
X41401457Y-13674500D01*
X41208170Y-13712947D01*
X41208160Y-13712950D01*
X41026092Y-13788364D01*
X41026079Y-13788371D01*
X40862218Y-13897860D01*
X40862214Y-13897863D01*
X40722863Y-14037214D01*
X40722860Y-14037218D01*
X40613371Y-14201079D01*
X40610498Y-14206456D01*
X40608691Y-14205490D01*
X40570715Y-14252612D01*
X40504420Y-14274673D01*
X40436721Y-14257391D01*
X40389113Y-14206251D01*
X40387473Y-14202660D01*
X40386628Y-14201079D01*
X40277139Y-14037218D01*
X40277136Y-14037214D01*
X40137785Y-13897863D01*
X40137781Y-13897860D01*
X39973920Y-13788371D01*
X39973907Y-13788364D01*
X39791839Y-13712950D01*
X39791829Y-13712947D01*
X39598543Y-13674500D01*
X39598541Y-13674500D01*
X39401459Y-13674500D01*
X39401457Y-13674500D01*
X39208170Y-13712947D01*
X39208160Y-13712950D01*
X39026092Y-13788364D01*
X39026079Y-13788371D01*
X38862218Y-13897860D01*
X38862214Y-13897863D01*
X38722863Y-14037214D01*
X38722860Y-14037218D01*
X38613371Y-14201079D01*
X38610498Y-14206456D01*
X38608691Y-14205490D01*
X38570715Y-14252612D01*
X38504420Y-14274673D01*
X38436721Y-14257391D01*
X38389113Y-14206251D01*
X38387473Y-14202660D01*
X38386628Y-14201079D01*
X38277139Y-14037218D01*
X38277136Y-14037214D01*
X38137785Y-13897863D01*
X38137781Y-13897860D01*
X37973920Y-13788371D01*
X37973907Y-13788364D01*
X37791839Y-13712950D01*
X37791829Y-13712947D01*
X37598543Y-13674500D01*
X37598541Y-13674500D01*
X37401459Y-13674500D01*
X37401457Y-13674500D01*
X37208170Y-13712947D01*
X37208160Y-13712950D01*
X37026092Y-13788364D01*
X37026079Y-13788371D01*
X36862218Y-13897860D01*
X36862214Y-13897863D01*
X36722863Y-14037214D01*
X36676263Y-14106956D01*
X36622650Y-14151760D01*
X36553325Y-14160467D01*
X36490298Y-14130312D01*
X36454084Y-14072656D01*
X36451745Y-14064606D01*
X36451744Y-14064602D01*
X36368081Y-13923135D01*
X36368079Y-13923133D01*
X36368076Y-13923129D01*
X36251870Y-13806923D01*
X36251862Y-13806917D01*
X36110396Y-13723255D01*
X36110393Y-13723254D01*
X35952573Y-13677402D01*
X35952567Y-13677401D01*
X35915701Y-13674500D01*
X35915694Y-13674500D01*
X35084306Y-13674500D01*
X35084298Y-13674500D01*
X35047432Y-13677401D01*
X35047426Y-13677402D01*
X34889606Y-13723254D01*
X34889603Y-13723255D01*
X34748137Y-13806917D01*
X34748129Y-13806923D01*
X34631923Y-13923129D01*
X34631917Y-13923137D01*
X34548255Y-14064603D01*
X34548254Y-14064606D01*
X34502402Y-14222426D01*
X34502401Y-14222432D01*
X34499500Y-14259298D01*
X30410744Y-14259298D01*
X30395474Y-14222432D01*
X30386635Y-14201092D01*
X30386628Y-14201079D01*
X30277139Y-14037218D01*
X30277136Y-14037214D01*
X30137785Y-13897863D01*
X30137781Y-13897860D01*
X29973920Y-13788371D01*
X29973907Y-13788364D01*
X29791839Y-13712950D01*
X29791829Y-13712947D01*
X29598543Y-13674500D01*
X29598541Y-13674500D01*
X29401459Y-13674500D01*
X29401457Y-13674500D01*
X29208170Y-13712947D01*
X29208160Y-13712950D01*
X29026092Y-13788364D01*
X29026079Y-13788371D01*
X28862218Y-13897860D01*
X28729118Y-14030960D01*
X28667795Y-14064444D01*
X28598103Y-14059460D01*
X28542170Y-14017588D01*
X28535898Y-14008375D01*
X28442315Y-13856654D01*
X28318345Y-13732684D01*
X28169124Y-13640643D01*
X28169119Y-13640641D01*
X28002697Y-13585494D01*
X28002690Y-13585493D01*
X27899986Y-13575000D01*
X27750000Y-13575000D01*
X27750000Y-14669670D01*
X27730255Y-14649925D01*
X27644745Y-14600556D01*
X27549370Y-14575000D01*
X27450630Y-14575000D01*
X27355255Y-14600556D01*
X27269745Y-14649925D01*
X27250000Y-14669670D01*
X27250000Y-13575000D01*
X27100027Y-13575000D01*
X27100012Y-13575001D01*
X26997302Y-13585494D01*
X26830880Y-13640641D01*
X26830875Y-13640643D01*
X26681654Y-13732684D01*
X26557684Y-13856654D01*
X26465643Y-14005875D01*
X26465641Y-14005880D01*
X26410494Y-14172302D01*
X26410493Y-14172309D01*
X26400000Y-14275013D01*
X14365691Y-14275013D01*
X14603804Y-14056823D01*
X14612060Y-14049896D01*
X14914909Y-13817511D01*
X14923758Y-13811317D01*
X15245702Y-13606215D01*
X15255023Y-13600833D01*
X15593638Y-13424561D01*
X15603412Y-13420003D01*
X15956095Y-13273917D01*
X15966227Y-13270229D01*
X16330294Y-13155440D01*
X16340708Y-13152649D01*
X16713404Y-13070025D01*
X16724024Y-13068152D01*
X17102494Y-13018326D01*
X17113225Y-13017386D01*
X17497327Y-13000616D01*
X17502720Y-13000499D01*
X17565891Y-13000499D01*
X137434108Y-13000499D01*
X137497294Y-13000499D01*
X137502702Y-13000616D01*
G37*
%TD.AperFunction*%
%TA.AperFunction,Conductor*%
G36*
X141942539Y-42919685D02*
G01*
X141988294Y-42972489D01*
X141999500Y-43024000D01*
X141999500Y-56497292D01*
X141999382Y-56502701D01*
X141982614Y-56886750D01*
X141981671Y-56897526D01*
X141931850Y-57275954D01*
X141929972Y-57286608D01*
X141847353Y-57659275D01*
X141844553Y-57669723D01*
X141729775Y-58033754D01*
X141726075Y-58043920D01*
X141580002Y-58396571D01*
X141575430Y-58406375D01*
X141399184Y-58744941D01*
X141393776Y-58754309D01*
X141188685Y-59076238D01*
X141182480Y-59085100D01*
X140950111Y-59387928D01*
X140943158Y-59396214D01*
X140685279Y-59677641D01*
X140677629Y-59685290D01*
X140396217Y-59943156D01*
X140387930Y-59950110D01*
X140085097Y-60182481D01*
X140076236Y-60188685D01*
X139754319Y-60393770D01*
X139744951Y-60399179D01*
X139406376Y-60575430D01*
X139396572Y-60580002D01*
X139043921Y-60726075D01*
X139033755Y-60729775D01*
X138669721Y-60844554D01*
X138659272Y-60847354D01*
X138286610Y-60929971D01*
X138275957Y-60931849D01*
X137897526Y-60981671D01*
X137886750Y-60982614D01*
X137502726Y-60999381D01*
X137497317Y-60999499D01*
X124302706Y-60999499D01*
X124297297Y-60999381D01*
X123913249Y-60982613D01*
X123902473Y-60981670D01*
X123524042Y-60931848D01*
X123513389Y-60929970D01*
X123140727Y-60847353D01*
X123130278Y-60844553D01*
X122766245Y-60729774D01*
X122756079Y-60726074D01*
X122403427Y-60580001D01*
X122393623Y-60575429D01*
X122055057Y-60399182D01*
X122045689Y-60393774D01*
X121723755Y-60188680D01*
X121714894Y-60182475D01*
X121412069Y-59950109D01*
X121403782Y-59943155D01*
X121122364Y-59685283D01*
X121114715Y-59677634D01*
X120856843Y-59396216D01*
X120849889Y-59387929D01*
X120617518Y-59085096D01*
X120611314Y-59076235D01*
X120525265Y-58941166D01*
X120406221Y-58754304D01*
X120400828Y-58744964D01*
X120224567Y-58406369D01*
X120220001Y-58396577D01*
X120073921Y-58043910D01*
X120070225Y-58033754D01*
X120060922Y-58004249D01*
X119955446Y-57669719D01*
X119952647Y-57659274D01*
X119901751Y-57429699D01*
X119870026Y-57286600D01*
X119868150Y-57275954D01*
X119865341Y-57254616D01*
X119818327Y-56897506D01*
X119817387Y-56886770D01*
X119800617Y-56502670D01*
X119800500Y-56497278D01*
X119800500Y-54400000D01*
X121454157Y-54400000D01*
X122308019Y-54400000D01*
X122290802Y-54409940D01*
X122234947Y-54465795D01*
X122195451Y-54534204D01*
X122175007Y-54610504D01*
X122175007Y-54689496D01*
X122195451Y-54765796D01*
X122234947Y-54834205D01*
X122290802Y-54890060D01*
X122308019Y-54900000D01*
X121454157Y-54900000D01*
X121465350Y-54956274D01*
X121465351Y-54956276D01*
X121544500Y-55147358D01*
X121544505Y-55147368D01*
X121659410Y-55319335D01*
X121659413Y-55319339D01*
X121805660Y-55465586D01*
X121805664Y-55465589D01*
X121977631Y-55580494D01*
X121977641Y-55580499D01*
X122168723Y-55659648D01*
X122168725Y-55659649D01*
X122350000Y-55695705D01*
X122350000Y-54924238D01*
X122359211Y-54929556D01*
X122435511Y-54950000D01*
X122764489Y-54950000D01*
X122840789Y-54929556D01*
X122850000Y-54924238D01*
X122850000Y-55695705D01*
X123031274Y-55659649D01*
X123031276Y-55659648D01*
X123222358Y-55580499D01*
X123222368Y-55580494D01*
X123394335Y-55465589D01*
X123394339Y-55465586D01*
X123540587Y-55319338D01*
X123617558Y-55204142D01*
X123671170Y-55159337D01*
X123740495Y-55150629D01*
X123803523Y-55180783D01*
X123835222Y-55225579D01*
X123879223Y-55331807D01*
X123879228Y-55331817D01*
X123955885Y-55446541D01*
X123955888Y-55446545D01*
X124053454Y-55544111D01*
X124053458Y-55544114D01*
X124168182Y-55620771D01*
X124168195Y-55620778D01*
X124262037Y-55659648D01*
X124295672Y-55673580D01*
X124295676Y-55673580D01*
X124295677Y-55673581D01*
X124431004Y-55700500D01*
X124431007Y-55700500D01*
X124568995Y-55700500D01*
X124660041Y-55682389D01*
X124704328Y-55673580D01*
X124831811Y-55620775D01*
X124946542Y-55544114D01*
X125044114Y-55446542D01*
X125120775Y-55331811D01*
X125125942Y-55319338D01*
X125156423Y-55245749D01*
X125173580Y-55204328D01*
X125184145Y-55151216D01*
X125200500Y-55068995D01*
X125200500Y-55058676D01*
X125220185Y-54991637D01*
X125236819Y-54970995D01*
X125807814Y-54400000D01*
X126254157Y-54400000D01*
X127108019Y-54400000D01*
X127090802Y-54409940D01*
X127034947Y-54465795D01*
X126995451Y-54534204D01*
X126975007Y-54610504D01*
X126975007Y-54689496D01*
X126995451Y-54765796D01*
X127034947Y-54834205D01*
X127090802Y-54890060D01*
X127108019Y-54900000D01*
X126254157Y-54900000D01*
X126265350Y-54956274D01*
X126265351Y-54956276D01*
X126344500Y-55147358D01*
X126344505Y-55147368D01*
X126459410Y-55319335D01*
X126459413Y-55319339D01*
X126605660Y-55465586D01*
X126605664Y-55465589D01*
X126777631Y-55580494D01*
X126777641Y-55580499D01*
X126968723Y-55659648D01*
X126968725Y-55659649D01*
X127150000Y-55695705D01*
X127150000Y-54924238D01*
X127159211Y-54929556D01*
X127235511Y-54950000D01*
X127564489Y-54950000D01*
X127640789Y-54929556D01*
X127650000Y-54924238D01*
X127650000Y-55695705D01*
X127831274Y-55659649D01*
X127831276Y-55659648D01*
X128022358Y-55580499D01*
X128022368Y-55580494D01*
X128181460Y-55474192D01*
X128248137Y-55453314D01*
X128315518Y-55471798D01*
X128362208Y-55523777D01*
X128373384Y-55592747D01*
X128357738Y-55639294D01*
X128253235Y-55820297D01*
X128253231Y-55820307D01*
X128162160Y-56040171D01*
X128143909Y-56108286D01*
X128108337Y-56241046D01*
X128100564Y-56270054D01*
X128069500Y-56505997D01*
X128069500Y-56744000D01*
X128089006Y-56892156D01*
X128100564Y-56979945D01*
X128131362Y-57094884D01*
X128162160Y-57209826D01*
X128245578Y-57411214D01*
X128253234Y-57429697D01*
X128372228Y-57635801D01*
X128372230Y-57635804D01*
X128372231Y-57635805D01*
X128517104Y-57824607D01*
X128517110Y-57824614D01*
X128685384Y-57992888D01*
X128685391Y-57992894D01*
X128693016Y-57998745D01*
X128874198Y-58137771D01*
X129080302Y-58256765D01*
X129226884Y-58317481D01*
X129300172Y-58347838D01*
X129300173Y-58347838D01*
X129300175Y-58347839D01*
X129530054Y-58409435D01*
X129766006Y-58440499D01*
X129766013Y-58440499D01*
X130003987Y-58440499D01*
X130003994Y-58440499D01*
X130239946Y-58409435D01*
X130469825Y-58347839D01*
X130689698Y-58256765D01*
X130895802Y-58137771D01*
X131084610Y-57992893D01*
X131252894Y-57824609D01*
X131397772Y-57635801D01*
X131516766Y-57429697D01*
X131607840Y-57209824D01*
X131669436Y-56979945D01*
X131700500Y-56743993D01*
X131700500Y-56506005D01*
X131699343Y-56497218D01*
X131696875Y-56478466D01*
X131695202Y-56465756D01*
X135319500Y-56465756D01*
X135319500Y-56784241D01*
X135355156Y-57100698D01*
X135355158Y-57100710D01*
X135426025Y-57411202D01*
X135426029Y-57411214D01*
X135531213Y-57711811D01*
X135531216Y-57711819D01*
X135669389Y-57998739D01*
X135749455Y-58126163D01*
X135838833Y-58268407D01*
X135941041Y-58396572D01*
X136024466Y-58501184D01*
X136037400Y-58517402D01*
X136262597Y-58742599D01*
X136511592Y-58941166D01*
X136781254Y-59110606D01*
X136781259Y-59110609D01*
X137068179Y-59248782D01*
X137068186Y-59248784D01*
X137068191Y-59248787D01*
X137293956Y-59327785D01*
X137368784Y-59353969D01*
X137368796Y-59353973D01*
X137679288Y-59424841D01*
X137995758Y-59460498D01*
X137995759Y-59460499D01*
X137995762Y-59460499D01*
X138314241Y-59460499D01*
X138314241Y-59460498D01*
X138630712Y-59424841D01*
X138941204Y-59353973D01*
X139241809Y-59248787D01*
X139241817Y-59248783D01*
X139241820Y-59248782D01*
X139528740Y-59110609D01*
X139528740Y-59110608D01*
X139528746Y-59110606D01*
X139798408Y-58941166D01*
X140047403Y-58742599D01*
X140272600Y-58517402D01*
X140471167Y-58268407D01*
X140640607Y-57998745D01*
X140778788Y-57711808D01*
X140883974Y-57411203D01*
X140954842Y-57100711D01*
X140990500Y-56784237D01*
X140990500Y-56465761D01*
X140954842Y-56149287D01*
X140883974Y-55838795D01*
X140778788Y-55538190D01*
X140778785Y-55538185D01*
X140778783Y-55538178D01*
X140640610Y-55251258D01*
X140640607Y-55251253D01*
X140471167Y-54981591D01*
X140272600Y-54732596D01*
X140047403Y-54507399D01*
X139798408Y-54308832D01*
X139528746Y-54139392D01*
X139528747Y-54139392D01*
X139528740Y-54139388D01*
X139241820Y-54001215D01*
X139241812Y-54001212D01*
X138941215Y-53896028D01*
X138941203Y-53896024D01*
X138671265Y-53834413D01*
X138630712Y-53825157D01*
X138630708Y-53825156D01*
X138630699Y-53825155D01*
X138314242Y-53789499D01*
X138314238Y-53789499D01*
X137995762Y-53789499D01*
X137995757Y-53789499D01*
X137679300Y-53825155D01*
X137679288Y-53825157D01*
X137368796Y-53896024D01*
X137368784Y-53896028D01*
X137068187Y-54001212D01*
X137068179Y-54001215D01*
X136781259Y-54139388D01*
X136511593Y-54308831D01*
X136262597Y-54507398D01*
X136037399Y-54732596D01*
X135838832Y-54981592D01*
X135669389Y-55251258D01*
X135531216Y-55538178D01*
X135531213Y-55538186D01*
X135426029Y-55838783D01*
X135426025Y-55838795D01*
X135355158Y-56149287D01*
X135355156Y-56149299D01*
X135319500Y-56465756D01*
X131695202Y-56465756D01*
X131685038Y-56388562D01*
X131669436Y-56270053D01*
X131607840Y-56040174D01*
X131516766Y-55820301D01*
X131397772Y-55614197D01*
X131283741Y-55465589D01*
X131252895Y-55425390D01*
X131252889Y-55425383D01*
X131084615Y-55257109D01*
X131084608Y-55257103D01*
X130895806Y-55112230D01*
X130895805Y-55112229D01*
X130895802Y-55112227D01*
X130689698Y-54993233D01*
X130656993Y-54979686D01*
X130469827Y-54902159D01*
X130354885Y-54871361D01*
X130239946Y-54840563D01*
X130187512Y-54833659D01*
X130004001Y-54809499D01*
X130003994Y-54809499D01*
X129766006Y-54809499D01*
X129765998Y-54809499D01*
X129556270Y-54837111D01*
X129530054Y-54840563D01*
X129472584Y-54855962D01*
X129300172Y-54902159D01*
X129080308Y-54993230D01*
X129080299Y-54993234D01*
X128874193Y-55112230D01*
X128685392Y-55257102D01*
X128656142Y-55286352D01*
X128594818Y-55319836D01*
X128525127Y-55314850D01*
X128469194Y-55272978D01*
X128444778Y-55207513D01*
X128453901Y-55151216D01*
X128534648Y-54956276D01*
X128534649Y-54956274D01*
X128545843Y-54900000D01*
X127691981Y-54900000D01*
X127709198Y-54890060D01*
X127765053Y-54834205D01*
X127804549Y-54765796D01*
X127824993Y-54689496D01*
X127824993Y-54610504D01*
X127804549Y-54534204D01*
X127765053Y-54465795D01*
X127709198Y-54409940D01*
X127691981Y-54400000D01*
X128545843Y-54400000D01*
X128534649Y-54343725D01*
X128534648Y-54343723D01*
X128455499Y-54152641D01*
X128455494Y-54152631D01*
X128340589Y-53980664D01*
X128340586Y-53980660D01*
X128194339Y-53834413D01*
X128194335Y-53834410D01*
X128022368Y-53719505D01*
X128022358Y-53719500D01*
X127831274Y-53640350D01*
X127831266Y-53640348D01*
X127650000Y-53604292D01*
X127650000Y-54375761D01*
X127640789Y-54370444D01*
X127564489Y-54350000D01*
X127235511Y-54350000D01*
X127159211Y-54370444D01*
X127150000Y-54375761D01*
X127150000Y-53604292D01*
X127149999Y-53604292D01*
X126968733Y-53640348D01*
X126968725Y-53640350D01*
X126777641Y-53719500D01*
X126777631Y-53719505D01*
X126605664Y-53834410D01*
X126605660Y-53834413D01*
X126459413Y-53980660D01*
X126459410Y-53980664D01*
X126344505Y-54152631D01*
X126344500Y-54152641D01*
X126265351Y-54343723D01*
X126265350Y-54343725D01*
X126254157Y-54400000D01*
X125807814Y-54400000D01*
X125862164Y-54345650D01*
X125864091Y-54343723D01*
X125900500Y-54307314D01*
X125966392Y-54193186D01*
X126000500Y-54065892D01*
X126000500Y-53934107D01*
X126000500Y-52568995D01*
X128049499Y-52568995D01*
X128076418Y-52704322D01*
X128076421Y-52704332D01*
X128129221Y-52831804D01*
X128129228Y-52831817D01*
X128205885Y-52946541D01*
X128205888Y-52946545D01*
X128303454Y-53044111D01*
X128303458Y-53044114D01*
X128418182Y-53120771D01*
X128418195Y-53120778D01*
X128545667Y-53173578D01*
X128545672Y-53173580D01*
X128545676Y-53173580D01*
X128545677Y-53173581D01*
X128681004Y-53200500D01*
X128681007Y-53200500D01*
X128818995Y-53200500D01*
X128910041Y-53182389D01*
X128954328Y-53173580D01*
X129081811Y-53120775D01*
X129196542Y-53044114D01*
X129294114Y-52946542D01*
X129370775Y-52831811D01*
X129423580Y-52704328D01*
X129450500Y-52568993D01*
X129450500Y-52431007D01*
X129450500Y-52431004D01*
X129423581Y-52295677D01*
X129423580Y-52295676D01*
X129423580Y-52295672D01*
X129423578Y-52295667D01*
X129370778Y-52168195D01*
X129370771Y-52168182D01*
X129294114Y-52053458D01*
X129294111Y-52053454D01*
X129196545Y-51955888D01*
X129196541Y-51955885D01*
X129081817Y-51879228D01*
X129081804Y-51879221D01*
X128954332Y-51826421D01*
X128954322Y-51826418D01*
X128818995Y-51799500D01*
X128818993Y-51799500D01*
X128681007Y-51799500D01*
X128681005Y-51799500D01*
X128545677Y-51826418D01*
X128545667Y-51826421D01*
X128418195Y-51879221D01*
X128418182Y-51879228D01*
X128303458Y-51955885D01*
X128303454Y-51955888D01*
X128205888Y-52053454D01*
X128205885Y-52053458D01*
X128129228Y-52168182D01*
X128129221Y-52168195D01*
X128076421Y-52295667D01*
X128076418Y-52295677D01*
X128049500Y-52431004D01*
X128049500Y-52431007D01*
X128049500Y-52568993D01*
X128049500Y-52568995D01*
X128049499Y-52568995D01*
X126000500Y-52568995D01*
X126000500Y-50583774D01*
X126020185Y-50516735D01*
X126072989Y-50470980D01*
X126142147Y-50461036D01*
X126205703Y-50490061D01*
X126243477Y-50548839D01*
X126246117Y-50559583D01*
X126265348Y-50656267D01*
X126265350Y-50656274D01*
X126344500Y-50847358D01*
X126344505Y-50847368D01*
X126459410Y-51019335D01*
X126459413Y-51019339D01*
X126605660Y-51165586D01*
X126605664Y-51165589D01*
X126777631Y-51280494D01*
X126777641Y-51280499D01*
X126968723Y-51359648D01*
X126968725Y-51359649D01*
X127150000Y-51395705D01*
X127150000Y-50624238D01*
X127159211Y-50629556D01*
X127235511Y-50650000D01*
X127564489Y-50650000D01*
X127640789Y-50629556D01*
X127650000Y-50624238D01*
X127650000Y-51395705D01*
X127831274Y-51359649D01*
X127831276Y-51359648D01*
X128022358Y-51280499D01*
X128022368Y-51280494D01*
X128194335Y-51165589D01*
X128194339Y-51165586D01*
X128340586Y-51019339D01*
X128340589Y-51019335D01*
X128455494Y-50847368D01*
X128455499Y-50847358D01*
X128534648Y-50656276D01*
X128534649Y-50656274D01*
X128545843Y-50600000D01*
X127691981Y-50600000D01*
X127709198Y-50590060D01*
X127765053Y-50534205D01*
X127804549Y-50465796D01*
X127824993Y-50389496D01*
X127824993Y-50310504D01*
X127804549Y-50234204D01*
X127765053Y-50165795D01*
X127709198Y-50109940D01*
X127691981Y-50100000D01*
X128545843Y-50100000D01*
X128534649Y-50043725D01*
X128534648Y-50043723D01*
X128455499Y-49852641D01*
X128455494Y-49852631D01*
X128340589Y-49680664D01*
X128340586Y-49680660D01*
X128194339Y-49534413D01*
X128194335Y-49534410D01*
X128022368Y-49419505D01*
X128022358Y-49419500D01*
X127831274Y-49340350D01*
X127831266Y-49340348D01*
X127650000Y-49304292D01*
X127650000Y-50075761D01*
X127640789Y-50070444D01*
X127564489Y-50050000D01*
X127235511Y-50050000D01*
X127159211Y-50070444D01*
X127150000Y-50075761D01*
X127150000Y-49304292D01*
X127149999Y-49304292D01*
X126968733Y-49340348D01*
X126968725Y-49340350D01*
X126777641Y-49419500D01*
X126777631Y-49419505D01*
X126605664Y-49534410D01*
X126605660Y-49534413D01*
X126518478Y-49621596D01*
X126457155Y-49655081D01*
X126387463Y-49650097D01*
X126331530Y-49608225D01*
X126307113Y-49542761D01*
X126306986Y-49539229D01*
X126306797Y-49537301D01*
X126279878Y-49401974D01*
X126279877Y-49401973D01*
X126279877Y-49401969D01*
X126254353Y-49340348D01*
X126227075Y-49274492D01*
X126227068Y-49274479D01*
X126150411Y-49159755D01*
X126150408Y-49159751D01*
X126052842Y-49062185D01*
X126052838Y-49062182D01*
X125938114Y-48985525D01*
X125938101Y-48985518D01*
X125810629Y-48932718D01*
X125810619Y-48932715D01*
X125675292Y-48905797D01*
X125675290Y-48905797D01*
X125537304Y-48905797D01*
X125537302Y-48905797D01*
X125401974Y-48932715D01*
X125401964Y-48932718D01*
X125274492Y-48985518D01*
X125274479Y-48985525D01*
X125159755Y-49062182D01*
X125159751Y-49062185D01*
X125062185Y-49159751D01*
X125062182Y-49159755D01*
X124985525Y-49274479D01*
X124985518Y-49274492D01*
X124932718Y-49401964D01*
X124932715Y-49401974D01*
X124905797Y-49537301D01*
X124905797Y-49537304D01*
X124905797Y-49675290D01*
X124905797Y-49675292D01*
X124905796Y-49675292D01*
X124932715Y-49810619D01*
X124932718Y-49810629D01*
X124987853Y-49943737D01*
X124986696Y-49944215D01*
X124999500Y-49995319D01*
X124999500Y-53741324D01*
X124979815Y-53808363D01*
X124963181Y-53829005D01*
X124529005Y-54263181D01*
X124467682Y-54296666D01*
X124441324Y-54299500D01*
X124431005Y-54299500D01*
X124295677Y-54326418D01*
X124295667Y-54326421D01*
X124168195Y-54379221D01*
X124168182Y-54379228D01*
X124053458Y-54455885D01*
X123970191Y-54539152D01*
X123908867Y-54572636D01*
X123839176Y-54567652D01*
X123783242Y-54525780D01*
X123760892Y-54475660D01*
X123734649Y-54343725D01*
X123655499Y-54152641D01*
X123655494Y-54152631D01*
X123540589Y-53980664D01*
X123540586Y-53980660D01*
X123394339Y-53834413D01*
X123394335Y-53834410D01*
X123222368Y-53719505D01*
X123222358Y-53719500D01*
X123031274Y-53640350D01*
X123031266Y-53640348D01*
X122850000Y-53604292D01*
X122850000Y-54375761D01*
X122840789Y-54370444D01*
X122764489Y-54350000D01*
X122435511Y-54350000D01*
X122359211Y-54370444D01*
X122350000Y-54375761D01*
X122350000Y-53604292D01*
X122349999Y-53604292D01*
X122168733Y-53640348D01*
X122168725Y-53640350D01*
X121977641Y-53719500D01*
X121977631Y-53719505D01*
X121805664Y-53834410D01*
X121805660Y-53834413D01*
X121659413Y-53980660D01*
X121659410Y-53980664D01*
X121544505Y-54152631D01*
X121544500Y-54152641D01*
X121465351Y-54343723D01*
X121465350Y-54343725D01*
X121454157Y-54400000D01*
X119800500Y-54400000D01*
X119800500Y-52568995D01*
X120549499Y-52568995D01*
X120576418Y-52704322D01*
X120576421Y-52704332D01*
X120629221Y-52831804D01*
X120629228Y-52831817D01*
X120705885Y-52946541D01*
X120705888Y-52946545D01*
X120803454Y-53044111D01*
X120803458Y-53044114D01*
X120918182Y-53120771D01*
X120918195Y-53120778D01*
X121045667Y-53173578D01*
X121045672Y-53173580D01*
X121045676Y-53173580D01*
X121045677Y-53173581D01*
X121181004Y-53200500D01*
X121181007Y-53200500D01*
X121318995Y-53200500D01*
X121410041Y-53182389D01*
X121454328Y-53173580D01*
X121581811Y-53120775D01*
X121696542Y-53044114D01*
X121794114Y-52946542D01*
X121870775Y-52831811D01*
X121923580Y-52704328D01*
X121950500Y-52568993D01*
X121950500Y-52431007D01*
X121950500Y-52431004D01*
X121923581Y-52295677D01*
X121923580Y-52295676D01*
X121923580Y-52295672D01*
X121923578Y-52295667D01*
X121870778Y-52168195D01*
X121870771Y-52168182D01*
X121794114Y-52053458D01*
X121794111Y-52053454D01*
X121696545Y-51955888D01*
X121696541Y-51955885D01*
X121581817Y-51879228D01*
X121581804Y-51879221D01*
X121454332Y-51826421D01*
X121454322Y-51826418D01*
X121318995Y-51799500D01*
X121318993Y-51799500D01*
X121181007Y-51799500D01*
X121181005Y-51799500D01*
X121045677Y-51826418D01*
X121045667Y-51826421D01*
X120918195Y-51879221D01*
X120918182Y-51879228D01*
X120803458Y-51955885D01*
X120803454Y-51955888D01*
X120705888Y-52053454D01*
X120705885Y-52053458D01*
X120629228Y-52168182D01*
X120629221Y-52168195D01*
X120576421Y-52295667D01*
X120576418Y-52295677D01*
X120549500Y-52431004D01*
X120549500Y-52431007D01*
X120549500Y-52568993D01*
X120549500Y-52568995D01*
X120549499Y-52568995D01*
X119800500Y-52568995D01*
X119800500Y-50100000D01*
X121454157Y-50100000D01*
X122308019Y-50100000D01*
X122290802Y-50109940D01*
X122234947Y-50165795D01*
X122195451Y-50234204D01*
X122175007Y-50310504D01*
X122175007Y-50389496D01*
X122195451Y-50465796D01*
X122234947Y-50534205D01*
X122290802Y-50590060D01*
X122308019Y-50600000D01*
X121454157Y-50600000D01*
X121465350Y-50656274D01*
X121465351Y-50656276D01*
X121544500Y-50847358D01*
X121544505Y-50847368D01*
X121659410Y-51019335D01*
X121659413Y-51019339D01*
X121805660Y-51165586D01*
X121805664Y-51165589D01*
X121977631Y-51280494D01*
X121977641Y-51280499D01*
X122168723Y-51359648D01*
X122168725Y-51359649D01*
X122350000Y-51395705D01*
X122350000Y-50624238D01*
X122359211Y-50629556D01*
X122435511Y-50650000D01*
X122764489Y-50650000D01*
X122840789Y-50629556D01*
X122850000Y-50624238D01*
X122850000Y-51395705D01*
X123031274Y-51359649D01*
X123031276Y-51359648D01*
X123222358Y-51280499D01*
X123222368Y-51280494D01*
X123394335Y-51165589D01*
X123394339Y-51165586D01*
X123540586Y-51019339D01*
X123540589Y-51019335D01*
X123655494Y-50847368D01*
X123655499Y-50847358D01*
X123734648Y-50656276D01*
X123734649Y-50656274D01*
X123745843Y-50600000D01*
X122891981Y-50600000D01*
X122909198Y-50590060D01*
X122965053Y-50534205D01*
X123004549Y-50465796D01*
X123024993Y-50389496D01*
X123024993Y-50310504D01*
X123004549Y-50234204D01*
X122965053Y-50165795D01*
X122909198Y-50109940D01*
X122891981Y-50100000D01*
X123745843Y-50100000D01*
X123734649Y-50043725D01*
X123734648Y-50043723D01*
X123655499Y-49852641D01*
X123655494Y-49852631D01*
X123540589Y-49680664D01*
X123540586Y-49680660D01*
X123394339Y-49534413D01*
X123394335Y-49534410D01*
X123222368Y-49419505D01*
X123222358Y-49419500D01*
X123031274Y-49340350D01*
X123031266Y-49340348D01*
X122850000Y-49304292D01*
X122850000Y-50075761D01*
X122840789Y-50070444D01*
X122764489Y-50050000D01*
X122435511Y-50050000D01*
X122359211Y-50070444D01*
X122350000Y-50075761D01*
X122350000Y-49304292D01*
X122349999Y-49304292D01*
X122168733Y-49340348D01*
X122168725Y-49340350D01*
X121977641Y-49419500D01*
X121977631Y-49419505D01*
X121805664Y-49534410D01*
X121805660Y-49534413D01*
X121659413Y-49680660D01*
X121659410Y-49680664D01*
X121544505Y-49852631D01*
X121544500Y-49852641D01*
X121465351Y-50043723D01*
X121465350Y-50043725D01*
X121454157Y-50100000D01*
X119800500Y-50100000D01*
X119800500Y-49451361D01*
X119800501Y-49451357D01*
X119800501Y-49292682D01*
X119800501Y-49292681D01*
X119769955Y-49080233D01*
X119769955Y-49080230D01*
X119709485Y-48874288D01*
X119709484Y-48874286D01*
X119709483Y-48874282D01*
X119620328Y-48679060D01*
X119620319Y-48679044D01*
X119504281Y-48498486D01*
X119363724Y-48336274D01*
X119201514Y-48195719D01*
X119201513Y-48195718D01*
X119076334Y-48115270D01*
X119020954Y-48079679D01*
X119020951Y-48079678D01*
X119020950Y-48079677D01*
X118825711Y-47990515D01*
X118743552Y-47966391D01*
X118619774Y-47930046D01*
X118619764Y-47930043D01*
X118428754Y-47902581D01*
X118407318Y-47899499D01*
X118407317Y-47899499D01*
X96007677Y-47899499D01*
X95940638Y-47879814D01*
X95894883Y-47827010D01*
X95884939Y-47757852D01*
X95913964Y-47694296D01*
X95919996Y-47687818D01*
X96970995Y-46636819D01*
X97032318Y-46603334D01*
X97058676Y-46600500D01*
X97966890Y-46600500D01*
X97966892Y-46600500D01*
X98094186Y-46566392D01*
X98156572Y-46530372D01*
X98177808Y-46518113D01*
X98239808Y-46501500D01*
X99023904Y-46501500D01*
X99090943Y-46521185D01*
X99092741Y-46522362D01*
X99168189Y-46572775D01*
X99168191Y-46572776D01*
X99168195Y-46572778D01*
X99241965Y-46603334D01*
X99295672Y-46625580D01*
X99295676Y-46625580D01*
X99295677Y-46625581D01*
X99431004Y-46652500D01*
X99431007Y-46652500D01*
X99568995Y-46652500D01*
X99660041Y-46634389D01*
X99704328Y-46625580D01*
X99831811Y-46572775D01*
X99946542Y-46496114D01*
X100044114Y-46398542D01*
X100120775Y-46283811D01*
X100120776Y-46283806D01*
X100120781Y-46283799D01*
X100173578Y-46156332D01*
X100173580Y-46156328D01*
X100195492Y-46046172D01*
X100200500Y-46020995D01*
X100200500Y-45883004D01*
X100173581Y-45747677D01*
X100173580Y-45747676D01*
X100173580Y-45747672D01*
X100142215Y-45671952D01*
X100134747Y-45602483D01*
X100166022Y-45540004D01*
X100226111Y-45504352D01*
X100256777Y-45500500D01*
X123632990Y-45500500D01*
X123632992Y-45500500D01*
X123760286Y-45466392D01*
X123874414Y-45400500D01*
X124137094Y-45137818D01*
X124198417Y-45104334D01*
X124224775Y-45101500D01*
X124314833Y-45101500D01*
X124314835Y-45101500D01*
X124442129Y-45067392D01*
X124556257Y-45001500D01*
X124957632Y-44600125D01*
X125018955Y-44566640D01*
X125088647Y-44571624D01*
X125114204Y-44584704D01*
X125168182Y-44620771D01*
X125168195Y-44620778D01*
X125274009Y-44664607D01*
X125295672Y-44673580D01*
X125295676Y-44673580D01*
X125295677Y-44673581D01*
X125431004Y-44700500D01*
X125431007Y-44700500D01*
X125568995Y-44700500D01*
X125660041Y-44682389D01*
X125704328Y-44673580D01*
X125831811Y-44620775D01*
X125946542Y-44544114D01*
X125946545Y-44544111D01*
X125953838Y-44536819D01*
X126015161Y-44503334D01*
X126041519Y-44500500D01*
X128741324Y-44500500D01*
X128808363Y-44520185D01*
X128829005Y-44536819D01*
X129099500Y-44807314D01*
X129192686Y-44900500D01*
X129306814Y-44966392D01*
X129434108Y-45000500D01*
X129958481Y-45000500D01*
X130025520Y-45020185D01*
X130029962Y-45023177D01*
X130038650Y-45029306D01*
X130053458Y-45044114D01*
X130168189Y-45120775D01*
X130168470Y-45120891D01*
X130171710Y-45123177D01*
X130192484Y-45149356D01*
X130213925Y-45175011D01*
X130214128Y-45176629D01*
X130215142Y-45177907D01*
X130218465Y-45211161D01*
X130222632Y-45244336D01*
X130221927Y-45245807D01*
X130222090Y-45247430D01*
X130206906Y-45277203D01*
X130192477Y-45307363D01*
X130191089Y-45308220D01*
X130190348Y-45309674D01*
X130161461Y-45326521D01*
X130133034Y-45344082D01*
X130130849Y-45344376D01*
X130129994Y-45344875D01*
X130127837Y-45344781D01*
X130100229Y-45348500D01*
X129647347Y-45348500D01*
X129520052Y-45382608D01*
X129405926Y-45448500D01*
X129405923Y-45448502D01*
X128638502Y-46215923D01*
X128638500Y-46215926D01*
X128572608Y-46330054D01*
X128544279Y-46435781D01*
X128512185Y-46491368D01*
X128132962Y-46870590D01*
X128115925Y-46807007D01*
X128050099Y-46692993D01*
X127957007Y-46599901D01*
X127842993Y-46534075D01*
X127779409Y-46517037D01*
X128411716Y-45884728D01*
X128357550Y-45845375D01*
X128168217Y-45748904D01*
X127966129Y-45683242D01*
X127756246Y-45650000D01*
X127543754Y-45650000D01*
X127333872Y-45683242D01*
X127333869Y-45683242D01*
X127131782Y-45748904D01*
X126942439Y-45845380D01*
X126888282Y-45884727D01*
X126888282Y-45884728D01*
X127520591Y-46517037D01*
X127457007Y-46534075D01*
X127342993Y-46599901D01*
X127249901Y-46692993D01*
X127184075Y-46807007D01*
X127167037Y-46870591D01*
X126534728Y-46238282D01*
X126534727Y-46238282D01*
X126495380Y-46292439D01*
X126398904Y-46481782D01*
X126333242Y-46683869D01*
X126333242Y-46683872D01*
X126300000Y-46893753D01*
X126300000Y-47106246D01*
X126333242Y-47316127D01*
X126333242Y-47316130D01*
X126398904Y-47518217D01*
X126495375Y-47707550D01*
X126534728Y-47761716D01*
X127167037Y-47129408D01*
X127184075Y-47192993D01*
X127249901Y-47307007D01*
X127342993Y-47400099D01*
X127457007Y-47465925D01*
X127520590Y-47482962D01*
X126888282Y-48115269D01*
X126888282Y-48115270D01*
X126942449Y-48154624D01*
X127131782Y-48251095D01*
X127333870Y-48316757D01*
X127543754Y-48350000D01*
X127756246Y-48350000D01*
X127966127Y-48316757D01*
X127966130Y-48316757D01*
X128168217Y-48251095D01*
X128357554Y-48154622D01*
X128411716Y-48115270D01*
X128411717Y-48115270D01*
X127779408Y-47482962D01*
X127842993Y-47465925D01*
X127957007Y-47400099D01*
X128050099Y-47307007D01*
X128115925Y-47192993D01*
X128132962Y-47129408D01*
X128512185Y-47508631D01*
X128544279Y-47564219D01*
X128572608Y-47669947D01*
X128593527Y-47706179D01*
X128638500Y-47784074D01*
X129312740Y-48458314D01*
X129405926Y-48551500D01*
X129520054Y-48617392D01*
X129647347Y-48651500D01*
X129647348Y-48651500D01*
X129647349Y-48651500D01*
X131644890Y-48651500D01*
X131644892Y-48651500D01*
X131772186Y-48617392D01*
X131886314Y-48551500D01*
X132218100Y-48219712D01*
X132279420Y-48186230D01*
X132344094Y-48189464D01*
X132437174Y-48219709D01*
X132534378Y-48235104D01*
X132631578Y-48250500D01*
X132631583Y-48250500D01*
X132828422Y-48250500D01*
X133022826Y-48219709D01*
X133027430Y-48218213D01*
X133210025Y-48158884D01*
X133385405Y-48069524D01*
X133544646Y-47953828D01*
X133683828Y-47814646D01*
X133799524Y-47655405D01*
X133888884Y-47480025D01*
X133889515Y-47478787D01*
X133937489Y-47427990D01*
X134005310Y-47411195D01*
X134071445Y-47433732D01*
X134110485Y-47478787D01*
X134200474Y-47655403D01*
X134228732Y-47694296D01*
X134316172Y-47814646D01*
X134455354Y-47953828D01*
X134614595Y-48069524D01*
X134691461Y-48108689D01*
X134789970Y-48158882D01*
X134789972Y-48158882D01*
X134789975Y-48158884D01*
X134848962Y-48178050D01*
X134977173Y-48219709D01*
X135171578Y-48250500D01*
X135171583Y-48250500D01*
X135368422Y-48250500D01*
X135562826Y-48219709D01*
X135567430Y-48218213D01*
X135750025Y-48158884D01*
X135925405Y-48069524D01*
X136084646Y-47953828D01*
X136223828Y-47814646D01*
X136339524Y-47655405D01*
X136428884Y-47480025D01*
X136429515Y-47478787D01*
X136477489Y-47427990D01*
X136545310Y-47411195D01*
X136611445Y-47433732D01*
X136650485Y-47478787D01*
X136740474Y-47655403D01*
X136768732Y-47694296D01*
X136856172Y-47814646D01*
X136995354Y-47953828D01*
X137154595Y-48069524D01*
X137231461Y-48108689D01*
X137329970Y-48158882D01*
X137329972Y-48158882D01*
X137329975Y-48158884D01*
X137388962Y-48178050D01*
X137517173Y-48219709D01*
X137711578Y-48250500D01*
X137711583Y-48250500D01*
X137908422Y-48250500D01*
X138102826Y-48219709D01*
X138107430Y-48218213D01*
X138290025Y-48158884D01*
X138465405Y-48069524D01*
X138624646Y-47953828D01*
X138763828Y-47814646D01*
X138875184Y-47661378D01*
X138930512Y-47618714D01*
X139000125Y-47612735D01*
X139061920Y-47645341D01*
X139096277Y-47706179D01*
X139099500Y-47734264D01*
X139099500Y-47881517D01*
X139102507Y-47900500D01*
X139114354Y-47975304D01*
X139171950Y-48088342D01*
X139171952Y-48088344D01*
X139171954Y-48088347D01*
X139261652Y-48178045D01*
X139261654Y-48178046D01*
X139261658Y-48178050D01*
X139374694Y-48235645D01*
X139374698Y-48235647D01*
X139468475Y-48250499D01*
X139468481Y-48250500D01*
X141231518Y-48250499D01*
X141325304Y-48235646D01*
X141438342Y-48178050D01*
X141528050Y-48088342D01*
X141585646Y-47975304D01*
X141585646Y-47975302D01*
X141585647Y-47975301D01*
X141597652Y-47899499D01*
X141600500Y-47881519D01*
X141600499Y-46118482D01*
X141585646Y-46024696D01*
X141528050Y-45911658D01*
X141528046Y-45911654D01*
X141528045Y-45911652D01*
X141438347Y-45821954D01*
X141438344Y-45821952D01*
X141438342Y-45821950D01*
X141350390Y-45777136D01*
X141325301Y-45764352D01*
X141231524Y-45749500D01*
X141231519Y-45749500D01*
X139858676Y-45749500D01*
X139791637Y-45729815D01*
X139770995Y-45713181D01*
X137169495Y-43111681D01*
X137136010Y-43050358D01*
X137140994Y-42980666D01*
X137182866Y-42924733D01*
X137248330Y-42900316D01*
X137257176Y-42900000D01*
X141875500Y-42900000D01*
X141942539Y-42919685D01*
G37*
%TD.AperFunction*%
%TA.AperFunction,Conductor*%
G36*
X93992263Y-44520185D02*
G01*
X94038018Y-44572989D01*
X94047962Y-44642147D01*
X94018937Y-44705703D01*
X94012905Y-44712181D01*
X93261905Y-45463181D01*
X93200582Y-45496666D01*
X93174224Y-45499500D01*
X68258676Y-45499500D01*
X68191637Y-45479815D01*
X68170995Y-45463181D01*
X67419995Y-44712181D01*
X67386510Y-44650858D01*
X67391494Y-44581166D01*
X67433366Y-44525233D01*
X67498830Y-44500816D01*
X67507676Y-44500500D01*
X93925224Y-44500500D01*
X93992263Y-44520185D01*
G37*
%TD.AperFunction*%
%TA.AperFunction,Conductor*%
G36*
X109835701Y-17140553D02*
G01*
X109854817Y-17161380D01*
X109966172Y-17314646D01*
X110105354Y-17453828D01*
X110264595Y-17569524D01*
X110336480Y-17606151D01*
X110439970Y-17658882D01*
X110439972Y-17658882D01*
X110439975Y-17658884D01*
X110498962Y-17678050D01*
X110627173Y-17719709D01*
X110821578Y-17750500D01*
X110821583Y-17750500D01*
X111018422Y-17750500D01*
X111163793Y-17727474D01*
X111212826Y-17719709D01*
X111305905Y-17689464D01*
X111375741Y-17687469D01*
X111431901Y-17719715D01*
X121463181Y-27750994D01*
X121496666Y-27812317D01*
X121499500Y-27838675D01*
X121499500Y-36392324D01*
X121479815Y-36459363D01*
X121427011Y-36505118D01*
X121357853Y-36515062D01*
X121294297Y-36486037D01*
X121287819Y-36480005D01*
X108916819Y-24109005D01*
X108883334Y-24047682D01*
X108880500Y-24021324D01*
X108880500Y-17874499D01*
X108900185Y-17807460D01*
X108952989Y-17761705D01*
X109004500Y-17750499D01*
X109261517Y-17750499D01*
X109261518Y-17750499D01*
X109355304Y-17735646D01*
X109468342Y-17678050D01*
X109558050Y-17588342D01*
X109615646Y-17475304D01*
X109615646Y-17475302D01*
X109615647Y-17475301D01*
X109630499Y-17381524D01*
X109630500Y-17381519D01*
X109630499Y-17234263D01*
X109650183Y-17167227D01*
X109702987Y-17121472D01*
X109772145Y-17111528D01*
X109835701Y-17140553D01*
G37*
%TD.AperFunction*%
%TA.AperFunction,Conductor*%
G36*
X117328363Y-15020185D02*
G01*
X117349005Y-15036819D01*
X117704174Y-15391988D01*
X117737659Y-15453311D01*
X117732675Y-15523003D01*
X117704175Y-15567350D01*
X117586171Y-15685355D01*
X117470474Y-15844597D01*
X117436319Y-15911630D01*
X117388345Y-15962425D01*
X117320524Y-15979220D01*
X117254389Y-15956682D01*
X117215350Y-15911629D01*
X117154624Y-15792449D01*
X117115270Y-15738282D01*
X117115269Y-15738282D01*
X116482962Y-16370590D01*
X116465925Y-16307007D01*
X116400099Y-16192993D01*
X116307007Y-16099901D01*
X116192993Y-16034075D01*
X116129409Y-16017037D01*
X116761716Y-15384728D01*
X116707550Y-15345375D01*
X116518217Y-15248904D01*
X116498294Y-15242431D01*
X116440619Y-15202994D01*
X116413420Y-15138635D01*
X116425335Y-15069789D01*
X116472579Y-15018313D01*
X116536612Y-15000500D01*
X117261324Y-15000500D01*
X117328363Y-15020185D01*
G37*
%TD.AperFunction*%
%TD*%
M02*
