%TF.GenerationSoftware,KiCad,Pcbnew,9.0.7*%
%TF.CreationDate,2026-03-17T14:19:57+01:00*%
%TF.ProjectId,xiaomi-airpurifier-custom-board,7869616f-6d69-42d6-9169-727075726966,rev?*%
%TF.SameCoordinates,Original*%
%TF.FileFunction,Legend,Top*%
%TF.FilePolarity,Positive*%
%FSLAX46Y46*%
G04 Gerber Fmt 4.6, Leading zero omitted, Abs format (unit mm)*
G04 Created by KiCad (PCBNEW 9.0.7) date 2026-03-17 14:19:57*
%MOMM*%
%LPD*%
G01*
G04 APERTURE LIST*
%ADD10C,0.300000*%
%ADD11C,0.100000*%
%ADD12C,0.150000*%
%ADD13C,0.120000*%
%ADD14C,0.250000*%
G04 APERTURE END LIST*
D10*
X52483082Y-14457341D02*
X53197368Y-14457341D01*
X52340225Y-14885912D02*
X52840225Y-13385912D01*
X52840225Y-13385912D02*
X53340225Y-14885912D01*
X53840224Y-14885912D02*
X53840224Y-13885912D01*
X53840224Y-13385912D02*
X53768796Y-13457341D01*
X53768796Y-13457341D02*
X53840224Y-13528769D01*
X53840224Y-13528769D02*
X53911653Y-13457341D01*
X53911653Y-13457341D02*
X53840224Y-13385912D01*
X53840224Y-13385912D02*
X53840224Y-13528769D01*
X54554510Y-14885912D02*
X54554510Y-13885912D01*
X54554510Y-14171626D02*
X54625939Y-14028769D01*
X54625939Y-14028769D02*
X54697368Y-13957341D01*
X54697368Y-13957341D02*
X54840225Y-13885912D01*
X54840225Y-13885912D02*
X54983082Y-13885912D01*
X56625938Y-13885912D02*
X56625938Y-15385912D01*
X56625938Y-13957341D02*
X56768796Y-13885912D01*
X56768796Y-13885912D02*
X57054510Y-13885912D01*
X57054510Y-13885912D02*
X57197367Y-13957341D01*
X57197367Y-13957341D02*
X57268796Y-14028769D01*
X57268796Y-14028769D02*
X57340224Y-14171626D01*
X57340224Y-14171626D02*
X57340224Y-14600198D01*
X57340224Y-14600198D02*
X57268796Y-14743055D01*
X57268796Y-14743055D02*
X57197367Y-14814484D01*
X57197367Y-14814484D02*
X57054510Y-14885912D01*
X57054510Y-14885912D02*
X56768796Y-14885912D01*
X56768796Y-14885912D02*
X56625938Y-14814484D01*
X58625939Y-13885912D02*
X58625939Y-14885912D01*
X57983081Y-13885912D02*
X57983081Y-14671626D01*
X57983081Y-14671626D02*
X58054510Y-14814484D01*
X58054510Y-14814484D02*
X58197367Y-14885912D01*
X58197367Y-14885912D02*
X58411653Y-14885912D01*
X58411653Y-14885912D02*
X58554510Y-14814484D01*
X58554510Y-14814484D02*
X58625939Y-14743055D01*
X59340224Y-14885912D02*
X59340224Y-13885912D01*
X59340224Y-14171626D02*
X59411653Y-14028769D01*
X59411653Y-14028769D02*
X59483082Y-13957341D01*
X59483082Y-13957341D02*
X59625939Y-13885912D01*
X59625939Y-13885912D02*
X59768796Y-13885912D01*
X60268795Y-14885912D02*
X60268795Y-13885912D01*
X60268795Y-13385912D02*
X60197367Y-13457341D01*
X60197367Y-13457341D02*
X60268795Y-13528769D01*
X60268795Y-13528769D02*
X60340224Y-13457341D01*
X60340224Y-13457341D02*
X60268795Y-13385912D01*
X60268795Y-13385912D02*
X60268795Y-13528769D01*
X60768796Y-13885912D02*
X61340224Y-13885912D01*
X60983081Y-14885912D02*
X60983081Y-13600198D01*
X60983081Y-13600198D02*
X61054510Y-13457341D01*
X61054510Y-13457341D02*
X61197367Y-13385912D01*
X61197367Y-13385912D02*
X61340224Y-13385912D01*
X61840224Y-14885912D02*
X61840224Y-13885912D01*
X61840224Y-13385912D02*
X61768796Y-13457341D01*
X61768796Y-13457341D02*
X61840224Y-13528769D01*
X61840224Y-13528769D02*
X61911653Y-13457341D01*
X61911653Y-13457341D02*
X61840224Y-13385912D01*
X61840224Y-13385912D02*
X61840224Y-13528769D01*
X63125939Y-14814484D02*
X62983082Y-14885912D01*
X62983082Y-14885912D02*
X62697368Y-14885912D01*
X62697368Y-14885912D02*
X62554510Y-14814484D01*
X62554510Y-14814484D02*
X62483082Y-14671626D01*
X62483082Y-14671626D02*
X62483082Y-14100198D01*
X62483082Y-14100198D02*
X62554510Y-13957341D01*
X62554510Y-13957341D02*
X62697368Y-13885912D01*
X62697368Y-13885912D02*
X62983082Y-13885912D01*
X62983082Y-13885912D02*
X63125939Y-13957341D01*
X63125939Y-13957341D02*
X63197368Y-14100198D01*
X63197368Y-14100198D02*
X63197368Y-14243055D01*
X63197368Y-14243055D02*
X62483082Y-14385912D01*
X63840224Y-14885912D02*
X63840224Y-13885912D01*
X63840224Y-14171626D02*
X63911653Y-14028769D01*
X63911653Y-14028769D02*
X63983082Y-13957341D01*
X63983082Y-13957341D02*
X64125939Y-13885912D01*
X64125939Y-13885912D02*
X64268796Y-13885912D01*
X65911652Y-14885912D02*
X65911652Y-13385912D01*
X65911652Y-13957341D02*
X66054510Y-13885912D01*
X66054510Y-13885912D02*
X66340224Y-13885912D01*
X66340224Y-13885912D02*
X66483081Y-13957341D01*
X66483081Y-13957341D02*
X66554510Y-14028769D01*
X66554510Y-14028769D02*
X66625938Y-14171626D01*
X66625938Y-14171626D02*
X66625938Y-14600198D01*
X66625938Y-14600198D02*
X66554510Y-14743055D01*
X66554510Y-14743055D02*
X66483081Y-14814484D01*
X66483081Y-14814484D02*
X66340224Y-14885912D01*
X66340224Y-14885912D02*
X66054510Y-14885912D01*
X66054510Y-14885912D02*
X65911652Y-14814484D01*
X67483081Y-14885912D02*
X67340224Y-14814484D01*
X67340224Y-14814484D02*
X67268795Y-14743055D01*
X67268795Y-14743055D02*
X67197367Y-14600198D01*
X67197367Y-14600198D02*
X67197367Y-14171626D01*
X67197367Y-14171626D02*
X67268795Y-14028769D01*
X67268795Y-14028769D02*
X67340224Y-13957341D01*
X67340224Y-13957341D02*
X67483081Y-13885912D01*
X67483081Y-13885912D02*
X67697367Y-13885912D01*
X67697367Y-13885912D02*
X67840224Y-13957341D01*
X67840224Y-13957341D02*
X67911653Y-14028769D01*
X67911653Y-14028769D02*
X67983081Y-14171626D01*
X67983081Y-14171626D02*
X67983081Y-14600198D01*
X67983081Y-14600198D02*
X67911653Y-14743055D01*
X67911653Y-14743055D02*
X67840224Y-14814484D01*
X67840224Y-14814484D02*
X67697367Y-14885912D01*
X67697367Y-14885912D02*
X67483081Y-14885912D01*
X69268796Y-14885912D02*
X69268796Y-14100198D01*
X69268796Y-14100198D02*
X69197367Y-13957341D01*
X69197367Y-13957341D02*
X69054510Y-13885912D01*
X69054510Y-13885912D02*
X68768796Y-13885912D01*
X68768796Y-13885912D02*
X68625938Y-13957341D01*
X69268796Y-14814484D02*
X69125938Y-14885912D01*
X69125938Y-14885912D02*
X68768796Y-14885912D01*
X68768796Y-14885912D02*
X68625938Y-14814484D01*
X68625938Y-14814484D02*
X68554510Y-14671626D01*
X68554510Y-14671626D02*
X68554510Y-14528769D01*
X68554510Y-14528769D02*
X68625938Y-14385912D01*
X68625938Y-14385912D02*
X68768796Y-14314484D01*
X68768796Y-14314484D02*
X69125938Y-14314484D01*
X69125938Y-14314484D02*
X69268796Y-14243055D01*
X69983081Y-14885912D02*
X69983081Y-13885912D01*
X69983081Y-14171626D02*
X70054510Y-14028769D01*
X70054510Y-14028769D02*
X70125939Y-13957341D01*
X70125939Y-13957341D02*
X70268796Y-13885912D01*
X70268796Y-13885912D02*
X70411653Y-13885912D01*
X71554510Y-14885912D02*
X71554510Y-13385912D01*
X71554510Y-14814484D02*
X71411652Y-14885912D01*
X71411652Y-14885912D02*
X71125938Y-14885912D01*
X71125938Y-14885912D02*
X70983081Y-14814484D01*
X70983081Y-14814484D02*
X70911652Y-14743055D01*
X70911652Y-14743055D02*
X70840224Y-14600198D01*
X70840224Y-14600198D02*
X70840224Y-14171626D01*
X70840224Y-14171626D02*
X70911652Y-14028769D01*
X70911652Y-14028769D02*
X70983081Y-13957341D01*
X70983081Y-13957341D02*
X71125938Y-13885912D01*
X71125938Y-13885912D02*
X71411652Y-13885912D01*
X71411652Y-13885912D02*
X71554510Y-13957341D01*
X73411652Y-14885912D02*
X73411652Y-13885912D01*
X73411652Y-14171626D02*
X73483081Y-14028769D01*
X73483081Y-14028769D02*
X73554510Y-13957341D01*
X73554510Y-13957341D02*
X73697367Y-13885912D01*
X73697367Y-13885912D02*
X73840224Y-13885912D01*
X74911652Y-14814484D02*
X74768795Y-14885912D01*
X74768795Y-14885912D02*
X74483081Y-14885912D01*
X74483081Y-14885912D02*
X74340223Y-14814484D01*
X74340223Y-14814484D02*
X74268795Y-14671626D01*
X74268795Y-14671626D02*
X74268795Y-14100198D01*
X74268795Y-14100198D02*
X74340223Y-13957341D01*
X74340223Y-13957341D02*
X74483081Y-13885912D01*
X74483081Y-13885912D02*
X74768795Y-13885912D01*
X74768795Y-13885912D02*
X74911652Y-13957341D01*
X74911652Y-13957341D02*
X74983081Y-14100198D01*
X74983081Y-14100198D02*
X74983081Y-14243055D01*
X74983081Y-14243055D02*
X74268795Y-14385912D01*
X75483080Y-13885912D02*
X75840223Y-14885912D01*
X75840223Y-14885912D02*
X76197366Y-13885912D01*
X77554509Y-14885912D02*
X76697366Y-14885912D01*
X77125937Y-14885912D02*
X77125937Y-13385912D01*
X77125937Y-13385912D02*
X76983080Y-13600198D01*
X76983080Y-13600198D02*
X76840223Y-13743055D01*
X76840223Y-13743055D02*
X76697366Y-13814484D01*
X52840225Y-15800828D02*
X52983082Y-15800828D01*
X52983082Y-15800828D02*
X53125939Y-15872257D01*
X53125939Y-15872257D02*
X53197368Y-15943685D01*
X53197368Y-15943685D02*
X53268796Y-16086542D01*
X53268796Y-16086542D02*
X53340225Y-16372257D01*
X53340225Y-16372257D02*
X53340225Y-16729400D01*
X53340225Y-16729400D02*
X53268796Y-17015114D01*
X53268796Y-17015114D02*
X53197368Y-17157971D01*
X53197368Y-17157971D02*
X53125939Y-17229400D01*
X53125939Y-17229400D02*
X52983082Y-17300828D01*
X52983082Y-17300828D02*
X52840225Y-17300828D01*
X52840225Y-17300828D02*
X52697368Y-17229400D01*
X52697368Y-17229400D02*
X52625939Y-17157971D01*
X52625939Y-17157971D02*
X52554510Y-17015114D01*
X52554510Y-17015114D02*
X52483082Y-16729400D01*
X52483082Y-16729400D02*
X52483082Y-16372257D01*
X52483082Y-16372257D02*
X52554510Y-16086542D01*
X52554510Y-16086542D02*
X52625939Y-15943685D01*
X52625939Y-15943685D02*
X52697368Y-15872257D01*
X52697368Y-15872257D02*
X52840225Y-15800828D01*
X53840224Y-15800828D02*
X54768796Y-15800828D01*
X54768796Y-15800828D02*
X54268796Y-16372257D01*
X54268796Y-16372257D02*
X54483081Y-16372257D01*
X54483081Y-16372257D02*
X54625939Y-16443685D01*
X54625939Y-16443685D02*
X54697367Y-16515114D01*
X54697367Y-16515114D02*
X54768796Y-16657971D01*
X54768796Y-16657971D02*
X54768796Y-17015114D01*
X54768796Y-17015114D02*
X54697367Y-17157971D01*
X54697367Y-17157971D02*
X54625939Y-17229400D01*
X54625939Y-17229400D02*
X54483081Y-17300828D01*
X54483081Y-17300828D02*
X54054510Y-17300828D01*
X54054510Y-17300828D02*
X53911653Y-17229400D01*
X53911653Y-17229400D02*
X53840224Y-17157971D01*
X55411652Y-17157971D02*
X55483081Y-17229400D01*
X55483081Y-17229400D02*
X55411652Y-17300828D01*
X55411652Y-17300828D02*
X55340224Y-17229400D01*
X55340224Y-17229400D02*
X55411652Y-17157971D01*
X55411652Y-17157971D02*
X55411652Y-17300828D01*
X56054510Y-15943685D02*
X56125938Y-15872257D01*
X56125938Y-15872257D02*
X56268796Y-15800828D01*
X56268796Y-15800828D02*
X56625938Y-15800828D01*
X56625938Y-15800828D02*
X56768796Y-15872257D01*
X56768796Y-15872257D02*
X56840224Y-15943685D01*
X56840224Y-15943685D02*
X56911653Y-16086542D01*
X56911653Y-16086542D02*
X56911653Y-16229400D01*
X56911653Y-16229400D02*
X56840224Y-16443685D01*
X56840224Y-16443685D02*
X55983081Y-17300828D01*
X55983081Y-17300828D02*
X56911653Y-17300828D01*
X57840224Y-15800828D02*
X57983081Y-15800828D01*
X57983081Y-15800828D02*
X58125938Y-15872257D01*
X58125938Y-15872257D02*
X58197367Y-15943685D01*
X58197367Y-15943685D02*
X58268795Y-16086542D01*
X58268795Y-16086542D02*
X58340224Y-16372257D01*
X58340224Y-16372257D02*
X58340224Y-16729400D01*
X58340224Y-16729400D02*
X58268795Y-17015114D01*
X58268795Y-17015114D02*
X58197367Y-17157971D01*
X58197367Y-17157971D02*
X58125938Y-17229400D01*
X58125938Y-17229400D02*
X57983081Y-17300828D01*
X57983081Y-17300828D02*
X57840224Y-17300828D01*
X57840224Y-17300828D02*
X57697367Y-17229400D01*
X57697367Y-17229400D02*
X57625938Y-17157971D01*
X57625938Y-17157971D02*
X57554509Y-17015114D01*
X57554509Y-17015114D02*
X57483081Y-16729400D01*
X57483081Y-16729400D02*
X57483081Y-16372257D01*
X57483081Y-16372257D02*
X57554509Y-16086542D01*
X57554509Y-16086542D02*
X57625938Y-15943685D01*
X57625938Y-15943685D02*
X57697367Y-15872257D01*
X57697367Y-15872257D02*
X57840224Y-15800828D01*
X58911652Y-15943685D02*
X58983080Y-15872257D01*
X58983080Y-15872257D02*
X59125938Y-15800828D01*
X59125938Y-15800828D02*
X59483080Y-15800828D01*
X59483080Y-15800828D02*
X59625938Y-15872257D01*
X59625938Y-15872257D02*
X59697366Y-15943685D01*
X59697366Y-15943685D02*
X59768795Y-16086542D01*
X59768795Y-16086542D02*
X59768795Y-16229400D01*
X59768795Y-16229400D02*
X59697366Y-16443685D01*
X59697366Y-16443685D02*
X58840223Y-17300828D01*
X58840223Y-17300828D02*
X59768795Y-17300828D01*
X61054509Y-15800828D02*
X60768794Y-15800828D01*
X60768794Y-15800828D02*
X60625937Y-15872257D01*
X60625937Y-15872257D02*
X60554509Y-15943685D01*
X60554509Y-15943685D02*
X60411651Y-16157971D01*
X60411651Y-16157971D02*
X60340223Y-16443685D01*
X60340223Y-16443685D02*
X60340223Y-17015114D01*
X60340223Y-17015114D02*
X60411651Y-17157971D01*
X60411651Y-17157971D02*
X60483080Y-17229400D01*
X60483080Y-17229400D02*
X60625937Y-17300828D01*
X60625937Y-17300828D02*
X60911651Y-17300828D01*
X60911651Y-17300828D02*
X61054509Y-17229400D01*
X61054509Y-17229400D02*
X61125937Y-17157971D01*
X61125937Y-17157971D02*
X61197366Y-17015114D01*
X61197366Y-17015114D02*
X61197366Y-16657971D01*
X61197366Y-16657971D02*
X61125937Y-16515114D01*
X61125937Y-16515114D02*
X61054509Y-16443685D01*
X61054509Y-16443685D02*
X60911651Y-16372257D01*
X60911651Y-16372257D02*
X60625937Y-16372257D01*
X60625937Y-16372257D02*
X60483080Y-16443685D01*
X60483080Y-16443685D02*
X60411651Y-16515114D01*
X60411651Y-16515114D02*
X60340223Y-16657971D01*
X63625937Y-17300828D02*
X63625937Y-16515114D01*
X63625937Y-16515114D02*
X63554508Y-16372257D01*
X63554508Y-16372257D02*
X63411651Y-16300828D01*
X63411651Y-16300828D02*
X63125937Y-16300828D01*
X63125937Y-16300828D02*
X62983079Y-16372257D01*
X63625937Y-17229400D02*
X63483079Y-17300828D01*
X63483079Y-17300828D02*
X63125937Y-17300828D01*
X63125937Y-17300828D02*
X62983079Y-17229400D01*
X62983079Y-17229400D02*
X62911651Y-17086542D01*
X62911651Y-17086542D02*
X62911651Y-16943685D01*
X62911651Y-16943685D02*
X62983079Y-16800828D01*
X62983079Y-16800828D02*
X63125937Y-16729400D01*
X63125937Y-16729400D02*
X63483079Y-16729400D01*
X63483079Y-16729400D02*
X63625937Y-16657971D01*
X64554508Y-17300828D02*
X64411651Y-17229400D01*
X64411651Y-17229400D02*
X64340222Y-17086542D01*
X64340222Y-17086542D02*
X64340222Y-15800828D01*
X65768794Y-16300828D02*
X65768794Y-17300828D01*
X65125936Y-16300828D02*
X65125936Y-17086542D01*
X65125936Y-17086542D02*
X65197365Y-17229400D01*
X65197365Y-17229400D02*
X65340222Y-17300828D01*
X65340222Y-17300828D02*
X65554508Y-17300828D01*
X65554508Y-17300828D02*
X65697365Y-17229400D01*
X65697365Y-17229400D02*
X65768794Y-17157971D01*
X66268794Y-16300828D02*
X66840222Y-16300828D01*
X66483079Y-17300828D02*
X66483079Y-16015114D01*
X66483079Y-16015114D02*
X66554508Y-15872257D01*
X66554508Y-15872257D02*
X66697365Y-15800828D01*
X66697365Y-15800828D02*
X66840222Y-15800828D01*
X67911651Y-17229400D02*
X67768794Y-17300828D01*
X67768794Y-17300828D02*
X67483080Y-17300828D01*
X67483080Y-17300828D02*
X67340222Y-17229400D01*
X67340222Y-17229400D02*
X67268794Y-17086542D01*
X67268794Y-17086542D02*
X67268794Y-16515114D01*
X67268794Y-16515114D02*
X67340222Y-16372257D01*
X67340222Y-16372257D02*
X67483080Y-16300828D01*
X67483080Y-16300828D02*
X67768794Y-16300828D01*
X67768794Y-16300828D02*
X67911651Y-16372257D01*
X67911651Y-16372257D02*
X67983080Y-16515114D01*
X67983080Y-16515114D02*
X67983080Y-16657971D01*
X67983080Y-16657971D02*
X67268794Y-16800828D01*
X68625936Y-17300828D02*
X68625936Y-16300828D01*
X68625936Y-16586542D02*
X68697365Y-16443685D01*
X68697365Y-16443685D02*
X68768794Y-16372257D01*
X68768794Y-16372257D02*
X68911651Y-16300828D01*
X68911651Y-16300828D02*
X69054508Y-16300828D01*
X69483079Y-17229400D02*
X69625936Y-17300828D01*
X69625936Y-17300828D02*
X69911650Y-17300828D01*
X69911650Y-17300828D02*
X70054507Y-17229400D01*
X70054507Y-17229400D02*
X70125936Y-17086542D01*
X70125936Y-17086542D02*
X70125936Y-17015114D01*
X70125936Y-17015114D02*
X70054507Y-16872257D01*
X70054507Y-16872257D02*
X69911650Y-16800828D01*
X69911650Y-16800828D02*
X69697365Y-16800828D01*
X69697365Y-16800828D02*
X69554507Y-16729400D01*
X69554507Y-16729400D02*
X69483079Y-16586542D01*
X69483079Y-16586542D02*
X69483079Y-16515114D01*
X69483079Y-16515114D02*
X69554507Y-16372257D01*
X69554507Y-16372257D02*
X69697365Y-16300828D01*
X69697365Y-16300828D02*
X69911650Y-16300828D01*
X69911650Y-16300828D02*
X70054507Y-16372257D01*
D11*
X139702380Y-44872419D02*
X139369047Y-44396228D01*
X139130952Y-44872419D02*
X139130952Y-43872419D01*
X139130952Y-43872419D02*
X139511904Y-43872419D01*
X139511904Y-43872419D02*
X139607142Y-43920038D01*
X139607142Y-43920038D02*
X139654761Y-43967657D01*
X139654761Y-43967657D02*
X139702380Y-44062895D01*
X139702380Y-44062895D02*
X139702380Y-44205752D01*
X139702380Y-44205752D02*
X139654761Y-44300990D01*
X139654761Y-44300990D02*
X139607142Y-44348609D01*
X139607142Y-44348609D02*
X139511904Y-44396228D01*
X139511904Y-44396228D02*
X139130952Y-44396228D01*
X140083333Y-44824800D02*
X140226190Y-44872419D01*
X140226190Y-44872419D02*
X140464285Y-44872419D01*
X140464285Y-44872419D02*
X140559523Y-44824800D01*
X140559523Y-44824800D02*
X140607142Y-44777180D01*
X140607142Y-44777180D02*
X140654761Y-44681942D01*
X140654761Y-44681942D02*
X140654761Y-44586704D01*
X140654761Y-44586704D02*
X140607142Y-44491466D01*
X140607142Y-44491466D02*
X140559523Y-44443847D01*
X140559523Y-44443847D02*
X140464285Y-44396228D01*
X140464285Y-44396228D02*
X140273809Y-44348609D01*
X140273809Y-44348609D02*
X140178571Y-44300990D01*
X140178571Y-44300990D02*
X140130952Y-44253371D01*
X140130952Y-44253371D02*
X140083333Y-44158133D01*
X140083333Y-44158133D02*
X140083333Y-44062895D01*
X140083333Y-44062895D02*
X140130952Y-43967657D01*
X140130952Y-43967657D02*
X140178571Y-43920038D01*
X140178571Y-43920038D02*
X140273809Y-43872419D01*
X140273809Y-43872419D02*
X140511904Y-43872419D01*
X140511904Y-43872419D02*
X140654761Y-43920038D01*
X140940476Y-43872419D02*
X141511904Y-43872419D01*
X141226190Y-44872419D02*
X141226190Y-43872419D01*
X136988095Y-43872419D02*
X137559523Y-43872419D01*
X137273809Y-44872419D02*
X137273809Y-43872419D01*
X137797619Y-43872419D02*
X138464285Y-44872419D01*
X138464285Y-43872419D02*
X137797619Y-44872419D01*
X135083333Y-44872419D02*
X134750000Y-44396228D01*
X134511905Y-44872419D02*
X134511905Y-43872419D01*
X134511905Y-43872419D02*
X134892857Y-43872419D01*
X134892857Y-43872419D02*
X134988095Y-43920038D01*
X134988095Y-43920038D02*
X135035714Y-43967657D01*
X135035714Y-43967657D02*
X135083333Y-44062895D01*
X135083333Y-44062895D02*
X135083333Y-44205752D01*
X135083333Y-44205752D02*
X135035714Y-44300990D01*
X135035714Y-44300990D02*
X134988095Y-44348609D01*
X134988095Y-44348609D02*
X134892857Y-44396228D01*
X134892857Y-44396228D02*
X134511905Y-44396228D01*
X135416667Y-43872419D02*
X136083333Y-44872419D01*
X136083333Y-43872419D02*
X135416667Y-44872419D01*
X131750000Y-44872419D02*
X131750000Y-43872419D01*
X132416666Y-43872419D02*
X132607142Y-43872419D01*
X132607142Y-43872419D02*
X132702380Y-43920038D01*
X132702380Y-43920038D02*
X132797618Y-44015276D01*
X132797618Y-44015276D02*
X132845237Y-44205752D01*
X132845237Y-44205752D02*
X132845237Y-44539085D01*
X132845237Y-44539085D02*
X132797618Y-44729561D01*
X132797618Y-44729561D02*
X132702380Y-44824800D01*
X132702380Y-44824800D02*
X132607142Y-44872419D01*
X132607142Y-44872419D02*
X132416666Y-44872419D01*
X132416666Y-44872419D02*
X132321428Y-44824800D01*
X132321428Y-44824800D02*
X132226190Y-44729561D01*
X132226190Y-44729561D02*
X132178571Y-44539085D01*
X132178571Y-44539085D02*
X132178571Y-44205752D01*
X132178571Y-44205752D02*
X132226190Y-44015276D01*
X132226190Y-44015276D02*
X132321428Y-43920038D01*
X132321428Y-43920038D02*
X132416666Y-43872419D01*
X133321428Y-44872419D02*
X133511904Y-44872419D01*
X133511904Y-44872419D02*
X133607142Y-44824800D01*
X133607142Y-44824800D02*
X133654761Y-44777180D01*
X133654761Y-44777180D02*
X133749999Y-44634323D01*
X133749999Y-44634323D02*
X133797618Y-44443847D01*
X133797618Y-44443847D02*
X133797618Y-44062895D01*
X133797618Y-44062895D02*
X133749999Y-43967657D01*
X133749999Y-43967657D02*
X133702380Y-43920038D01*
X133702380Y-43920038D02*
X133607142Y-43872419D01*
X133607142Y-43872419D02*
X133416666Y-43872419D01*
X133416666Y-43872419D02*
X133321428Y-43920038D01*
X133321428Y-43920038D02*
X133273809Y-43967657D01*
X133273809Y-43967657D02*
X133226190Y-44062895D01*
X133226190Y-44062895D02*
X133226190Y-44300990D01*
X133226190Y-44300990D02*
X133273809Y-44396228D01*
X133273809Y-44396228D02*
X133321428Y-44443847D01*
X133321428Y-44443847D02*
X133416666Y-44491466D01*
X133416666Y-44491466D02*
X133607142Y-44491466D01*
X133607142Y-44491466D02*
X133702380Y-44443847D01*
X133702380Y-44443847D02*
X133749999Y-44396228D01*
X133749999Y-44396228D02*
X133797618Y-44300990D01*
X128952381Y-43872419D02*
X129571428Y-43872419D01*
X129571428Y-43872419D02*
X129238095Y-44253371D01*
X129238095Y-44253371D02*
X129380952Y-44253371D01*
X129380952Y-44253371D02*
X129476190Y-44300990D01*
X129476190Y-44300990D02*
X129523809Y-44348609D01*
X129523809Y-44348609D02*
X129571428Y-44443847D01*
X129571428Y-44443847D02*
X129571428Y-44681942D01*
X129571428Y-44681942D02*
X129523809Y-44777180D01*
X129523809Y-44777180D02*
X129476190Y-44824800D01*
X129476190Y-44824800D02*
X129380952Y-44872419D01*
X129380952Y-44872419D02*
X129095238Y-44872419D01*
X129095238Y-44872419D02*
X129000000Y-44824800D01*
X129000000Y-44824800D02*
X128952381Y-44777180D01*
X130000000Y-44777180D02*
X130047619Y-44824800D01*
X130047619Y-44824800D02*
X130000000Y-44872419D01*
X130000000Y-44872419D02*
X129952381Y-44824800D01*
X129952381Y-44824800D02*
X130000000Y-44777180D01*
X130000000Y-44777180D02*
X130000000Y-44872419D01*
X130380952Y-43872419D02*
X130999999Y-43872419D01*
X130999999Y-43872419D02*
X130666666Y-44253371D01*
X130666666Y-44253371D02*
X130809523Y-44253371D01*
X130809523Y-44253371D02*
X130904761Y-44300990D01*
X130904761Y-44300990D02*
X130952380Y-44348609D01*
X130952380Y-44348609D02*
X130999999Y-44443847D01*
X130999999Y-44443847D02*
X130999999Y-44681942D01*
X130999999Y-44681942D02*
X130952380Y-44777180D01*
X130952380Y-44777180D02*
X130904761Y-44824800D01*
X130904761Y-44824800D02*
X130809523Y-44872419D01*
X130809523Y-44872419D02*
X130523809Y-44872419D01*
X130523809Y-44872419D02*
X130428571Y-44824800D01*
X130428571Y-44824800D02*
X130380952Y-44777180D01*
X127761904Y-43920038D02*
X127666666Y-43872419D01*
X127666666Y-43872419D02*
X127523809Y-43872419D01*
X127523809Y-43872419D02*
X127380952Y-43920038D01*
X127380952Y-43920038D02*
X127285714Y-44015276D01*
X127285714Y-44015276D02*
X127238095Y-44110514D01*
X127238095Y-44110514D02*
X127190476Y-44300990D01*
X127190476Y-44300990D02*
X127190476Y-44443847D01*
X127190476Y-44443847D02*
X127238095Y-44634323D01*
X127238095Y-44634323D02*
X127285714Y-44729561D01*
X127285714Y-44729561D02*
X127380952Y-44824800D01*
X127380952Y-44824800D02*
X127523809Y-44872419D01*
X127523809Y-44872419D02*
X127619047Y-44872419D01*
X127619047Y-44872419D02*
X127761904Y-44824800D01*
X127761904Y-44824800D02*
X127809523Y-44777180D01*
X127809523Y-44777180D02*
X127809523Y-44443847D01*
X127809523Y-44443847D02*
X127619047Y-44443847D01*
G36*
X119203691Y-20441059D02*
G01*
X117881469Y-20441059D01*
X117881469Y-19943197D01*
X117992706Y-19943197D01*
X117993887Y-19946741D01*
X117992706Y-19950285D01*
X117999793Y-19964461D01*
X118004807Y-19979501D01*
X118008149Y-19981171D01*
X118009820Y-19984514D01*
X118026769Y-19994175D01*
X119026768Y-20327508D01*
X119046124Y-20329948D01*
X119080352Y-20312834D01*
X119092454Y-20276530D01*
X119075339Y-20242301D01*
X119058391Y-20232640D01*
X118200693Y-19946741D01*
X119058391Y-19660842D01*
X119075339Y-19651181D01*
X119092454Y-19616952D01*
X119080352Y-19580648D01*
X119046124Y-19563534D01*
X119026768Y-19565974D01*
X118026769Y-19899307D01*
X118009820Y-19908968D01*
X118008149Y-19912310D01*
X118004807Y-19913981D01*
X117999793Y-19929020D01*
X117992706Y-19943197D01*
X117881469Y-19943197D01*
X117881469Y-18899122D01*
X117992580Y-18899122D01*
X117992580Y-19137217D01*
X117993068Y-19139673D01*
X117992706Y-19140762D01*
X117994822Y-19148489D01*
X117996386Y-19156351D01*
X117997197Y-19157162D01*
X117997859Y-19159578D01*
X118045479Y-19254816D01*
X118050394Y-19261150D01*
X118054845Y-19267810D01*
X118102463Y-19315429D01*
X118109129Y-19319883D01*
X118115458Y-19324795D01*
X118210696Y-19372414D01*
X118213111Y-19373075D01*
X118213923Y-19373887D01*
X118221784Y-19375450D01*
X118229512Y-19377567D01*
X118230600Y-19377204D01*
X118233057Y-19377693D01*
X118471152Y-19377693D01*
X118473608Y-19377204D01*
X118474697Y-19377567D01*
X118482424Y-19375450D01*
X118490286Y-19373887D01*
X118491097Y-19373075D01*
X118493513Y-19372414D01*
X118588750Y-19324796D01*
X118595083Y-19319880D01*
X118601745Y-19315429D01*
X118649364Y-19267811D01*
X118653818Y-19261144D01*
X118658730Y-19254816D01*
X118706349Y-19159578D01*
X118707010Y-19157162D01*
X118707822Y-19156351D01*
X118709385Y-19148489D01*
X118711502Y-19140762D01*
X118711139Y-19139673D01*
X118711628Y-19137217D01*
X118711628Y-18899122D01*
X118711139Y-18896665D01*
X118711502Y-18895577D01*
X118709385Y-18887849D01*
X118707822Y-18879988D01*
X118707010Y-18879176D01*
X118706349Y-18876761D01*
X118676743Y-18817549D01*
X118992580Y-18849133D01*
X118992580Y-19280074D01*
X118996386Y-19299208D01*
X119023446Y-19326268D01*
X119061714Y-19326268D01*
X119088774Y-19299208D01*
X119092580Y-19280074D01*
X119092580Y-18803884D01*
X119090200Y-18791922D01*
X119090449Y-18789441D01*
X119089468Y-18788243D01*
X119088774Y-18784750D01*
X119076873Y-18772849D01*
X119066215Y-18759823D01*
X119062807Y-18758783D01*
X119061714Y-18757690D01*
X119059221Y-18757690D01*
X119047555Y-18754132D01*
X118571365Y-18706513D01*
X118551947Y-18708396D01*
X118549900Y-18710071D01*
X118547256Y-18710071D01*
X118535358Y-18721968D01*
X118522329Y-18732629D01*
X118522065Y-18735261D01*
X118520196Y-18737131D01*
X118520196Y-18753958D01*
X118518521Y-18770708D01*
X118520196Y-18772755D01*
X118520196Y-18775399D01*
X118531035Y-18791620D01*
X118572916Y-18833502D01*
X118611628Y-18910925D01*
X118611628Y-19125413D01*
X118572916Y-19202836D01*
X118536772Y-19238981D01*
X118459349Y-19277693D01*
X118244861Y-19277693D01*
X118167437Y-19238981D01*
X118131292Y-19202837D01*
X118092580Y-19125413D01*
X118092580Y-18910925D01*
X118131292Y-18833501D01*
X118173174Y-18791621D01*
X118184013Y-18775400D01*
X118184013Y-18737131D01*
X118156953Y-18710071D01*
X118118684Y-18710071D01*
X118102463Y-18720910D01*
X118054845Y-18768529D01*
X118050394Y-18775188D01*
X118045479Y-18781523D01*
X117997859Y-18876761D01*
X117997197Y-18879176D01*
X117996386Y-18879988D01*
X117994822Y-18887849D01*
X117992706Y-18895577D01*
X117993068Y-18896665D01*
X117992580Y-18899122D01*
X117881469Y-18899122D01*
X117881469Y-18595402D01*
X119203691Y-18595402D01*
X119203691Y-20441059D01*
G37*
G36*
X116492580Y-21081485D02*
G01*
X116451259Y-21205446D01*
X116370106Y-21286600D01*
X116287034Y-21328136D01*
X116107854Y-21372931D01*
X115977307Y-21372931D01*
X115798128Y-21328136D01*
X115715054Y-21286599D01*
X115633901Y-21205446D01*
X115592580Y-21081483D01*
X115592580Y-20901503D01*
X116492580Y-20901503D01*
X116492580Y-21081485D01*
G37*
G36*
X116703691Y-21584042D02*
G01*
X115381469Y-21584042D01*
X115381469Y-20851503D01*
X115492580Y-20851503D01*
X115492580Y-21089598D01*
X115494143Y-21097459D01*
X115495146Y-21105410D01*
X115542766Y-21248267D01*
X115544006Y-21250442D01*
X115544006Y-21251589D01*
X115548455Y-21258247D01*
X115552427Y-21265215D01*
X115553454Y-21265728D01*
X115554845Y-21267810D01*
X115650083Y-21363048D01*
X115656742Y-21367498D01*
X115663077Y-21372414D01*
X115758315Y-21420033D01*
X115763596Y-21421479D01*
X115768549Y-21423819D01*
X115959025Y-21471438D01*
X115965142Y-21471735D01*
X115971152Y-21472931D01*
X116114009Y-21472931D01*
X116120018Y-21471735D01*
X116126136Y-21471438D01*
X116316612Y-21423819D01*
X116321564Y-21421479D01*
X116326846Y-21420033D01*
X116422083Y-21372415D01*
X116428416Y-21367499D01*
X116435078Y-21363048D01*
X116530316Y-21267810D01*
X116531706Y-21265728D01*
X116532734Y-21265215D01*
X116536704Y-21258249D01*
X116541155Y-21251589D01*
X116541155Y-21250441D01*
X116542395Y-21248266D01*
X116590014Y-21105410D01*
X116591016Y-21097459D01*
X116592580Y-21089598D01*
X116592580Y-20851503D01*
X116588774Y-20832369D01*
X116561714Y-20805309D01*
X116542580Y-20801503D01*
X115542580Y-20801503D01*
X115523446Y-20805309D01*
X115496386Y-20832369D01*
X115492580Y-20851503D01*
X115381469Y-20851503D01*
X115381469Y-20381618D01*
X115492979Y-20381618D01*
X115496386Y-20387580D01*
X115496386Y-20394446D01*
X115505539Y-20403599D01*
X115511965Y-20414844D01*
X115518591Y-20416651D01*
X115523446Y-20421506D01*
X115542580Y-20425312D01*
X116542580Y-20425312D01*
X116561714Y-20421506D01*
X116588774Y-20394446D01*
X116588774Y-20356178D01*
X116561714Y-20329118D01*
X116542580Y-20325312D01*
X115730858Y-20325312D01*
X116567387Y-19847296D01*
X116582112Y-19834498D01*
X116583918Y-19827873D01*
X116588774Y-19823018D01*
X116588774Y-19810070D01*
X116592181Y-19797578D01*
X116588774Y-19791615D01*
X116588774Y-19784750D01*
X116579620Y-19775596D01*
X116573195Y-19764352D01*
X116566568Y-19762544D01*
X116561714Y-19757690D01*
X116542580Y-19753884D01*
X115542580Y-19753884D01*
X115523446Y-19757690D01*
X115496386Y-19784750D01*
X115496386Y-19823018D01*
X115523446Y-19850078D01*
X115542580Y-19853884D01*
X116354302Y-19853884D01*
X115517773Y-20331900D01*
X115503048Y-20344697D01*
X115501240Y-20351323D01*
X115496386Y-20356178D01*
X115496386Y-20369125D01*
X115492979Y-20381618D01*
X115381469Y-20381618D01*
X115381469Y-19089598D01*
X115492580Y-19089598D01*
X115492580Y-19184836D01*
X115494143Y-19192697D01*
X115495146Y-19200648D01*
X115542766Y-19343505D01*
X115544006Y-19345680D01*
X115544006Y-19346827D01*
X115548455Y-19353485D01*
X115552427Y-19360453D01*
X115553454Y-19360966D01*
X115554845Y-19363048D01*
X115602463Y-19410667D01*
X115618684Y-19421506D01*
X115618685Y-19421506D01*
X115637819Y-19425312D01*
X115971152Y-19425312D01*
X115990286Y-19421506D01*
X116017346Y-19394446D01*
X116021152Y-19375312D01*
X116021152Y-19184836D01*
X116017346Y-19165702D01*
X115990286Y-19138642D01*
X115952018Y-19138642D01*
X115924958Y-19165702D01*
X115921152Y-19184836D01*
X115921152Y-19325312D01*
X115658530Y-19325312D01*
X115633901Y-19300684D01*
X115592580Y-19176721D01*
X115592580Y-19097712D01*
X115633901Y-18973749D01*
X115715054Y-18892596D01*
X115798128Y-18851059D01*
X115977307Y-18806265D01*
X116107854Y-18806265D01*
X116287034Y-18851060D01*
X116370106Y-18892596D01*
X116451259Y-18973749D01*
X116492580Y-19097711D01*
X116492580Y-19220651D01*
X116450240Y-19305332D01*
X116445087Y-19324148D01*
X116457188Y-19360453D01*
X116491416Y-19377567D01*
X116527721Y-19365466D01*
X116539682Y-19350054D01*
X116587301Y-19254816D01*
X116587962Y-19252400D01*
X116588774Y-19251589D01*
X116590337Y-19243727D01*
X116592454Y-19236000D01*
X116592091Y-19234911D01*
X116592580Y-19232455D01*
X116592580Y-19089598D01*
X116591016Y-19081736D01*
X116590014Y-19073786D01*
X116542395Y-18930930D01*
X116541155Y-18928754D01*
X116541155Y-18927607D01*
X116536704Y-18920946D01*
X116532734Y-18913981D01*
X116531706Y-18913467D01*
X116530316Y-18911386D01*
X116435078Y-18816148D01*
X116428416Y-18811696D01*
X116422083Y-18806781D01*
X116326846Y-18759163D01*
X116321564Y-18757716D01*
X116316612Y-18755377D01*
X116126136Y-18707758D01*
X116120018Y-18707460D01*
X116114009Y-18706265D01*
X115971152Y-18706265D01*
X115965142Y-18707460D01*
X115959025Y-18707758D01*
X115768549Y-18755377D01*
X115763596Y-18757716D01*
X115758315Y-18759163D01*
X115663077Y-18806782D01*
X115656742Y-18811697D01*
X115650083Y-18816148D01*
X115554845Y-18911386D01*
X115553454Y-18913467D01*
X115552427Y-18913981D01*
X115548455Y-18920948D01*
X115544006Y-18927607D01*
X115544006Y-18928753D01*
X115542766Y-18930929D01*
X115495146Y-19073786D01*
X115494143Y-19081736D01*
X115492580Y-19089598D01*
X115381469Y-19089598D01*
X115381469Y-18595154D01*
X116703691Y-18595154D01*
X116703691Y-21584042D01*
G37*
G36*
X113874161Y-18849032D02*
G01*
X113953867Y-18928738D01*
X113992580Y-19006163D01*
X113992580Y-19173032D01*
X113953867Y-19250457D01*
X113874161Y-19330163D01*
X113703092Y-19372931D01*
X113382069Y-19372931D01*
X113210999Y-19330163D01*
X113131292Y-19250456D01*
X113092580Y-19173032D01*
X113092580Y-19006163D01*
X113131292Y-18928739D01*
X113210999Y-18849032D01*
X113382069Y-18806265D01*
X113703092Y-18806265D01*
X113874161Y-18849032D01*
G37*
G36*
X114203691Y-21484998D02*
G01*
X112881469Y-21484998D01*
X112881469Y-21022845D01*
X112996386Y-21022845D01*
X112996386Y-21061113D01*
X113023446Y-21088173D01*
X113042580Y-21091979D01*
X113992580Y-21091979D01*
X113992580Y-21327693D01*
X113996386Y-21346827D01*
X114023446Y-21373887D01*
X114061714Y-21373887D01*
X114088774Y-21346827D01*
X114092580Y-21327693D01*
X114092580Y-20756265D01*
X114088774Y-20737131D01*
X114061714Y-20710071D01*
X114023446Y-20710071D01*
X113996386Y-20737131D01*
X113992580Y-20756265D01*
X113992580Y-20991979D01*
X113042580Y-20991979D01*
X113023446Y-20995785D01*
X112996386Y-21022845D01*
X112881469Y-21022845D01*
X112881469Y-20041979D01*
X112992580Y-20041979D01*
X112992580Y-20232455D01*
X112993068Y-20234911D01*
X112992706Y-20236000D01*
X112994822Y-20243727D01*
X112996386Y-20251589D01*
X112997197Y-20252400D01*
X112997859Y-20254816D01*
X113045479Y-20350054D01*
X113050394Y-20356388D01*
X113054845Y-20363048D01*
X113102463Y-20410667D01*
X113109129Y-20415121D01*
X113115458Y-20420033D01*
X113210696Y-20467652D01*
X113213111Y-20468313D01*
X113213923Y-20469125D01*
X113221784Y-20470688D01*
X113229512Y-20472805D01*
X113230600Y-20472442D01*
X113233057Y-20472931D01*
X114042580Y-20472931D01*
X114061714Y-20469125D01*
X114088774Y-20442065D01*
X114088774Y-20403797D01*
X114061714Y-20376737D01*
X114042580Y-20372931D01*
X113244861Y-20372931D01*
X113167437Y-20334219D01*
X113131292Y-20298075D01*
X113092580Y-20220651D01*
X113092580Y-20053782D01*
X113131292Y-19976358D01*
X113167437Y-19940214D01*
X113244861Y-19901503D01*
X114042580Y-19901503D01*
X114061714Y-19897697D01*
X114088774Y-19870637D01*
X114088774Y-19832369D01*
X114061714Y-19805309D01*
X114042580Y-19801503D01*
X113233057Y-19801503D01*
X113230600Y-19801991D01*
X113229512Y-19801629D01*
X113221784Y-19803745D01*
X113213923Y-19805309D01*
X113213111Y-19806120D01*
X113210696Y-19806782D01*
X113115458Y-19854401D01*
X113109129Y-19859312D01*
X113102463Y-19863767D01*
X113054845Y-19911386D01*
X113050394Y-19918045D01*
X113045479Y-19924380D01*
X112997859Y-20019618D01*
X112997197Y-20022033D01*
X112996386Y-20022845D01*
X112994822Y-20030706D01*
X112992706Y-20038434D01*
X112993068Y-20039522D01*
X112992580Y-20041979D01*
X112881469Y-20041979D01*
X112881469Y-18994360D01*
X112992580Y-18994360D01*
X112992580Y-19184836D01*
X112993068Y-19187292D01*
X112992706Y-19188381D01*
X112994822Y-19196108D01*
X112996386Y-19203970D01*
X112997197Y-19204781D01*
X112997859Y-19207197D01*
X113045479Y-19302435D01*
X113050394Y-19308769D01*
X113054845Y-19315429D01*
X113150083Y-19410667D01*
X113154585Y-19413675D01*
X113155672Y-19415486D01*
X113161210Y-19418102D01*
X113166304Y-19421506D01*
X113168415Y-19421506D01*
X113173311Y-19423819D01*
X113363787Y-19471438D01*
X113369904Y-19471735D01*
X113375914Y-19472931D01*
X113709247Y-19472931D01*
X113715256Y-19471735D01*
X113721374Y-19471438D01*
X113911850Y-19423819D01*
X113916746Y-19421506D01*
X113918857Y-19421506D01*
X113923950Y-19418102D01*
X113929489Y-19415486D01*
X113930575Y-19413675D01*
X113935078Y-19410667D01*
X114030316Y-19315429D01*
X114034766Y-19308769D01*
X114039682Y-19302435D01*
X114087301Y-19207197D01*
X114087962Y-19204781D01*
X114088774Y-19203970D01*
X114090337Y-19196108D01*
X114092454Y-19188381D01*
X114092091Y-19187292D01*
X114092580Y-19184836D01*
X114092580Y-18994360D01*
X114092091Y-18991903D01*
X114092454Y-18990815D01*
X114090337Y-18983087D01*
X114088774Y-18975226D01*
X114087962Y-18974414D01*
X114087301Y-18971999D01*
X114039682Y-18876761D01*
X114034766Y-18870426D01*
X114030316Y-18863767D01*
X113935078Y-18768529D01*
X113930575Y-18765520D01*
X113929489Y-18763710D01*
X113923950Y-18761093D01*
X113918857Y-18757690D01*
X113916746Y-18757690D01*
X113911850Y-18755377D01*
X113721374Y-18707758D01*
X113715256Y-18707460D01*
X113709247Y-18706265D01*
X113375914Y-18706265D01*
X113369904Y-18707460D01*
X113363787Y-18707758D01*
X113173311Y-18755377D01*
X113168415Y-18757690D01*
X113166304Y-18757690D01*
X113161210Y-18761093D01*
X113155672Y-18763710D01*
X113154585Y-18765520D01*
X113150083Y-18768529D01*
X113054845Y-18863767D01*
X113050394Y-18870426D01*
X113045479Y-18876761D01*
X112997859Y-18971999D01*
X112997197Y-18974414D01*
X112996386Y-18975226D01*
X112994822Y-18983087D01*
X112992706Y-18990815D01*
X112993068Y-18991903D01*
X112992580Y-18994360D01*
X112881469Y-18994360D01*
X112881469Y-18595154D01*
X114203691Y-18595154D01*
X114203691Y-21484998D01*
G37*
G36*
X111492580Y-21744461D02*
G01*
X111453868Y-21821884D01*
X111417724Y-21858029D01*
X111340301Y-21896741D01*
X111221051Y-21896741D01*
X111143627Y-21858029D01*
X111107482Y-21821885D01*
X111068771Y-21744462D01*
X111068771Y-21425313D01*
X111492580Y-21425313D01*
X111492580Y-21744461D01*
G37*
G36*
X111492580Y-19843390D02*
G01*
X111451259Y-19967351D01*
X111370106Y-20048505D01*
X111287034Y-20090041D01*
X111107854Y-20134836D01*
X110977307Y-20134836D01*
X110798128Y-20090041D01*
X110715054Y-20048504D01*
X110633901Y-19967351D01*
X110592580Y-19843388D01*
X110592580Y-19663408D01*
X111492580Y-19663408D01*
X111492580Y-19843390D01*
G37*
G36*
X111703691Y-23106901D02*
G01*
X110286231Y-23106901D01*
X110286231Y-22270372D01*
X110493531Y-22270372D01*
X110501036Y-22307897D01*
X110514845Y-22321678D01*
X110952441Y-22613408D01*
X110514845Y-22905138D01*
X110501036Y-22918919D01*
X110493531Y-22956444D01*
X110514758Y-22988285D01*
X110552283Y-22995790D01*
X110570315Y-22988344D01*
X111042580Y-22673500D01*
X111514845Y-22988343D01*
X111532877Y-22995790D01*
X111570402Y-22988285D01*
X111591629Y-22956444D01*
X111584124Y-22918919D01*
X111570315Y-22905138D01*
X111132719Y-22613408D01*
X111570315Y-22321678D01*
X111584124Y-22307897D01*
X111591629Y-22270372D01*
X111570402Y-22238531D01*
X111532877Y-22231026D01*
X111514845Y-22238473D01*
X111042580Y-22553315D01*
X110570315Y-22238472D01*
X110552283Y-22231026D01*
X110514758Y-22238531D01*
X110493531Y-22270372D01*
X110286231Y-22270372D01*
X110286231Y-21957556D01*
X110493764Y-21957556D01*
X110515709Y-21988907D01*
X110553395Y-21995557D01*
X110571253Y-21987703D01*
X110968771Y-21709440D01*
X110968771Y-21756265D01*
X110969259Y-21758721D01*
X110968897Y-21759810D01*
X110971013Y-21767537D01*
X110972577Y-21775399D01*
X110973388Y-21776210D01*
X110974050Y-21778626D01*
X111021668Y-21873863D01*
X111026583Y-21880196D01*
X111031035Y-21886858D01*
X111078653Y-21934477D01*
X111085319Y-21938931D01*
X111091648Y-21943843D01*
X111186886Y-21991462D01*
X111189301Y-21992123D01*
X111190113Y-21992935D01*
X111197974Y-21994498D01*
X111205702Y-21996615D01*
X111206790Y-21996252D01*
X111209247Y-21996741D01*
X111352104Y-21996741D01*
X111354560Y-21996252D01*
X111355649Y-21996615D01*
X111363376Y-21994498D01*
X111371238Y-21992935D01*
X111372049Y-21992123D01*
X111374465Y-21991462D01*
X111469702Y-21943844D01*
X111476035Y-21938928D01*
X111482697Y-21934477D01*
X111530316Y-21886859D01*
X111534770Y-21880192D01*
X111539682Y-21873864D01*
X111587301Y-21778626D01*
X111587962Y-21776210D01*
X111588774Y-21775399D01*
X111590337Y-21767537D01*
X111592454Y-21759810D01*
X111592091Y-21758721D01*
X111592580Y-21756265D01*
X111592580Y-21375313D01*
X111588774Y-21356179D01*
X111561714Y-21329119D01*
X111542580Y-21325313D01*
X110542580Y-21325313D01*
X110523446Y-21329119D01*
X110496386Y-21356179D01*
X110496386Y-21394447D01*
X110523446Y-21421507D01*
X110542580Y-21425313D01*
X110968771Y-21425313D01*
X110968771Y-21587374D01*
X110513907Y-21905779D01*
X110500414Y-21919870D01*
X110493764Y-21957556D01*
X110286231Y-21957556D01*
X110286231Y-20375313D01*
X110397342Y-20375313D01*
X110397342Y-21137217D01*
X110401148Y-21156351D01*
X110428208Y-21183411D01*
X110466476Y-21183411D01*
X110493536Y-21156351D01*
X110497342Y-21137217D01*
X110497342Y-20375313D01*
X110493536Y-20356179D01*
X110466476Y-20329119D01*
X110428208Y-20329119D01*
X110401148Y-20356179D01*
X110397342Y-20375313D01*
X110286231Y-20375313D01*
X110286231Y-19613408D01*
X110492580Y-19613408D01*
X110492580Y-19851503D01*
X110494143Y-19859364D01*
X110495146Y-19867315D01*
X110542766Y-20010172D01*
X110544006Y-20012347D01*
X110544006Y-20013494D01*
X110548455Y-20020152D01*
X110552427Y-20027120D01*
X110553454Y-20027633D01*
X110554845Y-20029715D01*
X110650083Y-20124953D01*
X110656742Y-20129403D01*
X110663077Y-20134319D01*
X110758315Y-20181938D01*
X110763596Y-20183384D01*
X110768549Y-20185724D01*
X110959025Y-20233343D01*
X110965142Y-20233640D01*
X110971152Y-20234836D01*
X111114009Y-20234836D01*
X111120018Y-20233640D01*
X111126136Y-20233343D01*
X111316612Y-20185724D01*
X111321564Y-20183384D01*
X111326846Y-20181938D01*
X111422083Y-20134320D01*
X111428416Y-20129404D01*
X111435078Y-20124953D01*
X111530316Y-20029715D01*
X111531706Y-20027633D01*
X111532734Y-20027120D01*
X111536704Y-20020154D01*
X111541155Y-20013494D01*
X111541155Y-20012346D01*
X111542395Y-20010171D01*
X111590014Y-19867315D01*
X111591016Y-19859364D01*
X111592580Y-19851503D01*
X111592580Y-19613408D01*
X111588774Y-19594274D01*
X111561714Y-19567214D01*
X111542580Y-19563408D01*
X110542580Y-19563408D01*
X110523446Y-19567214D01*
X110496386Y-19594274D01*
X110492580Y-19613408D01*
X110286231Y-19613408D01*
X110286231Y-18803884D01*
X110492580Y-18803884D01*
X110492580Y-19280074D01*
X110496386Y-19299208D01*
X110523446Y-19326268D01*
X110561714Y-19326268D01*
X110588774Y-19299208D01*
X110592580Y-19280074D01*
X110592580Y-18853884D01*
X111542580Y-18853884D01*
X111561714Y-18850078D01*
X111588774Y-18823018D01*
X111588774Y-18784750D01*
X111561714Y-18757690D01*
X111542580Y-18753884D01*
X110542580Y-18753884D01*
X110523446Y-18757690D01*
X110496386Y-18784750D01*
X110492580Y-18803884D01*
X110286231Y-18803884D01*
X110286231Y-18642773D01*
X111703691Y-18642773D01*
X111703691Y-23106901D01*
G37*
G36*
X108992580Y-19843390D02*
G01*
X108951259Y-19967351D01*
X108870106Y-20048505D01*
X108787034Y-20090041D01*
X108607854Y-20134836D01*
X108477307Y-20134836D01*
X108298128Y-20090041D01*
X108215054Y-20048504D01*
X108133901Y-19967351D01*
X108092580Y-19843388D01*
X108092580Y-19663408D01*
X108992580Y-19663408D01*
X108992580Y-19843390D01*
G37*
G36*
X109203691Y-22868806D02*
G01*
X107786231Y-22868806D01*
X107786231Y-22032277D01*
X107993531Y-22032277D01*
X108001036Y-22069802D01*
X108014845Y-22083583D01*
X108452441Y-22375313D01*
X108014845Y-22667043D01*
X108001036Y-22680824D01*
X107993531Y-22718349D01*
X108014758Y-22750190D01*
X108052283Y-22757695D01*
X108070315Y-22750249D01*
X108542580Y-22435405D01*
X109014845Y-22750248D01*
X109032877Y-22757695D01*
X109070402Y-22750190D01*
X109091629Y-22718349D01*
X109084124Y-22680824D01*
X109070315Y-22667043D01*
X108632719Y-22375313D01*
X109070315Y-22083583D01*
X109084124Y-22069802D01*
X109091629Y-22032277D01*
X109070402Y-22000436D01*
X109032877Y-21992931D01*
X109014845Y-22000378D01*
X108542580Y-22315220D01*
X108070315Y-22000377D01*
X108052283Y-21992931D01*
X108014758Y-22000436D01*
X107993531Y-22032277D01*
X107786231Y-22032277D01*
X107786231Y-21499036D01*
X107996386Y-21499036D01*
X107996386Y-21537304D01*
X108023446Y-21564364D01*
X108042580Y-21568170D01*
X108992580Y-21568170D01*
X108992580Y-21803884D01*
X108996386Y-21823018D01*
X109023446Y-21850078D01*
X109061714Y-21850078D01*
X109088774Y-21823018D01*
X109092580Y-21803884D01*
X109092580Y-21232456D01*
X109088774Y-21213322D01*
X109061714Y-21186262D01*
X109023446Y-21186262D01*
X108996386Y-21213322D01*
X108992580Y-21232456D01*
X108992580Y-21468170D01*
X108042580Y-21468170D01*
X108023446Y-21471976D01*
X107996386Y-21499036D01*
X107786231Y-21499036D01*
X107786231Y-20375313D01*
X107897342Y-20375313D01*
X107897342Y-21137217D01*
X107901148Y-21156351D01*
X107928208Y-21183411D01*
X107966476Y-21183411D01*
X107993536Y-21156351D01*
X107997342Y-21137217D01*
X107997342Y-20375313D01*
X107993536Y-20356179D01*
X107966476Y-20329119D01*
X107928208Y-20329119D01*
X107901148Y-20356179D01*
X107897342Y-20375313D01*
X107786231Y-20375313D01*
X107786231Y-19613408D01*
X107992580Y-19613408D01*
X107992580Y-19851503D01*
X107994143Y-19859364D01*
X107995146Y-19867315D01*
X108042766Y-20010172D01*
X108044006Y-20012347D01*
X108044006Y-20013494D01*
X108048455Y-20020152D01*
X108052427Y-20027120D01*
X108053454Y-20027633D01*
X108054845Y-20029715D01*
X108150083Y-20124953D01*
X108156742Y-20129403D01*
X108163077Y-20134319D01*
X108258315Y-20181938D01*
X108263596Y-20183384D01*
X108268549Y-20185724D01*
X108459025Y-20233343D01*
X108465142Y-20233640D01*
X108471152Y-20234836D01*
X108614009Y-20234836D01*
X108620018Y-20233640D01*
X108626136Y-20233343D01*
X108816612Y-20185724D01*
X108821564Y-20183384D01*
X108826846Y-20181938D01*
X108922083Y-20134320D01*
X108928416Y-20129404D01*
X108935078Y-20124953D01*
X109030316Y-20029715D01*
X109031706Y-20027633D01*
X109032734Y-20027120D01*
X109036704Y-20020154D01*
X109041155Y-20013494D01*
X109041155Y-20012346D01*
X109042395Y-20010171D01*
X109090014Y-19867315D01*
X109091016Y-19859364D01*
X109092580Y-19851503D01*
X109092580Y-19613408D01*
X109088774Y-19594274D01*
X109061714Y-19567214D01*
X109042580Y-19563408D01*
X108042580Y-19563408D01*
X108023446Y-19567214D01*
X107996386Y-19594274D01*
X107992580Y-19613408D01*
X107786231Y-19613408D01*
X107786231Y-18803884D01*
X107992580Y-18803884D01*
X107992580Y-19280074D01*
X107996386Y-19299208D01*
X108023446Y-19326268D01*
X108061714Y-19326268D01*
X108088774Y-19299208D01*
X108092580Y-19280074D01*
X108092580Y-18853884D01*
X109042580Y-18853884D01*
X109061714Y-18850078D01*
X109088774Y-18823018D01*
X109088774Y-18784750D01*
X109061714Y-18757690D01*
X109042580Y-18753884D01*
X108042580Y-18753884D01*
X108023446Y-18757690D01*
X107996386Y-18784750D01*
X107992580Y-18803884D01*
X107786231Y-18803884D01*
X107786231Y-18642773D01*
X109203691Y-18642773D01*
X109203691Y-22868806D01*
G37*
D10*
G36*
X29512857Y-22494995D02*
G01*
X25097868Y-22494995D01*
X25097868Y-22149064D01*
X25264535Y-22149064D01*
X25264535Y-22207592D01*
X25273812Y-22229989D01*
X25286932Y-22261663D01*
X25328318Y-22303049D01*
X25359992Y-22316168D01*
X25382389Y-22325446D01*
X25411653Y-22328328D01*
X26340225Y-22328328D01*
X26369489Y-22325446D01*
X26423561Y-22303048D01*
X26464945Y-22261664D01*
X26487343Y-22207592D01*
X26487343Y-22149064D01*
X26464945Y-22094992D01*
X26423561Y-22053608D01*
X26369489Y-22031210D01*
X26340225Y-22028328D01*
X25773785Y-22028328D01*
X26142546Y-21659567D01*
X26762831Y-21659567D01*
X26764535Y-21683544D01*
X26764535Y-21707592D01*
X26766597Y-21712572D01*
X26766980Y-21717948D01*
X26777732Y-21739452D01*
X26786933Y-21761664D01*
X26790743Y-21765474D01*
X26793154Y-21770295D01*
X26811315Y-21786046D01*
X26828317Y-21803048D01*
X26833296Y-21805110D01*
X26837368Y-21808642D01*
X26860174Y-21816244D01*
X26882389Y-21825446D01*
X26890040Y-21826199D01*
X26892892Y-21827150D01*
X26896841Y-21826869D01*
X26911653Y-21828328D01*
X27475939Y-21828328D01*
X27475939Y-22178328D01*
X27478821Y-22207592D01*
X27501219Y-22261664D01*
X27542603Y-22303048D01*
X27596675Y-22325446D01*
X27655203Y-22325446D01*
X27709275Y-22303048D01*
X27750659Y-22261664D01*
X27773057Y-22207592D01*
X27775939Y-22178328D01*
X27775939Y-21828328D01*
X27840224Y-21828328D01*
X27869488Y-21825446D01*
X27923560Y-21803048D01*
X27964944Y-21761664D01*
X27987342Y-21707592D01*
X27987342Y-21649064D01*
X27964944Y-21594992D01*
X27923560Y-21553608D01*
X27869488Y-21531210D01*
X27840224Y-21528328D01*
X27775939Y-21528328D01*
X27775939Y-21178328D01*
X27773057Y-21149064D01*
X27750659Y-21094992D01*
X27709275Y-21053608D01*
X27655203Y-21031210D01*
X27596675Y-21031210D01*
X27542603Y-21053608D01*
X27501219Y-21094992D01*
X27478821Y-21149064D01*
X27475939Y-21178328D01*
X27475939Y-21528328D01*
X27119766Y-21528328D01*
X27396847Y-20697089D01*
X28048545Y-20697089D01*
X28055065Y-20725762D01*
X28555065Y-22225762D01*
X28567053Y-22252613D01*
X28574075Y-22260710D01*
X28578868Y-22270295D01*
X28593074Y-22282616D01*
X28605400Y-22296828D01*
X28614987Y-22301621D01*
X28623082Y-22308642D01*
X28640924Y-22314589D01*
X28657748Y-22323001D01*
X28668438Y-22323760D01*
X28678606Y-22327150D01*
X28697362Y-22325817D01*
X28716128Y-22327151D01*
X28726298Y-22323760D01*
X28736987Y-22323001D01*
X28753808Y-22314590D01*
X28771652Y-22308642D01*
X28779748Y-22301619D01*
X28789334Y-22296827D01*
X28801657Y-22282618D01*
X28815866Y-22270295D01*
X28820658Y-22260709D01*
X28827681Y-22252613D01*
X28839669Y-22225762D01*
X29339670Y-20725762D01*
X29346190Y-20697088D01*
X29342040Y-20638708D01*
X29315866Y-20586361D01*
X29271652Y-20548014D01*
X29216128Y-20529505D01*
X29157748Y-20533655D01*
X29105400Y-20559828D01*
X29067053Y-20604043D01*
X29055065Y-20630894D01*
X28697367Y-21703986D01*
X28339669Y-20630894D01*
X28327681Y-20604043D01*
X28289334Y-20559829D01*
X28236987Y-20533655D01*
X28178606Y-20529506D01*
X28123082Y-20548014D01*
X28078868Y-20586361D01*
X28052694Y-20638708D01*
X28048545Y-20697089D01*
X27396847Y-20697089D01*
X27411098Y-20654335D01*
X27417618Y-20625661D01*
X27413469Y-20567281D01*
X27387295Y-20514934D01*
X27343081Y-20476586D01*
X27287556Y-20458078D01*
X27229176Y-20462227D01*
X27176829Y-20488401D01*
X27138482Y-20532615D01*
X27126493Y-20559466D01*
X26769351Y-21630894D01*
X26766052Y-21645401D01*
X26764535Y-21649064D01*
X26764535Y-21652073D01*
X26762831Y-21659567D01*
X26142546Y-21659567D01*
X26374862Y-21427251D01*
X26393517Y-21404521D01*
X26395580Y-21399539D01*
X26399110Y-21395470D01*
X26411098Y-21368620D01*
X26482527Y-21154335D01*
X26485826Y-21139825D01*
X26487343Y-21136164D01*
X26487865Y-21130855D01*
X26489047Y-21125661D01*
X26488766Y-21121711D01*
X26490225Y-21106900D01*
X26490225Y-20964042D01*
X26487343Y-20934778D01*
X26485279Y-20929797D01*
X26484898Y-20924423D01*
X26474389Y-20896959D01*
X26402960Y-20754103D01*
X26395033Y-20741511D01*
X26393517Y-20737849D01*
X26390133Y-20733726D01*
X26387295Y-20729217D01*
X26384302Y-20726621D01*
X26374862Y-20715119D01*
X26303434Y-20643691D01*
X26291932Y-20634251D01*
X26289336Y-20631258D01*
X26284822Y-20628417D01*
X26280703Y-20625036D01*
X26277043Y-20623520D01*
X26264450Y-20615593D01*
X26121592Y-20544164D01*
X26094129Y-20533654D01*
X26088751Y-20533271D01*
X26083774Y-20531210D01*
X26054510Y-20528328D01*
X25697368Y-20528328D01*
X25668104Y-20531210D01*
X25663126Y-20533271D01*
X25657749Y-20533654D01*
X25630286Y-20544164D01*
X25487428Y-20615593D01*
X25474836Y-20623519D01*
X25471174Y-20625036D01*
X25467051Y-20628419D01*
X25462542Y-20631258D01*
X25459946Y-20634250D01*
X25448444Y-20643691D01*
X25377016Y-20715119D01*
X25358361Y-20737850D01*
X25335964Y-20791922D01*
X25335964Y-20850448D01*
X25358361Y-20904520D01*
X25399747Y-20945906D01*
X25453819Y-20968303D01*
X25512345Y-20968303D01*
X25566417Y-20945906D01*
X25589148Y-20927251D01*
X25643364Y-20873035D01*
X25732778Y-20828328D01*
X26019100Y-20828328D01*
X26108514Y-20873035D01*
X26145518Y-20910039D01*
X26190225Y-20999452D01*
X26190225Y-21082559D01*
X26137691Y-21240157D01*
X25305587Y-22072262D01*
X25286932Y-22094993D01*
X25273812Y-22126667D01*
X25264535Y-22149064D01*
X25097868Y-22149064D01*
X25097868Y-20291411D01*
X29512857Y-20291411D01*
X29512857Y-22494995D01*
G37*
X30554510Y-25106900D02*
X31697368Y-25106900D01*
X30554510Y-29106900D02*
X31697368Y-29106900D01*
X31125939Y-29678328D02*
X31125939Y-28535471D01*
D12*
X142184819Y-47809523D02*
X142899104Y-47809523D01*
X142899104Y-47809523D02*
X143041961Y-47857142D01*
X143041961Y-47857142D02*
X143137200Y-47952380D01*
X143137200Y-47952380D02*
X143184819Y-48095237D01*
X143184819Y-48095237D02*
X143184819Y-48190475D01*
X143184819Y-46809523D02*
X143184819Y-47380951D01*
X143184819Y-47095237D02*
X142184819Y-47095237D01*
X142184819Y-47095237D02*
X142327676Y-47190475D01*
X142327676Y-47190475D02*
X142422914Y-47285713D01*
X142422914Y-47285713D02*
X142470533Y-47380951D01*
X143184819Y-45857142D02*
X143184819Y-46428570D01*
X143184819Y-46142856D02*
X142184819Y-46142856D01*
X142184819Y-46142856D02*
X142327676Y-46238094D01*
X142327676Y-46238094D02*
X142422914Y-46333332D01*
X142422914Y-46333332D02*
X142470533Y-46428570D01*
X105064819Y-17309523D02*
X105779104Y-17309523D01*
X105779104Y-17309523D02*
X105921961Y-17357142D01*
X105921961Y-17357142D02*
X106017200Y-17452380D01*
X106017200Y-17452380D02*
X106064819Y-17595237D01*
X106064819Y-17595237D02*
X106064819Y-17690475D01*
X106064819Y-16309523D02*
X106064819Y-16880951D01*
X106064819Y-16595237D02*
X105064819Y-16595237D01*
X105064819Y-16595237D02*
X105207676Y-16690475D01*
X105207676Y-16690475D02*
X105302914Y-16785713D01*
X105302914Y-16785713D02*
X105350533Y-16880951D01*
X105064819Y-15690475D02*
X105064819Y-15595237D01*
X105064819Y-15595237D02*
X105112438Y-15499999D01*
X105112438Y-15499999D02*
X105160057Y-15452380D01*
X105160057Y-15452380D02*
X105255295Y-15404761D01*
X105255295Y-15404761D02*
X105445771Y-15357142D01*
X105445771Y-15357142D02*
X105683866Y-15357142D01*
X105683866Y-15357142D02*
X105874342Y-15404761D01*
X105874342Y-15404761D02*
X105969580Y-15452380D01*
X105969580Y-15452380D02*
X106017200Y-15499999D01*
X106017200Y-15499999D02*
X106064819Y-15595237D01*
X106064819Y-15595237D02*
X106064819Y-15690475D01*
X106064819Y-15690475D02*
X106017200Y-15785713D01*
X106017200Y-15785713D02*
X105969580Y-15833332D01*
X105969580Y-15833332D02*
X105874342Y-15880951D01*
X105874342Y-15880951D02*
X105683866Y-15928570D01*
X105683866Y-15928570D02*
X105445771Y-15928570D01*
X105445771Y-15928570D02*
X105255295Y-15880951D01*
X105255295Y-15880951D02*
X105160057Y-15833332D01*
X105160057Y-15833332D02*
X105112438Y-15785713D01*
X105112438Y-15785713D02*
X105064819Y-15690475D01*
X124238095Y-45804819D02*
X124238095Y-46614342D01*
X124238095Y-46614342D02*
X124285714Y-46709580D01*
X124285714Y-46709580D02*
X124333333Y-46757200D01*
X124333333Y-46757200D02*
X124428571Y-46804819D01*
X124428571Y-46804819D02*
X124619047Y-46804819D01*
X124619047Y-46804819D02*
X124714285Y-46757200D01*
X124714285Y-46757200D02*
X124761904Y-46709580D01*
X124761904Y-46709580D02*
X124809523Y-46614342D01*
X124809523Y-46614342D02*
X124809523Y-45804819D01*
X125761904Y-45804819D02*
X125285714Y-45804819D01*
X125285714Y-45804819D02*
X125238095Y-46281009D01*
X125238095Y-46281009D02*
X125285714Y-46233390D01*
X125285714Y-46233390D02*
X125380952Y-46185771D01*
X125380952Y-46185771D02*
X125619047Y-46185771D01*
X125619047Y-46185771D02*
X125714285Y-46233390D01*
X125714285Y-46233390D02*
X125761904Y-46281009D01*
X125761904Y-46281009D02*
X125809523Y-46376247D01*
X125809523Y-46376247D02*
X125809523Y-46614342D01*
X125809523Y-46614342D02*
X125761904Y-46709580D01*
X125761904Y-46709580D02*
X125714285Y-46757200D01*
X125714285Y-46757200D02*
X125619047Y-46804819D01*
X125619047Y-46804819D02*
X125380952Y-46804819D01*
X125380952Y-46804819D02*
X125285714Y-46757200D01*
X125285714Y-46757200D02*
X125238095Y-46709580D01*
X23454819Y-40642857D02*
X22978628Y-40976190D01*
X23454819Y-41214285D02*
X22454819Y-41214285D01*
X22454819Y-41214285D02*
X22454819Y-40833333D01*
X22454819Y-40833333D02*
X22502438Y-40738095D01*
X22502438Y-40738095D02*
X22550057Y-40690476D01*
X22550057Y-40690476D02*
X22645295Y-40642857D01*
X22645295Y-40642857D02*
X22788152Y-40642857D01*
X22788152Y-40642857D02*
X22883390Y-40690476D01*
X22883390Y-40690476D02*
X22931009Y-40738095D01*
X22931009Y-40738095D02*
X22978628Y-40833333D01*
X22978628Y-40833333D02*
X22978628Y-41214285D01*
X23454819Y-39690476D02*
X23454819Y-40261904D01*
X23454819Y-39976190D02*
X22454819Y-39976190D01*
X22454819Y-39976190D02*
X22597676Y-40071428D01*
X22597676Y-40071428D02*
X22692914Y-40166666D01*
X22692914Y-40166666D02*
X22740533Y-40261904D01*
X22883390Y-39119047D02*
X22835771Y-39214285D01*
X22835771Y-39214285D02*
X22788152Y-39261904D01*
X22788152Y-39261904D02*
X22692914Y-39309523D01*
X22692914Y-39309523D02*
X22645295Y-39309523D01*
X22645295Y-39309523D02*
X22550057Y-39261904D01*
X22550057Y-39261904D02*
X22502438Y-39214285D01*
X22502438Y-39214285D02*
X22454819Y-39119047D01*
X22454819Y-39119047D02*
X22454819Y-38928571D01*
X22454819Y-38928571D02*
X22502438Y-38833333D01*
X22502438Y-38833333D02*
X22550057Y-38785714D01*
X22550057Y-38785714D02*
X22645295Y-38738095D01*
X22645295Y-38738095D02*
X22692914Y-38738095D01*
X22692914Y-38738095D02*
X22788152Y-38785714D01*
X22788152Y-38785714D02*
X22835771Y-38833333D01*
X22835771Y-38833333D02*
X22883390Y-38928571D01*
X22883390Y-38928571D02*
X22883390Y-39119047D01*
X22883390Y-39119047D02*
X22931009Y-39214285D01*
X22931009Y-39214285D02*
X22978628Y-39261904D01*
X22978628Y-39261904D02*
X23073866Y-39309523D01*
X23073866Y-39309523D02*
X23264342Y-39309523D01*
X23264342Y-39309523D02*
X23359580Y-39261904D01*
X23359580Y-39261904D02*
X23407200Y-39214285D01*
X23407200Y-39214285D02*
X23454819Y-39119047D01*
X23454819Y-39119047D02*
X23454819Y-38928571D01*
X23454819Y-38928571D02*
X23407200Y-38833333D01*
X23407200Y-38833333D02*
X23359580Y-38785714D01*
X23359580Y-38785714D02*
X23264342Y-38738095D01*
X23264342Y-38738095D02*
X23073866Y-38738095D01*
X23073866Y-38738095D02*
X22978628Y-38785714D01*
X22978628Y-38785714D02*
X22931009Y-38833333D01*
X22931009Y-38833333D02*
X22883390Y-38928571D01*
X60454819Y-37142857D02*
X59978628Y-37476190D01*
X60454819Y-37714285D02*
X59454819Y-37714285D01*
X59454819Y-37714285D02*
X59454819Y-37333333D01*
X59454819Y-37333333D02*
X59502438Y-37238095D01*
X59502438Y-37238095D02*
X59550057Y-37190476D01*
X59550057Y-37190476D02*
X59645295Y-37142857D01*
X59645295Y-37142857D02*
X59788152Y-37142857D01*
X59788152Y-37142857D02*
X59883390Y-37190476D01*
X59883390Y-37190476D02*
X59931009Y-37238095D01*
X59931009Y-37238095D02*
X59978628Y-37333333D01*
X59978628Y-37333333D02*
X59978628Y-37714285D01*
X60454819Y-36190476D02*
X60454819Y-36761904D01*
X60454819Y-36476190D02*
X59454819Y-36476190D01*
X59454819Y-36476190D02*
X59597676Y-36571428D01*
X59597676Y-36571428D02*
X59692914Y-36666666D01*
X59692914Y-36666666D02*
X59740533Y-36761904D01*
X59550057Y-35809523D02*
X59502438Y-35761904D01*
X59502438Y-35761904D02*
X59454819Y-35666666D01*
X59454819Y-35666666D02*
X59454819Y-35428571D01*
X59454819Y-35428571D02*
X59502438Y-35333333D01*
X59502438Y-35333333D02*
X59550057Y-35285714D01*
X59550057Y-35285714D02*
X59645295Y-35238095D01*
X59645295Y-35238095D02*
X59740533Y-35238095D01*
X59740533Y-35238095D02*
X59883390Y-35285714D01*
X59883390Y-35285714D02*
X60454819Y-35857142D01*
X60454819Y-35857142D02*
X60454819Y-35238095D01*
X22666666Y-28454819D02*
X22666666Y-29169104D01*
X22666666Y-29169104D02*
X22619047Y-29311961D01*
X22619047Y-29311961D02*
X22523809Y-29407200D01*
X22523809Y-29407200D02*
X22380952Y-29454819D01*
X22380952Y-29454819D02*
X22285714Y-29454819D01*
X23666666Y-29454819D02*
X23095238Y-29454819D01*
X23380952Y-29454819D02*
X23380952Y-28454819D01*
X23380952Y-28454819D02*
X23285714Y-28597676D01*
X23285714Y-28597676D02*
X23190476Y-28692914D01*
X23190476Y-28692914D02*
X23095238Y-28740533D01*
X125107142Y-26704819D02*
X124773809Y-26228628D01*
X124535714Y-26704819D02*
X124535714Y-25704819D01*
X124535714Y-25704819D02*
X124916666Y-25704819D01*
X124916666Y-25704819D02*
X125011904Y-25752438D01*
X125011904Y-25752438D02*
X125059523Y-25800057D01*
X125059523Y-25800057D02*
X125107142Y-25895295D01*
X125107142Y-25895295D02*
X125107142Y-26038152D01*
X125107142Y-26038152D02*
X125059523Y-26133390D01*
X125059523Y-26133390D02*
X125011904Y-26181009D01*
X125011904Y-26181009D02*
X124916666Y-26228628D01*
X124916666Y-26228628D02*
X124535714Y-26228628D01*
X126059523Y-26704819D02*
X125488095Y-26704819D01*
X125773809Y-26704819D02*
X125773809Y-25704819D01*
X125773809Y-25704819D02*
X125678571Y-25847676D01*
X125678571Y-25847676D02*
X125583333Y-25942914D01*
X125583333Y-25942914D02*
X125488095Y-25990533D01*
X126916666Y-25704819D02*
X126726190Y-25704819D01*
X126726190Y-25704819D02*
X126630952Y-25752438D01*
X126630952Y-25752438D02*
X126583333Y-25800057D01*
X126583333Y-25800057D02*
X126488095Y-25942914D01*
X126488095Y-25942914D02*
X126440476Y-26133390D01*
X126440476Y-26133390D02*
X126440476Y-26514342D01*
X126440476Y-26514342D02*
X126488095Y-26609580D01*
X126488095Y-26609580D02*
X126535714Y-26657200D01*
X126535714Y-26657200D02*
X126630952Y-26704819D01*
X126630952Y-26704819D02*
X126821428Y-26704819D01*
X126821428Y-26704819D02*
X126916666Y-26657200D01*
X126916666Y-26657200D02*
X126964285Y-26609580D01*
X126964285Y-26609580D02*
X127011904Y-26514342D01*
X127011904Y-26514342D02*
X127011904Y-26276247D01*
X127011904Y-26276247D02*
X126964285Y-26181009D01*
X126964285Y-26181009D02*
X126916666Y-26133390D01*
X126916666Y-26133390D02*
X126821428Y-26085771D01*
X126821428Y-26085771D02*
X126630952Y-26085771D01*
X126630952Y-26085771D02*
X126535714Y-26133390D01*
X126535714Y-26133390D02*
X126488095Y-26181009D01*
X126488095Y-26181009D02*
X126440476Y-26276247D01*
X136857142Y-28609580D02*
X136809523Y-28657200D01*
X136809523Y-28657200D02*
X136666666Y-28704819D01*
X136666666Y-28704819D02*
X136571428Y-28704819D01*
X136571428Y-28704819D02*
X136428571Y-28657200D01*
X136428571Y-28657200D02*
X136333333Y-28561961D01*
X136333333Y-28561961D02*
X136285714Y-28466723D01*
X136285714Y-28466723D02*
X136238095Y-28276247D01*
X136238095Y-28276247D02*
X136238095Y-28133390D01*
X136238095Y-28133390D02*
X136285714Y-27942914D01*
X136285714Y-27942914D02*
X136333333Y-27847676D01*
X136333333Y-27847676D02*
X136428571Y-27752438D01*
X136428571Y-27752438D02*
X136571428Y-27704819D01*
X136571428Y-27704819D02*
X136666666Y-27704819D01*
X136666666Y-27704819D02*
X136809523Y-27752438D01*
X136809523Y-27752438D02*
X136857142Y-27800057D01*
X137809523Y-28704819D02*
X137238095Y-28704819D01*
X137523809Y-28704819D02*
X137523809Y-27704819D01*
X137523809Y-27704819D02*
X137428571Y-27847676D01*
X137428571Y-27847676D02*
X137333333Y-27942914D01*
X137333333Y-27942914D02*
X137238095Y-27990533D01*
X138714285Y-27704819D02*
X138238095Y-27704819D01*
X138238095Y-27704819D02*
X138190476Y-28181009D01*
X138190476Y-28181009D02*
X138238095Y-28133390D01*
X138238095Y-28133390D02*
X138333333Y-28085771D01*
X138333333Y-28085771D02*
X138571428Y-28085771D01*
X138571428Y-28085771D02*
X138666666Y-28133390D01*
X138666666Y-28133390D02*
X138714285Y-28181009D01*
X138714285Y-28181009D02*
X138761904Y-28276247D01*
X138761904Y-28276247D02*
X138761904Y-28514342D01*
X138761904Y-28514342D02*
X138714285Y-28609580D01*
X138714285Y-28609580D02*
X138666666Y-28657200D01*
X138666666Y-28657200D02*
X138571428Y-28704819D01*
X138571428Y-28704819D02*
X138333333Y-28704819D01*
X138333333Y-28704819D02*
X138238095Y-28657200D01*
X138238095Y-28657200D02*
X138190476Y-28609580D01*
X56454819Y-37416666D02*
X55978628Y-37749999D01*
X56454819Y-37988094D02*
X55454819Y-37988094D01*
X55454819Y-37988094D02*
X55454819Y-37607142D01*
X55454819Y-37607142D02*
X55502438Y-37511904D01*
X55502438Y-37511904D02*
X55550057Y-37464285D01*
X55550057Y-37464285D02*
X55645295Y-37416666D01*
X55645295Y-37416666D02*
X55788152Y-37416666D01*
X55788152Y-37416666D02*
X55883390Y-37464285D01*
X55883390Y-37464285D02*
X55931009Y-37511904D01*
X55931009Y-37511904D02*
X55978628Y-37607142D01*
X55978628Y-37607142D02*
X55978628Y-37988094D01*
X55550057Y-37035713D02*
X55502438Y-36988094D01*
X55502438Y-36988094D02*
X55454819Y-36892856D01*
X55454819Y-36892856D02*
X55454819Y-36654761D01*
X55454819Y-36654761D02*
X55502438Y-36559523D01*
X55502438Y-36559523D02*
X55550057Y-36511904D01*
X55550057Y-36511904D02*
X55645295Y-36464285D01*
X55645295Y-36464285D02*
X55740533Y-36464285D01*
X55740533Y-36464285D02*
X55883390Y-36511904D01*
X55883390Y-36511904D02*
X56454819Y-37083332D01*
X56454819Y-37083332D02*
X56454819Y-36464285D01*
X35954819Y-24693922D02*
X35478628Y-25027255D01*
X35954819Y-25265350D02*
X34954819Y-25265350D01*
X34954819Y-25265350D02*
X34954819Y-24884398D01*
X34954819Y-24884398D02*
X35002438Y-24789160D01*
X35002438Y-24789160D02*
X35050057Y-24741541D01*
X35050057Y-24741541D02*
X35145295Y-24693922D01*
X35145295Y-24693922D02*
X35288152Y-24693922D01*
X35288152Y-24693922D02*
X35383390Y-24741541D01*
X35383390Y-24741541D02*
X35431009Y-24789160D01*
X35431009Y-24789160D02*
X35478628Y-24884398D01*
X35478628Y-24884398D02*
X35478628Y-25265350D01*
X35954819Y-23741541D02*
X35954819Y-24312969D01*
X35954819Y-24027255D02*
X34954819Y-24027255D01*
X34954819Y-24027255D02*
X35097676Y-24122493D01*
X35097676Y-24122493D02*
X35192914Y-24217731D01*
X35192914Y-24217731D02*
X35240533Y-24312969D01*
X34954819Y-23408207D02*
X34954819Y-22789160D01*
X34954819Y-22789160D02*
X35335771Y-23122493D01*
X35335771Y-23122493D02*
X35335771Y-22979636D01*
X35335771Y-22979636D02*
X35383390Y-22884398D01*
X35383390Y-22884398D02*
X35431009Y-22836779D01*
X35431009Y-22836779D02*
X35526247Y-22789160D01*
X35526247Y-22789160D02*
X35764342Y-22789160D01*
X35764342Y-22789160D02*
X35859580Y-22836779D01*
X35859580Y-22836779D02*
X35907200Y-22884398D01*
X35907200Y-22884398D02*
X35954819Y-22979636D01*
X35954819Y-22979636D02*
X35954819Y-23265350D01*
X35954819Y-23265350D02*
X35907200Y-23360588D01*
X35907200Y-23360588D02*
X35859580Y-23408207D01*
X64613210Y-21241666D02*
X64660830Y-21289285D01*
X64660830Y-21289285D02*
X64708449Y-21432142D01*
X64708449Y-21432142D02*
X64708449Y-21527380D01*
X64708449Y-21527380D02*
X64660830Y-21670237D01*
X64660830Y-21670237D02*
X64565591Y-21765475D01*
X64565591Y-21765475D02*
X64470353Y-21813094D01*
X64470353Y-21813094D02*
X64279877Y-21860713D01*
X64279877Y-21860713D02*
X64137020Y-21860713D01*
X64137020Y-21860713D02*
X63946544Y-21813094D01*
X63946544Y-21813094D02*
X63851306Y-21765475D01*
X63851306Y-21765475D02*
X63756068Y-21670237D01*
X63756068Y-21670237D02*
X63708449Y-21527380D01*
X63708449Y-21527380D02*
X63708449Y-21432142D01*
X63708449Y-21432142D02*
X63756068Y-21289285D01*
X63756068Y-21289285D02*
X63803687Y-21241666D01*
X63708449Y-20336904D02*
X63708449Y-20813094D01*
X63708449Y-20813094D02*
X64184639Y-20860713D01*
X64184639Y-20860713D02*
X64137020Y-20813094D01*
X64137020Y-20813094D02*
X64089401Y-20717856D01*
X64089401Y-20717856D02*
X64089401Y-20479761D01*
X64089401Y-20479761D02*
X64137020Y-20384523D01*
X64137020Y-20384523D02*
X64184639Y-20336904D01*
X64184639Y-20336904D02*
X64279877Y-20289285D01*
X64279877Y-20289285D02*
X64517972Y-20289285D01*
X64517972Y-20289285D02*
X64613210Y-20336904D01*
X64613210Y-20336904D02*
X64660830Y-20384523D01*
X64660830Y-20384523D02*
X64708449Y-20479761D01*
X64708449Y-20479761D02*
X64708449Y-20717856D01*
X64708449Y-20717856D02*
X64660830Y-20813094D01*
X64660830Y-20813094D02*
X64613210Y-20860713D01*
X64679580Y-36730177D02*
X64727200Y-36777796D01*
X64727200Y-36777796D02*
X64774819Y-36920653D01*
X64774819Y-36920653D02*
X64774819Y-37015891D01*
X64774819Y-37015891D02*
X64727200Y-37158748D01*
X64727200Y-37158748D02*
X64631961Y-37253986D01*
X64631961Y-37253986D02*
X64536723Y-37301605D01*
X64536723Y-37301605D02*
X64346247Y-37349224D01*
X64346247Y-37349224D02*
X64203390Y-37349224D01*
X64203390Y-37349224D02*
X64012914Y-37301605D01*
X64012914Y-37301605D02*
X63917676Y-37253986D01*
X63917676Y-37253986D02*
X63822438Y-37158748D01*
X63822438Y-37158748D02*
X63774819Y-37015891D01*
X63774819Y-37015891D02*
X63774819Y-36920653D01*
X63774819Y-36920653D02*
X63822438Y-36777796D01*
X63822438Y-36777796D02*
X63870057Y-36730177D01*
X64108152Y-35873034D02*
X64774819Y-35873034D01*
X63727200Y-36111129D02*
X64441485Y-36349224D01*
X64441485Y-36349224D02*
X64441485Y-35730177D01*
X49916666Y-40954819D02*
X49916666Y-41669104D01*
X49916666Y-41669104D02*
X49869047Y-41811961D01*
X49869047Y-41811961D02*
X49773809Y-41907200D01*
X49773809Y-41907200D02*
X49630952Y-41954819D01*
X49630952Y-41954819D02*
X49535714Y-41954819D01*
X50821428Y-40954819D02*
X50630952Y-40954819D01*
X50630952Y-40954819D02*
X50535714Y-41002438D01*
X50535714Y-41002438D02*
X50488095Y-41050057D01*
X50488095Y-41050057D02*
X50392857Y-41192914D01*
X50392857Y-41192914D02*
X50345238Y-41383390D01*
X50345238Y-41383390D02*
X50345238Y-41764342D01*
X50345238Y-41764342D02*
X50392857Y-41859580D01*
X50392857Y-41859580D02*
X50440476Y-41907200D01*
X50440476Y-41907200D02*
X50535714Y-41954819D01*
X50535714Y-41954819D02*
X50726190Y-41954819D01*
X50726190Y-41954819D02*
X50821428Y-41907200D01*
X50821428Y-41907200D02*
X50869047Y-41859580D01*
X50869047Y-41859580D02*
X50916666Y-41764342D01*
X50916666Y-41764342D02*
X50916666Y-41526247D01*
X50916666Y-41526247D02*
X50869047Y-41431009D01*
X50869047Y-41431009D02*
X50821428Y-41383390D01*
X50821428Y-41383390D02*
X50726190Y-41335771D01*
X50726190Y-41335771D02*
X50535714Y-41335771D01*
X50535714Y-41335771D02*
X50440476Y-41383390D01*
X50440476Y-41383390D02*
X50392857Y-41431009D01*
X50392857Y-41431009D02*
X50345238Y-41526247D01*
X26842261Y-49100057D02*
X26747023Y-49052438D01*
X26747023Y-49052438D02*
X26651785Y-48957200D01*
X26651785Y-48957200D02*
X26508928Y-48814342D01*
X26508928Y-48814342D02*
X26413690Y-48766723D01*
X26413690Y-48766723D02*
X26318452Y-48766723D01*
X26366071Y-49004819D02*
X26270833Y-48957200D01*
X26270833Y-48957200D02*
X26175595Y-48861961D01*
X26175595Y-48861961D02*
X26127976Y-48671485D01*
X26127976Y-48671485D02*
X26127976Y-48338152D01*
X26127976Y-48338152D02*
X26175595Y-48147676D01*
X26175595Y-48147676D02*
X26270833Y-48052438D01*
X26270833Y-48052438D02*
X26366071Y-48004819D01*
X26366071Y-48004819D02*
X26556547Y-48004819D01*
X26556547Y-48004819D02*
X26651785Y-48052438D01*
X26651785Y-48052438D02*
X26747023Y-48147676D01*
X26747023Y-48147676D02*
X26794642Y-48338152D01*
X26794642Y-48338152D02*
X26794642Y-48671485D01*
X26794642Y-48671485D02*
X26747023Y-48861961D01*
X26747023Y-48861961D02*
X26651785Y-48957200D01*
X26651785Y-48957200D02*
X26556547Y-49004819D01*
X26556547Y-49004819D02*
X26366071Y-49004819D01*
X27175595Y-48100057D02*
X27223214Y-48052438D01*
X27223214Y-48052438D02*
X27318452Y-48004819D01*
X27318452Y-48004819D02*
X27556547Y-48004819D01*
X27556547Y-48004819D02*
X27651785Y-48052438D01*
X27651785Y-48052438D02*
X27699404Y-48100057D01*
X27699404Y-48100057D02*
X27747023Y-48195295D01*
X27747023Y-48195295D02*
X27747023Y-48290533D01*
X27747023Y-48290533D02*
X27699404Y-48433390D01*
X27699404Y-48433390D02*
X27127976Y-49004819D01*
X27127976Y-49004819D02*
X27747023Y-49004819D01*
X78638449Y-15991666D02*
X78162258Y-16324999D01*
X78638449Y-16563094D02*
X77638449Y-16563094D01*
X77638449Y-16563094D02*
X77638449Y-16182142D01*
X77638449Y-16182142D02*
X77686068Y-16086904D01*
X77686068Y-16086904D02*
X77733687Y-16039285D01*
X77733687Y-16039285D02*
X77828925Y-15991666D01*
X77828925Y-15991666D02*
X77971782Y-15991666D01*
X77971782Y-15991666D02*
X78067020Y-16039285D01*
X78067020Y-16039285D02*
X78114639Y-16086904D01*
X78114639Y-16086904D02*
X78162258Y-16182142D01*
X78162258Y-16182142D02*
X78162258Y-16563094D01*
X77638449Y-15134523D02*
X77638449Y-15324999D01*
X77638449Y-15324999D02*
X77686068Y-15420237D01*
X77686068Y-15420237D02*
X77733687Y-15467856D01*
X77733687Y-15467856D02*
X77876544Y-15563094D01*
X77876544Y-15563094D02*
X78067020Y-15610713D01*
X78067020Y-15610713D02*
X78447972Y-15610713D01*
X78447972Y-15610713D02*
X78543210Y-15563094D01*
X78543210Y-15563094D02*
X78590830Y-15515475D01*
X78590830Y-15515475D02*
X78638449Y-15420237D01*
X78638449Y-15420237D02*
X78638449Y-15229761D01*
X78638449Y-15229761D02*
X78590830Y-15134523D01*
X78590830Y-15134523D02*
X78543210Y-15086904D01*
X78543210Y-15086904D02*
X78447972Y-15039285D01*
X78447972Y-15039285D02*
X78209877Y-15039285D01*
X78209877Y-15039285D02*
X78114639Y-15086904D01*
X78114639Y-15086904D02*
X78067020Y-15134523D01*
X78067020Y-15134523D02*
X78019401Y-15229761D01*
X78019401Y-15229761D02*
X78019401Y-15420237D01*
X78019401Y-15420237D02*
X78067020Y-15515475D01*
X78067020Y-15515475D02*
X78114639Y-15563094D01*
X78114639Y-15563094D02*
X78209877Y-15610713D01*
X74738095Y-17204819D02*
X74738095Y-18014342D01*
X74738095Y-18014342D02*
X74785714Y-18109580D01*
X74785714Y-18109580D02*
X74833333Y-18157200D01*
X74833333Y-18157200D02*
X74928571Y-18204819D01*
X74928571Y-18204819D02*
X75119047Y-18204819D01*
X75119047Y-18204819D02*
X75214285Y-18157200D01*
X75214285Y-18157200D02*
X75261904Y-18109580D01*
X75261904Y-18109580D02*
X75309523Y-18014342D01*
X75309523Y-18014342D02*
X75309523Y-17204819D01*
X76309523Y-18204819D02*
X75738095Y-18204819D01*
X76023809Y-18204819D02*
X76023809Y-17204819D01*
X76023809Y-17204819D02*
X75928571Y-17347676D01*
X75928571Y-17347676D02*
X75833333Y-17442914D01*
X75833333Y-17442914D02*
X75738095Y-17490533D01*
X25166666Y-18454819D02*
X25166666Y-19169104D01*
X25166666Y-19169104D02*
X25119047Y-19311961D01*
X25119047Y-19311961D02*
X25023809Y-19407200D01*
X25023809Y-19407200D02*
X24880952Y-19454819D01*
X24880952Y-19454819D02*
X24785714Y-19454819D01*
X26071428Y-18788152D02*
X26071428Y-19454819D01*
X25833333Y-18407200D02*
X25595238Y-19121485D01*
X25595238Y-19121485D02*
X26214285Y-19121485D01*
X71945535Y-28279819D02*
X71945535Y-27279819D01*
X71945535Y-27279819D02*
X72183630Y-27279819D01*
X72183630Y-27279819D02*
X72326487Y-27327438D01*
X72326487Y-27327438D02*
X72421725Y-27422676D01*
X72421725Y-27422676D02*
X72469344Y-27517914D01*
X72469344Y-27517914D02*
X72516963Y-27708390D01*
X72516963Y-27708390D02*
X72516963Y-27851247D01*
X72516963Y-27851247D02*
X72469344Y-28041723D01*
X72469344Y-28041723D02*
X72421725Y-28136961D01*
X72421725Y-28136961D02*
X72326487Y-28232200D01*
X72326487Y-28232200D02*
X72183630Y-28279819D01*
X72183630Y-28279819D02*
X71945535Y-28279819D01*
X73469344Y-28279819D02*
X72897916Y-28279819D01*
X73183630Y-28279819D02*
X73183630Y-27279819D01*
X73183630Y-27279819D02*
X73088392Y-27422676D01*
X73088392Y-27422676D02*
X72993154Y-27517914D01*
X72993154Y-27517914D02*
X72897916Y-27565533D01*
X54454819Y-37416666D02*
X53978628Y-37749999D01*
X54454819Y-37988094D02*
X53454819Y-37988094D01*
X53454819Y-37988094D02*
X53454819Y-37607142D01*
X53454819Y-37607142D02*
X53502438Y-37511904D01*
X53502438Y-37511904D02*
X53550057Y-37464285D01*
X53550057Y-37464285D02*
X53645295Y-37416666D01*
X53645295Y-37416666D02*
X53788152Y-37416666D01*
X53788152Y-37416666D02*
X53883390Y-37464285D01*
X53883390Y-37464285D02*
X53931009Y-37511904D01*
X53931009Y-37511904D02*
X53978628Y-37607142D01*
X53978628Y-37607142D02*
X53978628Y-37988094D01*
X54454819Y-36464285D02*
X54454819Y-37035713D01*
X54454819Y-36749999D02*
X53454819Y-36749999D01*
X53454819Y-36749999D02*
X53597676Y-36845237D01*
X53597676Y-36845237D02*
X53692914Y-36940475D01*
X53692914Y-36940475D02*
X53740533Y-37035713D01*
X69988095Y-32248330D02*
X69988095Y-33057853D01*
X69988095Y-33057853D02*
X70035714Y-33153091D01*
X70035714Y-33153091D02*
X70083333Y-33200711D01*
X70083333Y-33200711D02*
X70178571Y-33248330D01*
X70178571Y-33248330D02*
X70369047Y-33248330D01*
X70369047Y-33248330D02*
X70464285Y-33200711D01*
X70464285Y-33200711D02*
X70511904Y-33153091D01*
X70511904Y-33153091D02*
X70559523Y-33057853D01*
X70559523Y-33057853D02*
X70559523Y-32248330D01*
X70988095Y-32343568D02*
X71035714Y-32295949D01*
X71035714Y-32295949D02*
X71130952Y-32248330D01*
X71130952Y-32248330D02*
X71369047Y-32248330D01*
X71369047Y-32248330D02*
X71464285Y-32295949D01*
X71464285Y-32295949D02*
X71511904Y-32343568D01*
X71511904Y-32343568D02*
X71559523Y-32438806D01*
X71559523Y-32438806D02*
X71559523Y-32534044D01*
X71559523Y-32534044D02*
X71511904Y-32676901D01*
X71511904Y-32676901D02*
X70940476Y-33248330D01*
X70940476Y-33248330D02*
X71559523Y-33248330D01*
X80083333Y-30518330D02*
X79607143Y-30518330D01*
X79607143Y-30518330D02*
X79607143Y-29518330D01*
X80369048Y-29613568D02*
X80416667Y-29565949D01*
X80416667Y-29565949D02*
X80511905Y-29518330D01*
X80511905Y-29518330D02*
X80750000Y-29518330D01*
X80750000Y-29518330D02*
X80845238Y-29565949D01*
X80845238Y-29565949D02*
X80892857Y-29613568D01*
X80892857Y-29613568D02*
X80940476Y-29708806D01*
X80940476Y-29708806D02*
X80940476Y-29804044D01*
X80940476Y-29804044D02*
X80892857Y-29946901D01*
X80892857Y-29946901D02*
X80321429Y-30518330D01*
X80321429Y-30518330D02*
X80940476Y-30518330D01*
X44954819Y-37392857D02*
X44478628Y-37726190D01*
X44954819Y-37964285D02*
X43954819Y-37964285D01*
X43954819Y-37964285D02*
X43954819Y-37583333D01*
X43954819Y-37583333D02*
X44002438Y-37488095D01*
X44002438Y-37488095D02*
X44050057Y-37440476D01*
X44050057Y-37440476D02*
X44145295Y-37392857D01*
X44145295Y-37392857D02*
X44288152Y-37392857D01*
X44288152Y-37392857D02*
X44383390Y-37440476D01*
X44383390Y-37440476D02*
X44431009Y-37488095D01*
X44431009Y-37488095D02*
X44478628Y-37583333D01*
X44478628Y-37583333D02*
X44478628Y-37964285D01*
X44954819Y-36440476D02*
X44954819Y-37011904D01*
X44954819Y-36726190D02*
X43954819Y-36726190D01*
X43954819Y-36726190D02*
X44097676Y-36821428D01*
X44097676Y-36821428D02*
X44192914Y-36916666D01*
X44192914Y-36916666D02*
X44240533Y-37011904D01*
X43954819Y-35821428D02*
X43954819Y-35726190D01*
X43954819Y-35726190D02*
X44002438Y-35630952D01*
X44002438Y-35630952D02*
X44050057Y-35583333D01*
X44050057Y-35583333D02*
X44145295Y-35535714D01*
X44145295Y-35535714D02*
X44335771Y-35488095D01*
X44335771Y-35488095D02*
X44573866Y-35488095D01*
X44573866Y-35488095D02*
X44764342Y-35535714D01*
X44764342Y-35535714D02*
X44859580Y-35583333D01*
X44859580Y-35583333D02*
X44907200Y-35630952D01*
X44907200Y-35630952D02*
X44954819Y-35726190D01*
X44954819Y-35726190D02*
X44954819Y-35821428D01*
X44954819Y-35821428D02*
X44907200Y-35916666D01*
X44907200Y-35916666D02*
X44859580Y-35964285D01*
X44859580Y-35964285D02*
X44764342Y-36011904D01*
X44764342Y-36011904D02*
X44573866Y-36059523D01*
X44573866Y-36059523D02*
X44335771Y-36059523D01*
X44335771Y-36059523D02*
X44145295Y-36011904D01*
X44145295Y-36011904D02*
X44050057Y-35964285D01*
X44050057Y-35964285D02*
X44002438Y-35916666D01*
X44002438Y-35916666D02*
X43954819Y-35821428D01*
X80016963Y-15029819D02*
X79540773Y-15029819D01*
X79540773Y-15029819D02*
X79540773Y-14029819D01*
X80874106Y-15029819D02*
X80302678Y-15029819D01*
X80588392Y-15029819D02*
X80588392Y-14029819D01*
X80588392Y-14029819D02*
X80493154Y-14172676D01*
X80493154Y-14172676D02*
X80397916Y-14267914D01*
X80397916Y-14267914D02*
X80302678Y-14315533D01*
X51872493Y-24204819D02*
X51872493Y-24919104D01*
X51872493Y-24919104D02*
X51824874Y-25061961D01*
X51824874Y-25061961D02*
X51729636Y-25157200D01*
X51729636Y-25157200D02*
X51586779Y-25204819D01*
X51586779Y-25204819D02*
X51491541Y-25204819D01*
X52348684Y-25204819D02*
X52348684Y-24204819D01*
X52348684Y-24204819D02*
X52729636Y-24204819D01*
X52729636Y-24204819D02*
X52824874Y-24252438D01*
X52824874Y-24252438D02*
X52872493Y-24300057D01*
X52872493Y-24300057D02*
X52920112Y-24395295D01*
X52920112Y-24395295D02*
X52920112Y-24538152D01*
X52920112Y-24538152D02*
X52872493Y-24633390D01*
X52872493Y-24633390D02*
X52824874Y-24681009D01*
X52824874Y-24681009D02*
X52729636Y-24728628D01*
X52729636Y-24728628D02*
X52348684Y-24728628D01*
X53301065Y-24300057D02*
X53348684Y-24252438D01*
X53348684Y-24252438D02*
X53443922Y-24204819D01*
X53443922Y-24204819D02*
X53682017Y-24204819D01*
X53682017Y-24204819D02*
X53777255Y-24252438D01*
X53777255Y-24252438D02*
X53824874Y-24300057D01*
X53824874Y-24300057D02*
X53872493Y-24395295D01*
X53872493Y-24395295D02*
X53872493Y-24490533D01*
X53872493Y-24490533D02*
X53824874Y-24633390D01*
X53824874Y-24633390D02*
X53253446Y-25204819D01*
X53253446Y-25204819D02*
X53872493Y-25204819D01*
X25884819Y-51642857D02*
X25408628Y-51976190D01*
X25884819Y-52214285D02*
X24884819Y-52214285D01*
X24884819Y-52214285D02*
X24884819Y-51833333D01*
X24884819Y-51833333D02*
X24932438Y-51738095D01*
X24932438Y-51738095D02*
X24980057Y-51690476D01*
X24980057Y-51690476D02*
X25075295Y-51642857D01*
X25075295Y-51642857D02*
X25218152Y-51642857D01*
X25218152Y-51642857D02*
X25313390Y-51690476D01*
X25313390Y-51690476D02*
X25361009Y-51738095D01*
X25361009Y-51738095D02*
X25408628Y-51833333D01*
X25408628Y-51833333D02*
X25408628Y-52214285D01*
X24980057Y-51261904D02*
X24932438Y-51214285D01*
X24932438Y-51214285D02*
X24884819Y-51119047D01*
X24884819Y-51119047D02*
X24884819Y-50880952D01*
X24884819Y-50880952D02*
X24932438Y-50785714D01*
X24932438Y-50785714D02*
X24980057Y-50738095D01*
X24980057Y-50738095D02*
X25075295Y-50690476D01*
X25075295Y-50690476D02*
X25170533Y-50690476D01*
X25170533Y-50690476D02*
X25313390Y-50738095D01*
X25313390Y-50738095D02*
X25884819Y-51309523D01*
X25884819Y-51309523D02*
X25884819Y-50690476D01*
X24980057Y-50309523D02*
X24932438Y-50261904D01*
X24932438Y-50261904D02*
X24884819Y-50166666D01*
X24884819Y-50166666D02*
X24884819Y-49928571D01*
X24884819Y-49928571D02*
X24932438Y-49833333D01*
X24932438Y-49833333D02*
X24980057Y-49785714D01*
X24980057Y-49785714D02*
X25075295Y-49738095D01*
X25075295Y-49738095D02*
X25170533Y-49738095D01*
X25170533Y-49738095D02*
X25313390Y-49785714D01*
X25313390Y-49785714D02*
X25884819Y-50357142D01*
X25884819Y-50357142D02*
X25884819Y-49738095D01*
X91500296Y-14229819D02*
X91500296Y-14944104D01*
X91500296Y-14944104D02*
X91452677Y-15086961D01*
X91452677Y-15086961D02*
X91357439Y-15182200D01*
X91357439Y-15182200D02*
X91214582Y-15229819D01*
X91214582Y-15229819D02*
X91119344Y-15229819D01*
X91976487Y-15229819D02*
X91976487Y-14229819D01*
X91976487Y-14229819D02*
X92357439Y-14229819D01*
X92357439Y-14229819D02*
X92452677Y-14277438D01*
X92452677Y-14277438D02*
X92500296Y-14325057D01*
X92500296Y-14325057D02*
X92547915Y-14420295D01*
X92547915Y-14420295D02*
X92547915Y-14563152D01*
X92547915Y-14563152D02*
X92500296Y-14658390D01*
X92500296Y-14658390D02*
X92452677Y-14706009D01*
X92452677Y-14706009D02*
X92357439Y-14753628D01*
X92357439Y-14753628D02*
X91976487Y-14753628D01*
X93405058Y-14563152D02*
X93405058Y-15229819D01*
X93166963Y-14182200D02*
X92928868Y-14896485D01*
X92928868Y-14896485D02*
X93547915Y-14896485D01*
X13166666Y-35204819D02*
X13166666Y-35919104D01*
X13166666Y-35919104D02*
X13119047Y-36061961D01*
X13119047Y-36061961D02*
X13023809Y-36157200D01*
X13023809Y-36157200D02*
X12880952Y-36204819D01*
X12880952Y-36204819D02*
X12785714Y-36204819D01*
X13595238Y-35300057D02*
X13642857Y-35252438D01*
X13642857Y-35252438D02*
X13738095Y-35204819D01*
X13738095Y-35204819D02*
X13976190Y-35204819D01*
X13976190Y-35204819D02*
X14071428Y-35252438D01*
X14071428Y-35252438D02*
X14119047Y-35300057D01*
X14119047Y-35300057D02*
X14166666Y-35395295D01*
X14166666Y-35395295D02*
X14166666Y-35490533D01*
X14166666Y-35490533D02*
X14119047Y-35633390D01*
X14119047Y-35633390D02*
X13547619Y-36204819D01*
X13547619Y-36204819D02*
X14166666Y-36204819D01*
X42954819Y-37392857D02*
X42478628Y-37726190D01*
X42954819Y-37964285D02*
X41954819Y-37964285D01*
X41954819Y-37964285D02*
X41954819Y-37583333D01*
X41954819Y-37583333D02*
X42002438Y-37488095D01*
X42002438Y-37488095D02*
X42050057Y-37440476D01*
X42050057Y-37440476D02*
X42145295Y-37392857D01*
X42145295Y-37392857D02*
X42288152Y-37392857D01*
X42288152Y-37392857D02*
X42383390Y-37440476D01*
X42383390Y-37440476D02*
X42431009Y-37488095D01*
X42431009Y-37488095D02*
X42478628Y-37583333D01*
X42478628Y-37583333D02*
X42478628Y-37964285D01*
X42954819Y-36440476D02*
X42954819Y-37011904D01*
X42954819Y-36726190D02*
X41954819Y-36726190D01*
X41954819Y-36726190D02*
X42097676Y-36821428D01*
X42097676Y-36821428D02*
X42192914Y-36916666D01*
X42192914Y-36916666D02*
X42240533Y-37011904D01*
X42954819Y-35488095D02*
X42954819Y-36059523D01*
X42954819Y-35773809D02*
X41954819Y-35773809D01*
X41954819Y-35773809D02*
X42097676Y-35869047D01*
X42097676Y-35869047D02*
X42192914Y-35964285D01*
X42192914Y-35964285D02*
X42240533Y-36059523D01*
X72011905Y-43768330D02*
X72011905Y-42768330D01*
X72011905Y-42768330D02*
X72250000Y-42768330D01*
X72250000Y-42768330D02*
X72392857Y-42815949D01*
X72392857Y-42815949D02*
X72488095Y-42911187D01*
X72488095Y-42911187D02*
X72535714Y-43006425D01*
X72535714Y-43006425D02*
X72583333Y-43196901D01*
X72583333Y-43196901D02*
X72583333Y-43339758D01*
X72583333Y-43339758D02*
X72535714Y-43530234D01*
X72535714Y-43530234D02*
X72488095Y-43625472D01*
X72488095Y-43625472D02*
X72392857Y-43720711D01*
X72392857Y-43720711D02*
X72250000Y-43768330D01*
X72250000Y-43768330D02*
X72011905Y-43768330D01*
X72964286Y-42863568D02*
X73011905Y-42815949D01*
X73011905Y-42815949D02*
X73107143Y-42768330D01*
X73107143Y-42768330D02*
X73345238Y-42768330D01*
X73345238Y-42768330D02*
X73440476Y-42815949D01*
X73440476Y-42815949D02*
X73488095Y-42863568D01*
X73488095Y-42863568D02*
X73535714Y-42958806D01*
X73535714Y-42958806D02*
X73535714Y-43054044D01*
X73535714Y-43054044D02*
X73488095Y-43196901D01*
X73488095Y-43196901D02*
X72916667Y-43768330D01*
X72916667Y-43768330D02*
X73535714Y-43768330D01*
X120233333Y-56604819D02*
X119900000Y-56128628D01*
X119661905Y-56604819D02*
X119661905Y-55604819D01*
X119661905Y-55604819D02*
X120042857Y-55604819D01*
X120042857Y-55604819D02*
X120138095Y-55652438D01*
X120138095Y-55652438D02*
X120185714Y-55700057D01*
X120185714Y-55700057D02*
X120233333Y-55795295D01*
X120233333Y-55795295D02*
X120233333Y-55938152D01*
X120233333Y-55938152D02*
X120185714Y-56033390D01*
X120185714Y-56033390D02*
X120138095Y-56081009D01*
X120138095Y-56081009D02*
X120042857Y-56128628D01*
X120042857Y-56128628D02*
X119661905Y-56128628D01*
X120804762Y-56033390D02*
X120709524Y-55985771D01*
X120709524Y-55985771D02*
X120661905Y-55938152D01*
X120661905Y-55938152D02*
X120614286Y-55842914D01*
X120614286Y-55842914D02*
X120614286Y-55795295D01*
X120614286Y-55795295D02*
X120661905Y-55700057D01*
X120661905Y-55700057D02*
X120709524Y-55652438D01*
X120709524Y-55652438D02*
X120804762Y-55604819D01*
X120804762Y-55604819D02*
X120995238Y-55604819D01*
X120995238Y-55604819D02*
X121090476Y-55652438D01*
X121090476Y-55652438D02*
X121138095Y-55700057D01*
X121138095Y-55700057D02*
X121185714Y-55795295D01*
X121185714Y-55795295D02*
X121185714Y-55842914D01*
X121185714Y-55842914D02*
X121138095Y-55938152D01*
X121138095Y-55938152D02*
X121090476Y-55985771D01*
X121090476Y-55985771D02*
X120995238Y-56033390D01*
X120995238Y-56033390D02*
X120804762Y-56033390D01*
X120804762Y-56033390D02*
X120709524Y-56081009D01*
X120709524Y-56081009D02*
X120661905Y-56128628D01*
X120661905Y-56128628D02*
X120614286Y-56223866D01*
X120614286Y-56223866D02*
X120614286Y-56414342D01*
X120614286Y-56414342D02*
X120661905Y-56509580D01*
X120661905Y-56509580D02*
X120709524Y-56557200D01*
X120709524Y-56557200D02*
X120804762Y-56604819D01*
X120804762Y-56604819D02*
X120995238Y-56604819D01*
X120995238Y-56604819D02*
X121090476Y-56557200D01*
X121090476Y-56557200D02*
X121138095Y-56509580D01*
X121138095Y-56509580D02*
X121185714Y-56414342D01*
X121185714Y-56414342D02*
X121185714Y-56223866D01*
X121185714Y-56223866D02*
X121138095Y-56128628D01*
X121138095Y-56128628D02*
X121090476Y-56081009D01*
X121090476Y-56081009D02*
X120995238Y-56033390D01*
X22357142Y-48954819D02*
X22023809Y-48478628D01*
X21785714Y-48954819D02*
X21785714Y-47954819D01*
X21785714Y-47954819D02*
X22166666Y-47954819D01*
X22166666Y-47954819D02*
X22261904Y-48002438D01*
X22261904Y-48002438D02*
X22309523Y-48050057D01*
X22309523Y-48050057D02*
X22357142Y-48145295D01*
X22357142Y-48145295D02*
X22357142Y-48288152D01*
X22357142Y-48288152D02*
X22309523Y-48383390D01*
X22309523Y-48383390D02*
X22261904Y-48431009D01*
X22261904Y-48431009D02*
X22166666Y-48478628D01*
X22166666Y-48478628D02*
X21785714Y-48478628D01*
X23309523Y-48954819D02*
X22738095Y-48954819D01*
X23023809Y-48954819D02*
X23023809Y-47954819D01*
X23023809Y-47954819D02*
X22928571Y-48097676D01*
X22928571Y-48097676D02*
X22833333Y-48192914D01*
X22833333Y-48192914D02*
X22738095Y-48240533D01*
X23642857Y-47954819D02*
X24309523Y-47954819D01*
X24309523Y-47954819D02*
X23880952Y-48954819D01*
X33357142Y-54454819D02*
X33023809Y-53978628D01*
X32785714Y-54454819D02*
X32785714Y-53454819D01*
X32785714Y-53454819D02*
X33166666Y-53454819D01*
X33166666Y-53454819D02*
X33261904Y-53502438D01*
X33261904Y-53502438D02*
X33309523Y-53550057D01*
X33309523Y-53550057D02*
X33357142Y-53645295D01*
X33357142Y-53645295D02*
X33357142Y-53788152D01*
X33357142Y-53788152D02*
X33309523Y-53883390D01*
X33309523Y-53883390D02*
X33261904Y-53931009D01*
X33261904Y-53931009D02*
X33166666Y-53978628D01*
X33166666Y-53978628D02*
X32785714Y-53978628D01*
X34309523Y-54454819D02*
X33738095Y-54454819D01*
X34023809Y-54454819D02*
X34023809Y-53454819D01*
X34023809Y-53454819D02*
X33928571Y-53597676D01*
X33928571Y-53597676D02*
X33833333Y-53692914D01*
X33833333Y-53692914D02*
X33738095Y-53740533D01*
X34785714Y-54454819D02*
X34976190Y-54454819D01*
X34976190Y-54454819D02*
X35071428Y-54407200D01*
X35071428Y-54407200D02*
X35119047Y-54359580D01*
X35119047Y-54359580D02*
X35214285Y-54216723D01*
X35214285Y-54216723D02*
X35261904Y-54026247D01*
X35261904Y-54026247D02*
X35261904Y-53645295D01*
X35261904Y-53645295D02*
X35214285Y-53550057D01*
X35214285Y-53550057D02*
X35166666Y-53502438D01*
X35166666Y-53502438D02*
X35071428Y-53454819D01*
X35071428Y-53454819D02*
X34880952Y-53454819D01*
X34880952Y-53454819D02*
X34785714Y-53502438D01*
X34785714Y-53502438D02*
X34738095Y-53550057D01*
X34738095Y-53550057D02*
X34690476Y-53645295D01*
X34690476Y-53645295D02*
X34690476Y-53883390D01*
X34690476Y-53883390D02*
X34738095Y-53978628D01*
X34738095Y-53978628D02*
X34785714Y-54026247D01*
X34785714Y-54026247D02*
X34880952Y-54073866D01*
X34880952Y-54073866D02*
X35071428Y-54073866D01*
X35071428Y-54073866D02*
X35166666Y-54026247D01*
X35166666Y-54026247D02*
X35214285Y-53978628D01*
X35214285Y-53978628D02*
X35261904Y-53883390D01*
X31904761Y-57050057D02*
X31809523Y-57002438D01*
X31809523Y-57002438D02*
X31714285Y-56907200D01*
X31714285Y-56907200D02*
X31571428Y-56764342D01*
X31571428Y-56764342D02*
X31476190Y-56716723D01*
X31476190Y-56716723D02*
X31380952Y-56716723D01*
X31428571Y-56954819D02*
X31333333Y-56907200D01*
X31333333Y-56907200D02*
X31238095Y-56811961D01*
X31238095Y-56811961D02*
X31190476Y-56621485D01*
X31190476Y-56621485D02*
X31190476Y-56288152D01*
X31190476Y-56288152D02*
X31238095Y-56097676D01*
X31238095Y-56097676D02*
X31333333Y-56002438D01*
X31333333Y-56002438D02*
X31428571Y-55954819D01*
X31428571Y-55954819D02*
X31619047Y-55954819D01*
X31619047Y-55954819D02*
X31714285Y-56002438D01*
X31714285Y-56002438D02*
X31809523Y-56097676D01*
X31809523Y-56097676D02*
X31857142Y-56288152D01*
X31857142Y-56288152D02*
X31857142Y-56621485D01*
X31857142Y-56621485D02*
X31809523Y-56811961D01*
X31809523Y-56811961D02*
X31714285Y-56907200D01*
X31714285Y-56907200D02*
X31619047Y-56954819D01*
X31619047Y-56954819D02*
X31428571Y-56954819D01*
X32809523Y-56954819D02*
X32238095Y-56954819D01*
X32523809Y-56954819D02*
X32523809Y-55954819D01*
X32523809Y-55954819D02*
X32428571Y-56097676D01*
X32428571Y-56097676D02*
X32333333Y-56192914D01*
X32333333Y-56192914D02*
X32238095Y-56240533D01*
X32357142Y-50454819D02*
X32023809Y-49978628D01*
X31785714Y-50454819D02*
X31785714Y-49454819D01*
X31785714Y-49454819D02*
X32166666Y-49454819D01*
X32166666Y-49454819D02*
X32261904Y-49502438D01*
X32261904Y-49502438D02*
X32309523Y-49550057D01*
X32309523Y-49550057D02*
X32357142Y-49645295D01*
X32357142Y-49645295D02*
X32357142Y-49788152D01*
X32357142Y-49788152D02*
X32309523Y-49883390D01*
X32309523Y-49883390D02*
X32261904Y-49931009D01*
X32261904Y-49931009D02*
X32166666Y-49978628D01*
X32166666Y-49978628D02*
X31785714Y-49978628D01*
X32738095Y-49550057D02*
X32785714Y-49502438D01*
X32785714Y-49502438D02*
X32880952Y-49454819D01*
X32880952Y-49454819D02*
X33119047Y-49454819D01*
X33119047Y-49454819D02*
X33214285Y-49502438D01*
X33214285Y-49502438D02*
X33261904Y-49550057D01*
X33261904Y-49550057D02*
X33309523Y-49645295D01*
X33309523Y-49645295D02*
X33309523Y-49740533D01*
X33309523Y-49740533D02*
X33261904Y-49883390D01*
X33261904Y-49883390D02*
X32690476Y-50454819D01*
X32690476Y-50454819D02*
X33309523Y-50454819D01*
X33928571Y-49454819D02*
X34023809Y-49454819D01*
X34023809Y-49454819D02*
X34119047Y-49502438D01*
X34119047Y-49502438D02*
X34166666Y-49550057D01*
X34166666Y-49550057D02*
X34214285Y-49645295D01*
X34214285Y-49645295D02*
X34261904Y-49835771D01*
X34261904Y-49835771D02*
X34261904Y-50073866D01*
X34261904Y-50073866D02*
X34214285Y-50264342D01*
X34214285Y-50264342D02*
X34166666Y-50359580D01*
X34166666Y-50359580D02*
X34119047Y-50407200D01*
X34119047Y-50407200D02*
X34023809Y-50454819D01*
X34023809Y-50454819D02*
X33928571Y-50454819D01*
X33928571Y-50454819D02*
X33833333Y-50407200D01*
X33833333Y-50407200D02*
X33785714Y-50359580D01*
X33785714Y-50359580D02*
X33738095Y-50264342D01*
X33738095Y-50264342D02*
X33690476Y-50073866D01*
X33690476Y-50073866D02*
X33690476Y-49835771D01*
X33690476Y-49835771D02*
X33738095Y-49645295D01*
X33738095Y-49645295D02*
X33785714Y-49550057D01*
X33785714Y-49550057D02*
X33833333Y-49502438D01*
X33833333Y-49502438D02*
X33928571Y-49454819D01*
X39954819Y-24693922D02*
X39478628Y-25027255D01*
X39954819Y-25265350D02*
X38954819Y-25265350D01*
X38954819Y-25265350D02*
X38954819Y-24884398D01*
X38954819Y-24884398D02*
X39002438Y-24789160D01*
X39002438Y-24789160D02*
X39050057Y-24741541D01*
X39050057Y-24741541D02*
X39145295Y-24693922D01*
X39145295Y-24693922D02*
X39288152Y-24693922D01*
X39288152Y-24693922D02*
X39383390Y-24741541D01*
X39383390Y-24741541D02*
X39431009Y-24789160D01*
X39431009Y-24789160D02*
X39478628Y-24884398D01*
X39478628Y-24884398D02*
X39478628Y-25265350D01*
X39954819Y-23741541D02*
X39954819Y-24312969D01*
X39954819Y-24027255D02*
X38954819Y-24027255D01*
X38954819Y-24027255D02*
X39097676Y-24122493D01*
X39097676Y-24122493D02*
X39192914Y-24217731D01*
X39192914Y-24217731D02*
X39240533Y-24312969D01*
X38954819Y-22836779D02*
X38954819Y-23312969D01*
X38954819Y-23312969D02*
X39431009Y-23360588D01*
X39431009Y-23360588D02*
X39383390Y-23312969D01*
X39383390Y-23312969D02*
X39335771Y-23217731D01*
X39335771Y-23217731D02*
X39335771Y-22979636D01*
X39335771Y-22979636D02*
X39383390Y-22884398D01*
X39383390Y-22884398D02*
X39431009Y-22836779D01*
X39431009Y-22836779D02*
X39526247Y-22789160D01*
X39526247Y-22789160D02*
X39764342Y-22789160D01*
X39764342Y-22789160D02*
X39859580Y-22836779D01*
X39859580Y-22836779D02*
X39907200Y-22884398D01*
X39907200Y-22884398D02*
X39954819Y-22979636D01*
X39954819Y-22979636D02*
X39954819Y-23217731D01*
X39954819Y-23217731D02*
X39907200Y-23312969D01*
X39907200Y-23312969D02*
X39859580Y-23360588D01*
X76859580Y-44730177D02*
X76907200Y-44777796D01*
X76907200Y-44777796D02*
X76954819Y-44920653D01*
X76954819Y-44920653D02*
X76954819Y-45015891D01*
X76954819Y-45015891D02*
X76907200Y-45158748D01*
X76907200Y-45158748D02*
X76811961Y-45253986D01*
X76811961Y-45253986D02*
X76716723Y-45301605D01*
X76716723Y-45301605D02*
X76526247Y-45349224D01*
X76526247Y-45349224D02*
X76383390Y-45349224D01*
X76383390Y-45349224D02*
X76192914Y-45301605D01*
X76192914Y-45301605D02*
X76097676Y-45253986D01*
X76097676Y-45253986D02*
X76002438Y-45158748D01*
X76002438Y-45158748D02*
X75954819Y-45015891D01*
X75954819Y-45015891D02*
X75954819Y-44920653D01*
X75954819Y-44920653D02*
X76002438Y-44777796D01*
X76002438Y-44777796D02*
X76050057Y-44730177D01*
X76383390Y-44158748D02*
X76335771Y-44253986D01*
X76335771Y-44253986D02*
X76288152Y-44301605D01*
X76288152Y-44301605D02*
X76192914Y-44349224D01*
X76192914Y-44349224D02*
X76145295Y-44349224D01*
X76145295Y-44349224D02*
X76050057Y-44301605D01*
X76050057Y-44301605D02*
X76002438Y-44253986D01*
X76002438Y-44253986D02*
X75954819Y-44158748D01*
X75954819Y-44158748D02*
X75954819Y-43968272D01*
X75954819Y-43968272D02*
X76002438Y-43873034D01*
X76002438Y-43873034D02*
X76050057Y-43825415D01*
X76050057Y-43825415D02*
X76145295Y-43777796D01*
X76145295Y-43777796D02*
X76192914Y-43777796D01*
X76192914Y-43777796D02*
X76288152Y-43825415D01*
X76288152Y-43825415D02*
X76335771Y-43873034D01*
X76335771Y-43873034D02*
X76383390Y-43968272D01*
X76383390Y-43968272D02*
X76383390Y-44158748D01*
X76383390Y-44158748D02*
X76431009Y-44253986D01*
X76431009Y-44253986D02*
X76478628Y-44301605D01*
X76478628Y-44301605D02*
X76573866Y-44349224D01*
X76573866Y-44349224D02*
X76764342Y-44349224D01*
X76764342Y-44349224D02*
X76859580Y-44301605D01*
X76859580Y-44301605D02*
X76907200Y-44253986D01*
X76907200Y-44253986D02*
X76954819Y-44158748D01*
X76954819Y-44158748D02*
X76954819Y-43968272D01*
X76954819Y-43968272D02*
X76907200Y-43873034D01*
X76907200Y-43873034D02*
X76859580Y-43825415D01*
X76859580Y-43825415D02*
X76764342Y-43777796D01*
X76764342Y-43777796D02*
X76573866Y-43777796D01*
X76573866Y-43777796D02*
X76478628Y-43825415D01*
X76478628Y-43825415D02*
X76431009Y-43873034D01*
X76431009Y-43873034D02*
X76383390Y-43968272D01*
X51333333Y-29859580D02*
X51285714Y-29907200D01*
X51285714Y-29907200D02*
X51142857Y-29954819D01*
X51142857Y-29954819D02*
X51047619Y-29954819D01*
X51047619Y-29954819D02*
X50904762Y-29907200D01*
X50904762Y-29907200D02*
X50809524Y-29811961D01*
X50809524Y-29811961D02*
X50761905Y-29716723D01*
X50761905Y-29716723D02*
X50714286Y-29526247D01*
X50714286Y-29526247D02*
X50714286Y-29383390D01*
X50714286Y-29383390D02*
X50761905Y-29192914D01*
X50761905Y-29192914D02*
X50809524Y-29097676D01*
X50809524Y-29097676D02*
X50904762Y-29002438D01*
X50904762Y-29002438D02*
X51047619Y-28954819D01*
X51047619Y-28954819D02*
X51142857Y-28954819D01*
X51142857Y-28954819D02*
X51285714Y-29002438D01*
X51285714Y-29002438D02*
X51333333Y-29050057D01*
X51714286Y-29050057D02*
X51761905Y-29002438D01*
X51761905Y-29002438D02*
X51857143Y-28954819D01*
X51857143Y-28954819D02*
X52095238Y-28954819D01*
X52095238Y-28954819D02*
X52190476Y-29002438D01*
X52190476Y-29002438D02*
X52238095Y-29050057D01*
X52238095Y-29050057D02*
X52285714Y-29145295D01*
X52285714Y-29145295D02*
X52285714Y-29240533D01*
X52285714Y-29240533D02*
X52238095Y-29383390D01*
X52238095Y-29383390D02*
X51666667Y-29954819D01*
X51666667Y-29954819D02*
X52285714Y-29954819D01*
X136857142Y-26859580D02*
X136809523Y-26907200D01*
X136809523Y-26907200D02*
X136666666Y-26954819D01*
X136666666Y-26954819D02*
X136571428Y-26954819D01*
X136571428Y-26954819D02*
X136428571Y-26907200D01*
X136428571Y-26907200D02*
X136333333Y-26811961D01*
X136333333Y-26811961D02*
X136285714Y-26716723D01*
X136285714Y-26716723D02*
X136238095Y-26526247D01*
X136238095Y-26526247D02*
X136238095Y-26383390D01*
X136238095Y-26383390D02*
X136285714Y-26192914D01*
X136285714Y-26192914D02*
X136333333Y-26097676D01*
X136333333Y-26097676D02*
X136428571Y-26002438D01*
X136428571Y-26002438D02*
X136571428Y-25954819D01*
X136571428Y-25954819D02*
X136666666Y-25954819D01*
X136666666Y-25954819D02*
X136809523Y-26002438D01*
X136809523Y-26002438D02*
X136857142Y-26050057D01*
X137809523Y-26954819D02*
X137238095Y-26954819D01*
X137523809Y-26954819D02*
X137523809Y-25954819D01*
X137523809Y-25954819D02*
X137428571Y-26097676D01*
X137428571Y-26097676D02*
X137333333Y-26192914D01*
X137333333Y-26192914D02*
X137238095Y-26240533D01*
X138666666Y-26288152D02*
X138666666Y-26954819D01*
X138428571Y-25907200D02*
X138190476Y-26621485D01*
X138190476Y-26621485D02*
X138809523Y-26621485D01*
X98893210Y-23241666D02*
X98940830Y-23289285D01*
X98940830Y-23289285D02*
X98988449Y-23432142D01*
X98988449Y-23432142D02*
X98988449Y-23527380D01*
X98988449Y-23527380D02*
X98940830Y-23670237D01*
X98940830Y-23670237D02*
X98845591Y-23765475D01*
X98845591Y-23765475D02*
X98750353Y-23813094D01*
X98750353Y-23813094D02*
X98559877Y-23860713D01*
X98559877Y-23860713D02*
X98417020Y-23860713D01*
X98417020Y-23860713D02*
X98226544Y-23813094D01*
X98226544Y-23813094D02*
X98131306Y-23765475D01*
X98131306Y-23765475D02*
X98036068Y-23670237D01*
X98036068Y-23670237D02*
X97988449Y-23527380D01*
X97988449Y-23527380D02*
X97988449Y-23432142D01*
X97988449Y-23432142D02*
X98036068Y-23289285D01*
X98036068Y-23289285D02*
X98083687Y-23241666D01*
X98988449Y-22765475D02*
X98988449Y-22574999D01*
X98988449Y-22574999D02*
X98940830Y-22479761D01*
X98940830Y-22479761D02*
X98893210Y-22432142D01*
X98893210Y-22432142D02*
X98750353Y-22336904D01*
X98750353Y-22336904D02*
X98559877Y-22289285D01*
X98559877Y-22289285D02*
X98178925Y-22289285D01*
X98178925Y-22289285D02*
X98083687Y-22336904D01*
X98083687Y-22336904D02*
X98036068Y-22384523D01*
X98036068Y-22384523D02*
X97988449Y-22479761D01*
X97988449Y-22479761D02*
X97988449Y-22670237D01*
X97988449Y-22670237D02*
X98036068Y-22765475D01*
X98036068Y-22765475D02*
X98083687Y-22813094D01*
X98083687Y-22813094D02*
X98178925Y-22860713D01*
X98178925Y-22860713D02*
X98417020Y-22860713D01*
X98417020Y-22860713D02*
X98512258Y-22813094D01*
X98512258Y-22813094D02*
X98559877Y-22765475D01*
X98559877Y-22765475D02*
X98607496Y-22670237D01*
X98607496Y-22670237D02*
X98607496Y-22479761D01*
X98607496Y-22479761D02*
X98559877Y-22384523D01*
X98559877Y-22384523D02*
X98512258Y-22336904D01*
X98512258Y-22336904D02*
X98417020Y-22289285D01*
X125107142Y-28359580D02*
X125059523Y-28407200D01*
X125059523Y-28407200D02*
X124916666Y-28454819D01*
X124916666Y-28454819D02*
X124821428Y-28454819D01*
X124821428Y-28454819D02*
X124678571Y-28407200D01*
X124678571Y-28407200D02*
X124583333Y-28311961D01*
X124583333Y-28311961D02*
X124535714Y-28216723D01*
X124535714Y-28216723D02*
X124488095Y-28026247D01*
X124488095Y-28026247D02*
X124488095Y-27883390D01*
X124488095Y-27883390D02*
X124535714Y-27692914D01*
X124535714Y-27692914D02*
X124583333Y-27597676D01*
X124583333Y-27597676D02*
X124678571Y-27502438D01*
X124678571Y-27502438D02*
X124821428Y-27454819D01*
X124821428Y-27454819D02*
X124916666Y-27454819D01*
X124916666Y-27454819D02*
X125059523Y-27502438D01*
X125059523Y-27502438D02*
X125107142Y-27550057D01*
X126059523Y-28454819D02*
X125488095Y-28454819D01*
X125773809Y-28454819D02*
X125773809Y-27454819D01*
X125773809Y-27454819D02*
X125678571Y-27597676D01*
X125678571Y-27597676D02*
X125583333Y-27692914D01*
X125583333Y-27692914D02*
X125488095Y-27740533D01*
X127011904Y-28454819D02*
X126440476Y-28454819D01*
X126726190Y-28454819D02*
X126726190Y-27454819D01*
X126726190Y-27454819D02*
X126630952Y-27597676D01*
X126630952Y-27597676D02*
X126535714Y-27692914D01*
X126535714Y-27692914D02*
X126440476Y-27740533D01*
X78704819Y-39980177D02*
X78228628Y-40313510D01*
X78704819Y-40551605D02*
X77704819Y-40551605D01*
X77704819Y-40551605D02*
X77704819Y-40170653D01*
X77704819Y-40170653D02*
X77752438Y-40075415D01*
X77752438Y-40075415D02*
X77800057Y-40027796D01*
X77800057Y-40027796D02*
X77895295Y-39980177D01*
X77895295Y-39980177D02*
X78038152Y-39980177D01*
X78038152Y-39980177D02*
X78133390Y-40027796D01*
X78133390Y-40027796D02*
X78181009Y-40075415D01*
X78181009Y-40075415D02*
X78228628Y-40170653D01*
X78228628Y-40170653D02*
X78228628Y-40551605D01*
X77704819Y-39075415D02*
X77704819Y-39551605D01*
X77704819Y-39551605D02*
X78181009Y-39599224D01*
X78181009Y-39599224D02*
X78133390Y-39551605D01*
X78133390Y-39551605D02*
X78085771Y-39456367D01*
X78085771Y-39456367D02*
X78085771Y-39218272D01*
X78085771Y-39218272D02*
X78133390Y-39123034D01*
X78133390Y-39123034D02*
X78181009Y-39075415D01*
X78181009Y-39075415D02*
X78276247Y-39027796D01*
X78276247Y-39027796D02*
X78514342Y-39027796D01*
X78514342Y-39027796D02*
X78609580Y-39075415D01*
X78609580Y-39075415D02*
X78657200Y-39123034D01*
X78657200Y-39123034D02*
X78704819Y-39218272D01*
X78704819Y-39218272D02*
X78704819Y-39456367D01*
X78704819Y-39456367D02*
X78657200Y-39551605D01*
X78657200Y-39551605D02*
X78609580Y-39599224D01*
X51872493Y-21704819D02*
X51872493Y-22419104D01*
X51872493Y-22419104D02*
X51824874Y-22561961D01*
X51824874Y-22561961D02*
X51729636Y-22657200D01*
X51729636Y-22657200D02*
X51586779Y-22704819D01*
X51586779Y-22704819D02*
X51491541Y-22704819D01*
X52348684Y-22704819D02*
X52348684Y-21704819D01*
X52348684Y-21704819D02*
X52729636Y-21704819D01*
X52729636Y-21704819D02*
X52824874Y-21752438D01*
X52824874Y-21752438D02*
X52872493Y-21800057D01*
X52872493Y-21800057D02*
X52920112Y-21895295D01*
X52920112Y-21895295D02*
X52920112Y-22038152D01*
X52920112Y-22038152D02*
X52872493Y-22133390D01*
X52872493Y-22133390D02*
X52824874Y-22181009D01*
X52824874Y-22181009D02*
X52729636Y-22228628D01*
X52729636Y-22228628D02*
X52348684Y-22228628D01*
X53872493Y-22704819D02*
X53301065Y-22704819D01*
X53586779Y-22704819D02*
X53586779Y-21704819D01*
X53586779Y-21704819D02*
X53491541Y-21847676D01*
X53491541Y-21847676D02*
X53396303Y-21942914D01*
X53396303Y-21942914D02*
X53301065Y-21990533D01*
X78704819Y-31480177D02*
X78228628Y-31813510D01*
X78704819Y-32051605D02*
X77704819Y-32051605D01*
X77704819Y-32051605D02*
X77704819Y-31670653D01*
X77704819Y-31670653D02*
X77752438Y-31575415D01*
X77752438Y-31575415D02*
X77800057Y-31527796D01*
X77800057Y-31527796D02*
X77895295Y-31480177D01*
X77895295Y-31480177D02*
X78038152Y-31480177D01*
X78038152Y-31480177D02*
X78133390Y-31527796D01*
X78133390Y-31527796D02*
X78181009Y-31575415D01*
X78181009Y-31575415D02*
X78228628Y-31670653D01*
X78228628Y-31670653D02*
X78228628Y-32051605D01*
X77704819Y-31146843D02*
X77704819Y-30480177D01*
X77704819Y-30480177D02*
X78704819Y-30908748D01*
X98959580Y-39206368D02*
X99007200Y-39253987D01*
X99007200Y-39253987D02*
X99054819Y-39396844D01*
X99054819Y-39396844D02*
X99054819Y-39492082D01*
X99054819Y-39492082D02*
X99007200Y-39634939D01*
X99007200Y-39634939D02*
X98911961Y-39730177D01*
X98911961Y-39730177D02*
X98816723Y-39777796D01*
X98816723Y-39777796D02*
X98626247Y-39825415D01*
X98626247Y-39825415D02*
X98483390Y-39825415D01*
X98483390Y-39825415D02*
X98292914Y-39777796D01*
X98292914Y-39777796D02*
X98197676Y-39730177D01*
X98197676Y-39730177D02*
X98102438Y-39634939D01*
X98102438Y-39634939D02*
X98054819Y-39492082D01*
X98054819Y-39492082D02*
X98054819Y-39396844D01*
X98054819Y-39396844D02*
X98102438Y-39253987D01*
X98102438Y-39253987D02*
X98150057Y-39206368D01*
X99054819Y-38253987D02*
X99054819Y-38825415D01*
X99054819Y-38539701D02*
X98054819Y-38539701D01*
X98054819Y-38539701D02*
X98197676Y-38634939D01*
X98197676Y-38634939D02*
X98292914Y-38730177D01*
X98292914Y-38730177D02*
X98340533Y-38825415D01*
X98054819Y-37634939D02*
X98054819Y-37539701D01*
X98054819Y-37539701D02*
X98102438Y-37444463D01*
X98102438Y-37444463D02*
X98150057Y-37396844D01*
X98150057Y-37396844D02*
X98245295Y-37349225D01*
X98245295Y-37349225D02*
X98435771Y-37301606D01*
X98435771Y-37301606D02*
X98673866Y-37301606D01*
X98673866Y-37301606D02*
X98864342Y-37349225D01*
X98864342Y-37349225D02*
X98959580Y-37396844D01*
X98959580Y-37396844D02*
X99007200Y-37444463D01*
X99007200Y-37444463D02*
X99054819Y-37539701D01*
X99054819Y-37539701D02*
X99054819Y-37634939D01*
X99054819Y-37634939D02*
X99007200Y-37730177D01*
X99007200Y-37730177D02*
X98959580Y-37777796D01*
X98959580Y-37777796D02*
X98864342Y-37825415D01*
X98864342Y-37825415D02*
X98673866Y-37873034D01*
X98673866Y-37873034D02*
X98435771Y-37873034D01*
X98435771Y-37873034D02*
X98245295Y-37825415D01*
X98245295Y-37825415D02*
X98150057Y-37777796D01*
X98150057Y-37777796D02*
X98102438Y-37730177D01*
X98102438Y-37730177D02*
X98054819Y-37634939D01*
X46522319Y-30261904D02*
X47331842Y-30261904D01*
X47331842Y-30261904D02*
X47427080Y-30214285D01*
X47427080Y-30214285D02*
X47474700Y-30166666D01*
X47474700Y-30166666D02*
X47522319Y-30071428D01*
X47522319Y-30071428D02*
X47522319Y-29880952D01*
X47522319Y-29880952D02*
X47474700Y-29785714D01*
X47474700Y-29785714D02*
X47427080Y-29738095D01*
X47427080Y-29738095D02*
X47331842Y-29690476D01*
X47331842Y-29690476D02*
X46522319Y-29690476D01*
X46522319Y-29309523D02*
X46522319Y-28690476D01*
X46522319Y-28690476D02*
X46903271Y-29023809D01*
X46903271Y-29023809D02*
X46903271Y-28880952D01*
X46903271Y-28880952D02*
X46950890Y-28785714D01*
X46950890Y-28785714D02*
X46998509Y-28738095D01*
X46998509Y-28738095D02*
X47093747Y-28690476D01*
X47093747Y-28690476D02*
X47331842Y-28690476D01*
X47331842Y-28690476D02*
X47427080Y-28738095D01*
X47427080Y-28738095D02*
X47474700Y-28785714D01*
X47474700Y-28785714D02*
X47522319Y-28880952D01*
X47522319Y-28880952D02*
X47522319Y-29166666D01*
X47522319Y-29166666D02*
X47474700Y-29261904D01*
X47474700Y-29261904D02*
X47427080Y-29309523D01*
X47916666Y-40954819D02*
X47916666Y-41669104D01*
X47916666Y-41669104D02*
X47869047Y-41811961D01*
X47869047Y-41811961D02*
X47773809Y-41907200D01*
X47773809Y-41907200D02*
X47630952Y-41954819D01*
X47630952Y-41954819D02*
X47535714Y-41954819D01*
X48869047Y-40954819D02*
X48392857Y-40954819D01*
X48392857Y-40954819D02*
X48345238Y-41431009D01*
X48345238Y-41431009D02*
X48392857Y-41383390D01*
X48392857Y-41383390D02*
X48488095Y-41335771D01*
X48488095Y-41335771D02*
X48726190Y-41335771D01*
X48726190Y-41335771D02*
X48821428Y-41383390D01*
X48821428Y-41383390D02*
X48869047Y-41431009D01*
X48869047Y-41431009D02*
X48916666Y-41526247D01*
X48916666Y-41526247D02*
X48916666Y-41764342D01*
X48916666Y-41764342D02*
X48869047Y-41859580D01*
X48869047Y-41859580D02*
X48821428Y-41907200D01*
X48821428Y-41907200D02*
X48726190Y-41954819D01*
X48726190Y-41954819D02*
X48488095Y-41954819D01*
X48488095Y-41954819D02*
X48392857Y-41907200D01*
X48392857Y-41907200D02*
X48345238Y-41859580D01*
X33166666Y-18404819D02*
X33166666Y-19119104D01*
X33166666Y-19119104D02*
X33119047Y-19261961D01*
X33119047Y-19261961D02*
X33023809Y-19357200D01*
X33023809Y-19357200D02*
X32880952Y-19404819D01*
X32880952Y-19404819D02*
X32785714Y-19404819D01*
X33547619Y-18404819D02*
X34214285Y-18404819D01*
X34214285Y-18404819D02*
X33785714Y-19404819D01*
X76793210Y-29241666D02*
X76840830Y-29289285D01*
X76840830Y-29289285D02*
X76888449Y-29432142D01*
X76888449Y-29432142D02*
X76888449Y-29527380D01*
X76888449Y-29527380D02*
X76840830Y-29670237D01*
X76840830Y-29670237D02*
X76745591Y-29765475D01*
X76745591Y-29765475D02*
X76650353Y-29813094D01*
X76650353Y-29813094D02*
X76459877Y-29860713D01*
X76459877Y-29860713D02*
X76317020Y-29860713D01*
X76317020Y-29860713D02*
X76126544Y-29813094D01*
X76126544Y-29813094D02*
X76031306Y-29765475D01*
X76031306Y-29765475D02*
X75936068Y-29670237D01*
X75936068Y-29670237D02*
X75888449Y-29527380D01*
X75888449Y-29527380D02*
X75888449Y-29432142D01*
X75888449Y-29432142D02*
X75936068Y-29289285D01*
X75936068Y-29289285D02*
X75983687Y-29241666D01*
X75888449Y-28908332D02*
X75888449Y-28241666D01*
X75888449Y-28241666D02*
X76888449Y-28670237D01*
X142954819Y-37061904D02*
X143764342Y-37061904D01*
X143764342Y-37061904D02*
X143859580Y-37014285D01*
X143859580Y-37014285D02*
X143907200Y-36966666D01*
X143907200Y-36966666D02*
X143954819Y-36871428D01*
X143954819Y-36871428D02*
X143954819Y-36680952D01*
X143954819Y-36680952D02*
X143907200Y-36585714D01*
X143907200Y-36585714D02*
X143859580Y-36538095D01*
X143859580Y-36538095D02*
X143764342Y-36490476D01*
X143764342Y-36490476D02*
X142954819Y-36490476D01*
X143288152Y-35585714D02*
X143954819Y-35585714D01*
X142907200Y-35823809D02*
X143621485Y-36061904D01*
X143621485Y-36061904D02*
X143621485Y-35442857D01*
X140019104Y-41061905D02*
X140019104Y-40585715D01*
X140304819Y-41157143D02*
X139304819Y-40823810D01*
X139304819Y-40823810D02*
X140304819Y-40490477D01*
X139638152Y-40157143D02*
X140304819Y-40157143D01*
X139733390Y-40157143D02*
X139685771Y-40109524D01*
X139685771Y-40109524D02*
X139638152Y-40014286D01*
X139638152Y-40014286D02*
X139638152Y-39871429D01*
X139638152Y-39871429D02*
X139685771Y-39776191D01*
X139685771Y-39776191D02*
X139781009Y-39728572D01*
X139781009Y-39728572D02*
X140304819Y-39728572D01*
X139638152Y-39395238D02*
X139638152Y-39014286D01*
X139304819Y-39252381D02*
X140161961Y-39252381D01*
X140161961Y-39252381D02*
X140257200Y-39204762D01*
X140257200Y-39204762D02*
X140304819Y-39109524D01*
X140304819Y-39109524D02*
X140304819Y-39014286D01*
X140257200Y-38300000D02*
X140304819Y-38395238D01*
X140304819Y-38395238D02*
X140304819Y-38585714D01*
X140304819Y-38585714D02*
X140257200Y-38680952D01*
X140257200Y-38680952D02*
X140161961Y-38728571D01*
X140161961Y-38728571D02*
X139781009Y-38728571D01*
X139781009Y-38728571D02*
X139685771Y-38680952D01*
X139685771Y-38680952D02*
X139638152Y-38585714D01*
X139638152Y-38585714D02*
X139638152Y-38395238D01*
X139638152Y-38395238D02*
X139685771Y-38300000D01*
X139685771Y-38300000D02*
X139781009Y-38252381D01*
X139781009Y-38252381D02*
X139876247Y-38252381D01*
X139876247Y-38252381D02*
X139971485Y-38728571D01*
X139638152Y-37823809D02*
X140304819Y-37823809D01*
X139733390Y-37823809D02*
X139685771Y-37776190D01*
X139685771Y-37776190D02*
X139638152Y-37680952D01*
X139638152Y-37680952D02*
X139638152Y-37538095D01*
X139638152Y-37538095D02*
X139685771Y-37442857D01*
X139685771Y-37442857D02*
X139781009Y-37395238D01*
X139781009Y-37395238D02*
X140304819Y-37395238D01*
X139638152Y-36919047D02*
X140304819Y-36919047D01*
X139733390Y-36919047D02*
X139685771Y-36871428D01*
X139685771Y-36871428D02*
X139638152Y-36776190D01*
X139638152Y-36776190D02*
X139638152Y-36633333D01*
X139638152Y-36633333D02*
X139685771Y-36538095D01*
X139685771Y-36538095D02*
X139781009Y-36490476D01*
X139781009Y-36490476D02*
X140304819Y-36490476D01*
X140304819Y-35585714D02*
X139781009Y-35585714D01*
X139781009Y-35585714D02*
X139685771Y-35633333D01*
X139685771Y-35633333D02*
X139638152Y-35728571D01*
X139638152Y-35728571D02*
X139638152Y-35919047D01*
X139638152Y-35919047D02*
X139685771Y-36014285D01*
X140257200Y-35585714D02*
X140304819Y-35680952D01*
X140304819Y-35680952D02*
X140304819Y-35919047D01*
X140304819Y-35919047D02*
X140257200Y-36014285D01*
X140257200Y-36014285D02*
X140161961Y-36061904D01*
X140161961Y-36061904D02*
X140066723Y-36061904D01*
X140066723Y-36061904D02*
X139971485Y-36014285D01*
X139971485Y-36014285D02*
X139923866Y-35919047D01*
X139923866Y-35919047D02*
X139923866Y-35680952D01*
X139923866Y-35680952D02*
X139876247Y-35585714D01*
X140019104Y-34395237D02*
X140019104Y-33919047D01*
X140304819Y-34490475D02*
X139304819Y-34157142D01*
X139304819Y-34157142D02*
X140304819Y-33823809D01*
X140304819Y-33490475D02*
X139638152Y-33490475D01*
X139828628Y-33490475D02*
X139733390Y-33442856D01*
X139733390Y-33442856D02*
X139685771Y-33395237D01*
X139685771Y-33395237D02*
X139638152Y-33299999D01*
X139638152Y-33299999D02*
X139638152Y-33204761D01*
X140257200Y-32490475D02*
X140304819Y-32585713D01*
X140304819Y-32585713D02*
X140304819Y-32776189D01*
X140304819Y-32776189D02*
X140257200Y-32871427D01*
X140257200Y-32871427D02*
X140161961Y-32919046D01*
X140161961Y-32919046D02*
X139781009Y-32919046D01*
X139781009Y-32919046D02*
X139685771Y-32871427D01*
X139685771Y-32871427D02*
X139638152Y-32776189D01*
X139638152Y-32776189D02*
X139638152Y-32585713D01*
X139638152Y-32585713D02*
X139685771Y-32490475D01*
X139685771Y-32490475D02*
X139781009Y-32442856D01*
X139781009Y-32442856D02*
X139876247Y-32442856D01*
X139876247Y-32442856D02*
X139971485Y-32919046D01*
X140304819Y-31585713D02*
X139781009Y-31585713D01*
X139781009Y-31585713D02*
X139685771Y-31633332D01*
X139685771Y-31633332D02*
X139638152Y-31728570D01*
X139638152Y-31728570D02*
X139638152Y-31919046D01*
X139638152Y-31919046D02*
X139685771Y-32014284D01*
X140257200Y-31585713D02*
X140304819Y-31680951D01*
X140304819Y-31680951D02*
X140304819Y-31919046D01*
X140304819Y-31919046D02*
X140257200Y-32014284D01*
X140257200Y-32014284D02*
X140161961Y-32061903D01*
X140161961Y-32061903D02*
X140066723Y-32061903D01*
X140066723Y-32061903D02*
X139971485Y-32014284D01*
X139971485Y-32014284D02*
X139923866Y-31919046D01*
X139923866Y-31919046D02*
X139923866Y-31680951D01*
X139923866Y-31680951D02*
X139876247Y-31585713D01*
X37954819Y-24693922D02*
X37478628Y-25027255D01*
X37954819Y-25265350D02*
X36954819Y-25265350D01*
X36954819Y-25265350D02*
X36954819Y-24884398D01*
X36954819Y-24884398D02*
X37002438Y-24789160D01*
X37002438Y-24789160D02*
X37050057Y-24741541D01*
X37050057Y-24741541D02*
X37145295Y-24693922D01*
X37145295Y-24693922D02*
X37288152Y-24693922D01*
X37288152Y-24693922D02*
X37383390Y-24741541D01*
X37383390Y-24741541D02*
X37431009Y-24789160D01*
X37431009Y-24789160D02*
X37478628Y-24884398D01*
X37478628Y-24884398D02*
X37478628Y-25265350D01*
X37954819Y-23741541D02*
X37954819Y-24312969D01*
X37954819Y-24027255D02*
X36954819Y-24027255D01*
X36954819Y-24027255D02*
X37097676Y-24122493D01*
X37097676Y-24122493D02*
X37192914Y-24217731D01*
X37192914Y-24217731D02*
X37240533Y-24312969D01*
X37288152Y-22884398D02*
X37954819Y-22884398D01*
X36907200Y-23122493D02*
X37621485Y-23360588D01*
X37621485Y-23360588D02*
X37621485Y-22741541D01*
X46954819Y-37416666D02*
X46478628Y-37749999D01*
X46954819Y-37988094D02*
X45954819Y-37988094D01*
X45954819Y-37988094D02*
X45954819Y-37607142D01*
X45954819Y-37607142D02*
X46002438Y-37511904D01*
X46002438Y-37511904D02*
X46050057Y-37464285D01*
X46050057Y-37464285D02*
X46145295Y-37416666D01*
X46145295Y-37416666D02*
X46288152Y-37416666D01*
X46288152Y-37416666D02*
X46383390Y-37464285D01*
X46383390Y-37464285D02*
X46431009Y-37511904D01*
X46431009Y-37511904D02*
X46478628Y-37607142D01*
X46478628Y-37607142D02*
X46478628Y-37988094D01*
X46954819Y-36940475D02*
X46954819Y-36749999D01*
X46954819Y-36749999D02*
X46907200Y-36654761D01*
X46907200Y-36654761D02*
X46859580Y-36607142D01*
X46859580Y-36607142D02*
X46716723Y-36511904D01*
X46716723Y-36511904D02*
X46526247Y-36464285D01*
X46526247Y-36464285D02*
X46145295Y-36464285D01*
X46145295Y-36464285D02*
X46050057Y-36511904D01*
X46050057Y-36511904D02*
X46002438Y-36559523D01*
X46002438Y-36559523D02*
X45954819Y-36654761D01*
X45954819Y-36654761D02*
X45954819Y-36845237D01*
X45954819Y-36845237D02*
X46002438Y-36940475D01*
X46002438Y-36940475D02*
X46050057Y-36988094D01*
X46050057Y-36988094D02*
X46145295Y-37035713D01*
X46145295Y-37035713D02*
X46383390Y-37035713D01*
X46383390Y-37035713D02*
X46478628Y-36988094D01*
X46478628Y-36988094D02*
X46526247Y-36940475D01*
X46526247Y-36940475D02*
X46573866Y-36845237D01*
X46573866Y-36845237D02*
X46573866Y-36654761D01*
X46573866Y-36654761D02*
X46526247Y-36559523D01*
X46526247Y-36559523D02*
X46478628Y-36511904D01*
X46478628Y-36511904D02*
X46383390Y-36464285D01*
X120833333Y-48454819D02*
X120500000Y-47978628D01*
X120261905Y-48454819D02*
X120261905Y-47454819D01*
X120261905Y-47454819D02*
X120642857Y-47454819D01*
X120642857Y-47454819D02*
X120738095Y-47502438D01*
X120738095Y-47502438D02*
X120785714Y-47550057D01*
X120785714Y-47550057D02*
X120833333Y-47645295D01*
X120833333Y-47645295D02*
X120833333Y-47788152D01*
X120833333Y-47788152D02*
X120785714Y-47883390D01*
X120785714Y-47883390D02*
X120738095Y-47931009D01*
X120738095Y-47931009D02*
X120642857Y-47978628D01*
X120642857Y-47978628D02*
X120261905Y-47978628D01*
X121166667Y-47454819D02*
X121785714Y-47454819D01*
X121785714Y-47454819D02*
X121452381Y-47835771D01*
X121452381Y-47835771D02*
X121595238Y-47835771D01*
X121595238Y-47835771D02*
X121690476Y-47883390D01*
X121690476Y-47883390D02*
X121738095Y-47931009D01*
X121738095Y-47931009D02*
X121785714Y-48026247D01*
X121785714Y-48026247D02*
X121785714Y-48264342D01*
X121785714Y-48264342D02*
X121738095Y-48359580D01*
X121738095Y-48359580D02*
X121690476Y-48407200D01*
X121690476Y-48407200D02*
X121595238Y-48454819D01*
X121595238Y-48454819D02*
X121309524Y-48454819D01*
X121309524Y-48454819D02*
X121214286Y-48407200D01*
X121214286Y-48407200D02*
X121166667Y-48359580D01*
X136857142Y-25119580D02*
X136809523Y-25167200D01*
X136809523Y-25167200D02*
X136666666Y-25214819D01*
X136666666Y-25214819D02*
X136571428Y-25214819D01*
X136571428Y-25214819D02*
X136428571Y-25167200D01*
X136428571Y-25167200D02*
X136333333Y-25071961D01*
X136333333Y-25071961D02*
X136285714Y-24976723D01*
X136285714Y-24976723D02*
X136238095Y-24786247D01*
X136238095Y-24786247D02*
X136238095Y-24643390D01*
X136238095Y-24643390D02*
X136285714Y-24452914D01*
X136285714Y-24452914D02*
X136333333Y-24357676D01*
X136333333Y-24357676D02*
X136428571Y-24262438D01*
X136428571Y-24262438D02*
X136571428Y-24214819D01*
X136571428Y-24214819D02*
X136666666Y-24214819D01*
X136666666Y-24214819D02*
X136809523Y-24262438D01*
X136809523Y-24262438D02*
X136857142Y-24310057D01*
X137809523Y-25214819D02*
X137238095Y-25214819D01*
X137523809Y-25214819D02*
X137523809Y-24214819D01*
X137523809Y-24214819D02*
X137428571Y-24357676D01*
X137428571Y-24357676D02*
X137333333Y-24452914D01*
X137333333Y-24452914D02*
X137238095Y-24500533D01*
X138142857Y-24214819D02*
X138761904Y-24214819D01*
X138761904Y-24214819D02*
X138428571Y-24595771D01*
X138428571Y-24595771D02*
X138571428Y-24595771D01*
X138571428Y-24595771D02*
X138666666Y-24643390D01*
X138666666Y-24643390D02*
X138714285Y-24691009D01*
X138714285Y-24691009D02*
X138761904Y-24786247D01*
X138761904Y-24786247D02*
X138761904Y-25024342D01*
X138761904Y-25024342D02*
X138714285Y-25119580D01*
X138714285Y-25119580D02*
X138666666Y-25167200D01*
X138666666Y-25167200D02*
X138571428Y-25214819D01*
X138571428Y-25214819D02*
X138285714Y-25214819D01*
X138285714Y-25214819D02*
X138190476Y-25167200D01*
X138190476Y-25167200D02*
X138142857Y-25119580D01*
X50772493Y-31954819D02*
X50772493Y-32669104D01*
X50772493Y-32669104D02*
X50724874Y-32811961D01*
X50724874Y-32811961D02*
X50629636Y-32907200D01*
X50629636Y-32907200D02*
X50486779Y-32954819D01*
X50486779Y-32954819D02*
X50391541Y-32954819D01*
X51248684Y-32954819D02*
X51248684Y-31954819D01*
X51248684Y-31954819D02*
X51629636Y-31954819D01*
X51629636Y-31954819D02*
X51724874Y-32002438D01*
X51724874Y-32002438D02*
X51772493Y-32050057D01*
X51772493Y-32050057D02*
X51820112Y-32145295D01*
X51820112Y-32145295D02*
X51820112Y-32288152D01*
X51820112Y-32288152D02*
X51772493Y-32383390D01*
X51772493Y-32383390D02*
X51724874Y-32431009D01*
X51724874Y-32431009D02*
X51629636Y-32478628D01*
X51629636Y-32478628D02*
X51248684Y-32478628D01*
X52153446Y-31954819D02*
X52772493Y-31954819D01*
X52772493Y-31954819D02*
X52439160Y-32335771D01*
X52439160Y-32335771D02*
X52582017Y-32335771D01*
X52582017Y-32335771D02*
X52677255Y-32383390D01*
X52677255Y-32383390D02*
X52724874Y-32431009D01*
X52724874Y-32431009D02*
X52772493Y-32526247D01*
X52772493Y-32526247D02*
X52772493Y-32764342D01*
X52772493Y-32764342D02*
X52724874Y-32859580D01*
X52724874Y-32859580D02*
X52677255Y-32907200D01*
X52677255Y-32907200D02*
X52582017Y-32954819D01*
X52582017Y-32954819D02*
X52296303Y-32954819D01*
X52296303Y-32954819D02*
X52201065Y-32907200D01*
X52201065Y-32907200D02*
X52153446Y-32859580D01*
X26357142Y-55954819D02*
X26023809Y-55478628D01*
X25785714Y-55954819D02*
X25785714Y-54954819D01*
X25785714Y-54954819D02*
X26166666Y-54954819D01*
X26166666Y-54954819D02*
X26261904Y-55002438D01*
X26261904Y-55002438D02*
X26309523Y-55050057D01*
X26309523Y-55050057D02*
X26357142Y-55145295D01*
X26357142Y-55145295D02*
X26357142Y-55288152D01*
X26357142Y-55288152D02*
X26309523Y-55383390D01*
X26309523Y-55383390D02*
X26261904Y-55431009D01*
X26261904Y-55431009D02*
X26166666Y-55478628D01*
X26166666Y-55478628D02*
X25785714Y-55478628D01*
X26738095Y-55050057D02*
X26785714Y-55002438D01*
X26785714Y-55002438D02*
X26880952Y-54954819D01*
X26880952Y-54954819D02*
X27119047Y-54954819D01*
X27119047Y-54954819D02*
X27214285Y-55002438D01*
X27214285Y-55002438D02*
X27261904Y-55050057D01*
X27261904Y-55050057D02*
X27309523Y-55145295D01*
X27309523Y-55145295D02*
X27309523Y-55240533D01*
X27309523Y-55240533D02*
X27261904Y-55383390D01*
X27261904Y-55383390D02*
X26690476Y-55954819D01*
X26690476Y-55954819D02*
X27309523Y-55954819D01*
X28261904Y-55954819D02*
X27690476Y-55954819D01*
X27976190Y-55954819D02*
X27976190Y-54954819D01*
X27976190Y-54954819D02*
X27880952Y-55097676D01*
X27880952Y-55097676D02*
X27785714Y-55192914D01*
X27785714Y-55192914D02*
X27690476Y-55240533D01*
X19166666Y-33931009D02*
X18833333Y-33931009D01*
X18833333Y-34454819D02*
X18833333Y-33454819D01*
X18833333Y-33454819D02*
X19309523Y-33454819D01*
X20214285Y-34454819D02*
X19642857Y-34454819D01*
X19928571Y-34454819D02*
X19928571Y-33454819D01*
X19928571Y-33454819D02*
X19833333Y-33597676D01*
X19833333Y-33597676D02*
X19738095Y-33692914D01*
X19738095Y-33692914D02*
X19642857Y-33740533D01*
X68543210Y-24241666D02*
X68590830Y-24289285D01*
X68590830Y-24289285D02*
X68638449Y-24432142D01*
X68638449Y-24432142D02*
X68638449Y-24527380D01*
X68638449Y-24527380D02*
X68590830Y-24670237D01*
X68590830Y-24670237D02*
X68495591Y-24765475D01*
X68495591Y-24765475D02*
X68400353Y-24813094D01*
X68400353Y-24813094D02*
X68209877Y-24860713D01*
X68209877Y-24860713D02*
X68067020Y-24860713D01*
X68067020Y-24860713D02*
X67876544Y-24813094D01*
X67876544Y-24813094D02*
X67781306Y-24765475D01*
X67781306Y-24765475D02*
X67686068Y-24670237D01*
X67686068Y-24670237D02*
X67638449Y-24527380D01*
X67638449Y-24527380D02*
X67638449Y-24432142D01*
X67638449Y-24432142D02*
X67686068Y-24289285D01*
X67686068Y-24289285D02*
X67733687Y-24241666D01*
X67638449Y-23908332D02*
X67638449Y-23289285D01*
X67638449Y-23289285D02*
X68019401Y-23622618D01*
X68019401Y-23622618D02*
X68019401Y-23479761D01*
X68019401Y-23479761D02*
X68067020Y-23384523D01*
X68067020Y-23384523D02*
X68114639Y-23336904D01*
X68114639Y-23336904D02*
X68209877Y-23289285D01*
X68209877Y-23289285D02*
X68447972Y-23289285D01*
X68447972Y-23289285D02*
X68543210Y-23336904D01*
X68543210Y-23336904D02*
X68590830Y-23384523D01*
X68590830Y-23384523D02*
X68638449Y-23479761D01*
X68638449Y-23479761D02*
X68638449Y-23765475D01*
X68638449Y-23765475D02*
X68590830Y-23860713D01*
X68590830Y-23860713D02*
X68543210Y-23908332D01*
X78638449Y-24491666D02*
X78162258Y-24824999D01*
X78638449Y-25063094D02*
X77638449Y-25063094D01*
X77638449Y-25063094D02*
X77638449Y-24682142D01*
X77638449Y-24682142D02*
X77686068Y-24586904D01*
X77686068Y-24586904D02*
X77733687Y-24539285D01*
X77733687Y-24539285D02*
X77828925Y-24491666D01*
X77828925Y-24491666D02*
X77971782Y-24491666D01*
X77971782Y-24491666D02*
X78067020Y-24539285D01*
X78067020Y-24539285D02*
X78114639Y-24586904D01*
X78114639Y-24586904D02*
X78162258Y-24682142D01*
X78162258Y-24682142D02*
X78162258Y-25063094D01*
X77971782Y-23634523D02*
X78638449Y-23634523D01*
X77590830Y-23872618D02*
X78305115Y-24110713D01*
X78305115Y-24110713D02*
X78305115Y-23491666D01*
X125107142Y-24859580D02*
X125059523Y-24907200D01*
X125059523Y-24907200D02*
X124916666Y-24954819D01*
X124916666Y-24954819D02*
X124821428Y-24954819D01*
X124821428Y-24954819D02*
X124678571Y-24907200D01*
X124678571Y-24907200D02*
X124583333Y-24811961D01*
X124583333Y-24811961D02*
X124535714Y-24716723D01*
X124535714Y-24716723D02*
X124488095Y-24526247D01*
X124488095Y-24526247D02*
X124488095Y-24383390D01*
X124488095Y-24383390D02*
X124535714Y-24192914D01*
X124535714Y-24192914D02*
X124583333Y-24097676D01*
X124583333Y-24097676D02*
X124678571Y-24002438D01*
X124678571Y-24002438D02*
X124821428Y-23954819D01*
X124821428Y-23954819D02*
X124916666Y-23954819D01*
X124916666Y-23954819D02*
X125059523Y-24002438D01*
X125059523Y-24002438D02*
X125107142Y-24050057D01*
X126059523Y-24954819D02*
X125488095Y-24954819D01*
X125773809Y-24954819D02*
X125773809Y-23954819D01*
X125773809Y-23954819D02*
X125678571Y-24097676D01*
X125678571Y-24097676D02*
X125583333Y-24192914D01*
X125583333Y-24192914D02*
X125488095Y-24240533D01*
X126440476Y-24050057D02*
X126488095Y-24002438D01*
X126488095Y-24002438D02*
X126583333Y-23954819D01*
X126583333Y-23954819D02*
X126821428Y-23954819D01*
X126821428Y-23954819D02*
X126916666Y-24002438D01*
X126916666Y-24002438D02*
X126964285Y-24050057D01*
X126964285Y-24050057D02*
X127011904Y-24145295D01*
X127011904Y-24145295D02*
X127011904Y-24240533D01*
X127011904Y-24240533D02*
X126964285Y-24383390D01*
X126964285Y-24383390D02*
X126392857Y-24954819D01*
X126392857Y-24954819D02*
X127011904Y-24954819D01*
X45166666Y-18454819D02*
X45166666Y-19169104D01*
X45166666Y-19169104D02*
X45119047Y-19311961D01*
X45119047Y-19311961D02*
X45023809Y-19407200D01*
X45023809Y-19407200D02*
X44880952Y-19454819D01*
X44880952Y-19454819D02*
X44785714Y-19454819D01*
X45547619Y-18454819D02*
X46166666Y-18454819D01*
X46166666Y-18454819D02*
X45833333Y-18835771D01*
X45833333Y-18835771D02*
X45976190Y-18835771D01*
X45976190Y-18835771D02*
X46071428Y-18883390D01*
X46071428Y-18883390D02*
X46119047Y-18931009D01*
X46119047Y-18931009D02*
X46166666Y-19026247D01*
X46166666Y-19026247D02*
X46166666Y-19264342D01*
X46166666Y-19264342D02*
X46119047Y-19359580D01*
X46119047Y-19359580D02*
X46071428Y-19407200D01*
X46071428Y-19407200D02*
X45976190Y-19454819D01*
X45976190Y-19454819D02*
X45690476Y-19454819D01*
X45690476Y-19454819D02*
X45595238Y-19407200D01*
X45595238Y-19407200D02*
X45547619Y-19359580D01*
X34833333Y-30309580D02*
X34785714Y-30357200D01*
X34785714Y-30357200D02*
X34642857Y-30404819D01*
X34642857Y-30404819D02*
X34547619Y-30404819D01*
X34547619Y-30404819D02*
X34404762Y-30357200D01*
X34404762Y-30357200D02*
X34309524Y-30261961D01*
X34309524Y-30261961D02*
X34261905Y-30166723D01*
X34261905Y-30166723D02*
X34214286Y-29976247D01*
X34214286Y-29976247D02*
X34214286Y-29833390D01*
X34214286Y-29833390D02*
X34261905Y-29642914D01*
X34261905Y-29642914D02*
X34309524Y-29547676D01*
X34309524Y-29547676D02*
X34404762Y-29452438D01*
X34404762Y-29452438D02*
X34547619Y-29404819D01*
X34547619Y-29404819D02*
X34642857Y-29404819D01*
X34642857Y-29404819D02*
X34785714Y-29452438D01*
X34785714Y-29452438D02*
X34833333Y-29500057D01*
X35785714Y-30404819D02*
X35214286Y-30404819D01*
X35500000Y-30404819D02*
X35500000Y-29404819D01*
X35500000Y-29404819D02*
X35404762Y-29547676D01*
X35404762Y-29547676D02*
X35309524Y-29642914D01*
X35309524Y-29642914D02*
X35214286Y-29690533D01*
X91566666Y-29718330D02*
X91566666Y-30432615D01*
X91566666Y-30432615D02*
X91519047Y-30575472D01*
X91519047Y-30575472D02*
X91423809Y-30670711D01*
X91423809Y-30670711D02*
X91280952Y-30718330D01*
X91280952Y-30718330D02*
X91185714Y-30718330D01*
X92042857Y-30718330D02*
X92042857Y-29718330D01*
X92042857Y-29718330D02*
X92423809Y-29718330D01*
X92423809Y-29718330D02*
X92519047Y-29765949D01*
X92519047Y-29765949D02*
X92566666Y-29813568D01*
X92566666Y-29813568D02*
X92614285Y-29908806D01*
X92614285Y-29908806D02*
X92614285Y-30051663D01*
X92614285Y-30051663D02*
X92566666Y-30146901D01*
X92566666Y-30146901D02*
X92519047Y-30194520D01*
X92519047Y-30194520D02*
X92423809Y-30242139D01*
X92423809Y-30242139D02*
X92042857Y-30242139D01*
X93519047Y-29718330D02*
X93042857Y-29718330D01*
X93042857Y-29718330D02*
X92995238Y-30194520D01*
X92995238Y-30194520D02*
X93042857Y-30146901D01*
X93042857Y-30146901D02*
X93138095Y-30099282D01*
X93138095Y-30099282D02*
X93376190Y-30099282D01*
X93376190Y-30099282D02*
X93471428Y-30146901D01*
X93471428Y-30146901D02*
X93519047Y-30194520D01*
X93519047Y-30194520D02*
X93566666Y-30289758D01*
X93566666Y-30289758D02*
X93566666Y-30527853D01*
X93566666Y-30527853D02*
X93519047Y-30623091D01*
X93519047Y-30623091D02*
X93471428Y-30670711D01*
X93471428Y-30670711D02*
X93376190Y-30718330D01*
X93376190Y-30718330D02*
X93138095Y-30718330D01*
X93138095Y-30718330D02*
X93042857Y-30670711D01*
X93042857Y-30670711D02*
X92995238Y-30623091D01*
X68609580Y-39730177D02*
X68657200Y-39777796D01*
X68657200Y-39777796D02*
X68704819Y-39920653D01*
X68704819Y-39920653D02*
X68704819Y-40015891D01*
X68704819Y-40015891D02*
X68657200Y-40158748D01*
X68657200Y-40158748D02*
X68561961Y-40253986D01*
X68561961Y-40253986D02*
X68466723Y-40301605D01*
X68466723Y-40301605D02*
X68276247Y-40349224D01*
X68276247Y-40349224D02*
X68133390Y-40349224D01*
X68133390Y-40349224D02*
X67942914Y-40301605D01*
X67942914Y-40301605D02*
X67847676Y-40253986D01*
X67847676Y-40253986D02*
X67752438Y-40158748D01*
X67752438Y-40158748D02*
X67704819Y-40015891D01*
X67704819Y-40015891D02*
X67704819Y-39920653D01*
X67704819Y-39920653D02*
X67752438Y-39777796D01*
X67752438Y-39777796D02*
X67800057Y-39730177D01*
X67704819Y-38873034D02*
X67704819Y-39063510D01*
X67704819Y-39063510D02*
X67752438Y-39158748D01*
X67752438Y-39158748D02*
X67800057Y-39206367D01*
X67800057Y-39206367D02*
X67942914Y-39301605D01*
X67942914Y-39301605D02*
X68133390Y-39349224D01*
X68133390Y-39349224D02*
X68514342Y-39349224D01*
X68514342Y-39349224D02*
X68609580Y-39301605D01*
X68609580Y-39301605D02*
X68657200Y-39253986D01*
X68657200Y-39253986D02*
X68704819Y-39158748D01*
X68704819Y-39158748D02*
X68704819Y-38968272D01*
X68704819Y-38968272D02*
X68657200Y-38873034D01*
X68657200Y-38873034D02*
X68609580Y-38825415D01*
X68609580Y-38825415D02*
X68514342Y-38777796D01*
X68514342Y-38777796D02*
X68276247Y-38777796D01*
X68276247Y-38777796D02*
X68181009Y-38825415D01*
X68181009Y-38825415D02*
X68133390Y-38873034D01*
X68133390Y-38873034D02*
X68085771Y-38968272D01*
X68085771Y-38968272D02*
X68085771Y-39158748D01*
X68085771Y-39158748D02*
X68133390Y-39253986D01*
X68133390Y-39253986D02*
X68181009Y-39301605D01*
X68181009Y-39301605D02*
X68276247Y-39349224D01*
X25166666Y-40954819D02*
X25166666Y-41669104D01*
X25166666Y-41669104D02*
X25119047Y-41811961D01*
X25119047Y-41811961D02*
X25023809Y-41907200D01*
X25023809Y-41907200D02*
X24880952Y-41954819D01*
X24880952Y-41954819D02*
X24785714Y-41954819D01*
X25785714Y-41383390D02*
X25690476Y-41335771D01*
X25690476Y-41335771D02*
X25642857Y-41288152D01*
X25642857Y-41288152D02*
X25595238Y-41192914D01*
X25595238Y-41192914D02*
X25595238Y-41145295D01*
X25595238Y-41145295D02*
X25642857Y-41050057D01*
X25642857Y-41050057D02*
X25690476Y-41002438D01*
X25690476Y-41002438D02*
X25785714Y-40954819D01*
X25785714Y-40954819D02*
X25976190Y-40954819D01*
X25976190Y-40954819D02*
X26071428Y-41002438D01*
X26071428Y-41002438D02*
X26119047Y-41050057D01*
X26119047Y-41050057D02*
X26166666Y-41145295D01*
X26166666Y-41145295D02*
X26166666Y-41192914D01*
X26166666Y-41192914D02*
X26119047Y-41288152D01*
X26119047Y-41288152D02*
X26071428Y-41335771D01*
X26071428Y-41335771D02*
X25976190Y-41383390D01*
X25976190Y-41383390D02*
X25785714Y-41383390D01*
X25785714Y-41383390D02*
X25690476Y-41431009D01*
X25690476Y-41431009D02*
X25642857Y-41478628D01*
X25642857Y-41478628D02*
X25595238Y-41573866D01*
X25595238Y-41573866D02*
X25595238Y-41764342D01*
X25595238Y-41764342D02*
X25642857Y-41859580D01*
X25642857Y-41859580D02*
X25690476Y-41907200D01*
X25690476Y-41907200D02*
X25785714Y-41954819D01*
X25785714Y-41954819D02*
X25976190Y-41954819D01*
X25976190Y-41954819D02*
X26071428Y-41907200D01*
X26071428Y-41907200D02*
X26119047Y-41859580D01*
X26119047Y-41859580D02*
X26166666Y-41764342D01*
X26166666Y-41764342D02*
X26166666Y-41573866D01*
X26166666Y-41573866D02*
X26119047Y-41478628D01*
X26119047Y-41478628D02*
X26071428Y-41431009D01*
X26071428Y-41431009D02*
X25976190Y-41383390D01*
D13*
%TO.C,J11*%
X141730000Y-45620000D02*
X141730000Y-47000000D01*
X140350000Y-45620000D02*
X141730000Y-45620000D01*
X139080000Y-45620000D02*
X126270000Y-45620000D01*
X139080000Y-45620000D02*
X139080000Y-48380000D01*
X126270000Y-45620000D02*
X126270000Y-48380000D01*
X139080000Y-48380000D02*
X126270000Y-48380000D01*
%TO.C,J10*%
X109650000Y-15170000D02*
X119870000Y-15170000D01*
X107050000Y-15170000D02*
X108380000Y-15170000D01*
X107050000Y-16500000D02*
X107050000Y-15170000D01*
X119870000Y-17830000D02*
X119870000Y-15170000D01*
X109650000Y-17830000D02*
X109650000Y-15170000D01*
X109650000Y-17830000D02*
X119870000Y-17830000D01*
D14*
%TO.C,U5*%
X128060000Y-50920000D02*
X129470000Y-50920000D01*
X123260000Y-50920000D02*
X126740000Y-50920000D01*
X121940000Y-54080000D02*
X120530000Y-54080000D01*
X120530000Y-54080000D02*
X120530000Y-50920000D01*
X120530000Y-50920000D02*
X121940000Y-50920000D01*
X126740000Y-54080000D02*
X123260000Y-54080000D01*
X129470000Y-50920000D02*
X129470000Y-54080000D01*
X129470000Y-54080000D02*
X128060000Y-54080000D01*
D13*
%TO.C,R18*%
X22477500Y-43237258D02*
X22477500Y-42762742D01*
X23522500Y-43237258D02*
X23522500Y-42762742D01*
%TO.C,R12*%
X59477500Y-40254724D02*
X59477500Y-39745276D01*
X60522500Y-40254724D02*
X60522500Y-39745276D01*
%TO.C,J1*%
X12765000Y-24200000D02*
X12765000Y-25840000D01*
X12765000Y-25840000D02*
X14265000Y-25840000D01*
X12765000Y-28160000D02*
X12765000Y-29800000D01*
X12765000Y-29800000D02*
X14265000Y-29800000D01*
X14265000Y-24010000D02*
X20465000Y-24010000D01*
X14265000Y-24200000D02*
X12765000Y-24200000D01*
X14265000Y-28160000D02*
X12765000Y-28160000D01*
X14265000Y-29990000D02*
X14265000Y-24010000D01*
X20465000Y-22960000D02*
X23885000Y-22960000D01*
X20465000Y-24010000D02*
X20465000Y-22960000D01*
X20465000Y-29990000D02*
X14265000Y-29990000D01*
X20465000Y-31040000D02*
X20465000Y-29990000D01*
X23885000Y-22960000D02*
X23885000Y-31040000D01*
X23885000Y-31040000D02*
X20465000Y-31040000D01*
X29385000Y-23410000D02*
X27775000Y-23410000D01*
X29385000Y-25020000D02*
X29385000Y-23410000D01*
%TO.C,R16*%
X128512742Y-25727500D02*
X128987258Y-25727500D01*
X128512742Y-26772500D02*
X128987258Y-26772500D01*
%TO.C,C15*%
X134134420Y-27750000D02*
X134415580Y-27750000D01*
X134134420Y-28770000D02*
X134415580Y-28770000D01*
%TO.C,R2*%
X56522500Y-39745276D02*
X56522500Y-40254724D01*
X55477500Y-39745276D02*
X55477500Y-40254724D01*
%TO.C,R13*%
X34977500Y-20245276D02*
X34977500Y-20754724D01*
X36022500Y-20245276D02*
X36022500Y-20754724D01*
%TO.C,C5*%
X65198630Y-21336252D02*
X65198630Y-20813748D01*
X66668630Y-21336252D02*
X66668630Y-20813748D01*
%TO.C,C4*%
X65265000Y-36824763D02*
X65265000Y-36302259D01*
X66735000Y-36824763D02*
X66735000Y-36302259D01*
%TO.C,J6*%
X49940000Y-44750000D02*
X50550000Y-44750000D01*
X49940000Y-46050000D02*
X50550000Y-46050000D01*
X50550000Y-43250000D02*
X50550000Y-46750000D01*
X50550000Y-46750000D02*
X52500000Y-46750000D01*
X52500000Y-46750000D02*
X52500000Y-47360000D01*
X52900000Y-43750000D02*
X52900000Y-43250000D01*
X53000000Y-43250000D02*
X53000000Y-43750000D01*
X53100000Y-43250000D02*
X53100000Y-43750000D01*
X53100000Y-43750000D02*
X52900000Y-43750000D01*
X54900000Y-43750000D02*
X54900000Y-43250000D01*
X55000000Y-43250000D02*
X55000000Y-43750000D01*
X55100000Y-43250000D02*
X55100000Y-43750000D01*
X55100000Y-43750000D02*
X54900000Y-43750000D01*
X56900000Y-43750000D02*
X56900000Y-43250000D01*
X57000000Y-43250000D02*
X57000000Y-43750000D01*
X57100000Y-43250000D02*
X57100000Y-43750000D01*
X57100000Y-43750000D02*
X56900000Y-43750000D01*
X58900000Y-43750000D02*
X58900000Y-43250000D01*
X59000000Y-43250000D02*
X59000000Y-43750000D01*
X59100000Y-43250000D02*
X59100000Y-43750000D01*
X59100000Y-43750000D02*
X58900000Y-43750000D01*
X60900000Y-43750000D02*
X60900000Y-43250000D01*
X61000000Y-43250000D02*
X61000000Y-43750000D01*
X61100000Y-43250000D02*
X61100000Y-43750000D01*
X61100000Y-43750000D02*
X60900000Y-43750000D01*
X62900000Y-43750000D02*
X62900000Y-43250000D01*
X63000000Y-43250000D02*
X63000000Y-43750000D01*
X63100000Y-43250000D02*
X63100000Y-43750000D01*
X63100000Y-43750000D02*
X62900000Y-43750000D01*
X63500000Y-46750000D02*
X65450000Y-46750000D01*
X63500000Y-47360000D02*
X63500000Y-46750000D01*
X64300000Y-47360000D02*
X64300000Y-47560000D01*
X64300000Y-47460000D02*
X64600000Y-47460000D01*
X64300000Y-47560000D02*
X64600000Y-47560000D01*
X64600000Y-47560000D02*
X64600000Y-47360000D01*
X65110000Y-47660000D02*
X66360000Y-47660000D01*
X65450000Y-43250000D02*
X50550000Y-43250000D01*
X65450000Y-46750000D02*
X65450000Y-43250000D01*
X66060000Y-44750000D02*
X65450000Y-44750000D01*
X66060000Y-46050000D02*
X65450000Y-46050000D01*
X66360000Y-47660000D02*
X66360000Y-46410000D01*
X66060000Y-47360000D02*
X49940000Y-47360000D01*
X49940000Y-42640000D01*
X66060000Y-42640000D01*
X66060000Y-47360000D01*
%TO.C,Q2*%
X28240000Y-48940000D02*
X29760000Y-48940000D01*
X28240000Y-49940000D02*
X28240000Y-48940000D01*
X28240000Y-52060000D02*
X28240000Y-51060000D01*
X29760000Y-48940000D02*
X29760000Y-48990000D01*
X29760000Y-50110000D02*
X29760000Y-50890000D01*
X29760000Y-52010000D02*
X29760000Y-52060000D01*
X29760000Y-52060000D02*
X28240000Y-52060000D01*
X30300000Y-50880000D02*
X30060000Y-50550000D01*
X30540000Y-50550000D01*
X30300000Y-50880000D01*
G36*
X30300000Y-50880000D02*
G01*
X30060000Y-50550000D01*
X30540000Y-50550000D01*
X30300000Y-50880000D01*
G37*
%TO.C,R6*%
X77661130Y-18562258D02*
X77661130Y-18087742D01*
X78706130Y-18562258D02*
X78706130Y-18087742D01*
D12*
%TO.C,U1*%
X75458630Y-18635000D02*
X71308630Y-18635000D01*
X75458630Y-23785000D02*
X71308630Y-23785000D01*
D13*
X76123630Y-24040000D02*
X75643630Y-24040000D01*
X75883630Y-23710000D01*
X76123630Y-24040000D01*
G36*
X76123630Y-24040000D02*
G01*
X75643630Y-24040000D01*
X75883630Y-23710000D01*
X76123630Y-24040000D01*
G37*
%TO.C,J4*%
X25140000Y-12840000D02*
X25140000Y-14090000D01*
X25440000Y-14450000D02*
X26050000Y-14450000D01*
X25440000Y-15750000D02*
X26050000Y-15750000D01*
X26050000Y-13750000D02*
X26050000Y-17250000D01*
X26050000Y-17250000D02*
X30950000Y-17250000D01*
X26390000Y-12840000D02*
X25140000Y-12840000D01*
X26900000Y-12940000D02*
X26900000Y-13140000D01*
X27200000Y-12940000D02*
X26900000Y-12940000D01*
X27200000Y-13040000D02*
X26900000Y-13040000D01*
X27200000Y-13140000D02*
X27200000Y-12940000D01*
X28000000Y-13140000D02*
X28000000Y-13750000D01*
X28000000Y-13750000D02*
X26050000Y-13750000D01*
X28400000Y-16750000D02*
X28600000Y-16750000D01*
X28400000Y-17250000D02*
X28400000Y-16750000D01*
X28500000Y-17250000D02*
X28500000Y-16750000D01*
X28600000Y-16750000D02*
X28600000Y-17250000D01*
X29000000Y-13750000D02*
X29000000Y-13140000D01*
X30950000Y-13750000D02*
X29000000Y-13750000D01*
X30950000Y-17250000D02*
X30950000Y-13750000D01*
X31560000Y-14450000D02*
X30950000Y-14450000D01*
X31560000Y-15750000D02*
X30950000Y-15750000D01*
X25440000Y-13140000D02*
X31560000Y-13140000D01*
X31560000Y-17860000D01*
X25440000Y-17860000D01*
X25440000Y-13140000D01*
%TO.C,D1*%
X70723630Y-24325000D02*
X70723630Y-26325000D01*
X70723630Y-24325000D02*
X74583630Y-24325000D01*
X70723630Y-26325000D02*
X74583630Y-26325000D01*
%TO.C,R1*%
X53477500Y-39745276D02*
X53477500Y-40254724D01*
X54522500Y-39745276D02*
X54522500Y-40254724D01*
D12*
%TO.C,U2*%
X75525000Y-39273511D02*
X71375000Y-39273511D01*
X75525000Y-34123511D02*
X71375000Y-34123511D01*
D13*
X76190000Y-39528511D02*
X75710000Y-39528511D01*
X75950000Y-39198511D01*
X76190000Y-39528511D01*
G36*
X76190000Y-39528511D02*
G01*
X75710000Y-39528511D01*
X75950000Y-39198511D01*
X76190000Y-39528511D01*
G37*
%TO.C,L2*%
X79890000Y-42673511D02*
X79890000Y-30953511D01*
X82690000Y-42673511D02*
X79890000Y-42673511D01*
X90110000Y-42673511D02*
X87310000Y-42673511D01*
X79890000Y-30953511D02*
X82690000Y-30953511D01*
X87310000Y-30953511D02*
X90110000Y-30953511D01*
X90110000Y-30953511D02*
X90110000Y-42673511D01*
%TO.C,R10*%
X43977500Y-40254724D02*
X43977500Y-39745276D01*
X45022500Y-40254724D02*
X45022500Y-39745276D01*
%TO.C,L1*%
X79823630Y-15465000D02*
X82623630Y-15465000D01*
X79823630Y-27185000D02*
X79823630Y-15465000D01*
X82623630Y-27185000D02*
X79823630Y-27185000D01*
X87243630Y-15465000D02*
X90043630Y-15465000D01*
X90043630Y-15465000D02*
X90043630Y-27185000D01*
X90043630Y-27185000D02*
X87243630Y-27185000D01*
%TO.C,JP2*%
X47700000Y-25050000D02*
X47700000Y-24450000D01*
X48400000Y-23750000D02*
X49800000Y-23750000D01*
X49800000Y-25750000D02*
X48400000Y-25750000D01*
X50500000Y-24450000D02*
X50500000Y-25050000D01*
X47700000Y-24450000D02*
G75*
G02*
X48400000Y-23750000I700000J0D01*
G01*
X48400000Y-25750000D02*
G75*
G02*
X47700000Y-25050000I0J700000D01*
G01*
X49800000Y-23750000D02*
G75*
G02*
X50500000Y-24450000I1J-699999D01*
G01*
X50500000Y-25050000D02*
G75*
G02*
X49800000Y-25750000I-699999J-1D01*
G01*
%TO.C,R22*%
X23477500Y-50762742D02*
X23477500Y-51237258D01*
X24522500Y-50762742D02*
X24522500Y-51237258D01*
%TO.C,JP4*%
X90933630Y-16875000D02*
X90933630Y-16275000D01*
X91633630Y-15575000D02*
X93033630Y-15575000D01*
X93033630Y-17575000D02*
X91633630Y-17575000D01*
X93733630Y-16275000D02*
X93733630Y-16875000D01*
X90933630Y-16275000D02*
G75*
G02*
X91633630Y-15575000I699999J1D01*
G01*
X91633630Y-17575000D02*
G75*
G02*
X90933630Y-16875000I-1J699999D01*
G01*
X93033630Y-15575000D02*
G75*
G02*
X93733630Y-16275000I0J-700000D01*
G01*
X93733630Y-16875000D02*
G75*
G02*
X93033630Y-17575000I-700000J0D01*
G01*
%TO.C,J2*%
X13090000Y-36940000D02*
X13090000Y-51060000D01*
X13090000Y-39500000D02*
X17450000Y-39500000D01*
X13090000Y-51060000D02*
X20910000Y-51060000D01*
X15350000Y-38200000D02*
X13090000Y-38200000D01*
X15350000Y-38700000D02*
X13090000Y-38700000D01*
X17450000Y-39500000D02*
X17450000Y-48500000D01*
X17450000Y-48500000D02*
X13090000Y-48500000D01*
X19310000Y-36940000D02*
X19310000Y-37860000D01*
X19310000Y-37860000D02*
X20910000Y-37860000D01*
X19310000Y-38140000D02*
X19310000Y-37860000D01*
X19310000Y-38140000D02*
X20525000Y-38140000D01*
X19310000Y-50140000D02*
X19310000Y-49860000D01*
X19310000Y-51060000D02*
X19310000Y-50140000D01*
X20910000Y-36940000D02*
X13090000Y-36940000D01*
X20910000Y-37860000D02*
X20910000Y-36940000D01*
X20910000Y-50140000D02*
X19310000Y-50140000D01*
X20910000Y-51060000D02*
X20910000Y-50140000D01*
X16950000Y-37700000D02*
X15350000Y-37700000D01*
X15350000Y-38700000D01*
X16950000Y-38700000D01*
X16950000Y-37700000D01*
X16950000Y-49300000D02*
X15350000Y-49300000D01*
X15350000Y-50300000D01*
X16950000Y-50300000D01*
X16950000Y-49300000D01*
%TO.C,R11*%
X41977500Y-40254724D02*
X41977500Y-39745276D01*
X43022500Y-40254724D02*
X43022500Y-39745276D01*
%TO.C,D2*%
X70790000Y-39813511D02*
X70790000Y-41813511D01*
X70790000Y-39813511D02*
X74650000Y-39813511D01*
X70790000Y-41813511D02*
X74650000Y-41813511D01*
%TO.C,R8*%
X123637258Y-56672500D02*
X123162742Y-56672500D01*
X123637258Y-55627500D02*
X123162742Y-55627500D01*
%TO.C,R17*%
X22477500Y-46487258D02*
X22477500Y-46012742D01*
X23522500Y-46487258D02*
X23522500Y-46012742D01*
%TO.C,R19*%
X31237258Y-53477500D02*
X30762742Y-53477500D01*
X31237258Y-54522500D02*
X30762742Y-54522500D01*
%TO.C,Q1*%
X29240000Y-56440000D02*
X30760000Y-56440000D01*
X29240000Y-56490000D02*
X29240000Y-56440000D01*
X29240000Y-58390000D02*
X29240000Y-57610000D01*
X29240000Y-59560000D02*
X29240000Y-59510000D01*
X30760000Y-56440000D02*
X30760000Y-57440000D01*
X30760000Y-58560000D02*
X30760000Y-59560000D01*
X30760000Y-59560000D02*
X29240000Y-59560000D01*
X28940000Y-57950000D02*
X28460000Y-57950000D01*
X28700000Y-57620000D01*
X28940000Y-57950000D01*
G36*
X28940000Y-57950000D02*
G01*
X28460000Y-57950000D01*
X28700000Y-57620000D01*
X28940000Y-57950000D01*
G37*
%TO.C,R20*%
X33237258Y-50977500D02*
X32762742Y-50977500D01*
X33237258Y-52022500D02*
X32762742Y-52022500D01*
%TO.C,R15*%
X38977500Y-20245276D02*
X38977500Y-20754724D01*
X40022500Y-20245276D02*
X40022500Y-20754724D01*
%TO.C,C8*%
X75765000Y-41824763D02*
X75765000Y-41302259D01*
X77235000Y-41824763D02*
X77235000Y-41302259D01*
%TO.C,C2*%
X48859420Y-28990000D02*
X49140580Y-28990000D01*
X48859420Y-30010000D02*
X49140580Y-30010000D01*
%TO.C,C14*%
X134134420Y-25990000D02*
X134415580Y-25990000D01*
X134134420Y-27010000D02*
X134415580Y-27010000D01*
%TO.C,C9*%
X90773630Y-20729437D02*
X90773630Y-26485000D01*
X90773630Y-26485000D02*
X93123630Y-26485000D01*
X91838067Y-19665000D02*
X90773630Y-20729437D01*
X91838067Y-19665000D02*
X93123630Y-19665000D01*
X96031130Y-18637500D02*
X96031130Y-19425000D01*
X96424880Y-19031250D02*
X95637380Y-19031250D01*
X96529193Y-19665000D02*
X95243630Y-19665000D01*
X96529193Y-19665000D02*
X97593630Y-20729437D01*
X97593630Y-20729437D02*
X97593630Y-26485000D01*
X97593630Y-26485000D02*
X95243630Y-26485000D01*
%TO.C,C11*%
X128915580Y-27490000D02*
X128634420Y-27490000D01*
X128915580Y-28510000D02*
X128634420Y-28510000D01*
%TO.C,R5*%
X77727500Y-37300769D02*
X77727500Y-36826253D01*
X78772500Y-37300769D02*
X78772500Y-36826253D01*
%TO.C,JP1*%
X47700000Y-22550000D02*
X47700000Y-21950000D01*
X48400000Y-21250000D02*
X49800000Y-21250000D01*
X49800000Y-23250000D02*
X48400000Y-23250000D01*
X50500000Y-21950000D02*
X50500000Y-22550000D01*
X47700000Y-21950000D02*
G75*
G02*
X48400000Y-21250000I700000J0D01*
G01*
X48400000Y-23250000D02*
G75*
G02*
X47700000Y-22550000I0J700000D01*
G01*
X49800000Y-21250000D02*
G75*
G02*
X50500000Y-21950000I1J-699999D01*
G01*
X50500000Y-22550000D02*
G75*
G02*
X49800000Y-23250000I-699999J-1D01*
G01*
%TO.C,R7*%
X77727500Y-34050769D02*
X77727500Y-33576253D01*
X78772500Y-34050769D02*
X78772500Y-33576253D01*
%TO.C,C10*%
X96097500Y-34126011D02*
X96097500Y-34913511D01*
X96491250Y-34519761D02*
X95703750Y-34519761D01*
X96595563Y-35153511D02*
X95310000Y-35153511D01*
X96595563Y-35153511D02*
X97660000Y-36217948D01*
X91904437Y-35153511D02*
X93190000Y-35153511D01*
X91904437Y-35153511D02*
X90840000Y-36217948D01*
X97660000Y-36217948D02*
X97660000Y-41973511D01*
X90840000Y-36217948D02*
X90840000Y-41973511D01*
X97660000Y-41973511D02*
X95310000Y-41973511D01*
X90840000Y-41973511D02*
X93190000Y-41973511D01*
%TO.C,U3*%
X41627500Y-27390000D02*
X42102500Y-27390000D01*
X41627500Y-27865000D02*
X41627500Y-27390000D01*
X41627500Y-31610000D02*
X41627500Y-31135000D01*
X42102500Y-31610000D02*
X41627500Y-31610000D01*
X45372500Y-27390000D02*
X45847500Y-27390000D01*
X45847500Y-27390000D02*
X45847500Y-27865000D01*
X45847500Y-31135000D02*
X45847500Y-31610000D01*
X45847500Y-31610000D02*
X45372500Y-31610000D01*
X44987500Y-26860000D02*
X44747500Y-26530000D01*
X45227500Y-26530000D01*
X44987500Y-26860000D01*
G36*
X44987500Y-26860000D02*
G01*
X44747500Y-26530000D01*
X45227500Y-26530000D01*
X44987500Y-26860000D01*
G37*
%TO.C,J5*%
X38440000Y-44750000D02*
X39050000Y-44750000D01*
X38440000Y-46050000D02*
X39050000Y-46050000D01*
X39050000Y-43250000D02*
X39050000Y-46750000D01*
X39050000Y-46750000D02*
X41000000Y-46750000D01*
X41000000Y-46750000D02*
X41000000Y-47360000D01*
X41400000Y-43750000D02*
X41400000Y-43250000D01*
X41500000Y-43250000D02*
X41500000Y-43750000D01*
X41600000Y-43250000D02*
X41600000Y-43750000D01*
X41600000Y-43750000D02*
X41400000Y-43750000D01*
X43400000Y-43750000D02*
X43400000Y-43250000D01*
X43500000Y-43250000D02*
X43500000Y-43750000D01*
X43600000Y-43250000D02*
X43600000Y-43750000D01*
X43600000Y-43750000D02*
X43400000Y-43750000D01*
X45400000Y-43750000D02*
X45400000Y-43250000D01*
X45500000Y-43250000D02*
X45500000Y-43750000D01*
X45600000Y-43250000D02*
X45600000Y-43750000D01*
X45600000Y-43750000D02*
X45400000Y-43750000D01*
X46000000Y-46750000D02*
X47950000Y-46750000D01*
X46000000Y-47360000D02*
X46000000Y-46750000D01*
X46800000Y-47360000D02*
X46800000Y-47560000D01*
X46800000Y-47460000D02*
X47100000Y-47460000D01*
X46800000Y-47560000D02*
X47100000Y-47560000D01*
X47100000Y-47560000D02*
X47100000Y-47360000D01*
X47610000Y-47660000D02*
X48860000Y-47660000D01*
X47950000Y-43250000D02*
X39050000Y-43250000D01*
X47950000Y-46750000D02*
X47950000Y-43250000D01*
X48560000Y-44750000D02*
X47950000Y-44750000D01*
X48560000Y-46050000D02*
X47950000Y-46050000D01*
X48860000Y-47660000D02*
X48860000Y-46410000D01*
X48560000Y-47360000D02*
X38440000Y-47360000D01*
X38440000Y-42640000D01*
X48560000Y-42640000D01*
X48560000Y-47360000D01*
%TO.C,J7*%
X33140000Y-12840000D02*
X33140000Y-14090000D01*
X33440000Y-14450000D02*
X34050000Y-14450000D01*
X33440000Y-15750000D02*
X34050000Y-15750000D01*
X34050000Y-13750000D02*
X34050000Y-17250000D01*
X34050000Y-17250000D02*
X42950000Y-17250000D01*
X34390000Y-12840000D02*
X33140000Y-12840000D01*
X34900000Y-12940000D02*
X34900000Y-13140000D01*
X35200000Y-12940000D02*
X34900000Y-12940000D01*
X35200000Y-13040000D02*
X34900000Y-13040000D01*
X35200000Y-13140000D02*
X35200000Y-12940000D01*
X36000000Y-13140000D02*
X36000000Y-13750000D01*
X36000000Y-13750000D02*
X34050000Y-13750000D01*
X36400000Y-16750000D02*
X36600000Y-16750000D01*
X36400000Y-17250000D02*
X36400000Y-16750000D01*
X36500000Y-17250000D02*
X36500000Y-16750000D01*
X36600000Y-16750000D02*
X36600000Y-17250000D01*
X38400000Y-16750000D02*
X38600000Y-16750000D01*
X38400000Y-17250000D02*
X38400000Y-16750000D01*
X38500000Y-17250000D02*
X38500000Y-16750000D01*
X38600000Y-16750000D02*
X38600000Y-17250000D01*
X40400000Y-16750000D02*
X40600000Y-16750000D01*
X40400000Y-17250000D02*
X40400000Y-16750000D01*
X40500000Y-17250000D02*
X40500000Y-16750000D01*
X40600000Y-16750000D02*
X40600000Y-17250000D01*
X41000000Y-13750000D02*
X41000000Y-13140000D01*
X42950000Y-13750000D02*
X41000000Y-13750000D01*
X42950000Y-17250000D02*
X42950000Y-13750000D01*
X43560000Y-14450000D02*
X42950000Y-14450000D01*
X43560000Y-15750000D02*
X42950000Y-15750000D01*
X33440000Y-13140000D02*
X43560000Y-13140000D01*
X43560000Y-17860000D01*
X33440000Y-17860000D01*
X33440000Y-13140000D01*
%TO.C,C7*%
X75698630Y-26336252D02*
X75698630Y-25813748D01*
X77168630Y-26336252D02*
X77168630Y-25813748D01*
%TO.C,U4*%
X125500000Y-29500000D02*
X125500000Y-30300000D01*
X125500000Y-43100000D02*
X125500000Y-42300000D01*
X125700000Y-29700000D02*
X142300000Y-29700000D01*
X125700000Y-42900000D02*
X125700000Y-29700000D01*
X126300000Y-29500000D02*
X125500000Y-29500000D01*
X126300000Y-43100000D02*
X125500000Y-43100000D01*
X136900000Y-29700000D02*
X136900000Y-42900000D01*
X142300000Y-29700000D02*
X142300000Y-42900000D01*
X142300000Y-42900000D02*
X125700000Y-42900000D01*
X142500000Y-30375000D02*
X142500000Y-29525000D01*
X142500000Y-42350000D02*
X142500000Y-43100000D01*
X142500000Y-43100000D02*
X141900000Y-43100000D01*
%TO.C,R14*%
X36977500Y-20245276D02*
X36977500Y-20754724D01*
X38022500Y-20245276D02*
X38022500Y-20754724D01*
%TO.C,R9*%
X45977500Y-40254724D02*
X45977500Y-39745276D01*
X47022500Y-40254724D02*
X47022500Y-39745276D01*
%TO.C,R3*%
X123737258Y-48522500D02*
X123262742Y-48522500D01*
X123737258Y-47477500D02*
X123262742Y-47477500D01*
%TO.C,C13*%
X134109420Y-24240000D02*
X134390580Y-24240000D01*
X134109420Y-25260000D02*
X134390580Y-25260000D01*
%TO.C,JP3*%
X46600000Y-32800000D02*
X46600000Y-32200000D01*
X47300000Y-31500000D02*
X48700000Y-31500000D01*
X48700000Y-33500000D02*
X47300000Y-33500000D01*
X49400000Y-32200000D02*
X49400000Y-32800000D01*
X46600000Y-32200000D02*
G75*
G02*
X47300000Y-31500000I700000J0D01*
G01*
X47300000Y-33500000D02*
G75*
G02*
X46600000Y-32800000I0J700000D01*
G01*
X48700000Y-31500000D02*
G75*
G02*
X49400000Y-32200000I1J-699999D01*
G01*
X49400000Y-32800000D02*
G75*
G02*
X48700000Y-33500000I-699999J-1D01*
G01*
%TO.C,R21*%
X27245276Y-53477500D02*
X27754724Y-53477500D01*
X27245276Y-54522500D02*
X27754724Y-54522500D01*
%TO.C,F1*%
X22388748Y-32290000D02*
X25161252Y-32290000D01*
X22388748Y-35710000D02*
X25161252Y-35710000D01*
%TO.C,C3*%
X67448630Y-21336252D02*
X67448630Y-20813748D01*
X68918630Y-21336252D02*
X68918630Y-20813748D01*
%TO.C,R4*%
X77661130Y-21812258D02*
X77661130Y-21337742D01*
X78706130Y-21812258D02*
X78706130Y-21337742D01*
%TO.C,C12*%
X128890580Y-23990000D02*
X128609420Y-23990000D01*
X128890580Y-25010000D02*
X128609420Y-25010000D01*
%TO.C,J3*%
X45140000Y-12840000D02*
X45140000Y-14090000D01*
X45440000Y-14450000D02*
X46050000Y-14450000D01*
X45440000Y-15750000D02*
X46050000Y-15750000D01*
X46050000Y-13750000D02*
X46050000Y-17250000D01*
X46050000Y-17250000D02*
X50950000Y-17250000D01*
X46390000Y-12840000D02*
X45140000Y-12840000D01*
X46900000Y-12940000D02*
X46900000Y-13140000D01*
X47200000Y-12940000D02*
X46900000Y-12940000D01*
X47200000Y-13040000D02*
X46900000Y-13040000D01*
X47200000Y-13140000D02*
X47200000Y-12940000D01*
X48000000Y-13140000D02*
X48000000Y-13750000D01*
X48000000Y-13750000D02*
X46050000Y-13750000D01*
X48400000Y-16750000D02*
X48600000Y-16750000D01*
X48400000Y-17250000D02*
X48400000Y-16750000D01*
X48500000Y-17250000D02*
X48500000Y-16750000D01*
X48600000Y-16750000D02*
X48600000Y-17250000D01*
X49000000Y-13750000D02*
X49000000Y-13140000D01*
X50950000Y-13750000D02*
X49000000Y-13750000D01*
X50950000Y-17250000D02*
X50950000Y-13750000D01*
X51560000Y-14450000D02*
X50950000Y-14450000D01*
X51560000Y-15750000D02*
X50950000Y-15750000D01*
X45440000Y-13140000D02*
X51560000Y-13140000D01*
X51560000Y-17860000D01*
X45440000Y-17860000D01*
X45440000Y-13140000D01*
%TO.C,C1*%
X28150000Y-33490000D02*
X29400000Y-33490000D01*
X28775000Y-32865000D02*
X28775000Y-34115000D01*
X29640000Y-31954437D02*
X29640000Y-34740000D01*
X29640000Y-31954437D02*
X30704437Y-30890000D01*
X29640000Y-40545563D02*
X29640000Y-37760000D01*
X29640000Y-40545563D02*
X30704437Y-41610000D01*
X30704437Y-30890000D02*
X40360000Y-30890000D01*
X30704437Y-41610000D02*
X40360000Y-41610000D01*
X40360000Y-30890000D02*
X40360000Y-34740000D01*
X40360000Y-41610000D02*
X40360000Y-37760000D01*
%TO.C,JP5*%
X91000000Y-32363511D02*
X91000000Y-31763511D01*
X91700000Y-31063511D02*
X93100000Y-31063511D01*
X93100000Y-33063511D02*
X91700000Y-33063511D01*
X93800000Y-31763511D02*
X93800000Y-32363511D01*
X91000000Y-31763511D02*
G75*
G02*
X91700000Y-31063511I699999J1D01*
G01*
X91700000Y-33063511D02*
G75*
G02*
X91000000Y-32363511I-1J699999D01*
G01*
X93100000Y-31063511D02*
G75*
G02*
X93800000Y-31763511I0J-700000D01*
G01*
X93800000Y-32363511D02*
G75*
G02*
X93100000Y-33063511I-700000J0D01*
G01*
%TO.C,C6*%
X67515000Y-36824763D02*
X67515000Y-36302259D01*
X68985000Y-36824763D02*
X68985000Y-36302259D01*
%TO.C,J8*%
X24940000Y-44750000D02*
X25550000Y-44750000D01*
X24940000Y-46050000D02*
X25550000Y-46050000D01*
X25550000Y-43250000D02*
X25550000Y-46750000D01*
X25550000Y-46750000D02*
X27500000Y-46750000D01*
X27500000Y-46750000D02*
X27500000Y-47360000D01*
X27900000Y-43750000D02*
X27900000Y-43250000D01*
X28000000Y-43250000D02*
X28000000Y-43750000D01*
X28100000Y-43250000D02*
X28100000Y-43750000D01*
X28100000Y-43750000D02*
X27900000Y-43750000D01*
X29900000Y-43750000D02*
X29900000Y-43250000D01*
X30000000Y-43250000D02*
X30000000Y-43750000D01*
X30100000Y-43250000D02*
X30100000Y-43750000D01*
X30100000Y-43750000D02*
X29900000Y-43750000D01*
X31900000Y-43750000D02*
X31900000Y-43250000D01*
X32000000Y-43250000D02*
X32000000Y-43750000D01*
X32100000Y-43250000D02*
X32100000Y-43750000D01*
X32100000Y-43750000D02*
X31900000Y-43750000D01*
X33900000Y-43750000D02*
X33900000Y-43250000D01*
X34000000Y-43250000D02*
X34000000Y-43750000D01*
X34100000Y-43250000D02*
X34100000Y-43750000D01*
X34100000Y-43750000D02*
X33900000Y-43750000D01*
X34500000Y-46750000D02*
X36450000Y-46750000D01*
X34500000Y-47360000D02*
X34500000Y-46750000D01*
X35300000Y-47360000D02*
X35300000Y-47560000D01*
X35300000Y-47460000D02*
X35600000Y-47460000D01*
X35300000Y-47560000D02*
X35600000Y-47560000D01*
X35600000Y-47560000D02*
X35600000Y-47360000D01*
X36110000Y-47660000D02*
X37360000Y-47660000D01*
X36450000Y-43250000D02*
X25550000Y-43250000D01*
X36450000Y-46750000D02*
X36450000Y-43250000D01*
X37060000Y-44750000D02*
X36450000Y-44750000D01*
X37060000Y-46050000D02*
X36450000Y-46050000D01*
X37360000Y-47660000D02*
X37360000Y-46410000D01*
X37060000Y-47360000D02*
X24940000Y-47360000D01*
X24940000Y-42640000D01*
X37060000Y-42640000D01*
X37060000Y-47360000D01*
%TD*%
M02*
